<?xml version="1.0" encoding="utf-8" standalone="no"?>
<!DOCTYPE svg PUBLIC "-//W3C//DTD SVG 1.1//EN"
  "http://www.w3.org/Graphics/SVG/1.1/DTD/svg11.dtd">
<svg xmlns:xlink="http://www.w3.org/1999/xlink" width="141.732283pt" height="113.385827pt" viewBox="0 0 141.732283 113.385827" xmlns="http://www.w3.org/2000/svg" version="1.1">
 <metadata>
  <rdf:RDF xmlns:dc="http://purl.org/dc/elements/1.1/" xmlns:cc="http://creativecommons.org/ns#" xmlns:rdf="http://www.w3.org/1999/02/22-rdf-syntax-ns#">
   <cc:Work>
    <dc:type rdf:resource="http://purl.org/dc/dcmitype/StillImage"/>
    <dc:date>2026-01-16T00:27:52.484802</dc:date>
    <dc:format>image/svg+xml</dc:format>
    <dc:creator>
     <cc:Agent>
      <dc:title>Matplotlib v3.10.7, https://matplotlib.org/</dc:title>
     </cc:Agent>
    </dc:creator>
   </cc:Work>
  </rdf:RDF>
 </metadata>
 <defs>
  <style type="text/css">*{stroke-linejoin: round; stroke-linecap: butt}</style>
 </defs>
 <g id="figure_1">
  <g id="patch_1">
   <path d="M 0 113.385827 
L 141.732283 113.385827 
L 141.732283 0 
L 0 0 
z
" style="fill: #ffffff"/>
  </g>
  <g id="axes_1">
   <g id="patch_2">
    <path d="M 17.716535 100.913386 
L 127.559055 100.913386 
L 127.559055 75.234831 
L 17.716535 75.234831 
z
" style="fill: #ffffff"/>
   </g>
   <g id="matplotlib.axis_1">
    <g id="xtick_1">
     <g id="line2d_1">
      <defs>
       <path id="mb20afeb74e" d="M 0 0 
L 0 3.5 
" style="stroke: #000000; stroke-width: 0.8"/>
      </defs>
      <g>
       <use xlink:href="#mb20afeb74e" x="17.716535" y="100.913386" style="stroke: #000000; stroke-width: 0.8"/>
      </g>
     </g>
     <g id="text_1">
      <!-- 0 -->
      <g transform="translate(15.770207 112.923855) scale(0.07 -0.07)">
       <defs>
        <path id="ArialMT-30" d="M 266 2259 
Q 266 3072 433 3567 
Q 600 4063 929 4331 
Q 1259 4600 1759 4600 
Q 2128 4600 2406 4451 
Q 2684 4303 2865 4023 
Q 3047 3744 3150 3342 
Q 3253 2941 3253 2259 
Q 3253 1453 3087 958 
Q 2922 463 2592 192 
Q 2263 -78 1759 -78 
Q 1097 -78 719 397 
Q 266 969 266 2259 
z
M 844 2259 
Q 844 1131 1108 757 
Q 1372 384 1759 384 
Q 2147 384 2411 759 
Q 2675 1134 2675 2259 
Q 2675 3391 2411 3762 
Q 2147 4134 1753 4134 
Q 1366 4134 1134 3806 
Q 844 3388 844 2259 
z
" transform="scale(0.015625)"/>
       </defs>
       <use xlink:href="#ArialMT-30"/>
      </g>
     </g>
    </g>
    <g id="xtick_2">
     <g id="line2d_2">
      <g>
       <use xlink:href="#mb20afeb74e" x="45.177165" y="100.913386" style="stroke: #000000; stroke-width: 0.8"/>
      </g>
     </g>
     <g id="text_2">
      <!-- 200 -->
      <g transform="translate(39.338181 112.923855) scale(0.07 -0.07)">
       <defs>
        <path id="ArialMT-32" d="M 3222 541 
L 3222 0 
L 194 0 
Q 188 203 259 391 
Q 375 700 629 1000 
Q 884 1300 1366 1694 
Q 2113 2306 2375 2664 
Q 2638 3022 2638 3341 
Q 2638 3675 2398 3904 
Q 2159 4134 1775 4134 
Q 1369 4134 1125 3890 
Q 881 3647 878 3216 
L 300 3275 
Q 359 3922 746 4261 
Q 1134 4600 1788 4600 
Q 2447 4600 2831 4234 
Q 3216 3869 3216 3328 
Q 3216 3053 3103 2787 
Q 2991 2522 2730 2228 
Q 2469 1934 1863 1422 
Q 1356 997 1212 845 
Q 1069 694 975 541 
L 3222 541 
z
" transform="scale(0.015625)"/>
       </defs>
       <use xlink:href="#ArialMT-32"/>
       <use xlink:href="#ArialMT-30" transform="translate(55.615234 0)"/>
       <use xlink:href="#ArialMT-30" transform="translate(111.230469 0)"/>
      </g>
     </g>
    </g>
    <g id="xtick_3">
     <g id="line2d_3">
      <g>
       <use xlink:href="#mb20afeb74e" x="72.637795" y="100.913386" style="stroke: #000000; stroke-width: 0.8"/>
      </g>
     </g>
     <g id="text_3">
      <!-- 400 -->
      <g transform="translate(66.798811 112.923855) scale(0.07 -0.07)">
       <defs>
        <path id="ArialMT-34" d="M 2069 0 
L 2069 1097 
L 81 1097 
L 81 1613 
L 2172 4581 
L 2631 4581 
L 2631 1613 
L 3250 1613 
L 3250 1097 
L 2631 1097 
L 2631 0 
L 2069 0 
z
M 2069 1613 
L 2069 3678 
L 634 1613 
L 2069 1613 
z
" transform="scale(0.015625)"/>
       </defs>
       <use xlink:href="#ArialMT-34"/>
       <use xlink:href="#ArialMT-30" transform="translate(55.615234 0)"/>
       <use xlink:href="#ArialMT-30" transform="translate(111.230469 0)"/>
      </g>
     </g>
    </g>
    <g id="xtick_4">
     <g id="line2d_4">
      <g>
       <use xlink:href="#mb20afeb74e" x="100.098425" y="100.913386" style="stroke: #000000; stroke-width: 0.8"/>
      </g>
     </g>
     <g id="text_4">
      <!-- 600 -->
      <g transform="translate(94.259441 112.923855) scale(0.07 -0.07)">
       <defs>
        <path id="ArialMT-36" d="M 3184 3459 
L 2625 3416 
Q 2550 3747 2413 3897 
Q 2184 4138 1850 4138 
Q 1581 4138 1378 3988 
Q 1113 3794 959 3422 
Q 806 3050 800 2363 
Q 1003 2672 1297 2822 
Q 1591 2972 1913 2972 
Q 2475 2972 2870 2558 
Q 3266 2144 3266 1488 
Q 3266 1056 3080 686 
Q 2894 316 2569 119 
Q 2244 -78 1831 -78 
Q 1128 -78 684 439 
Q 241 956 241 2144 
Q 241 3472 731 4075 
Q 1159 4600 1884 4600 
Q 2425 4600 2770 4297 
Q 3116 3994 3184 3459 
z
M 888 1484 
Q 888 1194 1011 928 
Q 1134 663 1356 523 
Q 1578 384 1822 384 
Q 2178 384 2434 671 
Q 2691 959 2691 1453 
Q 2691 1928 2437 2201 
Q 2184 2475 1800 2475 
Q 1419 2475 1153 2201 
Q 888 1928 888 1484 
z
" transform="scale(0.015625)"/>
       </defs>
       <use xlink:href="#ArialMT-36"/>
       <use xlink:href="#ArialMT-30" transform="translate(55.615234 0)"/>
       <use xlink:href="#ArialMT-30" transform="translate(111.230469 0)"/>
      </g>
     </g>
    </g>
    <g id="xtick_5">
     <g id="line2d_5">
      <g>
       <use xlink:href="#mb20afeb74e" x="127.559055" y="100.913386" style="stroke: #000000; stroke-width: 0.8"/>
      </g>
     </g>
     <g id="text_5">
      <!-- 800 -->
      <g transform="translate(121.720071 112.923855) scale(0.07 -0.07)">
       <defs>
        <path id="ArialMT-38" d="M 1131 2484 
Q 781 2613 612 2850 
Q 444 3088 444 3419 
Q 444 3919 803 4259 
Q 1163 4600 1759 4600 
Q 2359 4600 2725 4251 
Q 3091 3903 3091 3403 
Q 3091 3084 2923 2848 
Q 2756 2613 2416 2484 
Q 2838 2347 3058 2040 
Q 3278 1734 3278 1309 
Q 3278 722 2862 322 
Q 2447 -78 1769 -78 
Q 1091 -78 675 323 
Q 259 725 259 1325 
Q 259 1772 486 2073 
Q 713 2375 1131 2484 
z
M 1019 3438 
Q 1019 3113 1228 2906 
Q 1438 2700 1772 2700 
Q 2097 2700 2305 2904 
Q 2513 3109 2513 3406 
Q 2513 3716 2298 3927 
Q 2084 4138 1766 4138 
Q 1444 4138 1231 3931 
Q 1019 3725 1019 3438 
z
M 838 1322 
Q 838 1081 952 856 
Q 1066 631 1291 507 
Q 1516 384 1775 384 
Q 2178 384 2440 643 
Q 2703 903 2703 1303 
Q 2703 1709 2433 1975 
Q 2163 2241 1756 2241 
Q 1359 2241 1098 1978 
Q 838 1716 838 1322 
z
" transform="scale(0.015625)"/>
       </defs>
       <use xlink:href="#ArialMT-38"/>
       <use xlink:href="#ArialMT-30" transform="translate(55.615234 0)"/>
       <use xlink:href="#ArialMT-30" transform="translate(111.230469 0)"/>
      </g>
     </g>
    </g>
    <g id="text_6">
     <!-- time (a.u.) -->
     <g transform="translate(50.13467 136.594792) scale(0.1 -0.1)">
      <defs>
       <path id="ArialMT-74" d="M 1650 503 
L 1731 6 
Q 1494 -44 1306 -44 
Q 1000 -44 831 53 
Q 663 150 594 308 
Q 525 466 525 972 
L 525 2881 
L 113 2881 
L 113 3319 
L 525 3319 
L 525 4141 
L 1084 4478 
L 1084 3319 
L 1650 3319 
L 1650 2881 
L 1084 2881 
L 1084 941 
Q 1084 700 1114 631 
Q 1144 563 1211 522 
Q 1278 481 1403 481 
Q 1497 481 1650 503 
z
" transform="scale(0.015625)"/>
       <path id="ArialMT-69" d="M 425 3934 
L 425 4581 
L 988 4581 
L 988 3934 
L 425 3934 
z
M 425 0 
L 425 3319 
L 988 3319 
L 988 0 
L 425 0 
z
" transform="scale(0.015625)"/>
       <path id="ArialMT-6d" d="M 422 0 
L 422 3319 
L 925 3319 
L 925 2853 
Q 1081 3097 1340 3245 
Q 1600 3394 1931 3394 
Q 2300 3394 2536 3241 
Q 2772 3088 2869 2813 
Q 3263 3394 3894 3394 
Q 4388 3394 4653 3120 
Q 4919 2847 4919 2278 
L 4919 0 
L 4359 0 
L 4359 2091 
Q 4359 2428 4304 2576 
Q 4250 2725 4106 2815 
Q 3963 2906 3769 2906 
Q 3419 2906 3187 2673 
Q 2956 2441 2956 1928 
L 2956 0 
L 2394 0 
L 2394 2156 
Q 2394 2531 2256 2718 
Q 2119 2906 1806 2906 
Q 1569 2906 1367 2781 
Q 1166 2656 1075 2415 
Q 984 2175 984 1722 
L 984 0 
L 422 0 
z
" transform="scale(0.015625)"/>
       <path id="ArialMT-65" d="M 2694 1069 
L 3275 997 
Q 3138 488 2766 206 
Q 2394 -75 1816 -75 
Q 1088 -75 661 373 
Q 234 822 234 1631 
Q 234 2469 665 2931 
Q 1097 3394 1784 3394 
Q 2450 3394 2872 2941 
Q 3294 2488 3294 1666 
Q 3294 1616 3291 1516 
L 816 1516 
Q 847 969 1125 678 
Q 1403 388 1819 388 
Q 2128 388 2347 550 
Q 2566 713 2694 1069 
z
M 847 1978 
L 2700 1978 
Q 2663 2397 2488 2606 
Q 2219 2931 1791 2931 
Q 1403 2931 1139 2672 
Q 875 2413 847 1978 
z
" transform="scale(0.015625)"/>
       <path id="ArialMT-20" transform="scale(0.015625)"/>
       <path id="ArialMT-28" d="M 1497 -1347 
Q 1031 -759 709 28 
Q 388 816 388 1659 
Q 388 2403 628 3084 
Q 909 3875 1497 4659 
L 1900 4659 
Q 1522 4009 1400 3731 
Q 1209 3300 1100 2831 
Q 966 2247 966 1656 
Q 966 153 1900 -1347 
L 1497 -1347 
z
" transform="scale(0.015625)"/>
       <path id="ArialMT-61" d="M 2588 409 
Q 2275 144 1986 34 
Q 1697 -75 1366 -75 
Q 819 -75 525 192 
Q 231 459 231 875 
Q 231 1119 342 1320 
Q 453 1522 633 1644 
Q 813 1766 1038 1828 
Q 1203 1872 1538 1913 
Q 2219 1994 2541 2106 
Q 2544 2222 2544 2253 
Q 2544 2597 2384 2738 
Q 2169 2928 1744 2928 
Q 1347 2928 1158 2789 
Q 969 2650 878 2297 
L 328 2372 
Q 403 2725 575 2942 
Q 747 3159 1072 3276 
Q 1397 3394 1825 3394 
Q 2250 3394 2515 3294 
Q 2781 3194 2906 3042 
Q 3031 2891 3081 2659 
Q 3109 2516 3109 2141 
L 3109 1391 
Q 3109 606 3145 398 
Q 3181 191 3288 0 
L 2700 0 
Q 2613 175 2588 409 
z
M 2541 1666 
Q 2234 1541 1622 1453 
Q 1275 1403 1131 1340 
Q 988 1278 909 1158 
Q 831 1038 831 891 
Q 831 666 1001 516 
Q 1172 366 1500 366 
Q 1825 366 2078 508 
Q 2331 650 2450 897 
Q 2541 1088 2541 1459 
L 2541 1666 
z
" transform="scale(0.015625)"/>
       <path id="ArialMT-2e" d="M 581 0 
L 581 641 
L 1222 641 
L 1222 0 
L 581 0 
z
" transform="scale(0.015625)"/>
       <path id="ArialMT-75" d="M 2597 0 
L 2597 488 
Q 2209 -75 1544 -75 
Q 1250 -75 995 37 
Q 741 150 617 320 
Q 494 491 444 738 
Q 409 903 409 1263 
L 409 3319 
L 972 3319 
L 972 1478 
Q 972 1038 1006 884 
Q 1059 663 1231 536 
Q 1403 409 1656 409 
Q 1909 409 2131 539 
Q 2353 669 2445 892 
Q 2538 1116 2538 1541 
L 2538 3319 
L 3100 3319 
L 3100 0 
L 2597 0 
z
" transform="scale(0.015625)"/>
       <path id="ArialMT-29" d="M 791 -1347 
L 388 -1347 
Q 1322 153 1322 1656 
Q 1322 2244 1188 2822 
Q 1081 3291 891 3722 
Q 769 4003 388 4659 
L 791 4659 
Q 1378 3875 1659 3084 
Q 1900 2403 1900 1659 
Q 1900 816 1576 28 
Q 1253 -759 791 -1347 
z
" transform="scale(0.015625)"/>
      </defs>
      <use xlink:href="#ArialMT-74"/>
      <use xlink:href="#ArialMT-69" transform="translate(27.783203 0)"/>
      <use xlink:href="#ArialMT-6d" transform="translate(50 0)"/>
      <use xlink:href="#ArialMT-65" transform="translate(133.300781 0)"/>
      <use xlink:href="#ArialMT-20" transform="translate(188.916016 0)"/>
      <use xlink:href="#ArialMT-28" transform="translate(216.699219 0)"/>
      <use xlink:href="#ArialMT-61" transform="translate(250 0)"/>
      <use xlink:href="#ArialMT-2e" transform="translate(305.615234 0)"/>
      <use xlink:href="#ArialMT-75" transform="translate(333.398438 0)"/>
      <use xlink:href="#ArialMT-2e" transform="translate(389.013672 0)"/>
      <use xlink:href="#ArialMT-29" transform="translate(416.796875 0)"/>
     </g>
    </g>
   </g>
   <g id="matplotlib.axis_2">
    <g id="ytick_1">
     <g id="line2d_6">
      <defs>
       <path id="m3eedbf41a6" d="M 0 0 
L -3.5 0 
" style="stroke: #000000; stroke-width: 0.8"/>
      </defs>
      <g>
       <use xlink:href="#m3eedbf41a6" x="17.716535" y="99.886244" style="stroke: #000000; stroke-width: 0.8"/>
      </g>
     </g>
     <g id="text_7">
      <!-- 0 -->
      <g transform="translate(6.823879 102.391478) scale(0.07 -0.07)">
       <use xlink:href="#ArialMT-30"/>
      </g>
     </g>
    </g>
    <g id="ytick_2">
     <g id="line2d_7">
      <g>
       <use xlink:href="#m3eedbf41a6" x="17.716535" y="79.3434" style="stroke: #000000; stroke-width: 0.8"/>
      </g>
     </g>
     <g id="text_8">
      <!-- 1 -->
      <g transform="translate(6.823879 81.848634) scale(0.07 -0.07)">
       <defs>
        <path id="ArialMT-31" d="M 2384 0 
L 1822 0 
L 1822 3584 
Q 1619 3391 1289 3197 
Q 959 3003 697 2906 
L 697 3450 
Q 1169 3672 1522 3987 
Q 1875 4303 2022 4600 
L 2384 4600 
L 2384 0 
z
" transform="scale(0.015625)"/>
       </defs>
       <use xlink:href="#ArialMT-31"/>
      </g>
     </g>
    </g>
   </g>
   <g id="line2d_8">
    <path d="M 17.716535 95.29921 
L 18.10108 87.245812 
L 18.43069 82.73278 
L 18.705365 81.617042 
L 18.98004 81.34875 
L 19.364585 81.340888 
L 22.770555 81.742047 
L 28.236587 82.234097 
L 29.252884 82.551985 
L 29.802234 82.9511 
L 30.159311 83.495581 
L 30.461454 84.417184 
L 31.285479 87.404578 
L 31.752426 88.052407 
L 32.384179 88.536402 
L 33.290606 88.926565 
L 34.746383 89.28532 
L 38.207288 89.837704 
L 40.37722 90.305335 
L 41.420985 90.742354 
L 42.052738 91.230862 
L 42.519685 91.882674 
L 42.876762 92.794153 
L 43.178905 94.234575 
L 43.508515 97.107962 
L 43.838125 99.408369 
L 44.085332 99.791744 
L 44.305072 99.767542 
L 44.469877 99.47404 
L 44.66215 98.478309 
L 44.909357 95.564922 
L 45.184032 89.053331 
L 45.54111 81.802367 
L 45.815785 80.143374 
L 46.09046 79.711443 
L 46.447537 79.615025 
L 48.040652 79.672546 
L 58.231093 80.049998 
L 58.643106 80.372713 
L 59.439663 81.038467 
L 60.208753 81.332184 
L 61.527193 81.563908 
L 64.466215 81.804504 
L 68.778612 82.192592 
L 69.904779 82.500508 
L 70.481597 82.867558 
L 70.866142 83.381937 
L 71.168284 84.198382 
L 72.184582 87.636461 
L 72.706464 88.23029 
L 73.393151 88.665751 
L 74.436916 89.041232 
L 76.194836 89.408103 
L 81.386193 90.385843 
L 82.320088 90.825768 
L 82.924373 91.350761 
L 83.363853 92.045409 
L 83.693463 92.989771 
L 83.995605 94.603115 
L 84.792163 99.754777 
L 85.011903 99.807336 
L 85.176708 99.633245 
L 85.341513 99.074799 
L 85.561253 97.240896 
L 85.80846 93.025931 
L 86.385277 81.149603 
L 86.659952 79.9657 
L 86.934627 79.670969 
L 87.34664 79.613828 
L 98.635781 79.929496 
L 99.185131 80.162881 
L 100.778246 81.274097 
L 101.931881 81.51568 
L 104.294085 81.741251 
L 109.787585 82.237365 
L 110.776415 82.546445 
L 111.325765 82.939051 
L 111.682842 83.471522 
L 111.984984 84.371203 
L 112.836477 87.434673 
L 113.330892 88.09625 
L 113.962644 88.561102 
L 114.896539 88.949425 
L 116.407251 89.309263 
L 122.642373 90.579991 
L 123.383996 91.040935 
L 123.905878 91.631014 
L 124.290423 92.420494 
L 124.592565 93.546242 
L 124.894708 95.648739 
L 125.41659 99.529377 
L 125.663798 99.810159 
L 125.85607 99.762286 
L 126.020875 99.452509 
L 126.213148 98.421808 
L 126.460355 95.445696 
L 126.73503 88.849931 
L 127.092108 81.728306 
L 127.366783 80.122841 
L 127.559055 79.775888 
L 127.559055 79.775888 
" clip-path="url(#p237a62c15a)" style="fill: none; stroke: #1f77b4; stroke-width: 1.5; stroke-linecap: square"/>
   </g>
   <g id="line2d_9">
    <path d="M 17.716535 89.138981 
L 17.936275 89.926978 
L 18.21095 90.128394 
L 20.07874 90.870553 
L 20.655558 91.398567 
L 21.06757 92.072099 
L 21.39718 93.037559 
L 21.699322 94.694561 
L 22.468412 99.744075 
L 22.743087 99.866511 
L 23.759385 99.886236 
L 127.559055 99.886244 
L 127.559055 99.886244 
" clip-path="url(#p237a62c15a)" style="fill: none; stroke: #ff7f0e; stroke-width: 1.5; stroke-linecap: square"/>
   </g>
   <g id="line2d_10">
    <path d="M 17.716535 88.57327 
L 18.65043 88.956357 
L 20.18861 89.31848 
L 26.341329 90.56507 
L 27.110419 91.0367 
L 27.632302 91.623328 
L 28.016847 92.406624 
L 28.318989 93.520877 
L 28.621132 95.602956 
L 29.143014 99.517157 
L 29.390222 99.821404 
L 29.802234 99.882962 
L 35.075993 99.886244 
L 127.559055 99.886244 
L 127.559055 99.886244 
" clip-path="url(#p237a62c15a)" style="fill: none; stroke: #2ca02c; stroke-width: 1.5; stroke-linecap: square"/>
   </g>
   <g id="line2d_11">
    <path d="M 17.716535 98.94945 
L 18.073613 95.686683 
L 18.375755 92.188914 
L 19.034975 83.573448 
L 19.30965 82.663996 
L 19.584325 82.388064 
L 19.941403 82.345602 
L 20.545688 82.514351 
L 21.095038 82.867026 
L 21.479582 83.379125 
L 21.781725 84.192581 
L 22.798022 87.633883 
L 23.319905 88.228882 
L 24.006592 88.66495 
L 25.050357 89.040781 
L 26.808277 89.407837 
L 31.999634 90.385409 
L 32.933529 90.824991 
L 33.537814 91.349378 
L 33.977294 92.042976 
L 34.306903 92.985125 
L 34.609046 94.600513 
L 35.405603 99.758629 
L 35.707746 99.871767 
L 37.026186 99.886237 
L 127.559055 99.886244 
L 127.559055 99.886244 
" clip-path="url(#p237a62c15a)" style="fill: none; stroke: #d62728; stroke-width: 1.5; stroke-linecap: square"/>
   </g>
   <g id="line2d_12">
    <path d="M 17.716535 92.475847 
L 17.963743 98.312645 
L 18.156015 99.171165 
L 18.293353 99.185851 
L 18.568028 98.826195 
L 19.034975 98.323485 
L 19.556858 98.125604 
L 20.820363 97.958391 
L 22.193737 97.947626 
L 23.567112 98.016146 
L 26.231459 97.870155 
L 27.687237 97.610802 
L 28.346457 97.286912 
L 28.731002 96.840525 
L 29.005677 96.144485 
L 29.307819 94.586955 
L 30.159311 88.389145 
L 30.516389 83.626785 
L 30.928401 78.337892 
L 31.175609 77.592607 
L 31.395349 77.502818 
L 31.862296 77.64993 
L 34.059696 78.631217 
L 34.444241 79.111291 
L 34.746383 79.852678 
L 35.350668 81.504333 
L 35.707746 81.724276 
L 36.476836 81.845176 
L 39.470793 82.257086 
L 40.349753 82.592501 
L 40.844168 83.007769 
L 41.173778 83.566757 
L 41.47592 84.568624 
L 42.190075 87.258833 
L 42.657023 87.973932 
L 43.261307 88.476154 
L 44.277605 89.186913 
L 44.414942 89.890881 
L 44.607215 92.496181 
L 45.046695 99.207779 
L 45.266435 99.738265 
L 45.54111 99.854439 
L 46.557407 99.848558 
L 56.116096 99.789279 
L 58.038821 99.650973 
L 58.368431 99.422615 
L 58.725508 98.785364 
L 59.164988 98.193427 
L 59.659403 97.917194 
L 60.56583 97.707156 
L 62.65336 97.49663 
L 69.080754 96.935534 
L 69.959714 96.612335 
L 70.426662 96.21802 
L 70.756272 95.623673 
L 71.003479 94.665797 
L 71.223219 92.753374 
L 71.497894 87.72539 
L 71.854972 82.571655 
L 72.129647 81.464217 
L 72.376854 81.237402 
L 72.733932 81.248769 
L 75.260941 81.675566 
L 80.287493 82.308503 
L 81.084051 82.657534 
L 81.550998 83.107142 
L 81.880608 83.762001 
L 82.18275 84.920005 
L 82.7321 87.058317 
L 83.17158 87.835294 
L 83.72093 88.36181 
L 84.49002 88.777469 
L 84.984435 89.082206 
L 85.121773 89.515514 
L 85.286578 90.992298 
L 85.973265 99.657472 
L 86.220472 99.838288 
L 86.79729 99.859955 
L 93.746567 99.810993 
L 98.690716 99.683977 
L 99.075261 99.493167 
L 99.349936 99.073994 
L 99.899286 98.226643 
L 100.393701 97.931187 
L 101.272661 97.717553 
L 103.25032 97.509261 
L 109.979857 96.903951 
L 110.776415 96.585515 
L 111.215895 96.196092 
L 111.518037 95.65032 
L 111.765244 94.721997 
L 111.984984 92.879793 
L 112.259659 87.938783 
L 112.616737 82.646946 
L 112.891412 81.483386 
L 113.138619 81.24064 
L 113.495697 81.24663 
L 116.105109 81.683042 
L 121.021791 82.297664 
L 121.818348 82.633162 
L 122.285296 83.056584 
L 122.614906 83.660083 
L 122.917048 84.742145 
L 123.521333 87.099356 
L 123.960813 87.856953 
L 124.53763 88.393246 
L 125.334188 88.806656 
L 125.7462 89.065245 
L 125.883538 89.465841 
L 126.048343 90.85741 
L 126.323018 96.165834 
L 126.597693 99.245757 
L 126.817433 99.746245 
L 127.092108 99.855394 
L 127.559055 99.860184 
L 127.559055 99.860184 
" clip-path="url(#p237a62c15a)" style="fill: none; stroke: #9467bd; stroke-width: 1.5; stroke-linecap: square"/>
   </g>
   <g id="line2d_13">
    <path d="M 17.716535 95.303527 
L 17.77147 95.347158 
L 17.798938 95.310039 
L 17.908808 94.665988 
L 18.073613 91.775183 
L 18.732833 76.877438 
L 19.034975 75.206079 
L 19.30965 74.721941 
L 19.63926 74.560706 
L 20.325948 74.542195 
L 21.61692 74.704467 
L 22.083867 74.960659 
L 23.017762 75.596808 
L 23.92419 75.838128 
L 25.737044 76.047435 
L 30.269181 76.515998 
L 30.736129 76.822629 
L 31.642556 77.535202 
L 32.686321 77.946898 
L 33.839956 78.454329 
L 34.306903 78.892562 
L 34.636513 79.517832 
L 35.515473 81.611888 
L 35.982421 81.745887 
L 37.905146 81.888044 
L 41.03644 82.210117 
L 42.107673 82.519268 
L 42.68449 82.90819 
L 43.041567 83.410272 
L 43.34371 84.25343 
L 44.305072 87.572366 
L 44.689617 87.994476 
L 44.826955 87.892743 
L 44.964292 87.374542 
L 45.156565 85.547055 
L 45.65098 80.60311 
L 45.925655 79.789121 
L 46.227797 79.516035 
L 46.722212 79.432463 
L 49.771104 79.434862 
L 59.137521 79.559619 
L 61.00531 79.673606 
L 71.140817 80.043573 
L 71.552829 80.358944 
L 72.376854 81.046111 
L 73.145944 81.33586 
L 74.491851 81.568879 
L 77.485808 81.810738 
L 81.715803 82.194982 
L 82.84197 82.506437 
L 83.418788 82.88033 
L 83.803333 83.40808 
L 84.105475 84.249261 
L 85.066838 87.570802 
L 85.451383 88.001389 
L 85.58872 87.91945 
L 85.726057 87.439958 
L 85.91833 85.678599 
L 86.412745 80.653888 
L 86.68742 79.806142 
L 86.989562 79.520608 
L 87.45651 79.434085 
L 89.956052 79.433727 
L 99.954221 79.564962 
L 101.849478 79.675505 
L 111.902582 80.038821 
L 112.314594 80.348671 
L 113.138619 81.040563 
L 113.907709 81.33319 
L 115.226149 81.564377 
L 118.165171 81.804742 
L 122.477568 82.193197 
L 123.603736 82.501988 
L 124.180553 82.870767 
L 124.565098 83.388454 
L 124.86724 84.211281 
L 125.85607 87.598666 
L 126.240615 88.004552 
L 126.377953 87.886224 
L 126.51529 87.337488 
L 126.73503 85.106864 
L 127.17451 80.705555 
L 127.449185 79.823567 
L 127.559055 79.669007 
L 127.559055 79.669007 
" clip-path="url(#p237a62c15a)" style="fill: none; stroke: #8c564b; stroke-width: 1.5; stroke-linecap: square"/>
   </g>
   <g id="line2d_14">
    <path d="M 17.716535 85.73785 
L 17.853873 86.063559 
L 18.43069 87.527302 
L 18.925105 88.146204 
L 19.584325 88.604213 
L 20.545688 88.982457 
L 22.138802 89.344022 
L 28.016847 90.506599 
L 28.840872 90.972654 
L 29.362754 91.508986 
L 29.774767 92.270595 
L 30.104376 93.403178 
L 30.406519 95.382677 
L 30.983336 99.585659 
L 31.230544 99.833889 
L 31.697491 99.884 
L 41.008973 99.87929 
L 43.810657 99.767618 
L 44.00293 99.462045 
L 44.195202 98.585489 
L 44.414942 96.343142 
L 44.66215 91.347653 
L 45.129097 81.609404 
L 45.376305 80.401044 
L 45.568577 80.297998 
L 45.87072 80.540156 
L 46.557407 81.060906 
L 47.353964 81.349742 
L 48.754807 81.581539 
L 51.968504 81.831987 
L 55.868888 82.194948 
L 56.995056 82.506372 
L 57.571873 82.880168 
L 57.956418 83.407797 
L 58.258561 84.248658 
L 59.219923 87.570636 
L 59.714338 88.170166 
L 60.373558 88.617811 
L 61.362388 88.998356 
L 63.010438 89.363299 
L 68.668742 90.461789 
L 69.520234 90.910182 
L 70.069584 91.434884 
L 70.481597 92.136538 
L 70.811207 93.15525 
L 71.113349 94.916128 
L 71.800037 99.679664 
L 72.047244 99.850429 
L 72.678997 99.884446 
L 84.544955 99.794336 
L 84.737228 99.552039 
L 84.9295 98.824408 
L 85.14924 96.839078 
L 85.396448 92.325052 
L 85.91833 81.460342 
L 86.165537 80.373325 
L 86.35781 80.305378 
L 86.714887 80.609999 
L 87.374107 81.083962 
L 88.198132 81.367384 
L 89.65391 81.595624 
L 93.142282 81.858086 
L 96.658121 82.198068 
L 97.756821 82.502063 
L 98.333639 82.870851 
L 98.718183 83.388603 
L 99.020326 84.210844 
L 100.009156 87.598697 
L 100.531038 88.209753 
L 101.217726 88.654074 
L 102.234023 89.026946 
L 103.964475 89.394773 
L 109.29317 90.406612 
L 110.199597 90.846287 
L 110.776415 91.355288 
L 111.215895 92.053707 
L 111.545504 93.004422 
L 111.847647 94.631505 
L 112.616737 99.735449 
L 112.891412 99.8648 
L 113.852774 99.884249 
L 125.334188 99.782876 
L 125.52646 99.512678 
L 125.718733 98.718715 
L 125.938473 96.61714 
L 126.18568 91.883549 
L 126.680095 81.546577 
L 126.927303 80.389323 
L 127.119575 80.301197 
L 127.421718 80.547494 
L 127.559055 80.677166 
L 127.559055 80.677166 
" clip-path="url(#p237a62c15a)" style="fill: none; stroke: #e377c2; stroke-width: 1.5; stroke-linecap: square"/>
   </g>
   <g id="line2d_15">
    <path d="M 17.716535 96.522735 
L 17.963743 98.639808 
L 18.293353 99.628552 
L 18.568028 99.847272 
L 19.144845 99.88564 
L 31.093206 99.822499 
L 33.757554 99.710323 
L 41.80553 99.517213 
L 43.0141 99.505539 
L 43.371177 99.294493 
L 43.590917 98.850302 
L 43.78319 97.883985 
L 44.030397 95.212733 
L 44.305072 89.082375 
L 44.66215 82.161226 
L 44.909357 80.868783 
L 44.99176 80.861672 
L 45.019227 80.902346 
L 45.156565 81.471081 
L 46.062992 87.112532 
L 46.502472 87.864035 
L 47.07929 88.397148 
L 47.875847 88.808256 
L 49.111884 89.170647 
L 51.419154 89.576615 
L 55.044864 90.232983 
L 56.198498 90.666021 
L 56.885186 91.147935 
L 57.352133 91.734594 
L 57.709211 92.527384 
L 58.011353 93.740484 
L 58.313496 96.002487 
L 58.780443 99.485935 
L 59.027651 99.815622 
L 59.412196 99.881832 
L 63.477385 99.886038 
L 72.047244 99.777206 
L 73.365684 99.664963 
L 78.749313 99.564624 
L 84.05054 99.389957 
L 84.27028 99.099504 
L 84.462553 98.442591 
L 84.682293 96.759214 
L 84.9295 92.819186 
L 85.533785 81.381663 
L 85.726057 80.845294 
L 85.80846 80.943453 
L 85.945797 81.593883 
L 86.742355 86.877212 
L 87.154367 87.702973 
L 87.67625 88.266949 
L 88.390405 88.699509 
L 89.461637 89.067932 
L 91.329427 89.442657 
L 96.163706 90.336436 
L 97.152536 90.768181 
L 97.784289 91.277421 
L 98.223769 91.913829 
L 98.580846 92.8512 
L 98.882988 94.342702 
L 99.240066 97.541875 
L 99.542208 99.45856 
L 99.789416 99.810304 
L 100.173961 99.881513 
L 103.90954 99.886048 
L 112.809009 99.778948 
L 114.127449 99.665352 
L 119.483611 99.565169 
L 124.839773 99.376159 
L 125.059513 99.061055 
L 125.251785 98.351821 
L 125.471525 96.568743 
L 125.718733 92.423615 
L 126.268083 81.629395 
L 126.487823 80.846615 
L 126.570225 80.920492 
L 126.707563 81.522821 
L 127.559055 86.996247 
L 127.559055 86.996247 
" clip-path="url(#p237a62c15a)" style="fill: none; stroke: #7f7f7f; stroke-width: 1.5; stroke-linecap: square"/>
   </g>
   <g id="line2d_16">
    <path d="M 17.716535 98.441571 
L 17.99121 99.629539 
L 18.238418 99.841944 
L 18.7603 99.885237 
L 35.790148 99.886244 
L 127.559055 99.886244 
L 127.559055 99.886244 
" clip-path="url(#p237a62c15a)" style="fill: none; stroke: #bcbd22; stroke-width: 1.5; stroke-linecap: square"/>
   </g>
   <g id="line2d_17">
    <path d="M 17.716535 80.555204 
L 18.348288 98.460448 
L 18.568028 99.572252 
L 18.815235 99.817723 
L 19.30965 99.855246 
L 29.280352 99.675199 
L 30.076909 99.212261 
L 30.626259 98.695511 
L 31.340414 97.961531 
L 31.999634 97.671523 
L 33.153269 97.43589 
L 34.746383 97.329419 
L 36.971251 97.368058 
L 41.860465 97.207777 
L 42.437283 97.316097 
L 42.821828 97.157947 
L 43.096502 96.800102 
L 43.316242 96.136794 
L 43.535982 94.602825 
L 43.78319 90.890786 
L 44.277605 83.436412 
L 44.497345 82.583547 
L 44.579747 82.646541 
L 44.689617 83.176788 
L 44.88189 85.543594 
L 45.156565 92.083521 
L 45.486175 98.654178 
L 45.705915 99.625292 
L 45.953122 99.842709 
L 46.502472 99.885424 
L 59.934078 99.842179 
L 71.113349 99.580848 
L 71.388024 99.28315 
L 72.212049 98.099774 
L 72.788867 97.851627 
L 73.942501 97.645523 
L 76.661784 97.430382 
L 82.375023 97.206496 
L 83.116645 97.391077 
L 83.528658 97.250622 
L 83.8308 96.902808 
L 84.05054 96.311833 
L 84.27028 94.965887 
L 84.517488 91.584831 
L 85.066838 83.336262 
L 85.286578 82.595907 
L 85.36898 82.712384 
L 85.506318 83.58498 
L 85.726057 86.905561 
L 86.412745 99.471166 
L 86.632485 99.801197 
L 86.989562 99.87984 
L 89.791247 99.88619 
L 110.50174 99.775451 
L 111.792712 99.628286 
L 112.094854 99.381641 
L 113.193554 97.983163 
L 113.935177 97.764383 
L 115.583227 97.55777 
L 120.472441 97.25243 
L 123.081853 97.18231 
L 123.960813 97.383208 
L 124.345358 97.217356 
L 124.620033 96.870677 
L 124.839773 96.241965 
L 125.059513 94.803474 
L 125.30672 91.265107 
L 125.828603 83.40394 
L 126.048343 82.598481 
L 126.130745 82.683677 
L 126.268083 83.487649 
L 126.487823 86.699379 
L 127.201978 99.520171 
L 127.449185 99.824562 
L 127.559055 99.858473 
L 127.559055 99.858473 
" clip-path="url(#p237a62c15a)" style="fill: none; stroke: #17becf; stroke-width: 1.5; stroke-linecap: square"/>
   </g>
   <g id="line2d_18">
    <path d="M 17.716535 88.306625 
L 18.458158 88.734283 
L 19.584325 89.101988 
L 21.561985 89.481505 
L 26.011719 90.292143 
L 27.082952 90.73326 
L 27.742172 91.243077 
L 28.181652 91.853387 
L 28.538729 92.740617 
L 28.840872 94.135108 
L 29.170482 96.948759 
L 29.527559 99.443796 
L 29.774767 99.807542 
L 30.159311 99.881379 
L 33.812489 99.886244 
L 127.559055 99.886244 
L 127.559055 99.886244 
" clip-path="url(#p237a62c15a)" style="fill: none; stroke: #1f77b4; stroke-width: 1.5; stroke-linecap: square"/>
   </g>
   <g id="line2d_19">
    <path d="M 17.716535 98.284059 
L 18.21095 90.339792 
L 18.622963 83.337093 
L 18.897638 81.872704 
L 19.172313 81.470004 
L 19.501923 81.39826 
L 20.683025 81.554209 
L 23.37484 81.78304 
L 28.071782 82.202604 
L 29.170482 82.513197 
L 29.747299 82.894963 
L 30.104376 83.384332 
L 30.406519 84.202937 
L 31.422816 87.639831 
L 31.944699 88.235703 
L 32.658854 88.689286 
L 33.730086 89.078229 
L 36.092291 89.627086 
L 38.591833 90.268699 
L 39.580663 90.747598 
L 40.184948 91.274821 
L 40.624428 91.954526 
L 40.981505 92.962281 
L 41.283648 94.574535 
L 42.080205 99.75694 
L 42.382348 99.871582 
L 43.67332 99.886194 
L 44.387475 99.790997 
L 44.689617 99.496261 
L 45.2115 98.977726 
L 46.804615 97.880051 
L 48.040652 97.651429 
L 50.704999 97.432943 
L 55.786486 97.011926 
L 56.857718 96.705054 
L 57.407068 96.326392 
L 57.736678 95.847134 
L 58.011353 95.013028 
L 58.231093 93.528571 
L 58.450833 90.297178 
L 58.945248 82.477481 
L 59.192456 81.490592 
L 59.439663 81.241007 
L 59.796741 81.243315 
L 62.351218 81.649249 
L 69.685039 82.414962 
L 70.371727 82.773548 
L 70.783739 83.237825 
L 71.085882 83.919011 
L 71.415492 85.300547 
L 71.882439 87.048983 
L 72.321919 87.834471 
L 72.898736 88.392303 
L 73.695294 88.828503 
L 74.958799 89.235863 
L 80.067753 90.659269 
L 80.726973 91.177906 
L 81.193921 91.835039 
L 81.550998 92.741313 
L 81.85314 94.162792 
L 82.18275 97.012772 
L 82.51236 99.376644 
L 82.759568 99.794684 
L 83.116645 99.879304 
L 84.984435 99.860026 
L 85.314045 99.672412 
L 86.962095 98.118997 
L 87.703717 97.846095 
L 89.049625 97.623433 
L 92.125984 97.394089 
L 96.465849 97.028076 
L 97.564549 96.733974 
L 98.141366 96.363468 
L 98.498444 95.867984 
L 98.773118 95.056528 
L 98.992858 93.628944 
L 99.212598 90.494393 
L 99.734481 82.361865 
L 99.981688 81.457225 
L 100.228896 81.23516 
L 100.613441 81.252473 
L 102.810841 81.619782 
L 106.9859 81.920793 
L 109.760117 82.231823 
L 110.776415 82.546447 
L 111.325765 82.939052 
L 111.682842 83.471523 
L 111.984984 84.371205 
L 112.836477 87.436445 
L 113.330892 88.104128 
L 113.990112 88.596461 
L 114.951474 89.009334 
L 116.599524 89.440234 
L 120.142831 90.32629 
L 121.049258 90.793723 
L 121.626076 91.321783 
L 122.065556 92.037475 
L 122.395166 93.00576 
L 122.697308 94.659985 
L 123.466398 99.740438 
L 123.741073 99.866021 
L 124.729903 99.886225 
L 125.938473 99.786757 
L 126.240615 99.486288 
L 126.73503 98.99254 
L 127.28438 98.445764 
L 127.559055 98.224362 
L 127.559055 98.224362 
" clip-path="url(#p237a62c15a)" style="fill: none; stroke: #ff7f0e; stroke-width: 1.5; stroke-linecap: square"/>
   </g>
   <g id="patch_3">
    <path d="M 17.716535 100.913386 
L 17.716535 75.234831 
" style="fill: none; stroke: #000000; stroke-width: 0.8; stroke-linejoin: miter; stroke-linecap: square"/>
   </g>
   <g id="patch_4">
    <path d="M 127.559055 100.913386 
L 127.559055 75.234831 
" style="fill: none; stroke: #000000; stroke-width: 0.8; stroke-linejoin: miter; stroke-linecap: square"/>
   </g>
   <g id="patch_5">
    <path d="M 17.716535 100.913386 
L 127.559055 100.913386 
" style="fill: none; stroke: #000000; stroke-width: 0.8; stroke-linejoin: miter; stroke-linecap: square"/>
   </g>
   <g id="patch_6">
    <path d="M 17.716535 75.234831 
L 127.559055 75.234831 
" style="fill: none; stroke: #000000; stroke-width: 0.8; stroke-linejoin: miter; stroke-linecap: square"/>
   </g>
  </g>
  <g id="axes_2">
   <g id="patch_7">
    <path d="M 17.716535 70.09912 
L 127.559055 70.09912 
L 127.559055 44.420565 
L 17.716535 44.420565 
z
" style="fill: #ffffff"/>
   </g>
   <g id="matplotlib.axis_3"/>
   <g id="matplotlib.axis_4">
    <g id="ytick_3">
     <g id="line2d_20">
      <g>
       <use xlink:href="#m3eedbf41a6" x="17.716535" y="69.071978" style="stroke: #000000; stroke-width: 0.8"/>
      </g>
     </g>
     <g id="text_9">
      <!-- 0 -->
      <g transform="translate(6.823879 71.577212) scale(0.07 -0.07)">
       <use xlink:href="#ArialMT-30"/>
      </g>
     </g>
    </g>
    <g id="ytick_4">
     <g id="line2d_21">
      <g>
       <use xlink:href="#m3eedbf41a6" x="17.716535" y="48.529134" style="stroke: #000000; stroke-width: 0.8"/>
      </g>
     </g>
     <g id="text_10">
      <!-- 1 -->
      <g transform="translate(6.823879 51.034368) scale(0.07 -0.07)">
       <use xlink:href="#ArialMT-31"/>
      </g>
     </g>
    </g>
    <g id="text_11">
     <!-- Expression level -->
     <g transform="translate(-10.163621 93.66453) rotate(-90) scale(0.1 -0.1)">
      <defs>
       <path id="ArialMT-45" d="M 506 0 
L 506 4581 
L 3819 4581 
L 3819 4041 
L 1113 4041 
L 1113 2638 
L 3647 2638 
L 3647 2100 
L 1113 2100 
L 1113 541 
L 3925 541 
L 3925 0 
L 506 0 
z
" transform="scale(0.015625)"/>
       <path id="ArialMT-78" d="M 47 0 
L 1259 1725 
L 138 3319 
L 841 3319 
L 1350 2541 
Q 1494 2319 1581 2169 
Q 1719 2375 1834 2534 
L 2394 3319 
L 3066 3319 
L 1919 1756 
L 3153 0 
L 2463 0 
L 1781 1031 
L 1600 1309 
L 728 0 
L 47 0 
z
" transform="scale(0.015625)"/>
       <path id="ArialMT-70" d="M 422 -1272 
L 422 3319 
L 934 3319 
L 934 2888 
Q 1116 3141 1344 3267 
Q 1572 3394 1897 3394 
Q 2322 3394 2647 3175 
Q 2972 2956 3137 2557 
Q 3303 2159 3303 1684 
Q 3303 1175 3120 767 
Q 2938 359 2589 142 
Q 2241 -75 1856 -75 
Q 1575 -75 1351 44 
Q 1128 163 984 344 
L 984 -1272 
L 422 -1272 
z
M 931 1641 
Q 931 1000 1190 694 
Q 1450 388 1819 388 
Q 2194 388 2461 705 
Q 2728 1022 2728 1688 
Q 2728 2322 2467 2637 
Q 2206 2953 1844 2953 
Q 1484 2953 1207 2617 
Q 931 2281 931 1641 
z
" transform="scale(0.015625)"/>
       <path id="ArialMT-72" d="M 416 0 
L 416 3319 
L 922 3319 
L 922 2816 
Q 1116 3169 1280 3281 
Q 1444 3394 1641 3394 
Q 1925 3394 2219 3213 
L 2025 2691 
Q 1819 2813 1613 2813 
Q 1428 2813 1281 2702 
Q 1134 2591 1072 2394 
Q 978 2094 978 1738 
L 978 0 
L 416 0 
z
" transform="scale(0.015625)"/>
       <path id="ArialMT-73" d="M 197 991 
L 753 1078 
Q 800 744 1014 566 
Q 1228 388 1613 388 
Q 2000 388 2187 545 
Q 2375 703 2375 916 
Q 2375 1106 2209 1216 
Q 2094 1291 1634 1406 
Q 1016 1563 777 1677 
Q 538 1791 414 1992 
Q 291 2194 291 2438 
Q 291 2659 392 2848 
Q 494 3038 669 3163 
Q 800 3259 1026 3326 
Q 1253 3394 1513 3394 
Q 1903 3394 2198 3281 
Q 2494 3169 2634 2976 
Q 2775 2784 2828 2463 
L 2278 2388 
Q 2241 2644 2061 2787 
Q 1881 2931 1553 2931 
Q 1166 2931 1000 2803 
Q 834 2675 834 2503 
Q 834 2394 903 2306 
Q 972 2216 1119 2156 
Q 1203 2125 1616 2013 
Q 2213 1853 2448 1751 
Q 2684 1650 2818 1456 
Q 2953 1263 2953 975 
Q 2953 694 2789 445 
Q 2625 197 2315 61 
Q 2006 -75 1616 -75 
Q 969 -75 630 194 
Q 291 463 197 991 
z
" transform="scale(0.015625)"/>
       <path id="ArialMT-6f" d="M 213 1659 
Q 213 2581 725 3025 
Q 1153 3394 1769 3394 
Q 2453 3394 2887 2945 
Q 3322 2497 3322 1706 
Q 3322 1066 3130 698 
Q 2938 331 2570 128 
Q 2203 -75 1769 -75 
Q 1072 -75 642 372 
Q 213 819 213 1659 
z
M 791 1659 
Q 791 1022 1069 705 
Q 1347 388 1769 388 
Q 2188 388 2466 706 
Q 2744 1025 2744 1678 
Q 2744 2294 2464 2611 
Q 2184 2928 1769 2928 
Q 1347 2928 1069 2612 
Q 791 2297 791 1659 
z
" transform="scale(0.015625)"/>
       <path id="ArialMT-6e" d="M 422 0 
L 422 3319 
L 928 3319 
L 928 2847 
Q 1294 3394 1984 3394 
Q 2284 3394 2536 3286 
Q 2788 3178 2913 3003 
Q 3038 2828 3088 2588 
Q 3119 2431 3119 2041 
L 3119 0 
L 2556 0 
L 2556 2019 
Q 2556 2363 2490 2533 
Q 2425 2703 2258 2804 
Q 2091 2906 1866 2906 
Q 1506 2906 1245 2678 
Q 984 2450 984 1813 
L 984 0 
L 422 0 
z
" transform="scale(0.015625)"/>
       <path id="ArialMT-6c" d="M 409 0 
L 409 4581 
L 972 4581 
L 972 0 
L 409 0 
z
" transform="scale(0.015625)"/>
       <path id="ArialMT-76" d="M 1344 0 
L 81 3319 
L 675 3319 
L 1388 1331 
Q 1503 1009 1600 663 
Q 1675 925 1809 1294 
L 2547 3319 
L 3125 3319 
L 1869 0 
L 1344 0 
z
" transform="scale(0.015625)"/>
      </defs>
      <use xlink:href="#ArialMT-45"/>
      <use xlink:href="#ArialMT-78" transform="translate(66.699219 0)"/>
      <use xlink:href="#ArialMT-70" transform="translate(116.699219 0)"/>
      <use xlink:href="#ArialMT-72" transform="translate(172.314453 0)"/>
      <use xlink:href="#ArialMT-65" transform="translate(205.615234 0)"/>
      <use xlink:href="#ArialMT-73" transform="translate(261.230469 0)"/>
      <use xlink:href="#ArialMT-73" transform="translate(311.230469 0)"/>
      <use xlink:href="#ArialMT-69" transform="translate(361.230469 0)"/>
      <use xlink:href="#ArialMT-6f" transform="translate(383.447266 0)"/>
      <use xlink:href="#ArialMT-6e" transform="translate(439.0625 0)"/>
      <use xlink:href="#ArialMT-20" transform="translate(494.677734 0)"/>
      <use xlink:href="#ArialMT-6c" transform="translate(522.460938 0)"/>
      <use xlink:href="#ArialMT-65" transform="translate(544.677734 0)"/>
      <use xlink:href="#ArialMT-76" transform="translate(600.292969 0)"/>
      <use xlink:href="#ArialMT-65" transform="translate(650.292969 0)"/>
      <use xlink:href="#ArialMT-6c" transform="translate(705.908203 0)"/>
     </g>
    </g>
   </g>
   <g id="line2d_22">
    <path d="M 17.716535 54.226887 
L 17.88134 54.24403 
L 18.046145 54.2924 
L 18.21095 54.65803 
L 18.98004 56.807455 
L 19.501923 57.40798 
L 20.18861 57.846903 
L 21.232375 58.22436 
L 22.990295 58.592249 
L 28.209119 59.577995 
L 29.143014 60.02348 
L 29.747299 60.558292 
L 30.159311 61.211945 
L 30.488921 62.141045 
L 30.791064 63.723731 
L 31.615089 68.960407 
L 31.917231 69.059326 
L 33.400476 69.071994 
L 127.559055 69.071978 
L 127.559055 69.071978 
" clip-path="url(#pa1bd0b1d3e)" style="fill: none; stroke: #1f77b4; stroke-width: 1.5; stroke-linecap: square"/>
   </g>
   <g id="line2d_23">
    <path d="M 17.716535 65.816919 
L 17.99121 68.368568 
L 18.238418 68.94157 
L 18.54056 69.05717 
L 19.831533 69.071977 
L 127.559055 69.071978 
L 127.559055 69.071978 
" clip-path="url(#pa1bd0b1d3e)" style="fill: none; stroke: #ff7f0e; stroke-width: 1.5; stroke-linecap: square"/>
   </g>
   <g id="line2d_24">
    <path d="M 17.716535 63.930488 
L 18.458158 68.907403 
L 18.732833 69.049065 
L 19.611793 69.071939 
L 127.559055 69.071978 
L 127.559055 69.071978 
" clip-path="url(#pa1bd0b1d3e)" style="fill: none; stroke: #2ca02c; stroke-width: 1.5; stroke-linecap: square"/>
   </g>
   <g id="line2d_25">
    <path d="M 17.716535 63.042915 
L 17.88134 63.805108 
L 18.238418 67.040469 
L 18.513093 68.658638 
L 18.7603 68.998828 
L 19.144845 69.067465 
L 23.017762 69.071978 
L 127.559055 69.071978 
L 127.559055 69.071978 
" clip-path="url(#pa1bd0b1d3e)" style="fill: none; stroke: #d62728; stroke-width: 1.5; stroke-linecap: square"/>
   </g>
   <g id="line2d_26">
    <path d="M 17.716535 54.761613 
L 17.99121 64.155218 
L 18.265885 67.266942 
L 18.54056 68.184707 
L 19.062443 68.919957 
L 19.392053 69.054719 
L 20.545688 69.071973 
L 127.559055 69.071978 
L 127.559055 69.071978 
" clip-path="url(#pa1bd0b1d3e)" style="fill: none; stroke: #9467bd; stroke-width: 1.5; stroke-linecap: square"/>
   </g>
   <g id="line2d_27">
    <path d="M 17.716535 59.534673 
L 18.073613 50.894144 
L 18.293353 49.8191 
L 18.458158 49.772374 
L 18.925105 50.084259 
L 19.666728 50.438461 
L 20.765428 50.683303 
L 22.990295 50.908341 
L 28.840872 51.443515 
L 29.802234 51.767403 
L 30.324116 52.170541 
L 30.681194 52.749499 
L 30.983336 53.732531 
L 31.697491 56.432207 
L 32.164439 57.153124 
L 32.768724 57.658227 
L 33.620216 58.057249 
L 34.966123 58.416828 
L 37.685406 58.86595 
L 40.59696 59.412535 
L 41.750595 59.840052 
L 42.437283 60.312519 
L 42.931697 60.928597 
L 43.288775 61.727541 
L 43.590917 62.954216 
L 43.89306 65.233062 
L 44.33254 68.60533 
L 44.579747 68.988677 
L 44.936825 69.065678 
L 47.738509 69.071992 
L 127.559055 69.07195 
L 127.559055 69.07195 
" clip-path="url(#pa1bd0b1d3e)" style="fill: none; stroke: #8c564b; stroke-width: 1.5; stroke-linecap: square"/>
   </g>
   <g id="line2d_28">
    <path d="M 17.716535 64.65399 
L 17.88134 63.969448 
L 17.963743 64.191341 
L 18.156015 65.619558 
L 18.568028 68.628965 
L 18.815235 68.993075 
L 19.19978 69.067103 
L 22.852957 69.071977 
L 127.559055 69.071978 
L 127.559055 69.071978 
" clip-path="url(#pa1bd0b1d3e)" style="fill: none; stroke: #e377c2; stroke-width: 1.5; stroke-linecap: square"/>
   </g>
   <g id="line2d_29">
    <path d="M 17.716535 59.892896 
L 17.99121 66.215973 
L 18.265885 68.491547 
L 18.513093 68.967507 
L 18.842703 69.062312 
L 20.73796 69.071978 
L 127.559055 69.071978 
L 127.559055 69.071978 
" clip-path="url(#pa1bd0b1d3e)" style="fill: none; stroke: #7f7f7f; stroke-width: 1.5; stroke-linecap: square"/>
   </g>
   <g id="line2d_30">
    <path d="M 17.716535 66.588784 
L 18.018678 68.600901 
L 18.265885 68.987783 
L 18.622963 69.065608 
L 21.424648 69.071978 
L 127.559055 69.071978 
L 127.559055 69.071978 
" clip-path="url(#pa1bd0b1d3e)" style="fill: none; stroke: #bcbd22; stroke-width: 1.5; stroke-linecap: square"/>
   </g>
   <g id="line2d_31">
    <path d="M 17.716535 50.220077 
L 17.963743 62.96847 
L 18.238418 67.761594 
L 18.485625 68.813453 
L 18.732833 69.020364 
L 19.282183 69.070628 
L 32.027101 69.071978 
L 127.559055 69.071978 
L 127.559055 69.071978 
" clip-path="url(#pa1bd0b1d3e)" style="fill: none; stroke: #17becf; stroke-width: 1.5; stroke-linecap: square"/>
   </g>
   <g id="line2d_32">
    <path d="M 17.716535 57.435559 
L 18.43069 57.875556 
L 19.501923 58.248121 
L 21.342245 58.620479 
L 26.258927 59.533191 
L 27.247757 59.9745 
L 27.852042 60.470074 
L 28.291522 61.111832 
L 28.648599 62.059824 
L 28.950742 63.570727 
L 29.335287 67.04669 
L 29.609962 68.663883 
L 29.857169 68.999873 
L 30.241714 69.06752 
L 34.224501 69.071978 
L 127.559055 69.071978 
L 127.559055 69.071978 
" clip-path="url(#pa1bd0b1d3e)" style="fill: none; stroke: #1f77b4; stroke-width: 1.5; stroke-linecap: square"/>
   </g>
   <g id="line2d_33">
    <path d="M 17.716535 59.375359 
L 17.908808 61.854327 
L 18.073613 62.054334 
L 18.238418 62.150437 
L 18.403223 62.647727 
L 18.677898 64.375854 
L 19.282183 68.781524 
L 19.52939 69.021652 
L 20.023805 69.07058 
L 32.686321 69.071978 
L 127.559055 69.071978 
L 127.559055 69.071978 
" clip-path="url(#pa1bd0b1d3e)" style="fill: none; stroke: #ff7f0e; stroke-width: 1.5; stroke-linecap: square"/>
   </g>
   <g id="patch_8">
    <path d="M 17.716535 70.09912 
L 17.716535 44.420565 
" style="fill: none; stroke: #000000; stroke-width: 0.8; stroke-linejoin: miter; stroke-linecap: square"/>
   </g>
   <g id="patch_9">
    <path d="M 127.559055 70.09912 
L 127.559055 44.420565 
" style="fill: none; stroke: #000000; stroke-width: 0.8; stroke-linejoin: miter; stroke-linecap: square"/>
   </g>
   <g id="patch_10">
    <path d="M 17.716535 70.09912 
L 127.559055 70.09912 
" style="fill: none; stroke: #000000; stroke-width: 0.8; stroke-linejoin: miter; stroke-linecap: square"/>
   </g>
   <g id="patch_11">
    <path d="M 17.716535 44.420565 
L 127.559055 44.420565 
" style="fill: none; stroke: #000000; stroke-width: 0.8; stroke-linejoin: miter; stroke-linecap: square"/>
   </g>
  </g>
  <g id="axes_3">
   <g id="patch_12">
    <path d="M 17.716535 39.284854 
L 127.559055 39.284854 
L 127.559055 13.606299 
L 17.716535 13.606299 
z
" style="fill: #ffffff"/>
   </g>
   <g id="matplotlib.axis_5"/>
   <g id="matplotlib.axis_6">
    <g id="ytick_5">
     <g id="line2d_34">
      <g>
       <use xlink:href="#m3eedbf41a6" x="17.716535" y="38.257712" style="stroke: #000000; stroke-width: 0.8"/>
      </g>
     </g>
     <g id="text_12">
      <!-- 0 -->
      <g transform="translate(6.823879 40.762946) scale(0.07 -0.07)">
       <use xlink:href="#ArialMT-30"/>
      </g>
     </g>
    </g>
    <g id="ytick_6">
     <g id="line2d_35">
      <g>
       <use xlink:href="#m3eedbf41a6" x="17.716535" y="17.714868" style="stroke: #000000; stroke-width: 0.8"/>
      </g>
     </g>
     <g id="text_13">
      <!-- 1 -->
      <g transform="translate(6.823879 20.220102) scale(0.07 -0.07)">
       <use xlink:href="#ArialMT-31"/>
      </g>
     </g>
    </g>
   </g>
   <g id="line2d_36">
    <path d="M 17.716535 31.795623 
L 18.128548 33.757316 
L 18.732833 37.995797 
L 18.98004 38.212323 
L 19.501923 38.256537 
L 28.071782 38.202955 
L 28.456327 38.037343 
L 28.621132 37.720356 
L 28.813404 36.706527 
L 29.060612 33.721644 
L 29.335287 27.078371 
L 29.692364 20.047321 
L 29.967039 18.477499 
L 30.241714 18.072277 
L 30.598791 17.98422 
L 32.466581 18.050816 
L 42.299945 18.383072 
L 42.711958 18.657781 
L 43.67332 19.450989 
L 44.469877 19.730311 
L 45.898187 19.96021 
L 49.221754 20.214724 
L 52.957334 20.568096 
L 54.083501 20.882061 
L 54.660319 21.260785 
L 55.017396 21.744441 
L 55.319539 22.553121 
L 56.363303 26.04247 
L 56.885186 26.620717 
L 57.599341 27.060963 
L 58.670573 27.433664 
L 60.510895 27.806096 
L 65.427577 28.7186 
L 66.416407 29.159609 
L 67.020692 29.65468 
L 67.460172 30.295569 
L 67.81725 31.241917 
L 68.119392 32.749215 
L 68.47647 35.963919 
L 68.778612 37.844347 
L 69.025819 38.17411 
L 69.218092 38.151797 
L 69.382897 37.888107 
L 69.547702 37.152555 
L 69.767442 34.979195 
L 70.014649 30.135702 
L 70.509064 19.786426 
L 70.783739 18.408416 
L 71.058414 18.058376 
L 71.442959 17.985015 
L 76.139901 18.093081 
L 82.62223 18.269814 
L 83.253983 18.47436 
L 83.72093 18.899915 
L 84.38015 19.416943 
L 85.14924 19.707021 
L 86.495147 19.9402 
L 89.489105 20.182138 
L 93.719099 20.56631 
L 94.845266 20.87758 
L 95.422084 21.251061 
L 95.806629 21.778083 
L 96.108771 22.617687 
L 97.070134 25.940993 
L 97.564549 26.54102 
L 98.223769 26.988927 
L 99.212598 27.369627 
L 100.860648 27.734644 
L 106.518953 28.83286 
L 107.370445 29.280892 
L 107.919795 29.80502 
L 108.331807 30.505637 
L 108.661417 31.522193 
L 108.96356 33.279831 
L 109.650247 38.048233 
L 109.897455 38.188573 
L 110.06226 38.07524 
L 110.227065 37.641696 
L 110.419337 36.351116 
L 110.666545 32.900903 
L 111.463102 18.68998 
L 111.710309 18.152073 
L 112.012452 17.999235 
L 112.726607 18.004834 
L 116.517121 18.088847 
L 123.411463 18.272601 
L 124.043216 18.48545 
L 124.53763 18.945538 
L 125.169383 19.426319 
L 125.96594 19.718543 
L 127.339315 19.948654 
L 127.559055 19.972878 
L 127.559055 19.972878 
" clip-path="url(#paea3a1a546)" style="fill: none; stroke: #1f77b4; stroke-width: 1.5; stroke-linecap: square"/>
   </g>
   <g id="line2d_37">
    <path d="M 17.716535 37.369938 
L 17.936275 38.064218 
L 18.21095 38.230668 
L 18.98004 38.25761 
L 127.559055 38.257712 
L 127.559055 38.257712 
" clip-path="url(#paea3a1a546)" style="fill: none; stroke: #ff7f0e; stroke-width: 1.5; stroke-linecap: square"/>
   </g>
   <g id="line2d_38">
    <path d="M 17.716535 22.800353 
L 18.046145 24.734257 
L 18.43069 25.766115 
L 18.897638 26.418462 
L 19.52939 26.904846 
L 20.435818 27.296316 
L 21.891595 27.655771 
L 25.325032 28.203853 
L 27.522432 28.675279 
L 28.566197 29.110982 
L 29.197949 29.597272 
L 29.664897 30.244977 
L 30.021974 31.148846 
L 30.324116 32.575227 
L 30.653726 35.429557 
L 30.983336 37.763714 
L 31.230544 38.169054 
L 31.587621 38.251003 
L 34.224501 38.257641 
L 127.559055 38.257712 
L 127.559055 38.257712 
" clip-path="url(#paea3a1a546)" style="fill: none; stroke: #2ca02c; stroke-width: 1.5; stroke-linecap: square"/>
   </g>
   <g id="line2d_39">
    <path d="M 17.716535 27.097421 
L 18.622963 27.398087 
L 20.353415 27.766043 
L 25.68211 28.777662 
L 26.588537 29.216972 
L 27.165354 29.725369 
L 27.604834 30.4226 
L 27.934444 31.3715 
L 28.236587 32.994471 
L 29.033144 38.132511 
L 29.335287 38.243504 
L 30.681194 38.257711 
L 127.559055 38.257712 
L 127.559055 38.257712 
" clip-path="url(#paea3a1a546)" style="fill: none; stroke: #d62728; stroke-width: 1.5; stroke-linecap: square"/>
   </g>
   <g id="line2d_40">
    <path d="M 17.716535 22.497439 
L 18.046145 30.218712 
L 18.43069 33.883647 
L 18.7603 35.262804 
L 19.007508 35.575061 
L 19.227248 35.530299 
L 19.446988 35.195361 
L 19.666728 34.357735 
L 19.886468 32.476285 
L 20.18861 27.501333 
L 20.573155 22.158696 
L 20.84783 20.816706 
L 21.122505 20.381027 
L 21.479582 20.243493 
L 22.303607 20.258012 
L 25.57224 20.563996 
L 26.835744 20.867971 
L 27.467497 21.221882 
L 27.879509 21.712604 
L 28.154184 22.37865 
L 28.401392 23.633561 
L 28.621132 26.075447 
L 28.895807 32.336928 
L 29.197949 37.278693 
L 29.417689 38.045431 
L 29.664897 38.211542 
L 30.296649 38.228637 
L 37.300861 38.181805 
L 42.080205 38.053962 
L 42.46475 37.859918 
L 42.739425 37.435331 
L 43.261307 36.618654 
L 43.728255 36.322246 
L 44.55228 36.106612 
L 46.392602 35.899072 
L 53.506684 35.235665 
L 54.248306 34.899258 
L 54.660319 34.485759 
L 54.962461 33.854033 
L 55.209669 32.725464 
L 55.429409 30.426497 
L 56.171031 20.12607 
L 56.418238 19.668986 
L 56.692913 19.592148 
L 57.434536 19.749961 
L 59.082586 20.0108 
L 64.658487 20.74888 
L 65.345175 21.104117 
L 65.757187 21.551964 
L 66.05933 22.197587 
L 66.38894 23.53394 
L 66.883355 25.417585 
L 67.322835 26.20036 
L 67.872185 26.729688 
L 68.641274 27.146885 
L 69.135689 27.445621 
L 69.273027 27.863553 
L 69.437832 29.300582 
L 69.739974 35.150754 
L 69.987182 37.641002 
L 70.206922 38.122762 
L 70.509064 38.229909 
L 71.854972 38.21423 
L 83.116645 37.952902 
L 83.39132 37.656092 
L 84.187878 36.490942 
L 84.737228 36.239223 
L 85.835927 36.03021 
L 88.362937 35.816336 
L 93.691632 35.373419 
L 94.735396 35.063863 
L 95.257279 34.698405 
L 95.586889 34.220028 
L 95.861564 33.387521 
L 96.081304 31.907163 
L 96.301044 28.685768 
L 96.795459 20.853372 
L 97.042666 19.863626 
L 97.289874 19.613667 
L 97.646951 19.61722 
L 100.311298 20.059667 
L 105.145578 20.660157 
L 105.969603 21.001752 
L 106.43655 21.42216 
L 106.76616 22.020939 
L 107.068303 23.093742 
L 107.700055 25.524671 
L 108.139535 26.257102 
L 108.716352 26.780595 
L 109.51291 27.187357 
L 109.897455 27.429726 
L 110.034792 27.816543 
L 110.199597 29.171447 
L 110.446805 33.886972 
L 110.72148 37.458093 
L 110.94122 38.083924 
L 111.215895 38.222926 
L 112.094854 38.223132 
L 119.868156 38.177106 
L 123.658671 38.046106 
L 124.015748 37.851872 
L 124.290423 37.421143 
L 124.812305 36.611748 
L 125.279253 36.319273 
L 126.103278 36.105342 
L 127.559055 35.930202 
L 127.559055 35.930202 
" clip-path="url(#paea3a1a546)" style="fill: none; stroke: #9467bd; stroke-width: 1.5; stroke-linecap: square"/>
   </g>
   <g id="line2d_41">
    <path d="M 17.716535 22.019646 
L 17.963743 19.192444 
L 18.156015 18.708066 
L 18.265885 18.797236 
L 19.007508 19.900989 
L 19.611793 20.024221 
L 22.660685 20.243042 
L 25.984252 20.571807 
L 27.082952 20.879063 
L 27.659769 21.254321 
L 28.044314 21.784657 
L 28.346457 22.629854 
L 28.978209 24.921909 
L 29.033144 24.876421 
L 29.143014 24.49504 
L 29.335287 22.796474 
L 29.774767 18.944907 
L 30.076909 18.116097 
L 30.379051 17.876345 
L 30.900934 17.801939 
L 34.883721 17.807823 
L 43.288775 17.930532 
L 45.156565 18.044965 
L 55.319539 18.426242 
L 55.731551 18.753846 
L 56.500641 19.39984 
L 57.269731 19.698819 
L 58.588171 19.933181 
L 61.472258 20.171212 
L 65.867057 20.565621 
L 66.993225 20.875843 
L 67.570042 21.247359 
L 67.954587 21.77042 
L 68.25673 22.603093 
L 69.245559 25.978756 
L 69.630104 26.37636 
L 69.739974 26.298673 
L 69.877312 25.837162 
L 70.069584 24.107285 
L 70.591467 18.915896 
L 70.866142 18.140978 
L 71.168284 17.882248 
L 71.662699 17.803466 
L 74.931331 17.80672 
L 84.078008 17.932629 
L 85.973265 18.046141 
L 96.053836 18.40818 
L 96.465849 18.715519 
L 97.317341 19.424453 
L 98.086431 19.710645 
L 99.432338 19.941857 
L 102.453763 20.184803 
L 106.628823 20.563885 
L 107.75499 20.871505 
L 108.331807 21.238059 
L 108.716352 21.751389 
L 109.018495 22.566153 
L 110.034792 26.0061 
L 110.39187 26.37551 
L 110.529207 26.26693 
L 110.666545 25.736464 
L 110.858817 23.889375 
L 111.353232 18.96246 
L 111.627907 18.156507 
L 111.930049 17.886409 
L 112.424464 17.80383 
L 115.528292 17.80643 
L 124.839773 17.931425 
L 126.707563 18.045154 
L 127.559055 18.063507 
L 127.559055 18.063507 
" clip-path="url(#paea3a1a546)" style="fill: none; stroke: #8c564b; stroke-width: 1.5; stroke-linecap: square"/>
   </g>
   <g id="line2d_42">
    <path d="M 17.716535 36.774079 
L 17.88134 35.596527 
L 17.963743 35.799854 
L 18.513093 38.076677 
L 18.815235 38.20261 
L 19.694195 38.179767 
L 23.1551 37.880813 
L 26.863212 37.689183 
L 27.659769 37.451529 
L 28.016847 37.118605 
L 28.236587 36.621004 
L 28.428859 35.643968 
L 28.648599 33.074643 
L 28.923274 26.400145 
L 29.252884 20.159981 
L 29.500092 18.793046 
L 29.692364 18.64268 
L 29.939572 18.821942 
L 30.708661 19.429864 
L 31.505219 19.720088 
L 32.878594 19.94937 
L 36.009888 20.196078 
L 40.020143 20.565629 
L 41.14631 20.875871 
L 41.723128 21.247461 
L 42.107673 21.7702 
L 42.409815 22.60326 
L 43.398645 25.978976 
L 43.920527 26.585995 
L 44.607215 27.02825 
L 45.623512 27.399962 
L 47.353964 27.767176 
L 52.682659 28.780056 
L 53.589086 29.221407 
L 54.165904 29.733314 
L 54.577916 30.378833 
L 54.907526 31.293012 
L 55.209669 32.847437 
L 55.621681 36.586322 
L 55.896356 37.945013 
L 56.143563 38.203169 
L 56.610511 38.254792 
L 66.773485 38.251642 
L 68.723677 38.150443 
L 68.915949 37.870965 
L 69.108222 37.05534 
L 69.327962 34.916621 
L 69.575169 30.113072 
L 70.042117 20.120299 
L 70.289324 18.801842 
L 70.481597 18.665606 
L 70.756272 18.870992 
L 71.497894 19.439091 
L 72.294452 19.724419 
L 73.695294 19.954464 
L 76.936459 20.206059 
L 80.781908 20.56385 
L 81.908075 20.871446 
L 82.484893 21.237901 
L 82.869438 21.751098 
L 83.17158 22.565219 
L 84.187878 26.006125 
L 84.70976 26.600773 
L 85.396448 27.036658 
L 86.440212 27.412387 
L 88.198132 27.779383 
L 93.389489 28.757037 
L 94.323384 29.196753 
L 94.927669 29.721341 
L 95.367149 30.415256 
L 95.696759 31.358439 
L 95.998901 32.969208 
L 96.795459 38.129269 
L 97.097601 38.242569 
L 98.416041 38.255344 
L 109.485442 38.157436 
L 109.677715 37.894691 
L 109.869987 37.11824 
L 110.089727 35.047001 
L 110.336935 30.370496 
L 110.83135 19.957528 
L 111.078557 18.768463 
L 111.27083 18.670992 
L 111.572972 18.914616 
L 112.259659 19.433932 
L 113.056217 19.721957 
L 114.457059 19.953338 
L 117.670756 20.203642 
L 121.543673 20.562102 
L 122.669841 20.867136 
L 123.246658 21.228677 
L 123.631203 21.732318 
L 123.933346 22.528494 
L 124.97711 26.032764 
L 125.498993 26.615374 
L 126.213148 27.057953 
L 127.28438 27.431946 
L 127.559055 27.501311 
L 127.559055 27.501311 
" clip-path="url(#paea3a1a546)" style="fill: none; stroke: #e377c2; stroke-width: 1.5; stroke-linecap: square"/>
   </g>
   <g id="line2d_43">
    <path d="M 17.716535 24.705272 
L 17.963743 34.068588 
L 18.21095 36.742009 
L 18.43069 37.303799 
L 18.677898 37.379556 
L 19.254715 37.206904 
L 19.666728 36.89907 
L 20.792895 35.790038 
L 21.39718 35.623009 
L 23.347372 35.454237 
L 25.819447 35.138246 
L 26.808277 34.812188 
L 27.357627 34.408818 
L 27.714704 33.871011 
L 27.989379 33.032844 
L 28.209119 31.646044 
L 28.428859 28.715866 
L 29.005677 19.511466 
L 29.143014 19.229037 
L 29.170482 19.250823 
L 29.280352 19.611407 
L 29.500092 21.533845 
L 29.884637 24.387694 
L 30.269181 25.597761 
L 30.736129 26.328263 
L 31.340414 26.838074 
L 32.191906 27.23964 
L 33.537814 27.600613 
L 36.257096 28.050274 
L 39.196118 28.603226 
L 40.349753 29.035162 
L 41.03644 29.515154 
L 41.503388 30.098555 
L 41.860465 30.885608 
L 42.162608 32.088056 
L 42.46475 34.328841 
L 42.931697 37.84374 
L 43.178905 38.184394 
L 43.56345 38.253131 
L 47.381432 38.257474 
L 56.171031 38.15424 
L 57.489471 38.037701 
L 62.735763 37.938561 
L 68.201795 37.765004 
L 68.421535 37.480739 
L 68.613807 36.837373 
L 68.833547 35.180214 
L 69.080754 31.294332 
L 69.685039 19.781317 
L 69.877312 19.217026 
L 69.959714 19.303886 
L 70.097052 19.931866 
L 70.921077 25.310386 
L 71.360557 26.145024 
L 71.909907 26.698898 
L 72.651529 27.117576 
L 73.805164 27.487025 
L 75.837759 27.870201 
L 80.122688 28.647211 
L 81.193921 29.07384 
L 81.85314 29.558461 
L 82.320088 30.175213 
L 82.677165 31.022305 
L 82.979308 32.339307 
L 83.28145 34.76815 
L 83.693463 37.816313 
L 83.94067 38.17922 
L 84.325215 38.252817 
L 87.978392 38.257511 
L 96.960264 38.151199 
L 98.278704 38.037014 
L 103.607398 37.937104 
L 108.991027 37.751263 
L 109.210767 37.442774 
L 109.40304 36.747334 
L 109.62278 34.990364 
L 109.869987 30.898724 
L 110.446805 19.843186 
L 110.639077 19.219525 
L 110.72148 19.282803 
L 110.858817 19.864187 
L 111.737777 25.425213 
L 112.177257 26.204509 
L 112.726607 26.732004 
L 113.495697 27.147939 
L 114.676799 27.511063 
L 116.819264 27.902632 
L 120.829518 28.62838 
L 121.928218 29.053528 
L 122.614906 29.548636 
L 123.081853 30.15771 
L 123.438931 30.990806 
L 123.741073 32.281111 
L 124.043216 34.669149 
L 124.455228 37.786174 
L 124.702435 38.173364 
L 125.059513 38.251295 
L 127.559055 38.257537 
L 127.559055 38.257537 
" clip-path="url(#paea3a1a546)" style="fill: none; stroke: #7f7f7f; stroke-width: 1.5; stroke-linecap: square"/>
   </g>
   <g id="line2d_44">
    <path d="M 17.716535 37.162792 
L 17.963743 38.038382 
L 18.21095 38.220063 
L 18.815235 38.25724 
L 54.550449 38.257712 
L 127.559055 38.257712 
L 127.559055 38.257712 
" clip-path="url(#paea3a1a546)" style="fill: none; stroke: #bcbd22; stroke-width: 1.5; stroke-linecap: square"/>
   </g>
   <g id="line2d_45">
    <path d="M 17.716535 24.185361 
L 18.018678 26.902303 
L 18.238418 27.556873 
L 18.348288 27.431257 
L 19.062443 25.970519 
L 19.63926 25.405221 
L 19.859 24.740943 
L 20.106208 23.101864 
L 20.655558 19.143659 
L 20.9577 18.434671 
L 21.28731 18.190739 
L 21.83666 18.113752 
L 24.638345 18.138448 
L 27.797107 18.299292 
L 28.346457 18.520405 
L 28.593664 18.872463 
L 28.758469 19.522692 
L 28.923274 21.158866 
L 29.170482 26.251885 
L 29.664897 37.2251 
L 29.884637 38.041356 
L 30.131844 38.221504 
L 30.763596 38.257336 
L 48.397729 38.188494 
L 54.989929 38.057493 
L 55.401941 37.84556 
L 55.704084 37.353616 
L 56.198498 36.605595 
L 56.692913 36.30584 
L 57.571873 36.09073 
L 59.522066 35.885499 
L 66.27907 35.502246 
L 67.59751 35.674081 
L 67.92712 35.371344 
L 68.174327 34.80123 
L 68.394067 33.611525 
L 68.613807 30.983506 
L 69.300494 21.287743 
L 69.465299 20.974519 
L 69.547702 21.164866 
L 69.685039 22.193116 
L 69.904779 25.756492 
L 70.536532 37.735632 
L 70.756272 38.150369 
L 71.085882 38.247873 
L 72.981139 38.257641 
L 94.735396 38.144585 
L 95.943966 38.001774 
L 96.246109 37.759328 
L 97.372276 36.344211 
L 98.141366 36.126176 
L 99.844351 35.920381 
L 106.464018 35.486893 
L 107.233107 35.552117 
L 108.112067 35.755403 
L 108.496612 35.592414 
L 108.771287 35.250654 
L 108.991027 34.631908 
L 109.210767 33.217934 
L 109.457975 29.719929 
L 109.979857 21.806377 
L 110.199597 20.972066 
L 110.282 21.043994 
L 110.39187 21.588092 
L 110.584142 23.976103 
L 110.858817 30.540293 
L 111.188427 37.04962 
L 111.408167 38.0024 
L 111.655374 38.215052 
L 112.204724 38.256914 
L 125.691265 38.212829 
L 127.559055 38.198085 
L 127.559055 38.198085 
" clip-path="url(#paea3a1a546)" style="fill: none; stroke: #17becf; stroke-width: 1.5; stroke-linecap: square"/>
   </g>
   <g id="line2d_46">
    <path d="M 17.716535 29.150022 
L 18.348288 29.667709 
L 18.787768 30.318751 
L 19.144845 31.284919 
L 19.446988 32.831019 
L 19.859 36.566829 
L 20.133675 37.940466 
L 20.380883 38.202402 
L 20.84783 38.255839 
L 30.269181 38.257712 
L 127.559055 38.257712 
L 127.559055 38.257712 
" clip-path="url(#paea3a1a546)" style="fill: none; stroke: #1f77b4; stroke-width: 1.5; stroke-linecap: square"/>
   </g>
   <g id="line2d_47">
    <path d="M 17.716535 28.64374 
L 17.936275 33.42854 
L 18.43069 37.616867 
L 18.677898 38.138926 
L 18.98004 38.244114 
L 20.353415 38.25637 
L 28.456327 38.130636 
L 28.785937 37.870715 
L 29.362754 37.346472 
L 29.857169 36.854774 
L 30.433986 36.445525 
L 31.230544 36.183534 
L 32.713789 35.965471 
L 36.339498 35.716612 
L 39.882805 35.393903 
L 40.981505 35.091053 
L 41.530855 34.729747 
L 41.887933 34.228687 
L 42.162608 33.402786 
L 42.382348 31.945215 
L 42.602088 28.759705 
L 43.096502 20.877055 
L 43.371177 19.81865 
L 43.618385 19.604908 
L 44.00293 19.625093 
L 46.172862 19.989069 
L 50.265519 20.284805 
L 53.122139 20.598924 
L 54.138436 20.907372 
L 54.687786 21.287941 
L 55.044864 21.797732 
L 55.347006 22.656239 
L 56.280901 25.914302 
L 56.775316 26.533933 
L 57.434536 27.001385 
L 58.423366 27.4096 
L 60.153818 27.848694 
L 63.449918 28.668303 
L 64.41128 29.149993 
L 65.015565 29.699844 
L 65.455045 30.420847 
L 65.784655 31.398588 
L 66.086797 33.071871 
L 66.82842 38.087396 
L 67.103095 38.233997 
L 67.954587 38.257658 
L 69.327962 38.154972 
L 69.630104 37.850425 
L 70.124519 37.359992 
L 70.701337 36.786584 
L 71.278154 36.412075 
L 72.129647 36.156234 
L 73.750229 35.940334 
L 78.309833 35.640042 
L 80.891778 35.349369 
L 81.85314 35.043787 
L 82.375023 34.654909 
L 82.704633 34.131783 
L 82.95184 33.32579 
L 83.17158 31.769665 
L 83.418788 27.853275 
L 83.858268 20.95177 
L 84.132943 19.837548 
L 84.38015 19.608238 
L 84.737228 19.617343 
L 87.181835 20.011864 
L 94.680461 20.8108 
L 95.339681 21.177632 
L 95.724226 21.630085 
L 96.026369 22.330591 
L 96.383446 23.867555 
L 96.822926 25.451567 
L 97.262406 26.222446 
L 97.839224 26.77298 
L 98.635781 27.20533 
L 99.899286 27.610623 
L 104.980773 29.022086 
L 105.639993 29.534008 
L 106.10694 30.179122 
L 106.464018 31.063376 
L 106.76616 32.441712 
L 107.09577 35.235748 
L 107.452847 37.789258 
L 107.700055 38.174219 
L 108.057132 38.251386 
L 109.95239 38.220679 
L 110.282 38.001271 
L 111.435634 36.821496 
L 112.012452 36.429086 
L 112.836477 36.169817 
L 114.374657 35.954021 
L 118.357444 35.687677 
L 121.488738 35.382877 
L 122.559971 35.075178 
L 123.109321 34.694853 
L 123.438931 34.212759 
L 123.713606 33.371793 
L 123.933346 31.872833 
L 124.153086 28.613097 
L 124.6475 20.829726 
L 124.894708 19.856479 
L 125.141915 19.611473 
L 125.498993 19.61533 
L 127.559055 19.972896 
L 127.559055 19.972896 
" clip-path="url(#paea3a1a546)" style="fill: none; stroke: #ff7f0e; stroke-width: 1.5; stroke-linecap: square"/>
   </g>
   <g id="patch_13">
    <path d="M 17.716535 39.284854 
L 17.716535 13.606299 
" style="fill: none; stroke: #000000; stroke-width: 0.8; stroke-linejoin: miter; stroke-linecap: square"/>
   </g>
   <g id="patch_14">
    <path d="M 127.559055 39.284854 
L 127.559055 13.606299 
" style="fill: none; stroke: #000000; stroke-width: 0.8; stroke-linejoin: miter; stroke-linecap: square"/>
   </g>
   <g id="patch_15">
    <path d="M 17.716535 39.284854 
L 127.559055 39.284854 
" style="fill: none; stroke: #000000; stroke-width: 0.8; stroke-linejoin: miter; stroke-linecap: square"/>
   </g>
   <g id="patch_16">
    <path d="M 17.716535 13.606299 
L 127.559055 13.606299 
" style="fill: none; stroke: #000000; stroke-width: 0.8; stroke-linejoin: miter; stroke-linecap: square"/>
   </g>
  </g>
 </g>
 <defs>
  <clipPath id="p237a62c15a">
   <rect x="17.716535" y="75.234831" width="109.84252" height="25.678555"/>
  </clipPath>
  <clipPath id="pa1bd0b1d3e">
   <rect x="17.716535" y="44.420565" width="109.84252" height="25.678555"/>
  </clipPath>
  <clipPath id="paea3a1a546">
   <rect x="17.716535" y="13.606299" width="109.84252" height="25.678555"/>
  </clipPath>
 </defs>
</svg>
