<?xml version="1.0" encoding="utf-8" standalone="no"?>
<!DOCTYPE svg PUBLIC "-//W3C//DTD SVG 1.1//EN"
  "http://www.w3.org/Graphics/SVG/1.1/DTD/svg11.dtd">
<svg xmlns:xlink="http://www.w3.org/1999/xlink" width="283.464567pt" height="255.11811pt" viewBox="0 0 283.464567 255.11811" xmlns="http://www.w3.org/2000/svg" version="1.1">
 <metadata>
  <rdf:RDF xmlns:dc="http://purl.org/dc/elements/1.1/" xmlns:cc="http://creativecommons.org/ns#" xmlns:rdf="http://www.w3.org/1999/02/22-rdf-syntax-ns#">
   <cc:Work>
    <dc:type rdf:resource="http://purl.org/dc/dcmitype/StillImage"/>
    <dc:date>2026-01-15T23:54:59.109842</dc:date>
    <dc:format>image/svg+xml</dc:format>
    <dc:creator>
     <cc:Agent>
      <dc:title>Matplotlib v3.10.7, https://matplotlib.org/</dc:title>
     </cc:Agent>
    </dc:creator>
   </cc:Work>
  </rdf:RDF>
 </metadata>
 <defs>
  <style type="text/css">*{stroke-linejoin: round; stroke-linecap: butt}</style>
 </defs>
 <g id="figure_1">
  <g id="patch_1">
   <path d="M 0 255.11811 
L 283.464567 255.11811 
L 283.464567 0 
L 0 0 
z
" style="fill: #ffffff"/>
  </g>
  <g id="axes_1">
   <g id="patch_2">
    <path d="M 59.242367 130.361265 
Q 68.041449 126.08997 74.113139 120.068601 
" clip-path="url(#p10e0e8e17b)" style="fill: none; stroke: #000000; stroke-width: 1.1; stroke-linecap: round"/>
    <path d="M 65.616162 122.861696 
L 74.113139 120.068601 
L 71.249429 128.542039 
z
" clip-path="url(#p10e0e8e17b)" style="stroke: #000000; stroke-width: 1.1; stroke-linecap: round"/>
   </g>
   <g id="patch_3">
    <path d="M 58.982335 141.15601 
Q 66.087333 147.570752 73.750502 150.868369 
" clip-path="url(#p10e0e8e17b)" style="fill: none; stroke: #000000; stroke-width: 1.1; stroke-linecap: round"/>
    <path d="M 67.983107 144.031912 
L 73.750502 150.868369 
L 64.820899 151.380411 
z
" clip-path="url(#p10e0e8e17b)" style="stroke: #000000; stroke-width: 1.1; stroke-linecap: round"/>
   </g>
   <g id="patch_4">
    <path d="M 82.698057 113.296008 
Q 82.698057 113.296008 82.698057 113.296008 
" clip-path="url(#p10e0e8e17b)" style="fill: none; stroke: #000000; stroke-width: 1.1; stroke-linecap: round"/>
   </g>
   <g id="patch_5">
    <path d="M 82.442388 123.850084 
Q 80.703958 134.781352 82.446466 144.464587 
" clip-path="url(#p10e0e8e17b)" style="fill: none; stroke: #000000; stroke-width: 1.1; stroke-linecap: round"/>
    <path d="M 84.966382 135.882628 
L 82.446466 144.464587 
L 77.092848 137.299478 
z
" clip-path="url(#p10e0e8e17b)" style="stroke: #000000; stroke-width: 1.1; stroke-linecap: round"/>
   </g>
   <g id="patch_6">
    <path d="M 83.134851 156.222767 
Q 83.134851 156.222767 83.134851 156.222767 
" clip-path="url(#p10e0e8e17b)" style="fill: none; stroke: #000000; stroke-width: 1.1; stroke-linecap: round"/>
   </g>
   <g id="patch_7">
    <path d="M 92.897584 150.706175 
Q 104.120383 146.263288 112.292289 139.140453 
" clip-path="url(#p10e0e8e17b)" style="fill: none; stroke: #000000; stroke-width: 1.1; stroke-linecap: round"/>
    <path d="M 103.63335 141.381607 
L 112.292289 139.140453 
L 108.889848 147.412297 
z
" clip-path="url(#p10e0e8e17b)" style="stroke: #000000; stroke-width: 1.1; stroke-linecap: round"/>
   </g>
   <g id="patch_8">
    <path d="M 112.99679 127.240739 
Q 103.626264 120.678723 93.796037 117.920172 
" clip-path="url(#p10e0e8e17b)" style="fill: none; stroke: #000000; stroke-width: 1.1; stroke-linecap: round"/>
    <path d="M 100.417779 123.93287 
L 93.796037 117.920172 
L 102.579241 116.230398 
z
" clip-path="url(#p10e0e8e17b)" style="stroke: #000000; stroke-width: 1.1; stroke-linecap: round"/>
   </g>
   <g id="patch_9">
    <path d="M 122.601249 132.192387 
Q 122.601249 132.192387 122.601249 132.192387 
" clip-path="url(#p10e0e8e17b)" style="fill: none; stroke: #000000; stroke-width: 1.1; stroke-linecap: round"/>
   </g>
   <g id="patch_10">
    <path d="M 125.81078 94.063679 
Q 122.312411 106.912838 123.261947 118.96244 
" clip-path="url(#p10e0e8e17b)" style="fill: none; stroke: #000000; stroke-width: 1.1; stroke-linecap: round"/>
    <path d="M 126.621116 110.672929 
L 123.261947 118.96244 
L 118.64584 111.301399 
z
" clip-path="url(#p10e0e8e17b)" style="stroke: #000000; stroke-width: 1.1; stroke-linecap: round"/>
   </g>
   <g id="patch_11">
    <path d="M 133.153627 73.641745 
Q 140.331017 65.711764 144.031235 56.999105 
" clip-path="url(#p10e0e8e17b)" style="fill: none; stroke: #000000; stroke-width: 1.1; stroke-linecap: round"/>
    <path d="M 137.222287 62.798952 
L 144.031235 56.999105 
L 144.585744 65.926171 
z
" clip-path="url(#p10e0e8e17b)" style="stroke: #000000; stroke-width: 1.1; stroke-linecap: round"/>
   </g>
   <g id="patch_12">
    <path d="M 95.001332 128.501498 
Q 91.974533 123.121845 88.385365 119.723445 
" clip-path="url(#p10e0e8e17b)" style="fill: none; stroke: #000000; stroke-width: 1.1; stroke-linecap: round"/>
    <path d="M 91.444308 128.128376 
L 88.385365 119.723445 
L 96.944676 122.319249 
z
" clip-path="url(#p10e0e8e17b)" style="stroke: #000000; stroke-width: 1.1; stroke-linecap: round"/>
   </g>
   <g id="patch_13">
    <path d="M 94.575203 140.224571 
Q 90.166006 144.604713 87.828593 149.008029 
" clip-path="url(#p10e0e8e17b)" style="fill: none; stroke: #000000; stroke-width: 1.1; stroke-linecap: round"/>
    <path d="M 95.112598 143.817338 
L 87.828593 149.008029 
L 88.046443 140.06641 
z
" clip-path="url(#p10e0e8e17b)" style="stroke: #000000; stroke-width: 1.1; stroke-linecap: round"/>
   </g>
   <g id="patch_14">
    <path d="M 105.912967 134.186593 
Q 111.029372 134.413331 114.807734 133.481631 
" clip-path="url(#p10e0e8e17b)" style="fill: none; stroke: #000000; stroke-width: 1.1; stroke-linecap: round"/>
    <path d="M 106.082732 131.513297 
L 114.807734 133.481631 
L 107.998065 139.280632 
z
" clip-path="url(#p10e0e8e17b)" style="stroke: #000000; stroke-width: 1.1; stroke-linecap: round"/>
   </g>
   <g id="patch_15">
    <path d="M 182.591709 134.369729 
Q 173.294934 141.145846 167.465864 149.606589 
" clip-path="url(#p10e0e8e17b)" style="fill: none; stroke: #000000; stroke-width: 1.1; stroke-linecap: round"/>
    <path d="M 175.29853 145.288099 
L 167.465864 149.606589 
L 168.710672 140.749363 
z
" clip-path="url(#p10e0e8e17b)" style="stroke: #000000; stroke-width: 1.1; stroke-linecap: round"/>
   </g>
   <g id="patch_16">
    <path d="M 150.712602 151.906248 
Q 142.409765 143.498131 132.889357 138.867513 
" clip-path="url(#p10e0e8e17b)" style="fill: none; stroke: #000000; stroke-width: 1.1; stroke-linecap: round"/>
    <path d="M 138.333936 145.963748 
L 132.889357 138.867513 
L 141.833093 138.769591 
z
" clip-path="url(#p10e0e8e17b)" style="stroke: #000000; stroke-width: 1.1; stroke-linecap: round"/>
   </g>
   <g id="patch_17">
    <path d="M 139.483866 102.921923 
Q 131.980747 111.776118 128.27753 121.468646 
" clip-path="url(#p10e0e8e17b)" style="fill: none; stroke: #000000; stroke-width: 1.1; stroke-linecap: round"/>
    <path d="M 134.869341 115.42315 
L 128.27753 121.468646 
L 127.39622 112.5679 
z
" clip-path="url(#p10e0e8e17b)" style="stroke: #000000; stroke-width: 1.1; stroke-linecap: round"/>
   </g>
   <g id="patch_18">
    <path d="M 146.77836 82.452124 
Q 149.992994 70.583956 149.149163 59.550303 
" clip-path="url(#p10e0e8e17b)" style="fill: none; stroke: #000000; stroke-width: 1.1; stroke-linecap: round"/>
    <path d="M 145.770852 67.832031 
L 149.149163 59.550303 
L 153.747558 67.221988 
z
" clip-path="url(#p10e0e8e17b)" style="stroke: #000000; stroke-width: 1.1; stroke-linecap: round"/>
   </g>
   <g id="patch_19">
    <path d="M 149.757659 46.984252 
Q 149.757659 46.984252 149.757659 46.984252 
" clip-path="url(#p10e0e8e17b)" style="fill: none; stroke: #000000; stroke-width: 1.1; stroke-linecap: round"/>
   </g>
   <g id="patch_20">
    <path d="M 76.734183 77.709142 
Q 76.548873 90.189364 80.158855 100.846278 
" clip-path="url(#p10e0e8e17b)" style="fill: none; stroke: #000000; stroke-width: 1.1; stroke-linecap: round"/>
    <path d="M 81.380692 91.985854 
L 80.158855 100.846278 
L 73.803618 94.552554 
z
" clip-path="url(#p10e0e8e17b)" style="stroke: #000000; stroke-width: 1.1; stroke-linecap: round"/>
   </g>
   <g id="patch_21">
    <path d="M 75.313805 66.310887 
Q 75.313805 66.310887 75.313805 66.310887 
" clip-path="url(#p10e0e8e17b)" style="fill: none; stroke: #000000; stroke-width: 1.1; stroke-linecap: round"/>
   </g>
   <g id="patch_22">
    <path d="M 78.636567 192.417104 
Q 82.426739 180.366137 82.000805 168.970899 
" clip-path="url(#p10e0e8e17b)" style="fill: none; stroke: #000000; stroke-width: 1.1; stroke-linecap: round"/>
    <path d="M 78.302414 177.114725 
L 82.000805 168.970899 
L 86.296831 176.815907 
z
" clip-path="url(#p10e0e8e17b)" style="stroke: #000000; stroke-width: 1.1; stroke-linecap: round"/>
   </g>
   <g id="patch_23">
    <path d="M 187.183895 160.16287 
Q 178.12967 158.031362 170.094365 158.799105 
" clip-path="url(#p10e0e8e17b)" style="fill: none; stroke: #000000; stroke-width: 1.1; stroke-linecap: round"/>
    <path d="M 178.438549 162.020066 
L 170.094365 158.799105 
L 177.677644 154.056334 
z
" clip-path="url(#p10e0e8e17b)" style="stroke: #000000; stroke-width: 1.1; stroke-linecap: round"/>
   </g>
   <g id="patch_24">
    <path d="M 59.338071 175.560847 
Q 68.452667 170.530311 74.602041 163.713237 
" clip-path="url(#p10e0e8e17b)" style="fill: none; stroke: #000000; stroke-width: 1.1; stroke-linecap: round"/>
    <path d="M 66.273443 166.974289 
L 74.602041 163.713237 
L 72.213723 172.332746 
z
" clip-path="url(#p10e0e8e17b)" style="stroke: #000000; stroke-width: 1.1; stroke-linecap: round"/>
   </g>
   <g id="patch_25">
    <path d="M 123.190538 165.717538 
Q 125.048131 154.360067 123.252864 144.2395 
" clip-path="url(#p10e0e8e17b)" style="fill: none; stroke: #000000; stroke-width: 1.1; stroke-linecap: round"/>
    <path d="M 120.71164 152.815174 
L 123.252864 144.2395 
L 128.588668 151.417884 
z
" clip-path="url(#p10e0e8e17b)" style="stroke: #000000; stroke-width: 1.1; stroke-linecap: round"/>
   </g>
   <g id="patch_26">
    <path d="M 57.990622 96.04051 
Q 65.196151 103.27534 73.260082 107.229046 
" clip-path="url(#p10e0e8e17b)" style="fill: none; stroke: #000000; stroke-width: 1.1; stroke-linecap: round"/>
    <path d="M 67.837913 100.115672 
L 73.260082 107.229046 
L 64.316082 107.298757 
z
" clip-path="url(#p10e0e8e17b)" style="stroke: #000000; stroke-width: 1.1; stroke-linecap: round"/>
   </g>
   <g id="patch_27">
    <path d="M 177.713503 186.323668 
Q 173.255199 175.869001 166.419627 168.385215 
" clip-path="url(#p10e0e8e17b)" style="fill: none; stroke: #000000; stroke-width: 1.1; stroke-linecap: round"/>
    <path d="M 168.861439 176.989723 
L 166.419627 168.385215 
L 174.76832 171.59447 
z
" clip-path="url(#p10e0e8e17b)" style="stroke: #000000; stroke-width: 1.1; stroke-linecap: round"/>
   </g>
   <g id="patch_28">
    <path d="M 159.13901 198.318363 
Q 161.765952 184.71147 159.81106 172.235542 
" clip-path="url(#p10e0e8e17b)" style="fill: none; stroke: #000000; stroke-width: 1.1; stroke-linecap: round"/>
    <path d="M 157.097713 180.758321 
L 159.81106 172.235542 
L 165.001274 179.519887 
z
" clip-path="url(#p10e0e8e17b)" style="stroke: #000000; stroke-width: 1.1; stroke-linecap: round"/>
   </g>
   <g id="PathCollection_1">
    <defs>
     <path id="C0_0_3ce4fab6c1" d="M 0 8.660254 
C 2.296726 8.660254 4.499694 7.747755 6.123724 6.123724 
C 7.747755 4.499694 8.660254 2.296726 8.660254 -0 
C 8.660254 -2.296726 7.747755 -4.499694 6.123724 -6.123724 
C 4.499694 -7.747755 2.296726 -8.660254 0 -8.660254 
C -2.296726 -8.660254 -4.499694 -7.747755 -6.123724 -6.123724 
C -7.747755 -4.499694 -8.660254 -2.296726 -8.660254 0 
C -8.660254 2.296726 -7.747755 4.499694 -6.123724 6.123724 
C -4.499694 7.747755 -2.296726 8.660254 0 8.660254 
z
"/>
    </defs>
    <g clip-path="url(#p10e0e8e17b)">
     <use xlink:href="#C0_0_3ce4fab6c1" x="51.11458" y="135.680949" style="fill: #ff6699; fill-opacity: 0.9; stroke: #ffffff; stroke-opacity: 0.9"/>
    </g>
    <g clip-path="url(#p10e0e8e17b)">
     <use xlink:href="#C0_0_3ce4fab6c1" x="82.698057" y="113.296008" style="fill: #ff9966; fill-opacity: 0.9; stroke: #ffffff; stroke-opacity: 0.9"/>
    </g>
    <g clip-path="url(#p10e0e8e17b)">
     <use xlink:href="#C0_0_3ce4fab6c1" x="83.134851" y="156.222767" style="fill: #ff9966; fill-opacity: 0.9; stroke: #ffffff; stroke-opacity: 0.9"/>
    </g>
    <g clip-path="url(#p10e0e8e17b)">
     <use xlink:href="#C0_0_3ce4fab6c1" x="122.601249" y="132.192387" style="fill: #ffcc33; fill-opacity: 0.9; stroke: #ffffff; stroke-opacity: 0.9"/>
    </g>
    <g clip-path="url(#p10e0e8e17b)">
     <use xlink:href="#C0_0_3ce4fab6c1" x="127.299193" y="82.131517" style="fill: #ff33cc; fill-opacity: 0.9; stroke: #ffffff; stroke-opacity: 0.9"/>
    </g>
    <g clip-path="url(#p10e0e8e17b)">
     <use xlink:href="#C0_0_3ce4fab6c1" x="99.249029" y="134.506467" style="fill: #ff6699; fill-opacity: 0.9; stroke: #ffffff; stroke-opacity: 0.9"/>
    </g>
    <g clip-path="url(#p10e0e8e17b)">
     <use xlink:href="#C0_0_3ce4fab6c1" x="190.412064" y="126.860701" style="fill: #ffcc33; fill-opacity: 0.9; stroke: #ffffff; stroke-opacity: 0.9"/>
    </g>
    <g clip-path="url(#p10e0e8e17b)">
     <use xlink:href="#C0_0_3ce4fab6c1" x="159.469799" y="158.635689" style="fill: #ffcc33; fill-opacity: 0.9; stroke: #ffffff; stroke-opacity: 0.9"/>
    </g>
    <g clip-path="url(#p10e0e8e17b)">
     <use xlink:href="#C0_0_3ce4fab6c1" x="145.348466" y="93.719359" style="fill: #ff6699; fill-opacity: 0.9; stroke: #ffffff; stroke-opacity: 0.9"/>
    </g>
    <g clip-path="url(#p10e0e8e17b)">
     <use xlink:href="#C0_0_3ce4fab6c1" x="149.757659" y="46.984252" style="fill: #ffcc33; fill-opacity: 0.9; stroke: #ffffff; stroke-opacity: 0.9"/>
    </g>
    <g clip-path="url(#p10e0e8e17b)">
     <use xlink:href="#C0_0_3ce4fab6c1" x="75.313805" y="66.310887" style="fill: #ffcc33; fill-opacity: 0.9; stroke: #ffffff; stroke-opacity: 0.9"/>
    </g>
    <g clip-path="url(#p10e0e8e17b)">
     <use xlink:href="#C0_0_3ce4fab6c1" x="76.730063" y="203.841643" style="fill: #ffcc33; fill-opacity: 0.9; stroke: #ffffff; stroke-opacity: 0.9"/>
    </g>
    <g clip-path="url(#p10e0e8e17b)">
     <use xlink:href="#C0_0_3ce4fab6c1" x="196.535433" y="161.159083" style="fill: #ff6699; fill-opacity: 0.9; stroke: #ffffff; stroke-opacity: 0.9"/>
    </g>
    <g clip-path="url(#p10e0e8e17b)">
     <use xlink:href="#C0_0_3ce4fab6c1" x="51.179663" y="181.57008" style="fill: #ff6699; fill-opacity: 0.9; stroke: #ffffff; stroke-opacity: 0.9"/>
    </g>
    <g clip-path="url(#p10e0e8e17b)">
     <use xlink:href="#C0_0_3ce4fab6c1" x="122.899168" y="176.559341" style="fill: #ff9966; fill-opacity: 0.9; stroke: #ffffff; stroke-opacity: 0.9"/>
    </g>
    <g clip-path="url(#p10e0e8e17b)">
     <use xlink:href="#C0_0_3ce4fab6c1" x="50.07874" y="89.928454" style="fill: #ff6699; fill-opacity: 0.9; stroke: #ffffff; stroke-opacity: 0.9"/>
    </g>
    <g clip-path="url(#p10e0e8e17b)">
     <use xlink:href="#C0_0_3ce4fab6c1" x="183.220772" y="195.556889" style="fill: #ff9966; fill-opacity: 0.9; stroke: #ffffff; stroke-opacity: 0.9"/>
    </g>
    <g clip-path="url(#p10e0e8e17b)">
     <use xlink:href="#C0_0_3ce4fab6c1" x="158.553127" y="210.685039" style="fill: #ff9966; fill-opacity: 0.9; stroke: #ffffff; stroke-opacity: 0.9"/>
    </g>
   </g>
   <g id="text_1">
    <g clip-path="url(#p10e0e8e17b)">
     <!-- G1 -->
     <g transform="translate(45.778955 137.754699) scale(0.08 -0.08)">
      <defs>
       <path id="Arial-BoldMT-47" d="M 2597 1684 
L 2597 2456 
L 4591 2456 
L 4591 631 
Q 4300 350 3748 136 
Q 3197 -78 2631 -78 
Q 1913 -78 1378 223 
Q 844 525 575 1086 
Q 306 1647 306 2306 
Q 306 3022 606 3578 
Q 906 4134 1484 4431 
Q 1925 4659 2581 4659 
Q 3434 4659 3914 4301 
Q 4394 3944 4531 3313 
L 3613 3141 
Q 3516 3478 3248 3673 
Q 2981 3869 2581 3869 
Q 1975 3869 1617 3484 
Q 1259 3100 1259 2344 
Q 1259 1528 1621 1120 
Q 1984 713 2572 713 
Q 2863 713 3155 827 
Q 3447 941 3656 1103 
L 3656 1684 
L 2597 1684 
z
" transform="scale(0.015625)"/>
       <path id="Arial-BoldMT-31" d="M 2519 0 
L 1641 0 
L 1641 3309 
Q 1159 2859 506 2644 
L 506 3441 
Q 850 3553 1253 3867 
Q 1656 4181 1806 4600 
L 2519 4600 
L 2519 0 
z
" transform="scale(0.015625)"/>
      </defs>
      <use xlink:href="#Arial-BoldMT-47"/>
      <use xlink:href="#Arial-BoldMT-31" transform="translate(77.783203 0)"/>
     </g>
    </g>
   </g>
   <g id="text_2">
    <g clip-path="url(#p10e0e8e17b)">
     <!-- G2 -->
     <g transform="translate(77.362432 115.369758) scale(0.08 -0.08)">
      <defs>
       <path id="Arial-BoldMT-32" d="M 3238 816 
L 3238 0 
L 159 0 
Q 209 463 459 877 
Q 709 1291 1447 1975 
Q 2041 2528 2175 2725 
Q 2356 2997 2356 3263 
Q 2356 3556 2198 3714 
Q 2041 3872 1763 3872 
Q 1488 3872 1325 3706 
Q 1163 3541 1138 3156 
L 263 3244 
Q 341 3969 753 4284 
Q 1166 4600 1784 4600 
Q 2463 4600 2850 4234 
Q 3238 3869 3238 3325 
Q 3238 3016 3127 2736 
Q 3016 2456 2775 2150 
Q 2616 1947 2200 1565 
Q 1784 1184 1673 1059 
Q 1563 934 1494 816 
L 3238 816 
z
" transform="scale(0.015625)"/>
      </defs>
      <use xlink:href="#Arial-BoldMT-47"/>
      <use xlink:href="#Arial-BoldMT-32" transform="translate(77.783203 0)"/>
     </g>
    </g>
   </g>
   <g id="text_3">
    <g clip-path="url(#p10e0e8e17b)">
     <!-- G3 -->
     <g transform="translate(77.799226 158.296517) scale(0.08 -0.08)">
      <defs>
       <path id="Arial-BoldMT-33" d="M 241 1216 
L 1091 1319 
Q 1131 994 1309 822 
Q 1488 650 1741 650 
Q 2013 650 2198 856 
Q 2384 1063 2384 1413 
Q 2384 1744 2206 1937 
Q 2028 2131 1772 2131 
Q 1603 2131 1369 2066 
L 1466 2781 
Q 1822 2772 2009 2936 
Q 2197 3100 2197 3372 
Q 2197 3603 2059 3740 
Q 1922 3878 1694 3878 
Q 1469 3878 1309 3722 
Q 1150 3566 1116 3266 
L 306 3403 
Q 391 3819 561 4067 
Q 731 4316 1036 4458 
Q 1341 4600 1719 4600 
Q 2366 4600 2756 4188 
Q 3078 3850 3078 3425 
Q 3078 2822 2419 2463 
Q 2813 2378 3048 2084 
Q 3284 1791 3284 1375 
Q 3284 772 2843 347 
Q 2403 -78 1747 -78 
Q 1125 -78 715 280 
Q 306 638 241 1216 
z
" transform="scale(0.015625)"/>
      </defs>
      <use xlink:href="#Arial-BoldMT-47"/>
      <use xlink:href="#Arial-BoldMT-33" transform="translate(77.783203 0)"/>
     </g>
    </g>
   </g>
   <g id="text_4">
    <g clip-path="url(#p10e0e8e17b)">
     <!-- G4 -->
     <g transform="translate(117.265624 134.266137) scale(0.08 -0.08)">
      <defs>
       <path id="Arial-BoldMT-34" d="M 1994 0 
L 1994 922 
L 119 922 
L 119 1691 
L 2106 4600 
L 2844 4600 
L 2844 1694 
L 3413 1694 
L 3413 922 
L 2844 922 
L 2844 0 
L 1994 0 
z
M 1994 1694 
L 1994 3259 
L 941 1694 
L 1994 1694 
z
" transform="scale(0.015625)"/>
      </defs>
      <use xlink:href="#Arial-BoldMT-47"/>
      <use xlink:href="#Arial-BoldMT-34" transform="translate(77.783203 0)"/>
     </g>
    </g>
   </g>
   <g id="text_5">
    <g clip-path="url(#p10e0e8e17b)">
     <!-- G5 -->
     <g transform="translate(121.963568 84.205267) scale(0.08 -0.08)">
      <defs>
       <path id="Arial-BoldMT-35" d="M 284 1178 
L 1159 1269 
Q 1197 972 1381 798 
Q 1566 625 1806 625 
Q 2081 625 2272 848 
Q 2463 1072 2463 1522 
Q 2463 1944 2273 2155 
Q 2084 2366 1781 2366 
Q 1403 2366 1103 2031 
L 391 2134 
L 841 4519 
L 3163 4519 
L 3163 3697 
L 1506 3697 
L 1369 2919 
Q 1663 3066 1969 3066 
Q 2553 3066 2959 2641 
Q 3366 2216 3366 1538 
Q 3366 972 3038 528 
Q 2591 -78 1797 -78 
Q 1163 -78 763 262 
Q 363 603 284 1178 
z
" transform="scale(0.015625)"/>
      </defs>
      <use xlink:href="#Arial-BoldMT-47"/>
      <use xlink:href="#Arial-BoldMT-35" transform="translate(77.783203 0)"/>
     </g>
    </g>
   </g>
   <g id="text_6">
    <g clip-path="url(#p10e0e8e17b)">
     <!-- G6 -->
     <g transform="translate(93.913404 136.580217) scale(0.08 -0.08)">
      <defs>
       <path id="Arial-BoldMT-36" d="M 3247 3459 
L 2397 3366 
Q 2366 3628 2234 3753 
Q 2103 3878 1894 3878 
Q 1616 3878 1423 3628 
Q 1231 3378 1181 2588 
Q 1509 2975 1997 2975 
Q 2547 2975 2939 2556 
Q 3331 2138 3331 1475 
Q 3331 772 2918 347 
Q 2506 -78 1859 -78 
Q 1166 -78 719 461 
Q 272 1000 272 2228 
Q 272 3488 737 4044 
Q 1203 4600 1947 4600 
Q 2469 4600 2811 4308 
Q 3153 4016 3247 3459 
z
M 1256 1544 
Q 1256 1116 1453 883 
Q 1650 650 1903 650 
Q 2147 650 2309 840 
Q 2472 1031 2472 1466 
Q 2472 1913 2297 2120 
Q 2122 2328 1859 2328 
Q 1606 2328 1431 2129 
Q 1256 1931 1256 1544 
z
" transform="scale(0.015625)"/>
      </defs>
      <use xlink:href="#Arial-BoldMT-47"/>
      <use xlink:href="#Arial-BoldMT-36" transform="translate(77.783203 0)"/>
     </g>
    </g>
   </g>
   <g id="text_7">
    <g clip-path="url(#p10e0e8e17b)">
     <!-- G7 -->
     <g transform="translate(185.076439 128.934451) scale(0.08 -0.08)">
      <defs>
       <path id="Arial-BoldMT-37" d="M 272 3703 
L 272 4519 
L 3275 4519 
L 3275 3881 
Q 2903 3516 2518 2831 
Q 2134 2147 1932 1376 
Q 1731 606 1734 0 
L 888 0 
Q 909 950 1279 1937 
Q 1650 2925 2269 3703 
L 272 3703 
z
" transform="scale(0.015625)"/>
      </defs>
      <use xlink:href="#Arial-BoldMT-47"/>
      <use xlink:href="#Arial-BoldMT-37" transform="translate(77.783203 0)"/>
     </g>
    </g>
   </g>
   <g id="text_8">
    <g clip-path="url(#p10e0e8e17b)">
     <!-- G8 -->
     <g transform="translate(154.134174 160.709439) scale(0.08 -0.08)">
      <defs>
       <path id="Arial-BoldMT-38" d="M 1025 2472 
Q 684 2616 529 2867 
Q 375 3119 375 3419 
Q 375 3931 733 4265 
Q 1091 4600 1750 4600 
Q 2403 4600 2764 4265 
Q 3125 3931 3125 3419 
Q 3125 3100 2959 2851 
Q 2794 2603 2494 2472 
Q 2875 2319 3073 2025 
Q 3272 1731 3272 1347 
Q 3272 713 2867 316 
Q 2463 -81 1791 -81 
Q 1166 -81 750 247 
Q 259 634 259 1309 
Q 259 1681 443 1992 
Q 628 2303 1025 2472 
z
M 1206 3356 
Q 1206 3094 1354 2947 
Q 1503 2800 1750 2800 
Q 2000 2800 2150 2948 
Q 2300 3097 2300 3359 
Q 2300 3606 2151 3754 
Q 2003 3903 1759 3903 
Q 1506 3903 1356 3753 
Q 1206 3603 1206 3356 
z
M 1125 1394 
Q 1125 1031 1311 828 
Q 1497 625 1775 625 
Q 2047 625 2225 820 
Q 2403 1016 2403 1384 
Q 2403 1706 2222 1901 
Q 2041 2097 1763 2097 
Q 1441 2097 1283 1875 
Q 1125 1653 1125 1394 
z
" transform="scale(0.015625)"/>
      </defs>
      <use xlink:href="#Arial-BoldMT-47"/>
      <use xlink:href="#Arial-BoldMT-38" transform="translate(77.783203 0)"/>
     </g>
    </g>
   </g>
   <g id="text_9">
    <g clip-path="url(#p10e0e8e17b)">
     <!-- G9 -->
     <g transform="translate(140.012841 95.793109) scale(0.08 -0.08)">
      <defs>
       <path id="Arial-BoldMT-39" d="M 291 1059 
L 1141 1153 
Q 1172 894 1303 769 
Q 1434 644 1650 644 
Q 1922 644 2112 894 
Q 2303 1144 2356 1931 
Q 2025 1547 1528 1547 
Q 988 1547 595 1964 
Q 203 2381 203 3050 
Q 203 3747 617 4173 
Q 1031 4600 1672 4600 
Q 2369 4600 2816 4061 
Q 3263 3522 3263 2288 
Q 3263 1031 2797 475 
Q 2331 -81 1584 -81 
Q 1047 -81 715 205 
Q 384 491 291 1059 
z
M 2278 2978 
Q 2278 3403 2083 3637 
Q 1888 3872 1631 3872 
Q 1388 3872 1227 3680 
Q 1066 3488 1066 3050 
Q 1066 2606 1241 2398 
Q 1416 2191 1678 2191 
Q 1931 2191 2104 2391 
Q 2278 2591 2278 2978 
z
" transform="scale(0.015625)"/>
      </defs>
      <use xlink:href="#Arial-BoldMT-47"/>
      <use xlink:href="#Arial-BoldMT-39" transform="translate(77.783203 0)"/>
     </g>
    </g>
   </g>
   <g id="text_10">
    <g clip-path="url(#p10e0e8e17b)">
     <!-- G10 -->
     <g transform="translate(142.197659 49.058002) scale(0.08 -0.08)">
      <defs>
       <path id="Arial-BoldMT-30" d="M 1756 4600 
Q 2422 4600 2797 4125 
Q 3244 3563 3244 2259 
Q 3244 959 2794 391 
Q 2422 -78 1756 -78 
Q 1088 -78 678 436 
Q 269 950 269 2269 
Q 269 3563 719 4131 
Q 1091 4600 1756 4600 
z
M 1756 3872 
Q 1597 3872 1472 3770 
Q 1347 3669 1278 3406 
Q 1188 3066 1188 2259 
Q 1188 1453 1269 1151 
Q 1350 850 1473 750 
Q 1597 650 1756 650 
Q 1916 650 2041 751 
Q 2166 853 2234 1116 
Q 2325 1453 2325 2259 
Q 2325 3066 2244 3367 
Q 2163 3669 2039 3770 
Q 1916 3872 1756 3872 
z
" transform="scale(0.015625)"/>
      </defs>
      <use xlink:href="#Arial-BoldMT-47"/>
      <use xlink:href="#Arial-BoldMT-31" transform="translate(77.783203 0)"/>
      <use xlink:href="#Arial-BoldMT-30" transform="translate(133.398438 0)"/>
     </g>
    </g>
   </g>
   <g id="text_11">
    <g clip-path="url(#p10e0e8e17b)">
     <!-- G11 -->
     <g transform="translate(67.973805 68.384637) scale(0.08 -0.08)">
      <use xlink:href="#Arial-BoldMT-47"/>
      <use xlink:href="#Arial-BoldMT-31" transform="translate(77.783203 0)"/>
      <use xlink:href="#Arial-BoldMT-31" transform="translate(127.898438 0)"/>
     </g>
    </g>
   </g>
   <g id="text_12">
    <g clip-path="url(#p10e0e8e17b)">
     <!-- G12 -->
     <g transform="translate(69.170063 205.915393) scale(0.08 -0.08)">
      <use xlink:href="#Arial-BoldMT-47"/>
      <use xlink:href="#Arial-BoldMT-31" transform="translate(77.783203 0)"/>
      <use xlink:href="#Arial-BoldMT-32" transform="translate(133.398438 0)"/>
     </g>
    </g>
   </g>
   <g id="text_13">
    <g clip-path="url(#p10e0e8e17b)">
     <!-- G13 -->
     <g transform="translate(188.975433 163.232833) scale(0.08 -0.08)">
      <use xlink:href="#Arial-BoldMT-47"/>
      <use xlink:href="#Arial-BoldMT-31" transform="translate(77.783203 0)"/>
      <use xlink:href="#Arial-BoldMT-33" transform="translate(133.398438 0)"/>
     </g>
    </g>
   </g>
   <g id="text_14">
    <g clip-path="url(#p10e0e8e17b)">
     <!-- G14 -->
     <g transform="translate(43.619663 183.64383) scale(0.08 -0.08)">
      <use xlink:href="#Arial-BoldMT-47"/>
      <use xlink:href="#Arial-BoldMT-31" transform="translate(77.783203 0)"/>
      <use xlink:href="#Arial-BoldMT-34" transform="translate(133.398438 0)"/>
     </g>
    </g>
   </g>
   <g id="text_15">
    <g clip-path="url(#p10e0e8e17b)">
     <!-- G15 -->
     <g transform="translate(115.339168 178.633091) scale(0.08 -0.08)">
      <use xlink:href="#Arial-BoldMT-47"/>
      <use xlink:href="#Arial-BoldMT-31" transform="translate(77.783203 0)"/>
      <use xlink:href="#Arial-BoldMT-35" transform="translate(133.398438 0)"/>
     </g>
    </g>
   </g>
   <g id="text_16">
    <g clip-path="url(#p10e0e8e17b)">
     <!-- G16 -->
     <g transform="translate(42.51874 92.002204) scale(0.08 -0.08)">
      <use xlink:href="#Arial-BoldMT-47"/>
      <use xlink:href="#Arial-BoldMT-31" transform="translate(77.783203 0)"/>
      <use xlink:href="#Arial-BoldMT-36" transform="translate(133.398438 0)"/>
     </g>
    </g>
   </g>
   <g id="text_17">
    <g clip-path="url(#p10e0e8e17b)">
     <!-- G17 -->
     <g transform="translate(175.660772 197.630639) scale(0.08 -0.08)">
      <use xlink:href="#Arial-BoldMT-47"/>
      <use xlink:href="#Arial-BoldMT-31" transform="translate(77.783203 0)"/>
      <use xlink:href="#Arial-BoldMT-37" transform="translate(133.398438 0)"/>
     </g>
    </g>
   </g>
   <g id="text_18">
    <g clip-path="url(#p10e0e8e17b)">
     <!-- G18 -->
     <g transform="translate(150.993127 212.758789) scale(0.08 -0.08)">
      <use xlink:href="#Arial-BoldMT-47"/>
      <use xlink:href="#Arial-BoldMT-31" transform="translate(77.783203 0)"/>
      <use xlink:href="#Arial-BoldMT-38" transform="translate(133.398438 0)"/>
     </g>
    </g>
   </g>
  </g>
  <g id="axes_2">
   <g id="patch_29">
    <path d="M 222.165354 168.122835 
L 226.094173 168.122835 
L 226.094173 89.546457 
L 222.165354 89.546457 
z
" style="fill: #ffffff"/>
   </g>
   <g id="QuadMesh_1">
    <path d="M 222.165354 168.122835 
L 226.094173 168.122835 
L 226.094173 152.407559 
L 222.165354 152.407559 
L 222.165354 168.122835 
" clip-path="url(#p7ed0069d42)" style="fill: #ffff00"/>
    <path d="M 222.165354 152.407559 
L 226.094173 152.407559 
L 226.094173 136.692283 
L 222.165354 136.692283 
L 222.165354 152.407559 
" clip-path="url(#p7ed0069d42)" style="fill: #ffcc33"/>
    <path d="M 222.165354 136.692283 
L 226.094173 136.692283 
L 226.094173 120.977008 
L 222.165354 120.977008 
L 222.165354 136.692283 
" clip-path="url(#p7ed0069d42)" style="fill: #ff9966"/>
    <path d="M 222.165354 120.977008 
L 226.094173 120.977008 
L 226.094173 105.261732 
L 222.165354 105.261732 
L 222.165354 120.977008 
" clip-path="url(#p7ed0069d42)" style="fill: #ff6699"/>
    <path d="M 222.165354 105.261732 
L 226.094173 105.261732 
L 226.094173 89.546457 
L 222.165354 89.546457 
L 222.165354 105.261732 
" clip-path="url(#p7ed0069d42)" style="fill: #ff33cc"/>
   </g>
   <g id="matplotlib.axis_1"/>
   <g id="matplotlib.axis_2">
    <g id="ytick_1">
     <g id="line2d_1">
      <defs>
       <path id="m60518f35fc" d="M 0 0 
L 3.5 0 
" style="stroke: #000000; stroke-width: 0.8"/>
      </defs>
      <g>
       <use xlink:href="#m60518f35fc" x="226.094173" y="160.265197" style="stroke: #000000; stroke-width: 0.8"/>
      </g>
     </g>
     <g id="text_19">
      <!-- 1 -->
      <g transform="translate(233.094173 162.770431) scale(0.07 -0.07)">
       <defs>
        <path id="ArialMT-31" d="M 2384 0 
L 1822 0 
L 1822 3584 
Q 1619 3391 1289 3197 
Q 959 3003 697 2906 
L 697 3450 
Q 1169 3672 1522 3987 
Q 1875 4303 2022 4600 
L 2384 4600 
L 2384 0 
z
" transform="scale(0.015625)"/>
       </defs>
       <use xlink:href="#ArialMT-31"/>
      </g>
     </g>
    </g>
    <g id="ytick_2">
     <g id="line2d_2">
      <g>
       <use xlink:href="#m60518f35fc" x="226.094173" y="144.549921" style="stroke: #000000; stroke-width: 0.8"/>
      </g>
     </g>
     <g id="text_20">
      <!-- 2 -->
      <g transform="translate(233.094173 147.055156) scale(0.07 -0.07)">
       <defs>
        <path id="ArialMT-32" d="M 3222 541 
L 3222 0 
L 194 0 
Q 188 203 259 391 
Q 375 700 629 1000 
Q 884 1300 1366 1694 
Q 2113 2306 2375 2664 
Q 2638 3022 2638 3341 
Q 2638 3675 2398 3904 
Q 2159 4134 1775 4134 
Q 1369 4134 1125 3890 
Q 881 3647 878 3216 
L 300 3275 
Q 359 3922 746 4261 
Q 1134 4600 1788 4600 
Q 2447 4600 2831 4234 
Q 3216 3869 3216 3328 
Q 3216 3053 3103 2787 
Q 2991 2522 2730 2228 
Q 2469 1934 1863 1422 
Q 1356 997 1212 845 
Q 1069 694 975 541 
L 3222 541 
z
" transform="scale(0.015625)"/>
       </defs>
       <use xlink:href="#ArialMT-32"/>
      </g>
     </g>
    </g>
    <g id="ytick_3">
     <g id="line2d_3">
      <g>
       <use xlink:href="#m60518f35fc" x="226.094173" y="128.834646" style="stroke: #000000; stroke-width: 0.8"/>
      </g>
     </g>
     <g id="text_21">
      <!-- 3 -->
      <g transform="translate(233.094173 131.33988) scale(0.07 -0.07)">
       <defs>
        <path id="ArialMT-33" d="M 269 1209 
L 831 1284 
Q 928 806 1161 595 
Q 1394 384 1728 384 
Q 2125 384 2398 659 
Q 2672 934 2672 1341 
Q 2672 1728 2419 1979 
Q 2166 2231 1775 2231 
Q 1616 2231 1378 2169 
L 1441 2663 
Q 1497 2656 1531 2656 
Q 1891 2656 2178 2843 
Q 2466 3031 2466 3422 
Q 2466 3731 2256 3934 
Q 2047 4138 1716 4138 
Q 1388 4138 1169 3931 
Q 950 3725 888 3313 
L 325 3413 
Q 428 3978 793 4289 
Q 1159 4600 1703 4600 
Q 2078 4600 2393 4439 
Q 2709 4278 2876 4000 
Q 3044 3722 3044 3409 
Q 3044 3113 2884 2869 
Q 2725 2625 2413 2481 
Q 2819 2388 3044 2092 
Q 3269 1797 3269 1353 
Q 3269 753 2831 336 
Q 2394 -81 1725 -81 
Q 1122 -81 723 278 
Q 325 638 269 1209 
z
" transform="scale(0.015625)"/>
       </defs>
       <use xlink:href="#ArialMT-33"/>
      </g>
     </g>
    </g>
    <g id="ytick_4">
     <g id="line2d_4">
      <g>
       <use xlink:href="#m60518f35fc" x="226.094173" y="113.11937" style="stroke: #000000; stroke-width: 0.8"/>
      </g>
     </g>
     <g id="text_22">
      <!-- 4 -->
      <g transform="translate(233.094173 115.624604) scale(0.07 -0.07)">
       <defs>
        <path id="ArialMT-34" d="M 2069 0 
L 2069 1097 
L 81 1097 
L 81 1613 
L 2172 4581 
L 2631 4581 
L 2631 1613 
L 3250 1613 
L 3250 1097 
L 2631 1097 
L 2631 0 
L 2069 0 
z
M 2069 1613 
L 2069 3678 
L 634 1613 
L 2069 1613 
z
" transform="scale(0.015625)"/>
       </defs>
       <use xlink:href="#ArialMT-34"/>
      </g>
     </g>
    </g>
    <g id="ytick_5">
     <g id="line2d_5">
      <g>
       <use xlink:href="#m60518f35fc" x="226.094173" y="97.404094" style="stroke: #000000; stroke-width: 0.8"/>
      </g>
     </g>
     <g id="text_23">
      <!-- 5 -->
      <g transform="translate(233.094173 99.909329) scale(0.07 -0.07)">
       <defs>
        <path id="ArialMT-35" d="M 266 1200 
L 856 1250 
Q 922 819 1161 601 
Q 1400 384 1738 384 
Q 2144 384 2425 690 
Q 2706 997 2706 1503 
Q 2706 1984 2436 2262 
Q 2166 2541 1728 2541 
Q 1456 2541 1237 2417 
Q 1019 2294 894 2097 
L 366 2166 
L 809 4519 
L 3088 4519 
L 3088 3981 
L 1259 3981 
L 1013 2750 
Q 1425 3038 1878 3038 
Q 2478 3038 2890 2622 
Q 3303 2206 3303 1553 
Q 3303 931 2941 478 
Q 2500 -78 1738 -78 
Q 1113 -78 717 272 
Q 322 622 266 1200 
z
" transform="scale(0.015625)"/>
       </defs>
       <use xlink:href="#ArialMT-35"/>
      </g>
     </g>
    </g>
    <g id="ytick_6">
     <g id="line2d_6">
      <defs>
       <path id="m1a8e9c3544" d="M 0 0 
L 2 0 
" style="stroke: #000000; stroke-width: 0.6"/>
      </defs>
      <g>
       <use xlink:href="#m1a8e9c3544" x="226.094173" y="168.122835" style="stroke: #000000; stroke-width: 0.6"/>
      </g>
     </g>
    </g>
    <g id="ytick_7">
     <g id="line2d_7">
      <g>
       <use xlink:href="#m1a8e9c3544" x="226.094173" y="152.407559" style="stroke: #000000; stroke-width: 0.6"/>
      </g>
     </g>
    </g>
    <g id="ytick_8">
     <g id="line2d_8">
      <g>
       <use xlink:href="#m1a8e9c3544" x="226.094173" y="136.692283" style="stroke: #000000; stroke-width: 0.6"/>
      </g>
     </g>
    </g>
    <g id="ytick_9">
     <g id="line2d_9">
      <g>
       <use xlink:href="#m1a8e9c3544" x="226.094173" y="120.977008" style="stroke: #000000; stroke-width: 0.6"/>
      </g>
     </g>
    </g>
    <g id="ytick_10">
     <g id="line2d_10">
      <g>
       <use xlink:href="#m1a8e9c3544" x="226.094173" y="105.261732" style="stroke: #000000; stroke-width: 0.6"/>
      </g>
     </g>
    </g>
    <g id="ytick_11">
     <g id="line2d_11">
      <g>
       <use xlink:href="#m1a8e9c3544" x="226.094173" y="89.546457" style="stroke: #000000; stroke-width: 0.6"/>
      </g>
     </g>
    </g>
    <g id="text_24">
     <!-- Ghost dimension -->
     <g transform="translate(259.144642 166.351833) rotate(-90) scale(0.1 -0.1)">
      <defs>
       <path id="ArialMT-47" d="M 2638 1797 
L 2638 2334 
L 4578 2338 
L 4578 638 
Q 4131 281 3656 101 
Q 3181 -78 2681 -78 
Q 2006 -78 1454 211 
Q 903 500 622 1047 
Q 341 1594 341 2269 
Q 341 2938 620 3517 
Q 900 4097 1425 4378 
Q 1950 4659 2634 4659 
Q 3131 4659 3532 4498 
Q 3934 4338 4162 4050 
Q 4391 3763 4509 3300 
L 3963 3150 
Q 3859 3500 3706 3700 
Q 3553 3900 3268 4020 
Q 2984 4141 2638 4141 
Q 2222 4141 1919 4014 
Q 1616 3888 1430 3681 
Q 1244 3475 1141 3228 
Q 966 2803 966 2306 
Q 966 1694 1177 1281 
Q 1388 869 1791 669 
Q 2194 469 2647 469 
Q 3041 469 3416 620 
Q 3791 772 3984 944 
L 3984 1797 
L 2638 1797 
z
" transform="scale(0.015625)"/>
       <path id="ArialMT-68" d="M 422 0 
L 422 4581 
L 984 4581 
L 984 2938 
Q 1378 3394 1978 3394 
Q 2347 3394 2619 3248 
Q 2891 3103 3008 2847 
Q 3125 2591 3125 2103 
L 3125 0 
L 2563 0 
L 2563 2103 
Q 2563 2525 2380 2717 
Q 2197 2909 1863 2909 
Q 1613 2909 1392 2779 
Q 1172 2650 1078 2428 
Q 984 2206 984 1816 
L 984 0 
L 422 0 
z
" transform="scale(0.015625)"/>
       <path id="ArialMT-6f" d="M 213 1659 
Q 213 2581 725 3025 
Q 1153 3394 1769 3394 
Q 2453 3394 2887 2945 
Q 3322 2497 3322 1706 
Q 3322 1066 3130 698 
Q 2938 331 2570 128 
Q 2203 -75 1769 -75 
Q 1072 -75 642 372 
Q 213 819 213 1659 
z
M 791 1659 
Q 791 1022 1069 705 
Q 1347 388 1769 388 
Q 2188 388 2466 706 
Q 2744 1025 2744 1678 
Q 2744 2294 2464 2611 
Q 2184 2928 1769 2928 
Q 1347 2928 1069 2612 
Q 791 2297 791 1659 
z
" transform="scale(0.015625)"/>
       <path id="ArialMT-73" d="M 197 991 
L 753 1078 
Q 800 744 1014 566 
Q 1228 388 1613 388 
Q 2000 388 2187 545 
Q 2375 703 2375 916 
Q 2375 1106 2209 1216 
Q 2094 1291 1634 1406 
Q 1016 1563 777 1677 
Q 538 1791 414 1992 
Q 291 2194 291 2438 
Q 291 2659 392 2848 
Q 494 3038 669 3163 
Q 800 3259 1026 3326 
Q 1253 3394 1513 3394 
Q 1903 3394 2198 3281 
Q 2494 3169 2634 2976 
Q 2775 2784 2828 2463 
L 2278 2388 
Q 2241 2644 2061 2787 
Q 1881 2931 1553 2931 
Q 1166 2931 1000 2803 
Q 834 2675 834 2503 
Q 834 2394 903 2306 
Q 972 2216 1119 2156 
Q 1203 2125 1616 2013 
Q 2213 1853 2448 1751 
Q 2684 1650 2818 1456 
Q 2953 1263 2953 975 
Q 2953 694 2789 445 
Q 2625 197 2315 61 
Q 2006 -75 1616 -75 
Q 969 -75 630 194 
Q 291 463 197 991 
z
" transform="scale(0.015625)"/>
       <path id="ArialMT-74" d="M 1650 503 
L 1731 6 
Q 1494 -44 1306 -44 
Q 1000 -44 831 53 
Q 663 150 594 308 
Q 525 466 525 972 
L 525 2881 
L 113 2881 
L 113 3319 
L 525 3319 
L 525 4141 
L 1084 4478 
L 1084 3319 
L 1650 3319 
L 1650 2881 
L 1084 2881 
L 1084 941 
Q 1084 700 1114 631 
Q 1144 563 1211 522 
Q 1278 481 1403 481 
Q 1497 481 1650 503 
z
" transform="scale(0.015625)"/>
       <path id="ArialMT-20" transform="scale(0.015625)"/>
       <path id="ArialMT-64" d="M 2575 0 
L 2575 419 
Q 2259 -75 1647 -75 
Q 1250 -75 917 144 
Q 584 363 401 755 
Q 219 1147 219 1656 
Q 219 2153 384 2558 
Q 550 2963 881 3178 
Q 1213 3394 1622 3394 
Q 1922 3394 2156 3267 
Q 2391 3141 2538 2938 
L 2538 4581 
L 3097 4581 
L 3097 0 
L 2575 0 
z
M 797 1656 
Q 797 1019 1065 703 
Q 1334 388 1700 388 
Q 2069 388 2326 689 
Q 2584 991 2584 1609 
Q 2584 2291 2321 2609 
Q 2059 2928 1675 2928 
Q 1300 2928 1048 2622 
Q 797 2316 797 1656 
z
" transform="scale(0.015625)"/>
       <path id="ArialMT-69" d="M 425 3934 
L 425 4581 
L 988 4581 
L 988 3934 
L 425 3934 
z
M 425 0 
L 425 3319 
L 988 3319 
L 988 0 
L 425 0 
z
" transform="scale(0.015625)"/>
       <path id="ArialMT-6d" d="M 422 0 
L 422 3319 
L 925 3319 
L 925 2853 
Q 1081 3097 1340 3245 
Q 1600 3394 1931 3394 
Q 2300 3394 2536 3241 
Q 2772 3088 2869 2813 
Q 3263 3394 3894 3394 
Q 4388 3394 4653 3120 
Q 4919 2847 4919 2278 
L 4919 0 
L 4359 0 
L 4359 2091 
Q 4359 2428 4304 2576 
Q 4250 2725 4106 2815 
Q 3963 2906 3769 2906 
Q 3419 2906 3187 2673 
Q 2956 2441 2956 1928 
L 2956 0 
L 2394 0 
L 2394 2156 
Q 2394 2531 2256 2718 
Q 2119 2906 1806 2906 
Q 1569 2906 1367 2781 
Q 1166 2656 1075 2415 
Q 984 2175 984 1722 
L 984 0 
L 422 0 
z
" transform="scale(0.015625)"/>
       <path id="ArialMT-65" d="M 2694 1069 
L 3275 997 
Q 3138 488 2766 206 
Q 2394 -75 1816 -75 
Q 1088 -75 661 373 
Q 234 822 234 1631 
Q 234 2469 665 2931 
Q 1097 3394 1784 3394 
Q 2450 3394 2872 2941 
Q 3294 2488 3294 1666 
Q 3294 1616 3291 1516 
L 816 1516 
Q 847 969 1125 678 
Q 1403 388 1819 388 
Q 2128 388 2347 550 
Q 2566 713 2694 1069 
z
M 847 1978 
L 2700 1978 
Q 2663 2397 2488 2606 
Q 2219 2931 1791 2931 
Q 1403 2931 1139 2672 
Q 875 2413 847 1978 
z
" transform="scale(0.015625)"/>
       <path id="ArialMT-6e" d="M 422 0 
L 422 3319 
L 928 3319 
L 928 2847 
Q 1294 3394 1984 3394 
Q 2284 3394 2536 3286 
Q 2788 3178 2913 3003 
Q 3038 2828 3088 2588 
Q 3119 2431 3119 2041 
L 3119 0 
L 2556 0 
L 2556 2019 
Q 2556 2363 2490 2533 
Q 2425 2703 2258 2804 
Q 2091 2906 1866 2906 
Q 1506 2906 1245 2678 
Q 984 2450 984 1813 
L 984 0 
L 422 0 
z
" transform="scale(0.015625)"/>
      </defs>
      <use xlink:href="#ArialMT-47"/>
      <use xlink:href="#ArialMT-68" transform="translate(77.783203 0)"/>
      <use xlink:href="#ArialMT-6f" transform="translate(133.398438 0)"/>
      <use xlink:href="#ArialMT-73" transform="translate(189.013672 0)"/>
      <use xlink:href="#ArialMT-74" transform="translate(239.013672 0)"/>
      <use xlink:href="#ArialMT-20" transform="translate(266.796875 0)"/>
      <use xlink:href="#ArialMT-64" transform="translate(294.580078 0)"/>
      <use xlink:href="#ArialMT-69" transform="translate(350.195312 0)"/>
      <use xlink:href="#ArialMT-6d" transform="translate(372.412109 0)"/>
      <use xlink:href="#ArialMT-65" transform="translate(455.712891 0)"/>
      <use xlink:href="#ArialMT-6e" transform="translate(511.328125 0)"/>
      <use xlink:href="#ArialMT-73" transform="translate(566.943359 0)"/>
      <use xlink:href="#ArialMT-69" transform="translate(616.943359 0)"/>
      <use xlink:href="#ArialMT-6f" transform="translate(639.160156 0)"/>
      <use xlink:href="#ArialMT-6e" transform="translate(694.775391 0)"/>
     </g>
    </g>
   </g>
   <g id="LineCollection_1"/>
   <g id="patch_30">
    <path d="M 222.165354 168.122835 
L 224.129764 168.122835 
L 226.094173 168.122835 
L 226.094173 89.546457 
L 224.129764 89.546457 
L 222.165354 89.546457 
L 222.165354 168.122835 
z
" style="fill: none; stroke: #000000; stroke-width: 0.8; stroke-linejoin: miter; stroke-linecap: square"/>
   </g>
  </g>
 </g>
 <defs>
  <clipPath id="p10e0e8e17b">
   <rect x="35.433071" y="30.614173" width="175.748031" height="196.440945"/>
  </clipPath>
  <clipPath id="p7ed0069d42">
   <rect x="222.165354" y="89.546457" width="3.928819" height="78.576378"/>
  </clipPath>
 </defs>
</svg>
