<?xml version="1.0" encoding="utf-8" standalone="no"?>
<!DOCTYPE svg PUBLIC "-//W3C//DTD SVG 1.1//EN"
  "http://www.w3.org/Graphics/SVG/1.1/DTD/svg11.dtd">
<svg xmlns:xlink="http://www.w3.org/1999/xlink" width="212.598425pt" height="212.598425pt" viewBox="0 0 212.598425 212.598425" xmlns="http://www.w3.org/2000/svg" version="1.1">
 <metadata>
  <rdf:RDF xmlns:dc="http://purl.org/dc/elements/1.1/" xmlns:cc="http://creativecommons.org/ns#" xmlns:rdf="http://www.w3.org/1999/02/22-rdf-syntax-ns#">
   <cc:Work>
    <dc:type rdf:resource="http://purl.org/dc/dcmitype/StillImage"/>
    <dc:date>2026-01-15T21:48:22.841908</dc:date>
    <dc:format>image/svg+xml</dc:format>
    <dc:creator>
     <cc:Agent>
      <dc:title>Matplotlib v3.10.7, https://matplotlib.org/</dc:title>
     </cc:Agent>
    </dc:creator>
   </cc:Work>
  </rdf:RDF>
 </metadata>
 <defs>
  <style type="text/css">*{stroke-linejoin: round; stroke-linecap: butt}</style>
 </defs>
 <g id="figure_1">
  <g id="patch_1">
   <path d="M 0 212.598425 
L 212.598425 212.598425 
L 212.598425 0 
L 0 0 
z
" style="fill: #ffffff"/>
  </g>
  <g id="axes_1">
   <g id="patch_2">
    <path d="M 112.82562 172.271821 
Q 101.846763 159.285942 88.116201 151.518983 
" clip-path="url(#pcc1503539a)" style="fill: none; stroke: #000000; stroke-width: 1.1; stroke-linecap: round"/>
    <path d="M 93.109934 158.939404 
L 88.116201 151.518983 
L 97.048777 151.976249 
z
" clip-path="url(#pcc1503539a)" style="stroke: #000000; stroke-width: 1.1; stroke-linecap: round"/>
   </g>
   <g id="patch_3">
    <path d="M 151.237913 78.112001 
Q 151.981157 64.856797 148.556506 53.307733 
" clip-path="url(#pcc1503539a)" style="fill: none; stroke: #000000; stroke-width: 1.1; stroke-linecap: round"/>
    <path d="M 146.995917 62.114807 
L 148.556506 53.307733 
L 154.665812 59.840448 
z
" clip-path="url(#pcc1503539a)" style="stroke: #000000; stroke-width: 1.1; stroke-linecap: round"/>
   </g>
   <g id="patch_4">
    <path d="M 105.033827 94.274224 
Q 121.771036 95.885228 136.840615 91.911178 
" clip-path="url(#pcc1503539a)" style="fill: none; stroke: #000000; stroke-width: 1.1; stroke-linecap: round"/>
    <path d="M 128.085095 90.083374 
L 136.840615 91.911178 
L 130.12506 97.818911 
z
" clip-path="url(#pcc1503539a)" style="stroke: #000000; stroke-width: 1.1; stroke-linecap: round"/>
   </g>
   <g id="patch_5">
    <path d="M 80.541772 94.7271 
Q 70.161398 93.012551 61.003238 94.579388 
" clip-path="url(#pcc1503539a)" style="fill: none; stroke: #000000; stroke-width: 1.1; stroke-linecap: round"/>
    <path d="M 69.56321 97.173012 
L 61.003238 94.579388 
L 68.214121 89.287585 
z
" clip-path="url(#pcc1503539a)" style="stroke: #000000; stroke-width: 1.1; stroke-linecap: round"/>
   </g>
   <g id="patch_6">
    <path d="M 162.402593 156.634957 
Q 147.310003 162.869002 136.204545 173.099981 
" clip-path="url(#pcc1503539a)" style="fill: none; stroke: #000000; stroke-width: 1.1; stroke-linecap: round"/>
    <path d="M 144.798535 170.621406 
L 136.204545 173.099981 
L 139.378079 164.737644 
z
" clip-path="url(#pcc1503539a)" style="stroke: #000000; stroke-width: 1.1; stroke-linecap: round"/>
   </g>
   <g id="patch_7">
    <path d="M 169.636569 135.580376 
Q 166.544813 118.548326 158.354032 104.710298 
" clip-path="url(#pcc1503539a)" style="fill: none; stroke: #000000; stroke-width: 1.1; stroke-linecap: round"/>
    <path d="M 158.986736 113.632164 
L 158.354032 104.710298 
L 165.871147 109.557255 
z
" clip-path="url(#pcc1503539a)" style="stroke: #000000; stroke-width: 1.1; stroke-linecap: round"/>
   </g>
   <g id="patch_8">
    <path d="M 82.664923 127.875214 
Q 93.618072 112.350146 98.123416 95.160629 
" clip-path="url(#pcc1503539a)" style="fill: none; stroke: #000000; stroke-width: 1.1; stroke-linecap: round"/>
    <path d="M 92.225834 101.885101 
L 98.123416 95.160629 
L 99.964444 103.913378 
z
" clip-path="url(#pcc1503539a)" style="stroke: #000000; stroke-width: 1.1; stroke-linecap: round"/>
   </g>
   <g id="patch_9">
    <path d="M 65.658971 150.634511 
Q 52.845097 158.750861 44.339978 169.793614 
" clip-path="url(#pcc1503539a)" style="fill: none; stroke: #000000; stroke-width: 1.1; stroke-linecap: round"/>
    <path d="M 52.390531 165.89636 
L 44.339978 169.793614 
L 46.052506 161.014819 
z
" clip-path="url(#pcc1503539a)" style="stroke: #000000; stroke-width: 1.1; stroke-linecap: round"/>
   </g>
   <g id="patch_10">
    <path d="M 109.010253 92.099556 
Q 111.750359 107.059847 118.830745 119.113352 
" clip-path="url(#pcc1503539a)" style="fill: none; stroke: #000000; stroke-width: 1.1; stroke-linecap: round"/>
    <path d="M 118.227774 110.189428 
L 118.830745 119.113352 
L 111.329823 114.241374 
z
" clip-path="url(#pcc1503539a)" style="stroke: #000000; stroke-width: 1.1; stroke-linecap: round"/>
   </g>
   <g id="patch_11">
    <path d="M 116.646227 123.285875 
Q 109.55475 111.993807 100.034047 104.519277 
" clip-path="url(#pcc1503539a)" style="fill: none; stroke: #000000; stroke-width: 1.1; stroke-linecap: round"/>
    <path d="M 103.856471 112.605628 
L 100.034047 104.519277 
L 108.796582 106.313148 
z
" clip-path="url(#pcc1503539a)" style="stroke: #000000; stroke-width: 1.1; stroke-linecap: round"/>
   </g>
   <g id="patch_12">
    <path d="M 55.450612 106.437312 
Q 60.157081 119.969665 68.415901 130.135336 
" clip-path="url(#pcc1503539a)" style="fill: none; stroke: #000000; stroke-width: 1.1; stroke-linecap: round"/>
    <path d="M 66.476023 121.403963 
L 68.415901 130.135336 
L 60.266876 126.448414 
z
" clip-path="url(#pcc1503539a)" style="stroke: #000000; stroke-width: 1.1; stroke-linecap: round"/>
   </g>
   <g id="patch_13">
    <path d="M 136.420262 49.191032 
Q 123.488857 57.665822 114.989189 69.080023 
" clip-path="url(#pcc1503539a)" style="fill: none; stroke: #ff0000; stroke-width: 1.1; stroke-linecap: round"/>
    <path d="M 122.975429 65.052622 
L 114.989189 69.080023 
L 116.559012 60.27459 
z
" clip-path="url(#pcc1503539a)" style="fill: #ff0000; stroke: #ff0000; stroke-width: 1.1; stroke-linecap: round"/>
   </g>
   <g id="patch_14">
    <path d="M 86.777946 106.206694 
Q 80.746569 117.734386 79.118555 129.401793 
" clip-path="url(#pcc1503539a)" style="fill: none; stroke: #ff0000; stroke-width: 1.1; stroke-linecap: round"/>
    <path d="M 84.185745 122.03134 
L 79.118555 129.401793 
L 76.262507 120.925769 
z
" clip-path="url(#pcc1503539a)" style="fill: #ff0000; stroke: #ff0000; stroke-width: 1.1; stroke-linecap: round"/>
   </g>
   <g id="patch_15">
    <path d="M 87.752014 80.638628 
Q 86.845494 63.218754 80.425165 48.330365 
" clip-path="url(#pcc1503539a)" style="fill: none; stroke: #ff0000; stroke-width: 1.1; stroke-linecap: round"/>
    <path d="M 79.91998 57.260358 
L 80.425165 48.330365 
L 87.266049 54.092508 
z
" clip-path="url(#pcc1503539a)" style="fill: #ff0000; stroke: #ff0000; stroke-width: 1.1; stroke-linecap: round"/>
   </g>
   <g id="patch_16">
    <path d="M 114.764743 70.605256 
Q 127.696147 62.130467 136.195816 50.716266 
" clip-path="url(#pcc1503539a)" style="fill: none; stroke: #ff0000; stroke-width: 1.1; stroke-linecap: round"/>
    <path d="M 128.209576 54.743667 
L 136.195816 50.716266 
L 134.625993 59.521699 
z
" clip-path="url(#pcc1503539a)" style="fill: #ff0000; stroke: #ff0000; stroke-width: 1.1; stroke-linecap: round"/>
   </g>
   <g id="patch_17">
    <path d="M 116.078499 82.430455 
Q 127.945636 87.299784 139.530476 87.839897 
" clip-path="url(#pcc1503539a)" style="fill: none; stroke: #ff0000; stroke-width: 1.1; stroke-linecap: round"/>
    <path d="M 131.725444 83.471663 
L 139.530476 87.839897 
L 131.35287 91.462983 
z
" clip-path="url(#pcc1503539a)" style="fill: #ff0000; stroke: #ff0000; stroke-width: 1.1; stroke-linecap: round"/>
   </g>
   <g id="patch_18">
    <path d="M 98.322105 68.356194 
Q 92.960905 54.731064 84.08377 44.677255 
" clip-path="url(#pcc1503539a)" style="fill: none; stroke: #ff0000; stroke-width: 1.1; stroke-linecap: round"/>
    <path d="M 86.380353 53.321658 
L 84.08377 44.677255 
L 92.377242 48.026631 
z
" clip-path="url(#pcc1503539a)" style="fill: #ff0000; stroke: #ff0000; stroke-width: 1.1; stroke-linecap: round"/>
   </g>
   <g id="patch_19">
    <path d="M 123.885915 144.297124 
Q 121.475847 157.087251 123.320351 168.727477 
" clip-path="url(#pcc1503539a)" style="fill: none; stroke: #ff0000; stroke-width: 1.1; stroke-linecap: round"/>
    <path d="M 126.019004 160.200035 
L 123.320351 168.727477 
L 118.117589 161.452089 
z
" clip-path="url(#pcc1503539a)" style="fill: #ff0000; stroke: #ff0000; stroke-width: 1.1; stroke-linecap: round"/>
   </g>
   <g id="patch_20">
    <path d="M 62.620206 91.870773 
Q 78.003606 90.311044 90.809097 84.099508 
" clip-path="url(#pcc1503539a)" style="fill: none; stroke: #ff0000; stroke-width: 1.1; stroke-linecap: round"/>
    <path d="M 81.865471 83.99203 
L 90.809097 84.099508 
L 85.356939 91.189922 
z
" clip-path="url(#pcc1503539a)" style="fill: #ff0000; stroke: #ff0000; stroke-width: 1.1; stroke-linecap: round"/>
   </g>
   <g id="PathCollection_1">
    <defs>
     <path id="C0_0_05c66b3013" d="M 0 8.660254 
C 2.296726 8.660254 4.499694 7.747755 6.123724 6.123724 
C 7.747755 4.499694 8.660254 2.296726 8.660254 -0 
C 8.660254 -2.296726 7.747755 -4.499694 6.123724 -6.123724 
C 4.499694 -7.747755 2.296726 -8.660254 0 -8.660254 
C -2.296726 -8.660254 -4.499694 -7.747755 -6.123724 -6.123724 
C -7.747755 -4.499694 -8.660254 -2.296726 -8.660254 0 
C -8.660254 2.296726 -7.747755 4.499694 -6.123724 6.123724 
C -4.499694 7.747755 -2.296726 8.660254 0 8.660254 
z
"/>
    </defs>
    <g clip-path="url(#pcc1503539a)">
     <use xlink:href="#C0_0_05c66b3013" x="123.707459" y="181.771654" style="fill: #bfbf80; fill-opacity: 0.9; stroke: #ffffff; stroke-opacity: 0.9"/>
    </g>
    <g clip-path="url(#pcc1503539a)">
     <use xlink:href="#C0_0_05c66b3013" x="146.451238" y="40.25399" style="fill: #bfbf80; fill-opacity: 0.9; stroke: #ffffff; stroke-opacity: 0.9"/>
    </g>
    <g clip-path="url(#pcc1503539a)">
     <use xlink:href="#C0_0_05c66b3013" x="183.84932" y="181.771654" style="fill: #bfbf80; fill-opacity: 0.9; stroke: #ffffff; stroke-opacity: 0.9"/>
    </g>
    <g clip-path="url(#pcc1503539a)">
     <use xlink:href="#C0_0_05c66b3013" x="152.26312" y="90.06973" style="fill: #bfbf80; fill-opacity: 0.9; stroke: #ffffff; stroke-opacity: 0.9"/>
    </g>
    <g clip-path="url(#pcc1503539a)">
     <use xlink:href="#C0_0_05c66b3013" x="90.738626" y="95.060064" style="fill: #bfbf80; fill-opacity: 0.9; stroke: #ffffff; stroke-opacity: 0.9"/>
    </g>
    <g clip-path="url(#pcc1503539a)">
     <use xlink:href="#C0_0_05c66b3013" x="174.401327" y="149.419063" style="fill: #bfbf80; fill-opacity: 0.9; stroke: #ffffff; stroke-opacity: 0.9"/>
    </g>
    <g clip-path="url(#pcc1503539a)">
     <use xlink:href="#C0_0_05c66b3013" x="75.687753" y="141.987935" style="fill: #bfbf80; fill-opacity: 0.9; stroke: #ffffff; stroke-opacity: 0.9"/>
    </g>
    <g clip-path="url(#pcc1503539a)">
     <use xlink:href="#C0_0_05c66b3013" x="104.733767" y="79.542299" style="fill: #bfbf80; fill-opacity: 0.9; stroke: #ffffff; stroke-opacity: 0.9"/>
    </g>
    <g clip-path="url(#pcc1503539a)">
     <use xlink:href="#C0_0_05c66b3013" x="34.064066" y="179.957673" style="fill: #bfbf80; fill-opacity: 0.9; stroke: #ffffff; stroke-opacity: 0.9"/>
    </g>
    <g clip-path="url(#pcc1503539a)">
     <use xlink:href="#C0_0_05c66b3013" x="124.425571" y="132.475488" style="fill: #bfbf80; fill-opacity: 0.9; stroke: #ffffff; stroke-opacity: 0.9"/>
    </g>
    <g clip-path="url(#pcc1503539a)">
     <use xlink:href="#C0_0_05c66b3013" x="76.226337" y="32.952756" style="fill: #bfbf80; fill-opacity: 0.9; stroke: #ffffff; stroke-opacity: 0.9"/>
    </g>
    <g clip-path="url(#pcc1503539a)">
     <use xlink:href="#C0_0_05c66b3013" x="49.597788" y="95.177875" style="fill: #bfbf80; fill-opacity: 0.9; stroke: #ffffff; stroke-opacity: 0.9"/>
    </g>
   </g>
   <g id="text_1">
    <g clip-path="url(#pcc1503539a)">
     <!-- x$_{0}$ -->
     <g transform="translate(119.027459 184.104622) scale(0.09 -0.09)">
      <defs>
       <path id="Arial-BoldMT-78" d="M 38 0 
L 1234 1709 
L 88 3319 
L 1159 3319 
L 1747 2406 
L 2366 3319 
L 3397 3319 
L 2272 1747 
L 3500 0 
L 2422 0 
L 1747 1028 
L 1066 0 
L 38 0 
z
" transform="scale(0.015625)"/>
       <path id="DejaVuSans-30" d="M 2034 4250 
Q 1547 4250 1301 3770 
Q 1056 3291 1056 2328 
Q 1056 1369 1301 889 
Q 1547 409 2034 409 
Q 2525 409 2770 889 
Q 3016 1369 3016 2328 
Q 3016 3291 2770 3770 
Q 2525 4250 2034 4250 
z
M 2034 4750 
Q 2819 4750 3233 4129 
Q 3647 3509 3647 2328 
Q 3647 1150 3233 529 
Q 2819 -91 2034 -91 
Q 1250 -91 836 529 
Q 422 1150 422 2328 
Q 422 3509 836 4129 
Q 1250 4750 2034 4750 
z
" transform="scale(0.015625)"/>
      </defs>
      <use xlink:href="#Arial-BoldMT-78" transform="translate(0 0.140625)"/>
      <use xlink:href="#DejaVuSans-30" transform="translate(56.572266 -16.265625) scale(0.7)"/>
     </g>
    </g>
   </g>
   <g id="text_2">
    <g clip-path="url(#pcc1503539a)">
     <!-- x$_{1}$ -->
     <g transform="translate(141.771238 42.586958) scale(0.09 -0.09)">
      <defs>
       <path id="DejaVuSans-31" d="M 794 531 
L 1825 531 
L 1825 4091 
L 703 3866 
L 703 4441 
L 1819 4666 
L 2450 4666 
L 2450 531 
L 3481 531 
L 3481 0 
L 794 0 
L 794 531 
z
" transform="scale(0.015625)"/>
      </defs>
      <use xlink:href="#Arial-BoldMT-78" transform="translate(0 0.140625)"/>
      <use xlink:href="#DejaVuSans-31" transform="translate(56.572266 -16.265625) scale(0.7)"/>
     </g>
    </g>
   </g>
   <g id="text_3">
    <g clip-path="url(#pcc1503539a)">
     <!-- x$_{2}$ -->
     <g transform="translate(179.16932 184.104622) scale(0.09 -0.09)">
      <defs>
       <path id="DejaVuSans-32" d="M 1228 531 
L 3431 531 
L 3431 0 
L 469 0 
L 469 531 
Q 828 903 1448 1529 
Q 2069 2156 2228 2338 
Q 2531 2678 2651 2914 
Q 2772 3150 2772 3378 
Q 2772 3750 2511 3984 
Q 2250 4219 1831 4219 
Q 1534 4219 1204 4116 
Q 875 4013 500 3803 
L 500 4441 
Q 881 4594 1212 4672 
Q 1544 4750 1819 4750 
Q 2544 4750 2975 4387 
Q 3406 4025 3406 3419 
Q 3406 3131 3298 2873 
Q 3191 2616 2906 2266 
Q 2828 2175 2409 1742 
Q 1991 1309 1228 531 
z
" transform="scale(0.015625)"/>
      </defs>
      <use xlink:href="#Arial-BoldMT-78" transform="translate(0 0.140625)"/>
      <use xlink:href="#DejaVuSans-32" transform="translate(56.572266 -16.265625) scale(0.7)"/>
     </g>
    </g>
   </g>
   <g id="text_4">
    <g clip-path="url(#pcc1503539a)">
     <!-- x$_{3}$ -->
     <g transform="translate(147.58312 92.402699) scale(0.09 -0.09)">
      <defs>
       <path id="DejaVuSans-33" d="M 2597 2516 
Q 3050 2419 3304 2112 
Q 3559 1806 3559 1356 
Q 3559 666 3084 287 
Q 2609 -91 1734 -91 
Q 1441 -91 1130 -33 
Q 819 25 488 141 
L 488 750 
Q 750 597 1062 519 
Q 1375 441 1716 441 
Q 2309 441 2620 675 
Q 2931 909 2931 1356 
Q 2931 1769 2642 2001 
Q 2353 2234 1838 2234 
L 1294 2234 
L 1294 2753 
L 1863 2753 
Q 2328 2753 2575 2939 
Q 2822 3125 2822 3475 
Q 2822 3834 2567 4026 
Q 2313 4219 1838 4219 
Q 1578 4219 1281 4162 
Q 984 4106 628 3988 
L 628 4550 
Q 988 4650 1302 4700 
Q 1616 4750 1894 4750 
Q 2613 4750 3031 4423 
Q 3450 4097 3450 3541 
Q 3450 3153 3228 2886 
Q 3006 2619 2597 2516 
z
" transform="scale(0.015625)"/>
      </defs>
      <use xlink:href="#Arial-BoldMT-78" transform="translate(0 0.140625)"/>
      <use xlink:href="#DejaVuSans-33" transform="translate(56.572266 -16.265625) scale(0.7)"/>
     </g>
    </g>
   </g>
   <g id="text_5">
    <g clip-path="url(#pcc1503539a)">
     <!-- x$_{4}$ -->
     <g transform="translate(86.058626 97.393033) scale(0.09 -0.09)">
      <defs>
       <path id="DejaVuSans-34" d="M 2419 4116 
L 825 1625 
L 2419 1625 
L 2419 4116 
z
M 2253 4666 
L 3047 4666 
L 3047 1625 
L 3713 1625 
L 3713 1100 
L 3047 1100 
L 3047 0 
L 2419 0 
L 2419 1100 
L 313 1100 
L 313 1709 
L 2253 4666 
z
" transform="scale(0.015625)"/>
      </defs>
      <use xlink:href="#Arial-BoldMT-78" transform="translate(0 0.140625)"/>
      <use xlink:href="#DejaVuSans-34" transform="translate(56.572266 -16.265625) scale(0.7)"/>
     </g>
    </g>
   </g>
   <g id="text_6">
    <g clip-path="url(#pcc1503539a)">
     <!-- x$_{5}$ -->
     <g transform="translate(169.721327 151.752031) scale(0.09 -0.09)">
      <defs>
       <path id="DejaVuSans-35" d="M 691 4666 
L 3169 4666 
L 3169 4134 
L 1269 4134 
L 1269 2991 
Q 1406 3038 1543 3061 
Q 1681 3084 1819 3084 
Q 2600 3084 3056 2656 
Q 3513 2228 3513 1497 
Q 3513 744 3044 326 
Q 2575 -91 1722 -91 
Q 1428 -91 1123 -41 
Q 819 9 494 109 
L 494 744 
Q 775 591 1075 516 
Q 1375 441 1709 441 
Q 2250 441 2565 725 
Q 2881 1009 2881 1497 
Q 2881 1984 2565 2268 
Q 2250 2553 1709 2553 
Q 1456 2553 1204 2497 
Q 953 2441 691 2322 
L 691 4666 
z
" transform="scale(0.015625)"/>
      </defs>
      <use xlink:href="#Arial-BoldMT-78" transform="translate(0 0.140625)"/>
      <use xlink:href="#DejaVuSans-35" transform="translate(56.572266 -16.265625) scale(0.7)"/>
     </g>
    </g>
   </g>
   <g id="text_7">
    <g clip-path="url(#pcc1503539a)">
     <!-- x$_{6}$ -->
     <g transform="translate(71.007753 144.320904) scale(0.09 -0.09)">
      <defs>
       <path id="DejaVuSans-36" d="M 2113 2584 
Q 1688 2584 1439 2293 
Q 1191 2003 1191 1497 
Q 1191 994 1439 701 
Q 1688 409 2113 409 
Q 2538 409 2786 701 
Q 3034 994 3034 1497 
Q 3034 2003 2786 2293 
Q 2538 2584 2113 2584 
z
M 3366 4563 
L 3366 3988 
Q 3128 4100 2886 4159 
Q 2644 4219 2406 4219 
Q 1781 4219 1451 3797 
Q 1122 3375 1075 2522 
Q 1259 2794 1537 2939 
Q 1816 3084 2150 3084 
Q 2853 3084 3261 2657 
Q 3669 2231 3669 1497 
Q 3669 778 3244 343 
Q 2819 -91 2113 -91 
Q 1303 -91 875 529 
Q 447 1150 447 2328 
Q 447 3434 972 4092 
Q 1497 4750 2381 4750 
Q 2619 4750 2861 4703 
Q 3103 4656 3366 4563 
z
" transform="scale(0.015625)"/>
      </defs>
      <use xlink:href="#Arial-BoldMT-78" transform="translate(0 0.140625)"/>
      <use xlink:href="#DejaVuSans-36" transform="translate(56.572266 -16.265625) scale(0.7)"/>
     </g>
    </g>
   </g>
   <g id="text_8">
    <g clip-path="url(#pcc1503539a)">
     <!-- x$_{7}$ -->
     <g transform="translate(100.053767 81.875268) scale(0.09 -0.09)">
      <defs>
       <path id="DejaVuSans-37" d="M 525 4666 
L 3525 4666 
L 3525 4397 
L 1831 0 
L 1172 0 
L 2766 4134 
L 525 4134 
L 525 4666 
z
" transform="scale(0.015625)"/>
      </defs>
      <use xlink:href="#Arial-BoldMT-78" transform="translate(0 0.140625)"/>
      <use xlink:href="#DejaVuSans-37" transform="translate(56.572266 -16.265625) scale(0.7)"/>
     </g>
    </g>
   </g>
   <g id="text_9">
    <g clip-path="url(#pcc1503539a)">
     <!-- x$_{8}$ -->
     <g transform="translate(29.384066 182.290642) scale(0.09 -0.09)">
      <defs>
       <path id="DejaVuSans-38" d="M 2034 2216 
Q 1584 2216 1326 1975 
Q 1069 1734 1069 1313 
Q 1069 891 1326 650 
Q 1584 409 2034 409 
Q 2484 409 2743 651 
Q 3003 894 3003 1313 
Q 3003 1734 2745 1975 
Q 2488 2216 2034 2216 
z
M 1403 2484 
Q 997 2584 770 2862 
Q 544 3141 544 3541 
Q 544 4100 942 4425 
Q 1341 4750 2034 4750 
Q 2731 4750 3128 4425 
Q 3525 4100 3525 3541 
Q 3525 3141 3298 2862 
Q 3072 2584 2669 2484 
Q 3125 2378 3379 2068 
Q 3634 1759 3634 1313 
Q 3634 634 3220 271 
Q 2806 -91 2034 -91 
Q 1263 -91 848 271 
Q 434 634 434 1313 
Q 434 1759 690 2068 
Q 947 2378 1403 2484 
z
M 1172 3481 
Q 1172 3119 1398 2916 
Q 1625 2713 2034 2713 
Q 2441 2713 2670 2916 
Q 2900 3119 2900 3481 
Q 2900 3844 2670 4047 
Q 2441 4250 2034 4250 
Q 1625 4250 1398 4047 
Q 1172 3844 1172 3481 
z
" transform="scale(0.015625)"/>
      </defs>
      <use xlink:href="#Arial-BoldMT-78" transform="translate(0 0.140625)"/>
      <use xlink:href="#DejaVuSans-38" transform="translate(56.572266 -16.265625) scale(0.7)"/>
     </g>
    </g>
   </g>
   <g id="text_10">
    <g clip-path="url(#pcc1503539a)">
     <!-- x$_{9}$ -->
     <g transform="translate(119.745571 134.808457) scale(0.09 -0.09)">
      <defs>
       <path id="DejaVuSans-39" d="M 703 97 
L 703 672 
Q 941 559 1184 500 
Q 1428 441 1663 441 
Q 2288 441 2617 861 
Q 2947 1281 2994 2138 
Q 2813 1869 2534 1725 
Q 2256 1581 1919 1581 
Q 1219 1581 811 2004 
Q 403 2428 403 3163 
Q 403 3881 828 4315 
Q 1253 4750 1959 4750 
Q 2769 4750 3195 4129 
Q 3622 3509 3622 2328 
Q 3622 1225 3098 567 
Q 2575 -91 1691 -91 
Q 1453 -91 1209 -44 
Q 966 3 703 97 
z
M 1959 2075 
Q 2384 2075 2632 2365 
Q 2881 2656 2881 3163 
Q 2881 3666 2632 3958 
Q 2384 4250 1959 4250 
Q 1534 4250 1286 3958 
Q 1038 3666 1038 3163 
Q 1038 2656 1286 2365 
Q 1534 2075 1959 2075 
z
" transform="scale(0.015625)"/>
      </defs>
      <use xlink:href="#Arial-BoldMT-78" transform="translate(0 0.140625)"/>
      <use xlink:href="#DejaVuSans-39" transform="translate(56.572266 -16.265625) scale(0.7)"/>
     </g>
    </g>
   </g>
   <g id="text_11">
    <g clip-path="url(#pcc1503539a)">
     <!-- x$_{10}$ -->
     <g transform="translate(69.521337 35.285725) scale(0.09 -0.09)">
      <use xlink:href="#Arial-BoldMT-78" transform="translate(0 0.140625)"/>
      <use xlink:href="#DejaVuSans-31" transform="translate(56.572266 -16.265625) scale(0.7)"/>
      <use xlink:href="#DejaVuSans-30" transform="translate(101.108398 -16.265625) scale(0.7)"/>
     </g>
    </g>
   </g>
   <g id="text_12">
    <g clip-path="url(#pcc1503539a)">
     <!-- x$_{11}$ -->
     <g transform="translate(42.892788 97.510843) scale(0.09 -0.09)">
      <use xlink:href="#Arial-BoldMT-78" transform="translate(0 0.140625)"/>
      <use xlink:href="#DejaVuSans-31" transform="translate(56.572266 -16.265625) scale(0.7)"/>
      <use xlink:href="#DejaVuSans-31" transform="translate(101.108398 -16.265625) scale(0.7)"/>
     </g>
    </g>
   </g>
  </g>
 </g>
 <defs>
  <clipPath id="pcc1503539a">
   <rect x="26.574803" y="25.511811" width="164.76378" height="163.700787"/>
  </clipPath>
 </defs>
</svg>
