<?xml version="1.0" encoding="utf-8" standalone="no"?>
<!DOCTYPE svg PUBLIC "-//W3C//DTD SVG 1.1//EN"
  "http://www.w3.org/Graphics/SVG/1.1/DTD/svg11.dtd">
<svg xmlns:xlink="http://www.w3.org/1999/xlink" width="141.732283pt" height="63.779528pt" viewBox="0 0 141.732283 63.779528" xmlns="http://www.w3.org/2000/svg" version="1.1">
 <metadata>
  <rdf:RDF xmlns:dc="http://purl.org/dc/elements/1.1/" xmlns:cc="http://creativecommons.org/ns#" xmlns:rdf="http://www.w3.org/1999/02/22-rdf-syntax-ns#">
   <cc:Work>
    <dc:type rdf:resource="http://purl.org/dc/dcmitype/StillImage"/>
    <dc:date>2026-01-01T15:16:53.063124</dc:date>
    <dc:format>image/svg+xml</dc:format>
    <dc:creator>
     <cc:Agent>
      <dc:title>Matplotlib v3.10.7, https://matplotlib.org/</dc:title>
     </cc:Agent>
    </dc:creator>
   </cc:Work>
  </rdf:RDF>
 </metadata>
 <defs>
  <style type="text/css">*{stroke-linejoin: round; stroke-linecap: butt}</style>
 </defs>
 <g id="figure_1">
  <g id="patch_1">
   <path d="M 0 63.779528 
L 141.732283 63.779528 
L 141.732283 0 
L 0 0 
z
" style="fill: #ffffff"/>
  </g>
  <g id="axes_1">
   <g id="patch_2">
    <path d="M 35.758824 28.933165 
L 135.379342 28.933165 
L 135.379342 10.937978 
L 35.758824 10.937978 
z
" style="fill: #ffffff"/>
   </g>
   <g id="matplotlib.axis_1">
    <g id="xtick_1">
     <g id="line2d_1">
      <defs>
       <path id="m0973a37d91" d="M 0 0 
L 0 3.5 
" style="stroke: #000000; stroke-width: 0.8"/>
      </defs>
      <g>
       <use xlink:href="#m0973a37d91" x="35.758824" y="28.933165" style="stroke: #000000; stroke-width: 0.8"/>
      </g>
     </g>
    </g>
    <g id="xtick_2">
     <g id="line2d_2">
      <g>
       <use xlink:href="#m0973a37d91" x="64.221829" y="28.933165" style="stroke: #000000; stroke-width: 0.8"/>
      </g>
     </g>
    </g>
    <g id="xtick_3">
     <g id="line2d_3">
      <g>
       <use xlink:href="#m0973a37d91" x="92.684834" y="28.933165" style="stroke: #000000; stroke-width: 0.8"/>
      </g>
     </g>
    </g>
    <g id="xtick_4">
     <g id="line2d_4">
      <g>
       <use xlink:href="#m0973a37d91" x="121.14784" y="28.933165" style="stroke: #000000; stroke-width: 0.8"/>
      </g>
     </g>
    </g>
   </g>
   <g id="matplotlib.axis_2">
    <g id="ytick_1">
     <g id="line2d_5">
      <defs>
       <path id="mb0cd0516b4" d="M 0 0 
L -3.5 0 
" style="stroke: #000000; stroke-width: 0.8"/>
      </defs>
      <g>
       <use xlink:href="#mb0cd0516b4" x="35.758824" y="25.211938" style="stroke: #000000; stroke-width: 0.8"/>
      </g>
     </g>
     <g id="text_1">
      <!-- 0.075 -->
      <g transform="translate(11.243511 27.717173) scale(0.07 -0.07)">
       <defs>
        <path id="ArialMT-30" d="M 266 2259 
Q 266 3072 433 3567 
Q 600 4063 929 4331 
Q 1259 4600 1759 4600 
Q 2128 4600 2406 4451 
Q 2684 4303 2865 4023 
Q 3047 3744 3150 3342 
Q 3253 2941 3253 2259 
Q 3253 1453 3087 958 
Q 2922 463 2592 192 
Q 2263 -78 1759 -78 
Q 1097 -78 719 397 
Q 266 969 266 2259 
z
M 844 2259 
Q 844 1131 1108 757 
Q 1372 384 1759 384 
Q 2147 384 2411 759 
Q 2675 1134 2675 2259 
Q 2675 3391 2411 3762 
Q 2147 4134 1753 4134 
Q 1366 4134 1134 3806 
Q 844 3388 844 2259 
z
" transform="scale(0.015625)"/>
        <path id="ArialMT-2e" d="M 581 0 
L 581 641 
L 1222 641 
L 1222 0 
L 581 0 
z
" transform="scale(0.015625)"/>
        <path id="ArialMT-37" d="M 303 3981 
L 303 4522 
L 3269 4522 
L 3269 4084 
Q 2831 3619 2401 2847 
Q 1972 2075 1738 1259 
Q 1569 684 1522 0 
L 944 0 
Q 953 541 1156 1306 
Q 1359 2072 1739 2783 
Q 2119 3494 2547 3981 
L 303 3981 
z
" transform="scale(0.015625)"/>
        <path id="ArialMT-35" d="M 266 1200 
L 856 1250 
Q 922 819 1161 601 
Q 1400 384 1738 384 
Q 2144 384 2425 690 
Q 2706 997 2706 1503 
Q 2706 1984 2436 2262 
Q 2166 2541 1728 2541 
Q 1456 2541 1237 2417 
Q 1019 2294 894 2097 
L 366 2166 
L 809 4519 
L 3088 4519 
L 3088 3981 
L 1259 3981 
L 1013 2750 
Q 1425 3038 1878 3038 
Q 2478 3038 2890 2622 
Q 3303 2206 3303 1553 
Q 3303 931 2941 478 
Q 2500 -78 1738 -78 
Q 1113 -78 717 272 
Q 322 622 266 1200 
z
" transform="scale(0.015625)"/>
       </defs>
       <use xlink:href="#ArialMT-30"/>
       <use xlink:href="#ArialMT-2e" transform="translate(55.615234 0)"/>
       <use xlink:href="#ArialMT-30" transform="translate(83.398438 0)"/>
       <use xlink:href="#ArialMT-37" transform="translate(139.013672 0)"/>
       <use xlink:href="#ArialMT-35" transform="translate(194.628906 0)"/>
      </g>
     </g>
    </g>
    <g id="ytick_2">
     <g id="line2d_6">
      <g>
       <use xlink:href="#mb0cd0516b4" x="35.758824" y="19.258605" style="stroke: #000000; stroke-width: 0.8"/>
      </g>
     </g>
     <g id="text_2">
      <!-- 0.100 -->
      <g transform="translate(11.243511 21.763839) scale(0.07 -0.07)">
       <defs>
        <path id="ArialMT-31" d="M 2384 0 
L 1822 0 
L 1822 3584 
Q 1619 3391 1289 3197 
Q 959 3003 697 2906 
L 697 3450 
Q 1169 3672 1522 3987 
Q 1875 4303 2022 4600 
L 2384 4600 
L 2384 0 
z
" transform="scale(0.015625)"/>
       </defs>
       <use xlink:href="#ArialMT-30"/>
       <use xlink:href="#ArialMT-2e" transform="translate(55.615234 0)"/>
       <use xlink:href="#ArialMT-31" transform="translate(83.398438 0)"/>
       <use xlink:href="#ArialMT-30" transform="translate(139.013672 0)"/>
       <use xlink:href="#ArialMT-30" transform="translate(194.628906 0)"/>
      </g>
     </g>
    </g>
    <g id="ytick_3">
     <g id="line2d_7">
      <g>
       <use xlink:href="#mb0cd0516b4" x="35.758824" y="13.305271" style="stroke: #000000; stroke-width: 0.8"/>
      </g>
     </g>
     <g id="text_3">
      <!-- 0.125 -->
      <g transform="translate(11.243511 15.810505) scale(0.07 -0.07)">
       <defs>
        <path id="ArialMT-32" d="M 3222 541 
L 3222 0 
L 194 0 
Q 188 203 259 391 
Q 375 700 629 1000 
Q 884 1300 1366 1694 
Q 2113 2306 2375 2664 
Q 2638 3022 2638 3341 
Q 2638 3675 2398 3904 
Q 2159 4134 1775 4134 
Q 1369 4134 1125 3890 
Q 881 3647 878 3216 
L 300 3275 
Q 359 3922 746 4261 
Q 1134 4600 1788 4600 
Q 2447 4600 2831 4234 
Q 3216 3869 3216 3328 
Q 3216 3053 3103 2787 
Q 2991 2522 2730 2228 
Q 2469 1934 1863 1422 
Q 1356 997 1212 845 
Q 1069 694 975 541 
L 3222 541 
z
" transform="scale(0.015625)"/>
       </defs>
       <use xlink:href="#ArialMT-30"/>
       <use xlink:href="#ArialMT-2e" transform="translate(55.615234 0)"/>
       <use xlink:href="#ArialMT-31" transform="translate(83.398438 0)"/>
       <use xlink:href="#ArialMT-32" transform="translate(139.013672 0)"/>
       <use xlink:href="#ArialMT-35" transform="translate(194.628906 0)"/>
      </g>
     </g>
    </g>
    <g id="text_4">
     <!-- $\lambda_1$ -->
     <g transform="translate(-5.743989 25.285571) rotate(-90) scale(0.1 -0.1)">
      <defs>
       <path id="DejaVuSans-Oblique-3bb" d="M 2350 4316 
L 3125 0 
L 2516 0 
L 2038 2588 
L 328 0 
L -281 0 
L 1903 3356 
L 1794 3975 
Q 1725 4369 1391 4369 
L 1091 4369 
L 1184 4863 
L 1550 4856 
Q 2253 4847 2350 4316 
z
" transform="scale(0.015625)"/>
       <path id="DejaVuSans-31" d="M 794 531 
L 1825 531 
L 1825 4091 
L 703 3866 
L 703 4441 
L 1819 4666 
L 2450 4666 
L 2450 531 
L 3481 531 
L 3481 0 
L 794 0 
L 794 531 
z
" transform="scale(0.015625)"/>
      </defs>
      <use xlink:href="#DejaVuSans-Oblique-3bb" transform="translate(0 0.015625)"/>
      <use xlink:href="#DejaVuSans-31" transform="translate(59.179688 -16.390625) scale(0.7)"/>
     </g>
    </g>
   </g>
   <g id="line2d_8">
    <path d="M 35.758824 28.115201 
L 38.605124 25.762549 
L 42.163 23.137495 
L 45.720875 20.848048 
L 49.278751 18.87144 
L 52.836627 17.184941 
L 56.394502 15.766741 
L 59.952378 14.596046 
L 63.510254 13.653049 
L 67.068129 12.9189 
L 71.33758 12.288643 
L 75.607031 11.90641 
L 79.876482 11.758531 
L 84.145933 11.834149 
L 88.415383 12.121142 
L 92.684834 12.606309 
L 97.66586 13.403996 
L 102.646886 14.428033 
L 108.339487 15.842174 
L 114.743663 17.693961 
L 121.859415 20.009553 
L 129.686741 22.804451 
L 140.360368 26.881209 
L 141.071943 27.158628 
L 141.071943 27.158628 
" clip-path="url(#p098455c081)" style="fill: none; stroke: #000000; stroke-width: 0.75; stroke-linecap: square"/>
    <defs>
     <path id="m3b7ba83e10" d="M 0 0.75 
C 0.198902 0.75 0.389685 0.670975 0.53033 0.53033 
C 0.670975 0.389685 0.75 0.198902 0.75 0 
C 0.75 -0.198902 0.670975 -0.389685 0.53033 -0.53033 
C 0.389685 -0.670975 0.198902 -0.75 0 -0.75 
C -0.198902 -0.75 -0.389685 -0.670975 -0.53033 -0.53033 
C -0.670975 -0.389685 -0.75 -0.198902 -0.75 0 
C -0.75 0.198902 -0.670975 0.389685 -0.53033 0.53033 
C -0.389685 0.670975 -0.198902 0.75 0 0.75 
z
" style="stroke: #000000"/>
    </defs>
    <g clip-path="url(#p098455c081)">
     <use xlink:href="#m3b7ba83e10" x="35.758824" y="28.115201" style="stroke: #000000"/>
     <use xlink:href="#m3b7ba83e10" x="36.470399" y="27.504674" style="stroke: #000000"/>
     <use xlink:href="#m3b7ba83e10" x="37.181974" y="26.909384" style="stroke: #000000"/>
     <use xlink:href="#m3b7ba83e10" x="37.893549" y="26.328827" style="stroke: #000000"/>
     <use xlink:href="#m3b7ba83e10" x="38.605124" y="25.762549" style="stroke: #000000"/>
     <use xlink:href="#m3b7ba83e10" x="39.316699" y="25.210117" style="stroke: #000000"/>
     <use xlink:href="#m3b7ba83e10" x="40.028274" y="24.671198" style="stroke: #000000"/>
     <use xlink:href="#m3b7ba83e10" x="40.739849" y="24.146167" style="stroke: #000000"/>
     <use xlink:href="#m3b7ba83e10" x="41.451425" y="23.635011" style="stroke: #000000"/>
     <use xlink:href="#m3b7ba83e10" x="42.163" y="23.137495" style="stroke: #000000"/>
     <use xlink:href="#m3b7ba83e10" x="42.874575" y="22.653471" style="stroke: #000000"/>
     <use xlink:href="#m3b7ba83e10" x="43.58615" y="22.182675" style="stroke: #000000"/>
     <use xlink:href="#m3b7ba83e10" x="44.297725" y="21.724987" style="stroke: #000000"/>
     <use xlink:href="#m3b7ba83e10" x="45.0093" y="21.280166" style="stroke: #000000"/>
     <use xlink:href="#m3b7ba83e10" x="45.720875" y="20.848048" style="stroke: #000000"/>
     <use xlink:href="#m3b7ba83e10" x="46.432451" y="20.428428" style="stroke: #000000"/>
     <use xlink:href="#m3b7ba83e10" x="47.144026" y="20.021142" style="stroke: #000000"/>
     <use xlink:href="#m3b7ba83e10" x="47.855601" y="19.626" style="stroke: #000000"/>
     <use xlink:href="#m3b7ba83e10" x="48.567176" y="19.242837" style="stroke: #000000"/>
     <use xlink:href="#m3b7ba83e10" x="49.278751" y="18.87144" style="stroke: #000000"/>
     <use xlink:href="#m3b7ba83e10" x="49.990326" y="18.511633" style="stroke: #000000"/>
     <use xlink:href="#m3b7ba83e10" x="50.701901" y="18.163245" style="stroke: #000000"/>
     <use xlink:href="#m3b7ba83e10" x="51.413476" y="17.826134" style="stroke: #000000"/>
     <use xlink:href="#m3b7ba83e10" x="52.125052" y="17.500101" style="stroke: #000000"/>
     <use xlink:href="#m3b7ba83e10" x="52.836627" y="17.184941" style="stroke: #000000"/>
     <use xlink:href="#m3b7ba83e10" x="53.548202" y="16.88049" style="stroke: #000000"/>
     <use xlink:href="#m3b7ba83e10" x="54.259777" y="16.586642" style="stroke: #000000"/>
     <use xlink:href="#m3b7ba83e10" x="54.971352" y="16.303176" style="stroke: #000000"/>
     <use xlink:href="#m3b7ba83e10" x="55.682927" y="16.029909" style="stroke: #000000"/>
     <use xlink:href="#m3b7ba83e10" x="56.394502" y="15.766741" style="stroke: #000000"/>
     <use xlink:href="#m3b7ba83e10" x="57.106078" y="15.513466" style="stroke: #000000"/>
     <use xlink:href="#m3b7ba83e10" x="57.817653" y="15.269899" style="stroke: #000000"/>
     <use xlink:href="#m3b7ba83e10" x="58.529228" y="15.035913" style="stroke: #000000"/>
     <use xlink:href="#m3b7ba83e10" x="59.240803" y="14.811367" style="stroke: #000000"/>
     <use xlink:href="#m3b7ba83e10" x="59.952378" y="14.596046" style="stroke: #000000"/>
     <use xlink:href="#m3b7ba83e10" x="60.663953" y="14.389838" style="stroke: #000000"/>
     <use xlink:href="#m3b7ba83e10" x="61.375528" y="14.1926" style="stroke: #000000"/>
     <use xlink:href="#m3b7ba83e10" x="62.087103" y="14.004141" style="stroke: #000000"/>
     <use xlink:href="#m3b7ba83e10" x="62.798679" y="13.824347" style="stroke: #000000"/>
     <use xlink:href="#m3b7ba83e10" x="63.510254" y="13.653049" style="stroke: #000000"/>
     <use xlink:href="#m3b7ba83e10" x="64.221829" y="13.490096" style="stroke: #000000"/>
     <use xlink:href="#m3b7ba83e10" x="64.933404" y="13.335341" style="stroke: #000000"/>
     <use xlink:href="#m3b7ba83e10" x="65.644979" y="13.18864" style="stroke: #000000"/>
     <use xlink:href="#m3b7ba83e10" x="66.356554" y="13.049895" style="stroke: #000000"/>
     <use xlink:href="#m3b7ba83e10" x="67.068129" y="12.9189" style="stroke: #000000"/>
     <use xlink:href="#m3b7ba83e10" x="67.779705" y="12.79557" style="stroke: #000000"/>
     <use xlink:href="#m3b7ba83e10" x="68.49128" y="12.679684" style="stroke: #000000"/>
     <use xlink:href="#m3b7ba83e10" x="69.202855" y="12.571236" style="stroke: #000000"/>
     <use xlink:href="#m3b7ba83e10" x="69.91443" y="12.469977" style="stroke: #000000"/>
     <use xlink:href="#m3b7ba83e10" x="70.626005" y="12.375843" style="stroke: #000000"/>
     <use xlink:href="#m3b7ba83e10" x="71.33758" y="12.288643" style="stroke: #000000"/>
     <use xlink:href="#m3b7ba83e10" x="72.049155" y="12.208313" style="stroke: #000000"/>
     <use xlink:href="#m3b7ba83e10" x="72.76073" y="12.13469" style="stroke: #000000"/>
     <use xlink:href="#m3b7ba83e10" x="73.472306" y="12.067652" style="stroke: #000000"/>
     <use xlink:href="#m3b7ba83e10" x="74.183881" y="12.007314" style="stroke: #000000"/>
     <use xlink:href="#m3b7ba83e10" x="74.895456" y="11.953569" style="stroke: #000000"/>
     <use xlink:href="#m3b7ba83e10" x="75.607031" y="11.90641" style="stroke: #000000"/>
     <use xlink:href="#m3b7ba83e10" x="76.318606" y="11.865752" style="stroke: #000000"/>
     <use xlink:href="#m3b7ba83e10" x="77.030181" y="11.831573" style="stroke: #000000"/>
     <use xlink:href="#m3b7ba83e10" x="77.741756" y="11.803796" style="stroke: #000000"/>
     <use xlink:href="#m3b7ba83e10" x="78.453332" y="11.782434" style="stroke: #000000"/>
     <use xlink:href="#m3b7ba83e10" x="79.164907" y="11.767367" style="stroke: #000000"/>
     <use xlink:href="#m3b7ba83e10" x="79.876482" y="11.758531" style="stroke: #000000"/>
     <use xlink:href="#m3b7ba83e10" x="80.588057" y="11.755941" style="stroke: #000000"/>
     <use xlink:href="#m3b7ba83e10" x="81.299632" y="11.759489" style="stroke: #000000"/>
     <use xlink:href="#m3b7ba83e10" x="82.011207" y="11.769155" style="stroke: #000000"/>
     <use xlink:href="#m3b7ba83e10" x="82.722782" y="11.784861" style="stroke: #000000"/>
     <use xlink:href="#m3b7ba83e10" x="83.434358" y="11.806521" style="stroke: #000000"/>
     <use xlink:href="#m3b7ba83e10" x="84.145933" y="11.834149" style="stroke: #000000"/>
     <use xlink:href="#m3b7ba83e10" x="84.857508" y="11.867654" style="stroke: #000000"/>
     <use xlink:href="#m3b7ba83e10" x="85.569083" y="11.906964" style="stroke: #000000"/>
     <use xlink:href="#m3b7ba83e10" x="86.280658" y="11.952008" style="stroke: #000000"/>
     <use xlink:href="#m3b7ba83e10" x="86.992233" y="12.002779" style="stroke: #000000"/>
     <use xlink:href="#m3b7ba83e10" x="87.703808" y="12.059164" style="stroke: #000000"/>
     <use xlink:href="#m3b7ba83e10" x="88.415383" y="12.121142" style="stroke: #000000"/>
     <use xlink:href="#m3b7ba83e10" x="89.126959" y="12.188591" style="stroke: #000000"/>
     <use xlink:href="#m3b7ba83e10" x="89.838534" y="12.261519" style="stroke: #000000"/>
     <use xlink:href="#m3b7ba83e10" x="90.550109" y="12.339798" style="stroke: #000000"/>
     <use xlink:href="#m3b7ba83e10" x="91.261684" y="12.423414" style="stroke: #000000"/>
     <use xlink:href="#m3b7ba83e10" x="91.973259" y="12.512268" style="stroke: #000000"/>
     <use xlink:href="#m3b7ba83e10" x="92.684834" y="12.606309" style="stroke: #000000"/>
     <use xlink:href="#m3b7ba83e10" x="93.396409" y="12.705467" style="stroke: #000000"/>
     <use xlink:href="#m3b7ba83e10" x="94.107985" y="12.809693" style="stroke: #000000"/>
     <use xlink:href="#m3b7ba83e10" x="94.81956" y="12.918858" style="stroke: #000000"/>
     <use xlink:href="#m3b7ba83e10" x="95.531135" y="13.032941" style="stroke: #000000"/>
     <use xlink:href="#m3b7ba83e10" x="96.24271" y="13.151892" style="stroke: #000000"/>
     <use xlink:href="#m3b7ba83e10" x="96.954285" y="13.275585" style="stroke: #000000"/>
     <use xlink:href="#m3b7ba83e10" x="97.66586" y="13.403996" style="stroke: #000000"/>
     <use xlink:href="#m3b7ba83e10" x="98.377435" y="13.536993" style="stroke: #000000"/>
     <use xlink:href="#m3b7ba83e10" x="99.08901" y="13.67456" style="stroke: #000000"/>
     <use xlink:href="#m3b7ba83e10" x="99.800586" y="13.816619" style="stroke: #000000"/>
     <use xlink:href="#m3b7ba83e10" x="100.512161" y="13.963071" style="stroke: #000000"/>
     <use xlink:href="#m3b7ba83e10" x="101.223736" y="14.113838" style="stroke: #000000"/>
     <use xlink:href="#m3b7ba83e10" x="101.935311" y="14.268842" style="stroke: #000000"/>
     <use xlink:href="#m3b7ba83e10" x="102.646886" y="14.428033" style="stroke: #000000"/>
     <use xlink:href="#m3b7ba83e10" x="103.358461" y="14.591298" style="stroke: #000000"/>
     <use xlink:href="#m3b7ba83e10" x="104.070036" y="14.758615" style="stroke: #000000"/>
     <use xlink:href="#m3b7ba83e10" x="104.781612" y="14.929821" style="stroke: #000000"/>
     <use xlink:href="#m3b7ba83e10" x="105.493187" y="15.104931" style="stroke: #000000"/>
     <use xlink:href="#m3b7ba83e10" x="106.204762" y="15.283759" style="stroke: #000000"/>
     <use xlink:href="#m3b7ba83e10" x="106.916337" y="15.466335" style="stroke: #000000"/>
     <use xlink:href="#m3b7ba83e10" x="107.627912" y="15.65248" style="stroke: #000000"/>
     <use xlink:href="#m3b7ba83e10" x="108.339487" y="15.842174" style="stroke: #000000"/>
     <use xlink:href="#m3b7ba83e10" x="109.051062" y="16.035295" style="stroke: #000000"/>
     <use xlink:href="#m3b7ba83e10" x="109.762637" y="16.231781" style="stroke: #000000"/>
     <use xlink:href="#m3b7ba83e10" x="110.474213" y="16.431524" style="stroke: #000000"/>
     <use xlink:href="#m3b7ba83e10" x="111.185788" y="16.634475" style="stroke: #000000"/>
     <use xlink:href="#m3b7ba83e10" x="111.897363" y="16.840506" style="stroke: #000000"/>
     <use xlink:href="#m3b7ba83e10" x="112.608938" y="17.049567" style="stroke: #000000"/>
     <use xlink:href="#m3b7ba83e10" x="113.320513" y="17.261588" style="stroke: #000000"/>
     <use xlink:href="#m3b7ba83e10" x="114.032088" y="17.476397" style="stroke: #000000"/>
     <use xlink:href="#m3b7ba83e10" x="114.743663" y="17.693961" style="stroke: #000000"/>
     <use xlink:href="#m3b7ba83e10" x="115.455239" y="17.9142" style="stroke: #000000"/>
     <use xlink:href="#m3b7ba83e10" x="116.166814" y="18.137036" style="stroke: #000000"/>
     <use xlink:href="#m3b7ba83e10" x="116.878389" y="18.362513" style="stroke: #000000"/>
     <use xlink:href="#m3b7ba83e10" x="117.589964" y="18.590551" style="stroke: #000000"/>
     <use xlink:href="#m3b7ba83e10" x="118.301539" y="18.821095" style="stroke: #000000"/>
     <use xlink:href="#m3b7ba83e10" x="119.013114" y="19.054101" style="stroke: #000000"/>
     <use xlink:href="#m3b7ba83e10" x="119.724689" y="19.289527" style="stroke: #000000"/>
     <use xlink:href="#m3b7ba83e10" x="120.436264" y="19.527239" style="stroke: #000000"/>
     <use xlink:href="#m3b7ba83e10" x="121.14784" y="19.7673" style="stroke: #000000"/>
     <use xlink:href="#m3b7ba83e10" x="121.859415" y="20.009553" style="stroke: #000000"/>
     <use xlink:href="#m3b7ba83e10" x="122.57099" y="20.254014" style="stroke: #000000"/>
     <use xlink:href="#m3b7ba83e10" x="123.282565" y="20.500568" style="stroke: #000000"/>
     <use xlink:href="#m3b7ba83e10" x="123.99414" y="20.749188" style="stroke: #000000"/>
     <use xlink:href="#m3b7ba83e10" x="124.705715" y="20.999802" style="stroke: #000000"/>
     <use xlink:href="#m3b7ba83e10" x="125.41729" y="21.252317" style="stroke: #000000"/>
     <use xlink:href="#m3b7ba83e10" x="126.128866" y="21.506749" style="stroke: #000000"/>
     <use xlink:href="#m3b7ba83e10" x="126.840441" y="21.762934" style="stroke: #000000"/>
     <use xlink:href="#m3b7ba83e10" x="127.552016" y="22.020872" style="stroke: #000000"/>
     <use xlink:href="#m3b7ba83e10" x="128.263591" y="22.280492" style="stroke: #000000"/>
     <use xlink:href="#m3b7ba83e10" x="128.975166" y="22.541708" style="stroke: #000000"/>
     <use xlink:href="#m3b7ba83e10" x="129.686741" y="22.804451" style="stroke: #000000"/>
     <use xlink:href="#m3b7ba83e10" x="130.398316" y="23.06869" style="stroke: #000000"/>
     <use xlink:href="#m3b7ba83e10" x="131.109891" y="23.3343" style="stroke: #000000"/>
     <use xlink:href="#m3b7ba83e10" x="131.821467" y="23.601237" style="stroke: #000000"/>
     <use xlink:href="#m3b7ba83e10" x="132.533042" y="23.869444" style="stroke: #000000"/>
     <use xlink:href="#m3b7ba83e10" x="133.244617" y="24.138822" style="stroke: #000000"/>
     <use xlink:href="#m3b7ba83e10" x="133.956192" y="24.409293" style="stroke: #000000"/>
     <use xlink:href="#m3b7ba83e10" x="134.667767" y="24.680814" style="stroke: #000000"/>
     <use xlink:href="#m3b7ba83e10" x="135.379342" y="24.953301" style="stroke: #000000"/>
     <use xlink:href="#m3b7ba83e10" x="136.090917" y="25.22666" style="stroke: #000000"/>
     <use xlink:href="#m3b7ba83e10" x="136.802493" y="25.500864" style="stroke: #000000"/>
     <use xlink:href="#m3b7ba83e10" x="137.514068" y="25.775778" style="stroke: #000000"/>
     <use xlink:href="#m3b7ba83e10" x="138.225643" y="26.051351" style="stroke: #000000"/>
     <use xlink:href="#m3b7ba83e10" x="138.937218" y="26.327471" style="stroke: #000000"/>
     <use xlink:href="#m3b7ba83e10" x="139.648793" y="26.604124" style="stroke: #000000"/>
     <use xlink:href="#m3b7ba83e10" x="140.360368" y="26.881209" style="stroke: #000000"/>
     <use xlink:href="#m3b7ba83e10" x="141.071943" y="27.158628" style="stroke: #000000"/>
    </g>
   </g>
   <g id="patch_3">
    <path d="M 35.758824 28.933165 
L 35.758824 10.937978 
" style="fill: none; stroke: #000000; stroke-width: 0.8; stroke-linejoin: miter; stroke-linecap: square"/>
   </g>
   <g id="patch_4">
    <path d="M 135.379342 28.933165 
L 135.379342 10.937978 
" style="fill: none; stroke: #000000; stroke-width: 0.8; stroke-linejoin: miter; stroke-linecap: square"/>
   </g>
   <g id="patch_5">
    <path d="M 35.758824 28.933165 
L 135.379342 28.933165 
" style="fill: none; stroke: #000000; stroke-width: 0.8; stroke-linejoin: miter; stroke-linecap: square"/>
   </g>
   <g id="patch_6">
    <path d="M 35.758824 10.937978 
L 135.379342 10.937978 
" style="fill: none; stroke: #000000; stroke-width: 0.8; stroke-linejoin: miter; stroke-linecap: square"/>
   </g>
  </g>
  <g id="axes_2">
   <g id="patch_7">
    <path d="M 35.758824 50.713645 
L 135.379342 50.713645 
L 135.379342 32.718459 
L 35.758824 32.718459 
z
" style="fill: #ffffff"/>
   </g>
   <g id="matplotlib.axis_3">
    <g id="xtick_5">
     <g id="line2d_9">
      <g>
       <use xlink:href="#m0973a37d91" x="35.758824" y="50.713645" style="stroke: #000000; stroke-width: 0.8"/>
      </g>
     </g>
     <g id="text_5">
      <!-- 0 -->
      <g transform="translate(33.812495 62.724114) scale(0.07 -0.07)">
       <use xlink:href="#ArialMT-30"/>
      </g>
     </g>
    </g>
    <g id="xtick_6">
     <g id="line2d_10">
      <g>
       <use xlink:href="#m0973a37d91" x="64.221829" y="50.713645" style="stroke: #000000; stroke-width: 0.8"/>
      </g>
     </g>
     <g id="text_6">
      <!-- 2 -->
      <g transform="translate(62.275501 62.724114) scale(0.07 -0.07)">
       <use xlink:href="#ArialMT-32"/>
      </g>
     </g>
    </g>
    <g id="xtick_7">
     <g id="line2d_11">
      <g>
       <use xlink:href="#m0973a37d91" x="92.684834" y="50.713645" style="stroke: #000000; stroke-width: 0.8"/>
      </g>
     </g>
     <g id="text_7">
      <!-- 4 -->
      <g transform="translate(90.738506 62.724114) scale(0.07 -0.07)">
       <defs>
        <path id="ArialMT-34" d="M 2069 0 
L 2069 1097 
L 81 1097 
L 81 1613 
L 2172 4581 
L 2631 4581 
L 2631 1613 
L 3250 1613 
L 3250 1097 
L 2631 1097 
L 2631 0 
L 2069 0 
z
M 2069 1613 
L 2069 3678 
L 634 1613 
L 2069 1613 
z
" transform="scale(0.015625)"/>
       </defs>
       <use xlink:href="#ArialMT-34"/>
      </g>
     </g>
    </g>
    <g id="xtick_8">
     <g id="line2d_12">
      <g>
       <use xlink:href="#m0973a37d91" x="121.14784" y="50.713645" style="stroke: #000000; stroke-width: 0.8"/>
      </g>
     </g>
     <g id="text_8">
      <!-- 6 -->
      <g transform="translate(119.201511 62.724114) scale(0.07 -0.07)">
       <defs>
        <path id="ArialMT-36" d="M 3184 3459 
L 2625 3416 
Q 2550 3747 2413 3897 
Q 2184 4138 1850 4138 
Q 1581 4138 1378 3988 
Q 1113 3794 959 3422 
Q 806 3050 800 2363 
Q 1003 2672 1297 2822 
Q 1591 2972 1913 2972 
Q 2475 2972 2870 2558 
Q 3266 2144 3266 1488 
Q 3266 1056 3080 686 
Q 2894 316 2569 119 
Q 2244 -78 1831 -78 
Q 1128 -78 684 439 
Q 241 956 241 2144 
Q 241 3472 731 4075 
Q 1159 4600 1884 4600 
Q 2425 4600 2770 4297 
Q 3116 3994 3184 3459 
z
M 888 1484 
Q 888 1194 1011 928 
Q 1134 663 1356 523 
Q 1578 384 1822 384 
Q 2178 384 2434 671 
Q 2691 959 2691 1453 
Q 2691 1928 2437 2201 
Q 2184 2475 1800 2475 
Q 1419 2475 1153 2201 
Q 888 1928 888 1484 
z
" transform="scale(0.015625)"/>
       </defs>
       <use xlink:href="#ArialMT-36"/>
      </g>
     </g>
    </g>
    <g id="text_9">
     <!-- t (along trajectory segment) -->
     <g transform="translate(24.714395 86.395051) scale(0.1 -0.1)">
      <defs>
       <path id="ArialMT-74" d="M 1650 503 
L 1731 6 
Q 1494 -44 1306 -44 
Q 1000 -44 831 53 
Q 663 150 594 308 
Q 525 466 525 972 
L 525 2881 
L 113 2881 
L 113 3319 
L 525 3319 
L 525 4141 
L 1084 4478 
L 1084 3319 
L 1650 3319 
L 1650 2881 
L 1084 2881 
L 1084 941 
Q 1084 700 1114 631 
Q 1144 563 1211 522 
Q 1278 481 1403 481 
Q 1497 481 1650 503 
z
" transform="scale(0.015625)"/>
       <path id="ArialMT-20" transform="scale(0.015625)"/>
       <path id="ArialMT-28" d="M 1497 -1347 
Q 1031 -759 709 28 
Q 388 816 388 1659 
Q 388 2403 628 3084 
Q 909 3875 1497 4659 
L 1900 4659 
Q 1522 4009 1400 3731 
Q 1209 3300 1100 2831 
Q 966 2247 966 1656 
Q 966 153 1900 -1347 
L 1497 -1347 
z
" transform="scale(0.015625)"/>
       <path id="ArialMT-61" d="M 2588 409 
Q 2275 144 1986 34 
Q 1697 -75 1366 -75 
Q 819 -75 525 192 
Q 231 459 231 875 
Q 231 1119 342 1320 
Q 453 1522 633 1644 
Q 813 1766 1038 1828 
Q 1203 1872 1538 1913 
Q 2219 1994 2541 2106 
Q 2544 2222 2544 2253 
Q 2544 2597 2384 2738 
Q 2169 2928 1744 2928 
Q 1347 2928 1158 2789 
Q 969 2650 878 2297 
L 328 2372 
Q 403 2725 575 2942 
Q 747 3159 1072 3276 
Q 1397 3394 1825 3394 
Q 2250 3394 2515 3294 
Q 2781 3194 2906 3042 
Q 3031 2891 3081 2659 
Q 3109 2516 3109 2141 
L 3109 1391 
Q 3109 606 3145 398 
Q 3181 191 3288 0 
L 2700 0 
Q 2613 175 2588 409 
z
M 2541 1666 
Q 2234 1541 1622 1453 
Q 1275 1403 1131 1340 
Q 988 1278 909 1158 
Q 831 1038 831 891 
Q 831 666 1001 516 
Q 1172 366 1500 366 
Q 1825 366 2078 508 
Q 2331 650 2450 897 
Q 2541 1088 2541 1459 
L 2541 1666 
z
" transform="scale(0.015625)"/>
       <path id="ArialMT-6c" d="M 409 0 
L 409 4581 
L 972 4581 
L 972 0 
L 409 0 
z
" transform="scale(0.015625)"/>
       <path id="ArialMT-6f" d="M 213 1659 
Q 213 2581 725 3025 
Q 1153 3394 1769 3394 
Q 2453 3394 2887 2945 
Q 3322 2497 3322 1706 
Q 3322 1066 3130 698 
Q 2938 331 2570 128 
Q 2203 -75 1769 -75 
Q 1072 -75 642 372 
Q 213 819 213 1659 
z
M 791 1659 
Q 791 1022 1069 705 
Q 1347 388 1769 388 
Q 2188 388 2466 706 
Q 2744 1025 2744 1678 
Q 2744 2294 2464 2611 
Q 2184 2928 1769 2928 
Q 1347 2928 1069 2612 
Q 791 2297 791 1659 
z
" transform="scale(0.015625)"/>
       <path id="ArialMT-6e" d="M 422 0 
L 422 3319 
L 928 3319 
L 928 2847 
Q 1294 3394 1984 3394 
Q 2284 3394 2536 3286 
Q 2788 3178 2913 3003 
Q 3038 2828 3088 2588 
Q 3119 2431 3119 2041 
L 3119 0 
L 2556 0 
L 2556 2019 
Q 2556 2363 2490 2533 
Q 2425 2703 2258 2804 
Q 2091 2906 1866 2906 
Q 1506 2906 1245 2678 
Q 984 2450 984 1813 
L 984 0 
L 422 0 
z
" transform="scale(0.015625)"/>
       <path id="ArialMT-67" d="M 319 -275 
L 866 -356 
Q 900 -609 1056 -725 
Q 1266 -881 1628 -881 
Q 2019 -881 2231 -725 
Q 2444 -569 2519 -288 
Q 2563 -116 2559 434 
Q 2191 0 1641 0 
Q 956 0 581 494 
Q 206 988 206 1678 
Q 206 2153 378 2554 
Q 550 2956 876 3175 
Q 1203 3394 1644 3394 
Q 2231 3394 2613 2919 
L 2613 3319 
L 3131 3319 
L 3131 450 
Q 3131 -325 2973 -648 
Q 2816 -972 2473 -1159 
Q 2131 -1347 1631 -1347 
Q 1038 -1347 672 -1080 
Q 306 -813 319 -275 
z
M 784 1719 
Q 784 1066 1043 766 
Q 1303 466 1694 466 
Q 2081 466 2343 764 
Q 2606 1063 2606 1700 
Q 2606 2309 2336 2618 
Q 2066 2928 1684 2928 
Q 1309 2928 1046 2623 
Q 784 2319 784 1719 
z
" transform="scale(0.015625)"/>
       <path id="ArialMT-72" d="M 416 0 
L 416 3319 
L 922 3319 
L 922 2816 
Q 1116 3169 1280 3281 
Q 1444 3394 1641 3394 
Q 1925 3394 2219 3213 
L 2025 2691 
Q 1819 2813 1613 2813 
Q 1428 2813 1281 2702 
Q 1134 2591 1072 2394 
Q 978 2094 978 1738 
L 978 0 
L 416 0 
z
" transform="scale(0.015625)"/>
       <path id="ArialMT-6a" d="M 419 3928 
L 419 4581 
L 981 4581 
L 981 3928 
L 419 3928 
z
M -294 -1288 
L -188 -809 
Q -19 -853 78 -853 
Q 250 -853 334 -739 
Q 419 -625 419 -169 
L 419 3319 
L 981 3319 
L 981 -181 
Q 981 -794 822 -1034 
Q 619 -1347 147 -1347 
Q -81 -1347 -294 -1288 
z
" transform="scale(0.015625)"/>
       <path id="ArialMT-65" d="M 2694 1069 
L 3275 997 
Q 3138 488 2766 206 
Q 2394 -75 1816 -75 
Q 1088 -75 661 373 
Q 234 822 234 1631 
Q 234 2469 665 2931 
Q 1097 3394 1784 3394 
Q 2450 3394 2872 2941 
Q 3294 2488 3294 1666 
Q 3294 1616 3291 1516 
L 816 1516 
Q 847 969 1125 678 
Q 1403 388 1819 388 
Q 2128 388 2347 550 
Q 2566 713 2694 1069 
z
M 847 1978 
L 2700 1978 
Q 2663 2397 2488 2606 
Q 2219 2931 1791 2931 
Q 1403 2931 1139 2672 
Q 875 2413 847 1978 
z
" transform="scale(0.015625)"/>
       <path id="ArialMT-63" d="M 2588 1216 
L 3141 1144 
Q 3050 572 2676 248 
Q 2303 -75 1759 -75 
Q 1078 -75 664 370 
Q 250 816 250 1647 
Q 250 2184 428 2587 
Q 606 2991 970 3192 
Q 1334 3394 1763 3394 
Q 2303 3394 2647 3120 
Q 2991 2847 3088 2344 
L 2541 2259 
Q 2463 2594 2264 2762 
Q 2066 2931 1784 2931 
Q 1359 2931 1093 2626 
Q 828 2322 828 1663 
Q 828 994 1084 691 
Q 1341 388 1753 388 
Q 2084 388 2306 591 
Q 2528 794 2588 1216 
z
" transform="scale(0.015625)"/>
       <path id="ArialMT-79" d="M 397 -1278 
L 334 -750 
Q 519 -800 656 -800 
Q 844 -800 956 -737 
Q 1069 -675 1141 -563 
Q 1194 -478 1313 -144 
Q 1328 -97 1363 -6 
L 103 3319 
L 709 3319 
L 1400 1397 
Q 1534 1031 1641 628 
Q 1738 1016 1872 1384 
L 2581 3319 
L 3144 3319 
L 1881 -56 
Q 1678 -603 1566 -809 
Q 1416 -1088 1222 -1217 
Q 1028 -1347 759 -1347 
Q 597 -1347 397 -1278 
z
" transform="scale(0.015625)"/>
       <path id="ArialMT-73" d="M 197 991 
L 753 1078 
Q 800 744 1014 566 
Q 1228 388 1613 388 
Q 2000 388 2187 545 
Q 2375 703 2375 916 
Q 2375 1106 2209 1216 
Q 2094 1291 1634 1406 
Q 1016 1563 777 1677 
Q 538 1791 414 1992 
Q 291 2194 291 2438 
Q 291 2659 392 2848 
Q 494 3038 669 3163 
Q 800 3259 1026 3326 
Q 1253 3394 1513 3394 
Q 1903 3394 2198 3281 
Q 2494 3169 2634 2976 
Q 2775 2784 2828 2463 
L 2278 2388 
Q 2241 2644 2061 2787 
Q 1881 2931 1553 2931 
Q 1166 2931 1000 2803 
Q 834 2675 834 2503 
Q 834 2394 903 2306 
Q 972 2216 1119 2156 
Q 1203 2125 1616 2013 
Q 2213 1853 2448 1751 
Q 2684 1650 2818 1456 
Q 2953 1263 2953 975 
Q 2953 694 2789 445 
Q 2625 197 2315 61 
Q 2006 -75 1616 -75 
Q 969 -75 630 194 
Q 291 463 197 991 
z
" transform="scale(0.015625)"/>
       <path id="ArialMT-6d" d="M 422 0 
L 422 3319 
L 925 3319 
L 925 2853 
Q 1081 3097 1340 3245 
Q 1600 3394 1931 3394 
Q 2300 3394 2536 3241 
Q 2772 3088 2869 2813 
Q 3263 3394 3894 3394 
Q 4388 3394 4653 3120 
Q 4919 2847 4919 2278 
L 4919 0 
L 4359 0 
L 4359 2091 
Q 4359 2428 4304 2576 
Q 4250 2725 4106 2815 
Q 3963 2906 3769 2906 
Q 3419 2906 3187 2673 
Q 2956 2441 2956 1928 
L 2956 0 
L 2394 0 
L 2394 2156 
Q 2394 2531 2256 2718 
Q 2119 2906 1806 2906 
Q 1569 2906 1367 2781 
Q 1166 2656 1075 2415 
Q 984 2175 984 1722 
L 984 0 
L 422 0 
z
" transform="scale(0.015625)"/>
       <path id="ArialMT-29" d="M 791 -1347 
L 388 -1347 
Q 1322 153 1322 1656 
Q 1322 2244 1188 2822 
Q 1081 3291 891 3722 
Q 769 4003 388 4659 
L 791 4659 
Q 1378 3875 1659 3084 
Q 1900 2403 1900 1659 
Q 1900 816 1576 28 
Q 1253 -759 791 -1347 
z
" transform="scale(0.015625)"/>
      </defs>
      <use xlink:href="#ArialMT-74"/>
      <use xlink:href="#ArialMT-20" transform="translate(27.783203 0)"/>
      <use xlink:href="#ArialMT-28" transform="translate(55.566406 0)"/>
      <use xlink:href="#ArialMT-61" transform="translate(88.867188 0)"/>
      <use xlink:href="#ArialMT-6c" transform="translate(144.482422 0)"/>
      <use xlink:href="#ArialMT-6f" transform="translate(166.699219 0)"/>
      <use xlink:href="#ArialMT-6e" transform="translate(222.314453 0)"/>
      <use xlink:href="#ArialMT-67" transform="translate(277.929688 0)"/>
      <use xlink:href="#ArialMT-20" transform="translate(333.544922 0)"/>
      <use xlink:href="#ArialMT-74" transform="translate(361.328125 0)"/>
      <use xlink:href="#ArialMT-72" transform="translate(389.111328 0)"/>
      <use xlink:href="#ArialMT-61" transform="translate(422.412109 0)"/>
      <use xlink:href="#ArialMT-6a" transform="translate(478.027344 0)"/>
      <use xlink:href="#ArialMT-65" transform="translate(500.244141 0)"/>
      <use xlink:href="#ArialMT-63" transform="translate(555.859375 0)"/>
      <use xlink:href="#ArialMT-74" transform="translate(605.859375 0)"/>
      <use xlink:href="#ArialMT-6f" transform="translate(633.642578 0)"/>
      <use xlink:href="#ArialMT-72" transform="translate(689.257812 0)"/>
      <use xlink:href="#ArialMT-79" transform="translate(722.558594 0)"/>
      <use xlink:href="#ArialMT-20" transform="translate(772.558594 0)"/>
      <use xlink:href="#ArialMT-73" transform="translate(800.341797 0)"/>
      <use xlink:href="#ArialMT-65" transform="translate(850.341797 0)"/>
      <use xlink:href="#ArialMT-67" transform="translate(905.957031 0)"/>
      <use xlink:href="#ArialMT-6d" transform="translate(961.572266 0)"/>
      <use xlink:href="#ArialMT-65" transform="translate(1044.873047 0)"/>
      <use xlink:href="#ArialMT-6e" transform="translate(1100.488281 0)"/>
      <use xlink:href="#ArialMT-74" transform="translate(1156.103516 0)"/>
      <use xlink:href="#ArialMT-29" transform="translate(1183.886719 0)"/>
     </g>
    </g>
   </g>
   <g id="matplotlib.axis_4">
    <g id="ytick_4">
     <g id="line2d_13">
      <g>
       <use xlink:href="#mb0cd0516b4" x="35.758824" y="50.369944" style="stroke: #000000; stroke-width: 0.8"/>
      </g>
     </g>
     <g id="text_10">
      <!-- −0.40 -->
      <g transform="translate(11.04773 52.875178) scale(0.07 -0.07)">
       <defs>
        <path id="ArialMT-2212" d="M 3381 1997 
L 356 1997 
L 356 2522 
L 3381 2522 
L 3381 1997 
z
" transform="scale(0.015625)"/>
       </defs>
       <use xlink:href="#ArialMT-2212"/>
       <use xlink:href="#ArialMT-30" transform="translate(58.398438 0)"/>
       <use xlink:href="#ArialMT-2e" transform="translate(114.013672 0)"/>
       <use xlink:href="#ArialMT-34" transform="translate(141.796875 0)"/>
       <use xlink:href="#ArialMT-30" transform="translate(197.412109 0)"/>
      </g>
     </g>
    </g>
    <g id="ytick_5">
     <g id="line2d_14">
      <g>
       <use xlink:href="#mb0cd0516b4" x="35.758824" y="37.202734" style="stroke: #000000; stroke-width: 0.8"/>
      </g>
     </g>
     <g id="text_11">
      <!-- −0.35 -->
      <g transform="translate(11.04773 39.707968) scale(0.07 -0.07)">
       <defs>
        <path id="ArialMT-33" d="M 269 1209 
L 831 1284 
Q 928 806 1161 595 
Q 1394 384 1728 384 
Q 2125 384 2398 659 
Q 2672 934 2672 1341 
Q 2672 1728 2419 1979 
Q 2166 2231 1775 2231 
Q 1616 2231 1378 2169 
L 1441 2663 
Q 1497 2656 1531 2656 
Q 1891 2656 2178 2843 
Q 2466 3031 2466 3422 
Q 2466 3731 2256 3934 
Q 2047 4138 1716 4138 
Q 1388 4138 1169 3931 
Q 950 3725 888 3313 
L 325 3413 
Q 428 3978 793 4289 
Q 1159 4600 1703 4600 
Q 2078 4600 2393 4439 
Q 2709 4278 2876 4000 
Q 3044 3722 3044 3409 
Q 3044 3113 2884 2869 
Q 2725 2625 2413 2481 
Q 2819 2388 3044 2092 
Q 3269 1797 3269 1353 
Q 3269 753 2831 336 
Q 2394 -81 1725 -81 
Q 1122 -81 723 278 
Q 325 638 269 1209 
z
" transform="scale(0.015625)"/>
       </defs>
       <use xlink:href="#ArialMT-2212"/>
       <use xlink:href="#ArialMT-30" transform="translate(58.398438 0)"/>
       <use xlink:href="#ArialMT-2e" transform="translate(114.013672 0)"/>
       <use xlink:href="#ArialMT-33" transform="translate(141.796875 0)"/>
       <use xlink:href="#ArialMT-35" transform="translate(197.412109 0)"/>
      </g>
     </g>
    </g>
    <g id="text_12">
     <!-- $\lambda_2$ -->
     <g transform="translate(-5.93977 47.066052) rotate(-90) scale(0.1 -0.1)">
      <defs>
       <path id="DejaVuSans-32" d="M 1228 531 
L 3431 531 
L 3431 0 
L 469 0 
L 469 531 
Q 828 903 1448 1529 
Q 2069 2156 2228 2338 
Q 2531 2678 2651 2914 
Q 2772 3150 2772 3378 
Q 2772 3750 2511 3984 
Q 2250 4219 1831 4219 
Q 1534 4219 1204 4116 
Q 875 4013 500 3803 
L 500 4441 
Q 881 4594 1212 4672 
Q 1544 4750 1819 4750 
Q 2544 4750 2975 4387 
Q 3406 4025 3406 3419 
Q 3406 3131 3298 2873 
Q 3191 2616 2906 2266 
Q 2828 2175 2409 1742 
Q 1991 1309 1228 531 
z
" transform="scale(0.015625)"/>
      </defs>
      <use xlink:href="#DejaVuSans-Oblique-3bb" transform="translate(0 0.015625)"/>
      <use xlink:href="#DejaVuSans-32" transform="translate(59.179688 -16.390625) scale(0.7)"/>
     </g>
    </g>
   </g>
   <g id="line2d_15">
    <path d="M 35.758824 49.895682 
L 40.028274 47.533463 
L 44.297725 45.438415 
L 48.567176 43.587448 
L 52.836627 41.956091 
L 57.817653 40.300358 
L 62.798679 38.88019 
L 68.49128 37.508187 
L 74.183881 36.367645 
L 79.876482 35.434306 
L 86.280658 34.6184 
L 92.684834 34.037502 
L 99.08901 33.680649 
L 105.493187 33.539263 
L 111.897363 33.607001 
L 118.301539 33.880152 
L 124.705715 34.367051 
L 131.109891 35.082711 
L 137.514068 36.042036 
L 141.071943 36.685359 
L 141.071943 36.685359 
" clip-path="url(#pce2efe1c47)" style="fill: none; stroke: #000000; stroke-width: 0.75; stroke-linecap: square"/>
    <g clip-path="url(#pce2efe1c47)">
     <use xlink:href="#m3b7ba83e10" x="35.758824" y="49.895682" style="stroke: #000000"/>
     <use xlink:href="#m3b7ba83e10" x="36.470399" y="49.482141" style="stroke: #000000"/>
     <use xlink:href="#m3b7ba83e10" x="37.181974" y="49.07688" style="stroke: #000000"/>
     <use xlink:href="#m3b7ba83e10" x="37.893549" y="48.679632" style="stroke: #000000"/>
     <use xlink:href="#m3b7ba83e10" x="38.605124" y="48.290115" style="stroke: #000000"/>
     <use xlink:href="#m3b7ba83e10" x="39.316699" y="47.908116" style="stroke: #000000"/>
     <use xlink:href="#m3b7ba83e10" x="40.028274" y="47.533463" style="stroke: #000000"/>
     <use xlink:href="#m3b7ba83e10" x="40.739849" y="47.166227" style="stroke: #000000"/>
     <use xlink:href="#m3b7ba83e10" x="41.451425" y="46.806384" style="stroke: #000000"/>
     <use xlink:href="#m3b7ba83e10" x="42.163" y="46.4538" style="stroke: #000000"/>
     <use xlink:href="#m3b7ba83e10" x="42.874575" y="46.108375" style="stroke: #000000"/>
     <use xlink:href="#m3b7ba83e10" x="43.58615" y="45.769926" style="stroke: #000000"/>
     <use xlink:href="#m3b7ba83e10" x="44.297725" y="45.438415" style="stroke: #000000"/>
     <use xlink:href="#m3b7ba83e10" x="45.0093" y="45.113654" style="stroke: #000000"/>
     <use xlink:href="#m3b7ba83e10" x="45.720875" y="44.795548" style="stroke: #000000"/>
     <use xlink:href="#m3b7ba83e10" x="46.432451" y="44.483987" style="stroke: #000000"/>
     <use xlink:href="#m3b7ba83e10" x="47.144026" y="44.178854" style="stroke: #000000"/>
     <use xlink:href="#m3b7ba83e10" x="47.855601" y="43.880039" style="stroke: #000000"/>
     <use xlink:href="#m3b7ba83e10" x="48.567176" y="43.587448" style="stroke: #000000"/>
     <use xlink:href="#m3b7ba83e10" x="49.278751" y="43.300939" style="stroke: #000000"/>
     <use xlink:href="#m3b7ba83e10" x="49.990326" y="43.020403" style="stroke: #000000"/>
     <use xlink:href="#m3b7ba83e10" x="50.701901" y="42.745776" style="stroke: #000000"/>
     <use xlink:href="#m3b7ba83e10" x="51.413476" y="42.476894" style="stroke: #000000"/>
     <use xlink:href="#m3b7ba83e10" x="52.125052" y="42.213718" style="stroke: #000000"/>
     <use xlink:href="#m3b7ba83e10" x="52.836627" y="41.956091" style="stroke: #000000"/>
     <use xlink:href="#m3b7ba83e10" x="53.548202" y="41.703926" style="stroke: #000000"/>
     <use xlink:href="#m3b7ba83e10" x="54.259777" y="41.457138" style="stroke: #000000"/>
     <use xlink:href="#m3b7ba83e10" x="54.971352" y="41.215646" style="stroke: #000000"/>
     <use xlink:href="#m3b7ba83e10" x="55.682927" y="40.979272" style="stroke: #000000"/>
     <use xlink:href="#m3b7ba83e10" x="56.394502" y="40.748023" style="stroke: #000000"/>
     <use xlink:href="#m3b7ba83e10" x="57.106078" y="40.521765" style="stroke: #000000"/>
     <use xlink:href="#m3b7ba83e10" x="57.817653" y="40.300358" style="stroke: #000000"/>
     <use xlink:href="#m3b7ba83e10" x="58.529228" y="40.083785" style="stroke: #000000"/>
     <use xlink:href="#m3b7ba83e10" x="59.240803" y="39.871921" style="stroke: #000000"/>
     <use xlink:href="#m3b7ba83e10" x="59.952378" y="39.664664" style="stroke: #000000"/>
     <use xlink:href="#m3b7ba83e10" x="60.663953" y="39.461943" style="stroke: #000000"/>
     <use xlink:href="#m3b7ba83e10" x="61.375528" y="39.263703" style="stroke: #000000"/>
     <use xlink:href="#m3b7ba83e10" x="62.087103" y="39.069804" style="stroke: #000000"/>
     <use xlink:href="#m3b7ba83e10" x="62.798679" y="38.88019" style="stroke: #000000"/>
     <use xlink:href="#m3b7ba83e10" x="63.510254" y="38.694806" style="stroke: #000000"/>
     <use xlink:href="#m3b7ba83e10" x="64.221829" y="38.513535" style="stroke: #000000"/>
     <use xlink:href="#m3b7ba83e10" x="64.933404" y="38.336289" style="stroke: #000000"/>
     <use xlink:href="#m3b7ba83e10" x="65.644979" y="38.163015" style="stroke: #000000"/>
     <use xlink:href="#m3b7ba83e10" x="66.356554" y="37.993665" style="stroke: #000000"/>
     <use xlink:href="#m3b7ba83e10" x="67.068129" y="37.828122" style="stroke: #000000"/>
     <use xlink:href="#m3b7ba83e10" x="67.779705" y="37.666338" style="stroke: #000000"/>
     <use xlink:href="#m3b7ba83e10" x="68.49128" y="37.508187" style="stroke: #000000"/>
     <use xlink:href="#m3b7ba83e10" x="69.202855" y="37.353694" style="stroke: #000000"/>
     <use xlink:href="#m3b7ba83e10" x="69.91443" y="37.202701" style="stroke: #000000"/>
     <use xlink:href="#m3b7ba83e10" x="70.626005" y="37.055216" style="stroke: #000000"/>
     <use xlink:href="#m3b7ba83e10" x="71.33758" y="36.911106" style="stroke: #000000"/>
     <use xlink:href="#m3b7ba83e10" x="72.049155" y="36.770348" style="stroke: #000000"/>
     <use xlink:href="#m3b7ba83e10" x="72.76073" y="36.632885" style="stroke: #000000"/>
     <use xlink:href="#m3b7ba83e10" x="73.472306" y="36.498609" style="stroke: #000000"/>
     <use xlink:href="#m3b7ba83e10" x="74.183881" y="36.367645" style="stroke: #000000"/>
     <use xlink:href="#m3b7ba83e10" x="74.895456" y="36.239868" style="stroke: #000000"/>
     <use xlink:href="#m3b7ba83e10" x="75.607031" y="36.115347" style="stroke: #000000"/>
     <use xlink:href="#m3b7ba83e10" x="76.318606" y="35.993974" style="stroke: #000000"/>
     <use xlink:href="#m3b7ba83e10" x="77.030181" y="35.875802" style="stroke: #000000"/>
     <use xlink:href="#m3b7ba83e10" x="77.741756" y="35.760747" style="stroke: #000000"/>
     <use xlink:href="#m3b7ba83e10" x="78.453332" y="35.648854" style="stroke: #000000"/>
     <use xlink:href="#m3b7ba83e10" x="79.164907" y="35.540053" style="stroke: #000000"/>
     <use xlink:href="#m3b7ba83e10" x="79.876482" y="35.434306" style="stroke: #000000"/>
     <use xlink:href="#m3b7ba83e10" x="80.588057" y="35.331658" style="stroke: #000000"/>
     <use xlink:href="#m3b7ba83e10" x="81.299632" y="35.232056" style="stroke: #000000"/>
     <use xlink:href="#m3b7ba83e10" x="82.011207" y="35.135475" style="stroke: #000000"/>
     <use xlink:href="#m3b7ba83e10" x="82.722782" y="35.041877" style="stroke: #000000"/>
     <use xlink:href="#m3b7ba83e10" x="83.434358" y="34.95126" style="stroke: #000000"/>
     <use xlink:href="#m3b7ba83e10" x="84.145933" y="34.86365" style="stroke: #000000"/>
     <use xlink:href="#m3b7ba83e10" x="84.857508" y="34.778975" style="stroke: #000000"/>
     <use xlink:href="#m3b7ba83e10" x="85.569083" y="34.697243" style="stroke: #000000"/>
     <use xlink:href="#m3b7ba83e10" x="86.280658" y="34.6184" style="stroke: #000000"/>
     <use xlink:href="#m3b7ba83e10" x="86.992233" y="34.542468" style="stroke: #000000"/>
     <use xlink:href="#m3b7ba83e10" x="87.703808" y="34.46944" style="stroke: #000000"/>
     <use xlink:href="#m3b7ba83e10" x="88.415383" y="34.399268" style="stroke: #000000"/>
     <use xlink:href="#m3b7ba83e10" x="89.126959" y="34.33193" style="stroke: #000000"/>
     <use xlink:href="#m3b7ba83e10" x="89.838534" y="34.267433" style="stroke: #000000"/>
     <use xlink:href="#m3b7ba83e10" x="90.550109" y="34.205761" style="stroke: #000000"/>
     <use xlink:href="#m3b7ba83e10" x="91.261684" y="34.146899" style="stroke: #000000"/>
     <use xlink:href="#m3b7ba83e10" x="91.973259" y="34.090808" style="stroke: #000000"/>
     <use xlink:href="#m3b7ba83e10" x="92.684834" y="34.037502" style="stroke: #000000"/>
     <use xlink:href="#m3b7ba83e10" x="93.396409" y="33.986959" style="stroke: #000000"/>
     <use xlink:href="#m3b7ba83e10" x="94.107985" y="33.93921" style="stroke: #000000"/>
     <use xlink:href="#m3b7ba83e10" x="94.81956" y="33.894146" style="stroke: #000000"/>
     <use xlink:href="#m3b7ba83e10" x="95.531135" y="33.851804" style="stroke: #000000"/>
     <use xlink:href="#m3b7ba83e10" x="96.24271" y="33.81221" style="stroke: #000000"/>
     <use xlink:href="#m3b7ba83e10" x="96.954285" y="33.775292" style="stroke: #000000"/>
     <use xlink:href="#m3b7ba83e10" x="97.66586" y="33.741073" style="stroke: #000000"/>
     <use xlink:href="#m3b7ba83e10" x="98.377435" y="33.709515" style="stroke: #000000"/>
     <use xlink:href="#m3b7ba83e10" x="99.08901" y="33.680649" style="stroke: #000000"/>
     <use xlink:href="#m3b7ba83e10" x="99.800586" y="33.654444" style="stroke: #000000"/>
     <use xlink:href="#m3b7ba83e10" x="100.512161" y="33.630876" style="stroke: #000000"/>
     <use xlink:href="#m3b7ba83e10" x="101.223736" y="33.609952" style="stroke: #000000"/>
     <use xlink:href="#m3b7ba83e10" x="101.935311" y="33.591634" style="stroke: #000000"/>
     <use xlink:href="#m3b7ba83e10" x="102.646886" y="33.575961" style="stroke: #000000"/>
     <use xlink:href="#m3b7ba83e10" x="103.358461" y="33.562878" style="stroke: #000000"/>
     <use xlink:href="#m3b7ba83e10" x="104.070036" y="33.552424" style="stroke: #000000"/>
     <use xlink:href="#m3b7ba83e10" x="104.781612" y="33.544529" style="stroke: #000000"/>
     <use xlink:href="#m3b7ba83e10" x="105.493187" y="33.539263" style="stroke: #000000"/>
     <use xlink:href="#m3b7ba83e10" x="106.204762" y="33.536555" style="stroke: #000000"/>
     <use xlink:href="#m3b7ba83e10" x="106.916337" y="33.536422" style="stroke: #000000"/>
     <use xlink:href="#m3b7ba83e10" x="107.627912" y="33.538847" style="stroke: #000000"/>
     <use xlink:href="#m3b7ba83e10" x="108.339487" y="33.543854" style="stroke: #000000"/>
     <use xlink:href="#m3b7ba83e10" x="109.051062" y="33.551388" style="stroke: #000000"/>
     <use xlink:href="#m3b7ba83e10" x="109.762637" y="33.561497" style="stroke: #000000"/>
     <use xlink:href="#m3b7ba83e10" x="110.474213" y="33.574117" style="stroke: #000000"/>
     <use xlink:href="#m3b7ba83e10" x="111.185788" y="33.589288" style="stroke: #000000"/>
     <use xlink:href="#m3b7ba83e10" x="111.897363" y="33.607001" style="stroke: #000000"/>
     <use xlink:href="#m3b7ba83e10" x="112.608938" y="33.62721" style="stroke: #000000"/>
     <use xlink:href="#m3b7ba83e10" x="113.320513" y="33.649994" style="stroke: #000000"/>
     <use xlink:href="#m3b7ba83e10" x="114.032088" y="33.675234" style="stroke: #000000"/>
     <use xlink:href="#m3b7ba83e10" x="114.743663" y="33.703033" style="stroke: #000000"/>
     <use xlink:href="#m3b7ba83e10" x="115.455239" y="33.733311" style="stroke: #000000"/>
     <use xlink:href="#m3b7ba83e10" x="116.166814" y="33.766101" style="stroke: #000000"/>
     <use xlink:href="#m3b7ba83e10" x="116.878389" y="33.801513" style="stroke: #000000"/>
     <use xlink:href="#m3b7ba83e10" x="117.589964" y="33.839522" style="stroke: #000000"/>
     <use xlink:href="#m3b7ba83e10" x="118.301539" y="33.880152" style="stroke: #000000"/>
     <use xlink:href="#m3b7ba83e10" x="119.013114" y="33.92342" style="stroke: #000000"/>
     <use xlink:href="#m3b7ba83e10" x="119.724689" y="33.969364" style="stroke: #000000"/>
     <use xlink:href="#m3b7ba83e10" x="120.436264" y="34.01796" style="stroke: #000000"/>
     <use xlink:href="#m3b7ba83e10" x="121.14784" y="34.06928" style="stroke: #000000"/>
     <use xlink:href="#m3b7ba83e10" x="121.859415" y="34.123299" style="stroke: #000000"/>
     <use xlink:href="#m3b7ba83e10" x="122.57099" y="34.180066" style="stroke: #000000"/>
     <use xlink:href="#m3b7ba83e10" x="123.282565" y="34.239611" style="stroke: #000000"/>
     <use xlink:href="#m3b7ba83e10" x="123.99414" y="34.301934" style="stroke: #000000"/>
     <use xlink:href="#m3b7ba83e10" x="124.705715" y="34.367051" style="stroke: #000000"/>
     <use xlink:href="#m3b7ba83e10" x="125.41729" y="34.43497" style="stroke: #000000"/>
     <use xlink:href="#m3b7ba83e10" x="126.128866" y="34.505785" style="stroke: #000000"/>
     <use xlink:href="#m3b7ba83e10" x="126.840441" y="34.579417" style="stroke: #000000"/>
     <use xlink:href="#m3b7ba83e10" x="127.552016" y="34.655961" style="stroke: #000000"/>
     <use xlink:href="#m3b7ba83e10" x="128.263591" y="34.735409" style="stroke: #000000"/>
     <use xlink:href="#m3b7ba83e10" x="128.975166" y="34.817793" style="stroke: #000000"/>
     <use xlink:href="#m3b7ba83e10" x="129.686741" y="34.903111" style="stroke: #000000"/>
     <use xlink:href="#m3b7ba83e10" x="130.398316" y="34.991412" style="stroke: #000000"/>
     <use xlink:href="#m3b7ba83e10" x="131.109891" y="35.082711" style="stroke: #000000"/>
     <use xlink:href="#m3b7ba83e10" x="131.821467" y="35.177" style="stroke: #000000"/>
     <use xlink:href="#m3b7ba83e10" x="132.533042" y="35.274311" style="stroke: #000000"/>
     <use xlink:href="#m3b7ba83e10" x="133.244617" y="35.37469" style="stroke: #000000"/>
     <use xlink:href="#m3b7ba83e10" x="133.956192" y="35.478123" style="stroke: #000000"/>
     <use xlink:href="#m3b7ba83e10" x="134.667767" y="35.584663" style="stroke: #000000"/>
     <use xlink:href="#m3b7ba83e10" x="135.379342" y="35.694295" style="stroke: #000000"/>
     <use xlink:href="#m3b7ba83e10" x="136.090917" y="35.807051" style="stroke: #000000"/>
     <use xlink:href="#m3b7ba83e10" x="136.802493" y="35.922978" style="stroke: #000000"/>
     <use xlink:href="#m3b7ba83e10" x="137.514068" y="36.042036" style="stroke: #000000"/>
     <use xlink:href="#m3b7ba83e10" x="138.225643" y="36.164273" style="stroke: #000000"/>
     <use xlink:href="#m3b7ba83e10" x="138.937218" y="36.289704" style="stroke: #000000"/>
     <use xlink:href="#m3b7ba83e10" x="139.648793" y="36.418361" style="stroke: #000000"/>
     <use xlink:href="#m3b7ba83e10" x="140.360368" y="36.550235" style="stroke: #000000"/>
     <use xlink:href="#m3b7ba83e10" x="141.071943" y="36.685359" style="stroke: #000000"/>
    </g>
   </g>
   <g id="patch_8">
    <path d="M 35.758824 50.713645 
L 35.758824 32.718459 
" style="fill: none; stroke: #000000; stroke-width: 0.8; stroke-linejoin: miter; stroke-linecap: square"/>
   </g>
   <g id="patch_9">
    <path d="M 135.379342 50.713645 
L 135.379342 32.718459 
" style="fill: none; stroke: #000000; stroke-width: 0.8; stroke-linejoin: miter; stroke-linecap: square"/>
   </g>
   <g id="patch_10">
    <path d="M 35.758824 50.713645 
L 135.379342 50.713645 
" style="fill: none; stroke: #000000; stroke-width: 0.8; stroke-linejoin: miter; stroke-linecap: square"/>
   </g>
   <g id="patch_11">
    <path d="M 35.758824 32.718459 
L 135.379342 32.718459 
" style="fill: none; stroke: #000000; stroke-width: 0.8; stroke-linejoin: miter; stroke-linecap: square"/>
   </g>
  </g>
  <g id="text_13">
   <!-- Eig.vals near Qmin at t=7.65, ghost: F, leaves Uɛ: T, Qmami: 4.5e+00  -->
   <g transform="translate(-14.101554 5.282856) scale(0.055 -0.055)">
    <defs>
     <path id="ArialMT-45" d="M 506 0 
L 506 4581 
L 3819 4581 
L 3819 4041 
L 1113 4041 
L 1113 2638 
L 3647 2638 
L 3647 2100 
L 1113 2100 
L 1113 541 
L 3925 541 
L 3925 0 
L 506 0 
z
" transform="scale(0.015625)"/>
     <path id="ArialMT-69" d="M 425 3934 
L 425 4581 
L 988 4581 
L 988 3934 
L 425 3934 
z
M 425 0 
L 425 3319 
L 988 3319 
L 988 0 
L 425 0 
z
" transform="scale(0.015625)"/>
     <path id="ArialMT-76" d="M 1344 0 
L 81 3319 
L 675 3319 
L 1388 1331 
Q 1503 1009 1600 663 
Q 1675 925 1809 1294 
L 2547 3319 
L 3125 3319 
L 1869 0 
L 1344 0 
z
" transform="scale(0.015625)"/>
     <path id="ArialMT-51" d="M 3966 491 
Q 4388 200 4744 66 
L 4566 -356 
Q 4072 -178 3581 206 
Q 3072 -78 2456 -78 
Q 1834 -78 1328 222 
Q 822 522 548 1065 
Q 275 1609 275 2291 
Q 275 2969 550 3525 
Q 825 4081 1333 4372 
Q 1841 4663 2469 4663 
Q 3103 4663 3612 4361 
Q 4122 4059 4389 3517 
Q 4656 2975 4656 2294 
Q 4656 1728 4484 1276 
Q 4313 825 3966 491 
z
M 2631 1266 
Q 3156 1119 3497 828 
Q 4031 1316 4031 2294 
Q 4031 2850 3842 3265 
Q 3653 3681 3289 3911 
Q 2925 4141 2472 4141 
Q 1794 4141 1347 3677 
Q 900 3213 900 2291 
Q 900 1397 1342 919 
Q 1784 441 2472 441 
Q 2797 441 3084 563 
Q 2800 747 2484 825 
L 2631 1266 
z
" transform="scale(0.015625)"/>
     <path id="ArialMT-3d" d="M 3381 2694 
L 356 2694 
L 356 3219 
L 3381 3219 
L 3381 2694 
z
M 3381 1303 
L 356 1303 
L 356 1828 
L 3381 1828 
L 3381 1303 
z
" transform="scale(0.015625)"/>
     <path id="ArialMT-2c" d="M 569 0 
L 569 641 
L 1209 641 
L 1209 0 
Q 1209 -353 1084 -570 
Q 959 -788 688 -906 
L 531 -666 
Q 709 -588 793 -436 
Q 878 -284 888 0 
L 569 0 
z
" transform="scale(0.015625)"/>
     <path id="ArialMT-68" d="M 422 0 
L 422 4581 
L 984 4581 
L 984 2938 
Q 1378 3394 1978 3394 
Q 2347 3394 2619 3248 
Q 2891 3103 3008 2847 
Q 3125 2591 3125 2103 
L 3125 0 
L 2563 0 
L 2563 2103 
Q 2563 2525 2380 2717 
Q 2197 2909 1863 2909 
Q 1613 2909 1392 2779 
Q 1172 2650 1078 2428 
Q 984 2206 984 1816 
L 984 0 
L 422 0 
z
" transform="scale(0.015625)"/>
     <path id="ArialMT-3a" d="M 578 2678 
L 578 3319 
L 1219 3319 
L 1219 2678 
L 578 2678 
z
M 578 0 
L 578 641 
L 1219 641 
L 1219 0 
L 578 0 
z
" transform="scale(0.015625)"/>
     <path id="ArialMT-46" d="M 525 0 
L 525 4581 
L 3616 4581 
L 3616 4041 
L 1131 4041 
L 1131 2622 
L 3281 2622 
L 3281 2081 
L 1131 2081 
L 1131 0 
L 525 0 
z
" transform="scale(0.015625)"/>
     <path id="ArialMT-55" d="M 3500 4581 
L 4106 4581 
L 4106 1934 
Q 4106 1244 3950 837 
Q 3794 431 3386 176 
Q 2978 -78 2316 -78 
Q 1672 -78 1262 144 
Q 853 366 678 786 
Q 503 1206 503 1934 
L 503 4581 
L 1109 4581 
L 1109 1938 
Q 1109 1341 1220 1058 
Q 1331 775 1601 622 
Q 1872 469 2263 469 
Q 2931 469 3215 772 
Q 3500 1075 3500 1938 
L 3500 4581 
z
" transform="scale(0.015625)"/>
     <path id="ArialMT-25b" d="M 2778 934 
Q 2597 -75 1463 -75 
Q 941 -75 609 159 
Q 228 428 228 928 
Q 228 1494 728 1763 
Q 334 2003 334 2409 
Q 334 2869 681 3141 
Q 1000 3394 1469 3394 
Q 2425 3394 2675 2459 
L 2141 2372 
Q 1950 2931 1475 2931 
Q 1238 2931 1084 2798 
Q 931 2666 931 2431 
Q 931 2269 1034 2134 
Q 1138 2000 1294 1969 
Q 1425 1944 1778 1941 
L 1778 1500 
Q 1678 1503 1650 1503 
Q 1331 1503 1244 1488 
Q 1041 1447 909 1288 
Q 791 1144 791 950 
Q 791 691 997 528 
Q 1184 378 1453 378 
Q 1759 378 1975 566 
Q 2181 744 2250 1047 
L 2778 934 
z
" transform="scale(0.015625)"/>
     <path id="ArialMT-54" d="M 1659 0 
L 1659 4041 
L 150 4041 
L 150 4581 
L 3781 4581 
L 3781 4041 
L 2266 4041 
L 2266 0 
L 1659 0 
z
" transform="scale(0.015625)"/>
     <path id="ArialMT-2b" d="M 1603 741 
L 1603 1997 
L 356 1997 
L 356 2522 
L 1603 2522 
L 1603 3769 
L 2134 3769 
L 2134 2522 
L 3381 2522 
L 3381 1997 
L 2134 1997 
L 2134 741 
L 1603 741 
z
" transform="scale(0.015625)"/>
    </defs>
    <use xlink:href="#ArialMT-45"/>
    <use xlink:href="#ArialMT-69" transform="translate(66.699219 0)"/>
    <use xlink:href="#ArialMT-67" transform="translate(88.916016 0)"/>
    <use xlink:href="#ArialMT-2e" transform="translate(144.53125 0)"/>
    <use xlink:href="#ArialMT-76" transform="translate(172.314453 0)"/>
    <use xlink:href="#ArialMT-61" transform="translate(222.314453 0)"/>
    <use xlink:href="#ArialMT-6c" transform="translate(277.929688 0)"/>
    <use xlink:href="#ArialMT-73" transform="translate(300.146484 0)"/>
    <use xlink:href="#ArialMT-20" transform="translate(350.146484 0)"/>
    <use xlink:href="#ArialMT-6e" transform="translate(377.929688 0)"/>
    <use xlink:href="#ArialMT-65" transform="translate(433.544922 0)"/>
    <use xlink:href="#ArialMT-61" transform="translate(489.160156 0)"/>
    <use xlink:href="#ArialMT-72" transform="translate(544.775391 0)"/>
    <use xlink:href="#ArialMT-20" transform="translate(578.076172 0)"/>
    <use xlink:href="#ArialMT-51" transform="translate(605.859375 0)"/>
    <use xlink:href="#ArialMT-6d" transform="translate(683.642578 0)"/>
    <use xlink:href="#ArialMT-69" transform="translate(766.943359 0)"/>
    <use xlink:href="#ArialMT-6e" transform="translate(789.160156 0)"/>
    <use xlink:href="#ArialMT-20" transform="translate(844.775391 0)"/>
    <use xlink:href="#ArialMT-61" transform="translate(872.558594 0)"/>
    <use xlink:href="#ArialMT-74" transform="translate(928.173828 0)"/>
    <use xlink:href="#ArialMT-20" transform="translate(955.957031 0)"/>
    <use xlink:href="#ArialMT-74" transform="translate(983.740234 0)"/>
    <use xlink:href="#ArialMT-3d" transform="translate(1011.523438 0)"/>
    <use xlink:href="#ArialMT-37" transform="translate(1069.921875 0)"/>
    <use xlink:href="#ArialMT-2e" transform="translate(1125.537109 0)"/>
    <use xlink:href="#ArialMT-36" transform="translate(1153.320312 0)"/>
    <use xlink:href="#ArialMT-35" transform="translate(1208.935547 0)"/>
    <use xlink:href="#ArialMT-2c" transform="translate(1264.550781 0)"/>
    <use xlink:href="#ArialMT-20" transform="translate(1292.333984 0)"/>
    <use xlink:href="#ArialMT-67" transform="translate(1320.117188 0)"/>
    <use xlink:href="#ArialMT-68" transform="translate(1375.732422 0)"/>
    <use xlink:href="#ArialMT-6f" transform="translate(1431.347656 0)"/>
    <use xlink:href="#ArialMT-73" transform="translate(1486.962891 0)"/>
    <use xlink:href="#ArialMT-74" transform="translate(1536.962891 0)"/>
    <use xlink:href="#ArialMT-3a" transform="translate(1564.746094 0)"/>
    <use xlink:href="#ArialMT-20" transform="translate(1592.529297 0)"/>
    <use xlink:href="#ArialMT-46" transform="translate(1620.3125 0)"/>
    <use xlink:href="#ArialMT-2c" transform="translate(1670.271484 0)"/>
    <use xlink:href="#ArialMT-20" transform="translate(1698.054688 0)"/>
    <use xlink:href="#ArialMT-6c" transform="translate(1725.837891 0)"/>
    <use xlink:href="#ArialMT-65" transform="translate(1748.054688 0)"/>
    <use xlink:href="#ArialMT-61" transform="translate(1803.669922 0)"/>
    <use xlink:href="#ArialMT-76" transform="translate(1859.285156 0)"/>
    <use xlink:href="#ArialMT-65" transform="translate(1909.285156 0)"/>
    <use xlink:href="#ArialMT-73" transform="translate(1964.900391 0)"/>
    <use xlink:href="#ArialMT-20" transform="translate(2014.900391 0)"/>
    <use xlink:href="#ArialMT-55" transform="translate(2042.683594 0)"/>
    <use xlink:href="#ArialMT-25b" transform="translate(2114.900391 0)"/>
    <use xlink:href="#ArialMT-3a" transform="translate(2160.75 0)"/>
    <use xlink:href="#ArialMT-20" transform="translate(2188.533203 0)"/>
    <use xlink:href="#ArialMT-54" transform="translate(2214.566406 0)"/>
    <use xlink:href="#ArialMT-2c" transform="translate(2264.525391 0)"/>
    <use xlink:href="#ArialMT-20" transform="translate(2292.308594 0)"/>
    <use xlink:href="#ArialMT-51" transform="translate(2320.091797 0)"/>
    <use xlink:href="#ArialMT-6d" transform="translate(2397.875 0)"/>
    <use xlink:href="#ArialMT-61" transform="translate(2481.175781 0)"/>
    <use xlink:href="#ArialMT-6d" transform="translate(2536.791016 0)"/>
    <use xlink:href="#ArialMT-69" transform="translate(2620.091797 0)"/>
    <use xlink:href="#ArialMT-3a" transform="translate(2642.308594 0)"/>
    <use xlink:href="#ArialMT-20" transform="translate(2670.091797 0)"/>
    <use xlink:href="#ArialMT-34" transform="translate(2697.875 0)"/>
    <use xlink:href="#ArialMT-2e" transform="translate(2753.490234 0)"/>
    <use xlink:href="#ArialMT-35" transform="translate(2781.273438 0)"/>
    <use xlink:href="#ArialMT-65" transform="translate(2836.888672 0)"/>
    <use xlink:href="#ArialMT-2b" transform="translate(2892.503906 0)"/>
    <use xlink:href="#ArialMT-30" transform="translate(2950.902344 0)"/>
    <use xlink:href="#ArialMT-30" transform="translate(3006.517578 0)"/>
    <use xlink:href="#ArialMT-20" transform="translate(3062.132812 0)"/>
   </g>
   <!-- sign changes λi: F F , qualifying slopes: N/A, R²: [] -->
   <g transform="translate(10.03915 11.245028) scale(0.055 -0.055)">
    <defs>
     <path id="ArialMT-3bb" d="M 1597 2481 
L 669 0 
L 75 0 
L 1306 3256 
L 813 4581 
L 1406 4581 
L 3119 0 
L 2525 0 
L 1597 2481 
z
" transform="scale(0.015625)"/>
     <path id="ArialMT-71" d="M 2538 -1272 
L 2538 353 
Q 2406 169 2170 47 
Q 1934 -75 1669 -75 
Q 1078 -75 651 397 
Q 225 869 225 1691 
Q 225 2191 398 2587 
Q 572 2984 901 3189 
Q 1231 3394 1625 3394 
Q 2241 3394 2594 2875 
L 2594 3319 
L 3100 3319 
L 3100 -1272 
L 2538 -1272 
z
M 803 1669 
Q 803 1028 1072 708 
Q 1341 388 1716 388 
Q 2075 388 2334 692 
Q 2594 997 2594 1619 
Q 2594 2281 2320 2615 
Q 2047 2950 1678 2950 
Q 1313 2950 1058 2639 
Q 803 2328 803 1669 
z
" transform="scale(0.015625)"/>
     <path id="ArialMT-75" d="M 2597 0 
L 2597 488 
Q 2209 -75 1544 -75 
Q 1250 -75 995 37 
Q 741 150 617 320 
Q 494 491 444 738 
Q 409 903 409 1263 
L 409 3319 
L 972 3319 
L 972 1478 
Q 972 1038 1006 884 
Q 1059 663 1231 536 
Q 1403 409 1656 409 
Q 1909 409 2131 539 
Q 2353 669 2445 892 
Q 2538 1116 2538 1541 
L 2538 3319 
L 3100 3319 
L 3100 0 
L 2597 0 
z
" transform="scale(0.015625)"/>
     <path id="ArialMT-66" d="M 556 0 
L 556 2881 
L 59 2881 
L 59 3319 
L 556 3319 
L 556 3672 
Q 556 4006 616 4169 
Q 697 4388 901 4523 
Q 1106 4659 1475 4659 
Q 1713 4659 2000 4603 
L 1916 4113 
Q 1741 4144 1584 4144 
Q 1328 4144 1222 4034 
Q 1116 3925 1116 3625 
L 1116 3319 
L 1763 3319 
L 1763 2881 
L 1116 2881 
L 1116 0 
L 556 0 
z
" transform="scale(0.015625)"/>
     <path id="ArialMT-70" d="M 422 -1272 
L 422 3319 
L 934 3319 
L 934 2888 
Q 1116 3141 1344 3267 
Q 1572 3394 1897 3394 
Q 2322 3394 2647 3175 
Q 2972 2956 3137 2557 
Q 3303 2159 3303 1684 
Q 3303 1175 3120 767 
Q 2938 359 2589 142 
Q 2241 -75 1856 -75 
Q 1575 -75 1351 44 
Q 1128 163 984 344 
L 984 -1272 
L 422 -1272 
z
M 931 1641 
Q 931 1000 1190 694 
Q 1450 388 1819 388 
Q 2194 388 2461 705 
Q 2728 1022 2728 1688 
Q 2728 2322 2467 2637 
Q 2206 2953 1844 2953 
Q 1484 2953 1207 2617 
Q 931 2281 931 1641 
z
" transform="scale(0.015625)"/>
     <path id="ArialMT-4e" d="M 488 0 
L 488 4581 
L 1109 4581 
L 3516 984 
L 3516 4581 
L 4097 4581 
L 4097 0 
L 3475 0 
L 1069 3600 
L 1069 0 
L 488 0 
z
" transform="scale(0.015625)"/>
     <path id="ArialMT-2f" d="M 0 -78 
L 1328 4659 
L 1778 4659 
L 453 -78 
L 0 -78 
z
" transform="scale(0.015625)"/>
     <path id="ArialMT-41" d="M -9 0 
L 1750 4581 
L 2403 4581 
L 4278 0 
L 3588 0 
L 3053 1388 
L 1138 1388 
L 634 0 
L -9 0 
z
M 1313 1881 
L 2866 1881 
L 2388 3150 
Q 2169 3728 2063 4100 
Q 1975 3659 1816 3225 
L 1313 1881 
z
" transform="scale(0.015625)"/>
     <path id="ArialMT-52" d="M 503 0 
L 503 4581 
L 2534 4581 
Q 3147 4581 3465 4457 
Q 3784 4334 3975 4021 
Q 4166 3709 4166 3331 
Q 4166 2844 3850 2509 
Q 3534 2175 2875 2084 
Q 3116 1969 3241 1856 
Q 3506 1613 3744 1247 
L 4541 0 
L 3778 0 
L 3172 953 
Q 2906 1366 2734 1584 
Q 2563 1803 2427 1890 
Q 2291 1978 2150 2013 
Q 2047 2034 1813 2034 
L 1109 2034 
L 1109 0 
L 503 0 
z
M 1109 2559 
L 2413 2559 
Q 2828 2559 3062 2645 
Q 3297 2731 3419 2920 
Q 3541 3109 3541 3331 
Q 3541 3656 3305 3865 
Q 3069 4075 2559 4075 
L 1109 4075 
L 1109 2559 
z
" transform="scale(0.015625)"/>
     <path id="ArialMT-b2" d="M 78 2291 
Q 97 2469 225 2647 
Q 422 2916 872 3242 
Q 1322 3569 1406 3663 
Q 1522 3791 1522 3925 
Q 1522 4075 1412 4172 
Q 1303 4269 1091 4269 
Q 884 4269 782 4195 
Q 681 4122 616 3913 
L 144 3963 
Q 234 4309 457 4473 
Q 681 4638 1100 4638 
Q 1572 4638 1792 4453 
Q 2013 4269 2013 4003 
Q 2013 3741 1828 3506 
Q 1688 3331 1188 2972 
Q 928 2781 819 2669 
L 2025 2669 
L 2025 2291 
L 78 2291 
z
" transform="scale(0.015625)"/>
     <path id="ArialMT-5b" d="M 434 -1272 
L 434 4581 
L 1675 4581 
L 1675 4116 
L 997 4116 
L 997 -806 
L 1675 -806 
L 1675 -1272 
L 434 -1272 
z
" transform="scale(0.015625)"/>
     <path id="ArialMT-5d" d="M 1363 -1272 
L 122 -1272 
L 122 -806 
L 800 -806 
L 800 4116 
L 122 4116 
L 122 4581 
L 1363 4581 
L 1363 -1272 
z
" transform="scale(0.015625)"/>
    </defs>
    <use xlink:href="#ArialMT-73"/>
    <use xlink:href="#ArialMT-69" transform="translate(50 0)"/>
    <use xlink:href="#ArialMT-67" transform="translate(72.216797 0)"/>
    <use xlink:href="#ArialMT-6e" transform="translate(127.832031 0)"/>
    <use xlink:href="#ArialMT-20" transform="translate(183.447266 0)"/>
    <use xlink:href="#ArialMT-63" transform="translate(211.230469 0)"/>
    <use xlink:href="#ArialMT-68" transform="translate(261.230469 0)"/>
    <use xlink:href="#ArialMT-61" transform="translate(316.845703 0)"/>
    <use xlink:href="#ArialMT-6e" transform="translate(372.460938 0)"/>
    <use xlink:href="#ArialMT-67" transform="translate(428.076172 0)"/>
    <use xlink:href="#ArialMT-65" transform="translate(483.691406 0)"/>
    <use xlink:href="#ArialMT-73" transform="translate(539.306641 0)"/>
    <use xlink:href="#ArialMT-20" transform="translate(589.306641 0)"/>
    <use xlink:href="#ArialMT-3bb" transform="translate(617.089844 0)"/>
    <use xlink:href="#ArialMT-69" transform="translate(667.089844 0)"/>
    <use xlink:href="#ArialMT-3a" transform="translate(689.306641 0)"/>
    <use xlink:href="#ArialMT-20" transform="translate(717.089844 0)"/>
    <use xlink:href="#ArialMT-46" transform="translate(744.873047 0)"/>
    <use xlink:href="#ArialMT-20" transform="translate(805.957031 0)"/>
    <use xlink:href="#ArialMT-46" transform="translate(833.740234 0)"/>
    <use xlink:href="#ArialMT-20" transform="translate(894.824219 0)"/>
    <use xlink:href="#ArialMT-2c" transform="translate(922.607422 0)"/>
    <use xlink:href="#ArialMT-20" transform="translate(950.390625 0)"/>
    <use xlink:href="#ArialMT-71" transform="translate(978.173828 0)"/>
    <use xlink:href="#ArialMT-75" transform="translate(1033.789062 0)"/>
    <use xlink:href="#ArialMT-61" transform="translate(1089.404297 0)"/>
    <use xlink:href="#ArialMT-6c" transform="translate(1145.019531 0)"/>
    <use xlink:href="#ArialMT-69" transform="translate(1167.236328 0)"/>
    <use xlink:href="#ArialMT-66" transform="translate(1189.453125 0)"/>
    <use xlink:href="#ArialMT-79" transform="translate(1217.236328 0)"/>
    <use xlink:href="#ArialMT-69" transform="translate(1267.236328 0)"/>
    <use xlink:href="#ArialMT-6e" transform="translate(1289.453125 0)"/>
    <use xlink:href="#ArialMT-67" transform="translate(1345.068359 0)"/>
    <use xlink:href="#ArialMT-20" transform="translate(1400.683594 0)"/>
    <use xlink:href="#ArialMT-73" transform="translate(1428.466797 0)"/>
    <use xlink:href="#ArialMT-6c" transform="translate(1478.466797 0)"/>
    <use xlink:href="#ArialMT-6f" transform="translate(1500.683594 0)"/>
    <use xlink:href="#ArialMT-70" transform="translate(1556.298828 0)"/>
    <use xlink:href="#ArialMT-65" transform="translate(1611.914062 0)"/>
    <use xlink:href="#ArialMT-73" transform="translate(1667.529297 0)"/>
    <use xlink:href="#ArialMT-3a" transform="translate(1717.529297 0)"/>
    <use xlink:href="#ArialMT-20" transform="translate(1745.3125 0)"/>
    <use xlink:href="#ArialMT-4e" transform="translate(1773.095703 0)"/>
    <use xlink:href="#ArialMT-2f" transform="translate(1845.3125 0)"/>
    <use xlink:href="#ArialMT-41" transform="translate(1873.095703 0)"/>
    <use xlink:href="#ArialMT-2c" transform="translate(1939.794922 0)"/>
    <use xlink:href="#ArialMT-20" transform="translate(1967.578125 0)"/>
    <use xlink:href="#ArialMT-52" transform="translate(1995.361328 0)"/>
    <use xlink:href="#ArialMT-b2" transform="translate(2067.578125 0)"/>
    <use xlink:href="#ArialMT-3a" transform="translate(2100.878906 0)"/>
    <use xlink:href="#ArialMT-20" transform="translate(2128.662109 0)"/>
    <use xlink:href="#ArialMT-5b" transform="translate(2156.445312 0)"/>
    <use xlink:href="#ArialMT-5d" transform="translate(2184.228516 0)"/>
   </g>
  </g>
 </g>
 <defs>
  <clipPath id="p098455c081">
   <rect x="35.758824" y="10.937978" width="99.620519" height="17.995187"/>
  </clipPath>
  <clipPath id="pce2efe1c47">
   <rect x="35.758824" y="32.718459" width="99.620519" height="17.995187"/>
  </clipPath>
 </defs>
</svg>
