<?xml version="1.0" encoding="utf-8" standalone="no"?>
<!DOCTYPE svg PUBLIC "-//W3C//DTD SVG 1.1//EN"
  "http://www.w3.org/Graphics/SVG/1.1/DTD/svg11.dtd">
<svg xmlns:xlink="http://www.w3.org/1999/xlink" width="141.732283pt" height="170.07874pt" viewBox="0 0 141.732283 170.07874" xmlns="http://www.w3.org/2000/svg" version="1.1">
 <metadata>
  <rdf:RDF xmlns:dc="http://purl.org/dc/elements/1.1/" xmlns:cc="http://creativecommons.org/ns#" xmlns:rdf="http://www.w3.org/1999/02/22-rdf-syntax-ns#">
   <cc:Work>
    <dc:type rdf:resource="http://purl.org/dc/dcmitype/StillImage"/>
    <dc:date>2025-12-28T00:07:44.984116</dc:date>
    <dc:format>image/svg+xml</dc:format>
    <dc:creator>
     <cc:Agent>
      <dc:title>Matplotlib v3.10.7, https://matplotlib.org/</dc:title>
     </cc:Agent>
    </dc:creator>
   </cc:Work>
  </rdf:RDF>
 </metadata>
 <defs>
  <style type="text/css">*{stroke-linejoin: round; stroke-linecap: butt}</style>
 </defs>
 <g id="figure_1">
  <g id="patch_1">
   <path d="M 0 170.07874 
L 141.732283 170.07874 
L 141.732283 0 
L 0 0 
z
" style="fill: #ffffff"/>
  </g>
  <g id="axes_1">
   <g id="patch_2">
    <path d="M 29.776471 117.815211 
L 135.379342 117.815211 
L 135.379342 26.996029 
L 29.776471 26.996029 
z
" style="fill: #ffffff"/>
   </g>
   <g id="matplotlib.axis_1">
    <g id="xtick_1">
     <g id="line2d_1">
      <defs>
       <path id="m634c0dce6b" d="M 0 0 
L 0 3.5 
" style="stroke: #000000; stroke-width: 0.8"/>
      </defs>
      <g>
       <use xlink:href="#m634c0dce6b" x="34.576601" y="117.815211" style="stroke: #000000; stroke-width: 0.8"/>
      </g>
     </g>
     <g id="text_1">
      <!-- 0 -->
      <g transform="translate(32.630273 129.825679) scale(0.07 -0.07)">
       <defs>
        <path id="ArialMT-30" d="M 266 2259 
Q 266 3072 433 3567 
Q 600 4063 929 4331 
Q 1259 4600 1759 4600 
Q 2128 4600 2406 4451 
Q 2684 4303 2865 4023 
Q 3047 3744 3150 3342 
Q 3253 2941 3253 2259 
Q 3253 1453 3087 958 
Q 2922 463 2592 192 
Q 2263 -78 1759 -78 
Q 1097 -78 719 397 
Q 266 969 266 2259 
z
M 844 2259 
Q 844 1131 1108 757 
Q 1372 384 1759 384 
Q 2147 384 2411 759 
Q 2675 1134 2675 2259 
Q 2675 3391 2411 3762 
Q 2147 4134 1753 4134 
Q 1366 4134 1134 3806 
Q 844 3388 844 2259 
z
" transform="scale(0.015625)"/>
       </defs>
       <use xlink:href="#ArialMT-30"/>
      </g>
     </g>
    </g>
    <g id="xtick_2">
     <g id="line2d_2">
      <g>
       <use xlink:href="#m634c0dce6b" x="62.007878" y="117.815211" style="stroke: #000000; stroke-width: 0.8"/>
      </g>
     </g>
     <g id="text_2">
      <!-- 200 -->
      <g transform="translate(56.168893 129.825679) scale(0.07 -0.07)">
       <defs>
        <path id="ArialMT-32" d="M 3222 541 
L 3222 0 
L 194 0 
Q 188 203 259 391 
Q 375 700 629 1000 
Q 884 1300 1366 1694 
Q 2113 2306 2375 2664 
Q 2638 3022 2638 3341 
Q 2638 3675 2398 3904 
Q 2159 4134 1775 4134 
Q 1369 4134 1125 3890 
Q 881 3647 878 3216 
L 300 3275 
Q 359 3922 746 4261 
Q 1134 4600 1788 4600 
Q 2447 4600 2831 4234 
Q 3216 3869 3216 3328 
Q 3216 3053 3103 2787 
Q 2991 2522 2730 2228 
Q 2469 1934 1863 1422 
Q 1356 997 1212 845 
Q 1069 694 975 541 
L 3222 541 
z
" transform="scale(0.015625)"/>
       </defs>
       <use xlink:href="#ArialMT-32"/>
       <use xlink:href="#ArialMT-30" transform="translate(55.615234 0)"/>
       <use xlink:href="#ArialMT-30" transform="translate(111.230469 0)"/>
      </g>
     </g>
    </g>
    <g id="xtick_3">
     <g id="line2d_3">
      <g>
       <use xlink:href="#m634c0dce6b" x="89.439155" y="117.815211" style="stroke: #000000; stroke-width: 0.8"/>
      </g>
     </g>
     <g id="text_3">
      <!-- 400 -->
      <g transform="translate(83.60017 129.825679) scale(0.07 -0.07)">
       <defs>
        <path id="ArialMT-34" d="M 2069 0 
L 2069 1097 
L 81 1097 
L 81 1613 
L 2172 4581 
L 2631 4581 
L 2631 1613 
L 3250 1613 
L 3250 1097 
L 2631 1097 
L 2631 0 
L 2069 0 
z
M 2069 1613 
L 2069 3678 
L 634 1613 
L 2069 1613 
z
" transform="scale(0.015625)"/>
       </defs>
       <use xlink:href="#ArialMT-34"/>
       <use xlink:href="#ArialMT-30" transform="translate(55.615234 0)"/>
       <use xlink:href="#ArialMT-30" transform="translate(111.230469 0)"/>
      </g>
     </g>
    </g>
    <g id="xtick_4">
     <g id="line2d_4">
      <g>
       <use xlink:href="#m634c0dce6b" x="116.870431" y="117.815211" style="stroke: #000000; stroke-width: 0.8"/>
      </g>
     </g>
     <g id="text_4">
      <!-- 600 -->
      <g transform="translate(111.031447 129.825679) scale(0.07 -0.07)">
       <defs>
        <path id="ArialMT-36" d="M 3184 3459 
L 2625 3416 
Q 2550 3747 2413 3897 
Q 2184 4138 1850 4138 
Q 1581 4138 1378 3988 
Q 1113 3794 959 3422 
Q 806 3050 800 2363 
Q 1003 2672 1297 2822 
Q 1591 2972 1913 2972 
Q 2475 2972 2870 2558 
Q 3266 2144 3266 1488 
Q 3266 1056 3080 686 
Q 2894 316 2569 119 
Q 2244 -78 1831 -78 
Q 1128 -78 684 439 
Q 241 956 241 2144 
Q 241 3472 731 4075 
Q 1159 4600 1884 4600 
Q 2425 4600 2770 4297 
Q 3116 3994 3184 3459 
z
M 888 1484 
Q 888 1194 1011 928 
Q 1134 663 1356 523 
Q 1578 384 1822 384 
Q 2178 384 2434 671 
Q 2691 959 2691 1453 
Q 2691 1928 2437 2201 
Q 2184 2475 1800 2475 
Q 1419 2475 1153 2201 
Q 888 1928 888 1484 
z
" transform="scale(0.015625)"/>
       </defs>
       <use xlink:href="#ArialMT-36"/>
       <use xlink:href="#ArialMT-30" transform="translate(55.615234 0)"/>
       <use xlink:href="#ArialMT-30" transform="translate(111.230469 0)"/>
      </g>
     </g>
    </g>
    <g id="text_5">
     <!-- t -->
     <g transform="translate(81.188844 153.374742) scale(0.1 -0.1)">
      <defs>
       <path id="ArialMT-74" d="M 1650 503 
L 1731 6 
Q 1494 -44 1306 -44 
Q 1000 -44 831 53 
Q 663 150 594 308 
Q 525 466 525 972 
L 525 2881 
L 113 2881 
L 113 3319 
L 525 3319 
L 525 4141 
L 1084 4478 
L 1084 3319 
L 1650 3319 
L 1650 2881 
L 1084 2881 
L 1084 941 
Q 1084 700 1114 631 
Q 1144 563 1211 522 
Q 1278 481 1403 481 
Q 1497 481 1650 503 
z
" transform="scale(0.015625)"/>
      </defs>
      <use xlink:href="#ArialMT-74"/>
     </g>
    </g>
   </g>
   <g id="matplotlib.axis_2">
    <g id="ytick_1">
     <g id="line2d_5">
      <defs>
       <path id="m1371414a86" d="M 0 0 
L -3.5 0 
" style="stroke: #000000; stroke-width: 0.8"/>
      </defs>
      <g>
       <use xlink:href="#m1371414a86" x="29.776471" y="109.559676" style="stroke: #000000; stroke-width: 0.8"/>
      </g>
     </g>
     <g id="text_6">
      <!-- 2 -->
      <g transform="translate(18.883814 112.06491) scale(0.07 -0.07)">
       <use xlink:href="#ArialMT-32"/>
      </g>
     </g>
    </g>
    <g id="ytick_2">
     <g id="line2d_6">
      <g>
       <use xlink:href="#m1371414a86" x="29.776471" y="93.241187" style="stroke: #000000; stroke-width: 0.8"/>
      </g>
     </g>
     <g id="text_7">
      <!-- 4 -->
      <g transform="translate(18.883814 95.746421) scale(0.07 -0.07)">
       <use xlink:href="#ArialMT-34"/>
      </g>
     </g>
    </g>
    <g id="ytick_3">
     <g id="line2d_7">
      <g>
       <use xlink:href="#m1371414a86" x="29.776471" y="76.922698" style="stroke: #000000; stroke-width: 0.8"/>
      </g>
     </g>
     <g id="text_8">
      <!-- 6 -->
      <g transform="translate(18.883814 79.427932) scale(0.07 -0.07)">
       <use xlink:href="#ArialMT-36"/>
      </g>
     </g>
    </g>
    <g id="ytick_4">
     <g id="line2d_8">
      <g>
       <use xlink:href="#m1371414a86" x="29.776471" y="60.604209" style="stroke: #000000; stroke-width: 0.8"/>
      </g>
     </g>
     <g id="text_9">
      <!-- 8 -->
      <g transform="translate(18.883814 63.109443) scale(0.07 -0.07)">
       <defs>
        <path id="ArialMT-38" d="M 1131 2484 
Q 781 2613 612 2850 
Q 444 3088 444 3419 
Q 444 3919 803 4259 
Q 1163 4600 1759 4600 
Q 2359 4600 2725 4251 
Q 3091 3903 3091 3403 
Q 3091 3084 2923 2848 
Q 2756 2613 2416 2484 
Q 2838 2347 3058 2040 
Q 3278 1734 3278 1309 
Q 3278 722 2862 322 
Q 2447 -78 1769 -78 
Q 1091 -78 675 323 
Q 259 725 259 1325 
Q 259 1772 486 2073 
Q 713 2375 1131 2484 
z
M 1019 3438 
Q 1019 3113 1228 2906 
Q 1438 2700 1772 2700 
Q 2097 2700 2305 2904 
Q 2513 3109 2513 3406 
Q 2513 3716 2298 3927 
Q 2084 4138 1766 4138 
Q 1444 4138 1231 3931 
Q 1019 3725 1019 3438 
z
M 838 1322 
Q 838 1081 952 856 
Q 1066 631 1291 507 
Q 1516 384 1775 384 
Q 2178 384 2440 643 
Q 2703 903 2703 1303 
Q 2703 1709 2433 1975 
Q 2163 2241 1756 2241 
Q 1359 2241 1098 1978 
Q 838 1716 838 1322 
z
" transform="scale(0.015625)"/>
       </defs>
       <use xlink:href="#ArialMT-38"/>
      </g>
     </g>
    </g>
    <g id="ytick_5">
     <g id="line2d_9">
      <g>
       <use xlink:href="#m1371414a86" x="29.776471" y="44.285719" style="stroke: #000000; stroke-width: 0.8"/>
      </g>
     </g>
     <g id="text_10">
      <!-- 10 -->
      <g transform="translate(14.991158 46.790954) scale(0.07 -0.07)">
       <defs>
        <path id="ArialMT-31" d="M 2384 0 
L 1822 0 
L 1822 3584 
Q 1619 3391 1289 3197 
Q 959 3003 697 2906 
L 697 3450 
Q 1169 3672 1522 3987 
Q 1875 4303 2022 4600 
L 2384 4600 
L 2384 0 
z
" transform="scale(0.015625)"/>
       </defs>
       <use xlink:href="#ArialMT-31"/>
       <use xlink:href="#ArialMT-30" transform="translate(55.615234 0)"/>
      </g>
     </g>
    </g>
    <g id="ytick_6">
     <g id="line2d_10">
      <g>
       <use xlink:href="#m1371414a86" x="29.776471" y="27.96723" style="stroke: #000000; stroke-width: 0.8"/>
      </g>
     </g>
     <g id="text_11">
      <!-- 12 -->
      <g transform="translate(14.991158 30.472465) scale(0.07 -0.07)">
       <use xlink:href="#ArialMT-31"/>
       <use xlink:href="#ArialMT-32" transform="translate(55.615234 0)"/>
      </g>
     </g>
    </g>
    <g id="text_12">
     <!-- pQ(t) -->
     <g transform="translate(-2.113529 83.793901) rotate(-90) scale(0.1 -0.1)">
      <defs>
       <path id="ArialMT-70" d="M 422 -1272 
L 422 3319 
L 934 3319 
L 934 2888 
Q 1116 3141 1344 3267 
Q 1572 3394 1897 3394 
Q 2322 3394 2647 3175 
Q 2972 2956 3137 2557 
Q 3303 2159 3303 1684 
Q 3303 1175 3120 767 
Q 2938 359 2589 142 
Q 2241 -75 1856 -75 
Q 1575 -75 1351 44 
Q 1128 163 984 344 
L 984 -1272 
L 422 -1272 
z
M 931 1641 
Q 931 1000 1190 694 
Q 1450 388 1819 388 
Q 2194 388 2461 705 
Q 2728 1022 2728 1688 
Q 2728 2322 2467 2637 
Q 2206 2953 1844 2953 
Q 1484 2953 1207 2617 
Q 931 2281 931 1641 
z
" transform="scale(0.015625)"/>
       <path id="ArialMT-51" d="M 3966 491 
Q 4388 200 4744 66 
L 4566 -356 
Q 4072 -178 3581 206 
Q 3072 -78 2456 -78 
Q 1834 -78 1328 222 
Q 822 522 548 1065 
Q 275 1609 275 2291 
Q 275 2969 550 3525 
Q 825 4081 1333 4372 
Q 1841 4663 2469 4663 
Q 3103 4663 3612 4361 
Q 4122 4059 4389 3517 
Q 4656 2975 4656 2294 
Q 4656 1728 4484 1276 
Q 4313 825 3966 491 
z
M 2631 1266 
Q 3156 1119 3497 828 
Q 4031 1316 4031 2294 
Q 4031 2850 3842 3265 
Q 3653 3681 3289 3911 
Q 2925 4141 2472 4141 
Q 1794 4141 1347 3677 
Q 900 3213 900 2291 
Q 900 1397 1342 919 
Q 1784 441 2472 441 
Q 2797 441 3084 563 
Q 2800 747 2484 825 
L 2631 1266 
z
" transform="scale(0.015625)"/>
       <path id="ArialMT-28" d="M 1497 -1347 
Q 1031 -759 709 28 
Q 388 816 388 1659 
Q 388 2403 628 3084 
Q 909 3875 1497 4659 
L 1900 4659 
Q 1522 4009 1400 3731 
Q 1209 3300 1100 2831 
Q 966 2247 966 1656 
Q 966 153 1900 -1347 
L 1497 -1347 
z
" transform="scale(0.015625)"/>
       <path id="ArialMT-29" d="M 791 -1347 
L 388 -1347 
Q 1322 153 1322 1656 
Q 1322 2244 1188 2822 
Q 1081 3291 891 3722 
Q 769 4003 388 4659 
L 791 4659 
Q 1378 3875 1659 3084 
Q 1900 2403 1900 1659 
Q 1900 816 1576 28 
Q 1253 -759 791 -1347 
z
" transform="scale(0.015625)"/>
      </defs>
      <use xlink:href="#ArialMT-70"/>
      <use xlink:href="#ArialMT-51" transform="translate(55.615234 0)"/>
      <use xlink:href="#ArialMT-28" transform="translate(133.398438 0)"/>
      <use xlink:href="#ArialMT-74" transform="translate(166.699219 0)"/>
      <use xlink:href="#ArialMT-29" transform="translate(194.482422 0)"/>
     </g>
    </g>
   </g>
   <g id="line2d_11">
    <path d="M 34.576601 103.81597 
L 34.844056 84.791697 
L 34.885203 84.377143 
L 34.940066 84.935005 
L 35.228094 89.816109 
L 35.289814 89.5233 
L 35.426971 87.09783 
L 35.529838 85.689118 
L 35.577843 86.206817 
L 35.735573 91.980704 
L 35.982454 97.275347 
L 35.99617 97.284435 
L 36.030459 97.171409 
L 36.126468 95.800475 
L 36.352776 89.22783 
L 36.428212 91.183907 
L 36.832824 105.325315 
L 36.894544 105.553012 
L 36.949407 105.378537 
L 37.059132 103.930754 
L 37.230577 98.055288 
L 37.415738 88.202555 
L 37.484316 90.825011 
L 37.847781 109.011669 
L 38.115236 112.689598 
L 38.19753 112.888035 
L 38.245534 112.819587 
L 38.362117 112.146404 
L 38.581568 109.309878 
L 38.917601 101.742478 
L 39.322212 87.160286 
L 39.98742 56.758857 
L 40.097146 57.709353 
L 40.364601 63.615514 
L 40.830932 70.738781 
L 41.976188 88.706431 
L 43.231169 111.040398 
L 43.57406 113.685499 
L 43.642638 113.58734 
L 43.772937 112.763556 
L 44.019818 109.420195 
L 44.445003 100.19225 
L 44.952482 84.002179 
L 46.351477 35.974196 
L 46.550353 35.186156 
L 46.941249 34.705749 
L 47.174415 34.451216 
L 47.435012 34.250039 
L 49.595225 31.789176 
L 50.349585 31.344446 
L 51.042225 31.144903 
L 51.604566 31.145067 
L 52.324637 31.304139 
L 52.742964 31.559349 
L 53.634481 32.269584 
L 54.155675 32.520918 
L 54.375125 32.919778 
L 54.670011 34.418815 
L 54.964898 35.358877 
L 55.088338 35.339797 
L 55.095196 35.33095 
L 55.252926 34.937202 
L 55.705542 33.325695 
L 55.780978 33.457315 
L 55.904419 34.285024 
L 56.377608 37.829653 
L 56.453044 37.789984 
L 56.46676 37.763046 
L 56.617632 37.158939 
L 56.864513 36.141757 
L 56.90566 36.212481 
L 57.008528 36.982997 
L 57.488575 40.943294 
L 57.550295 40.935279 
L 57.577727 40.891432 
L 57.728599 40.307401 
L 57.954907 39.424905 
L 57.996054 39.489031 
L 58.092063 40.198168 
L 58.626973 45.297517 
L 58.640689 45.293175 
L 58.72984 45.090707 
L 58.956148 43.757706 
L 59.072731 43.353159 
L 59.120736 43.448448 
L 59.216745 44.358848 
L 59.724224 50.097497 
L 59.779087 50.102384 
L 59.813376 50.047923 
L 59.977963 49.39355 
L 60.11512 48.990839 
L 60.156267 49.060815 
L 60.245418 49.762078 
L 60.794044 55.562068 
L 61.191797 57.019832 
L 61.891295 63.700015 
L 62.165608 66.36298 
L 63.516598 84.883524 
L 65.148759 112.915844 
L 65.327062 113.686327 
L 65.347636 113.669143 
L 65.436787 113.344595 
L 65.615091 111.625257 
L 65.944266 105.887274 
L 66.417456 93.501413 
L 67.048375 70.134192 
L 67.919318 38.211052 
L 68.186773 35.436176 
L 68.378792 35.175255 
L 68.570811 34.938183 
L 68.92056 34.481368 
L 69.194872 34.24253 
L 70.477285 32.596163 
L 71.46481 31.703925 
L 72.109445 31.342143 
L 72.802085 31.143534 
L 73.487867 31.163392 
L 74.111929 31.316916 
L 74.461677 31.547537 
L 75.346336 32.20489 
L 75.812668 32.44053 
L 76.045834 32.833803 
L 76.299573 34.119664 
L 76.635606 35.346256 
L 76.752189 35.365452 
L 76.772763 35.34445 
L 76.923635 34.987073 
L 77.424255 33.090904 
L 77.506549 33.263243 
L 77.643706 34.311177 
L 78.06889 37.616415 
L 78.137469 37.642171 
L 78.178615 37.584458 
L 78.329487 37.006606 
L 78.562653 36.093529 
L 78.6038 36.156176 
L 78.69981 36.814455 
L 79.186715 40.552309 
L 79.255293 40.551632 
L 79.289582 40.501404 
L 79.45417 39.946374 
L 79.632473 39.467975 
L 79.666762 39.514141 
L 79.755914 40.028965 
L 80.318255 44.952994 
L 80.373118 44.899295 
L 80.503416 44.409091 
L 80.764013 43.267378 
L 80.812018 43.362636 
L 80.914885 44.277611 
L 81.381217 48.836248 
L 81.55952 49.044319 
L 81.724108 49.127563 
L 81.833833 49.669512 
L 82.601909 55.208822 
L 82.807643 56.448221 
L 84.542672 73.77608 
L 85.029577 80.616727 
L 85.543913 90.314806 
L 86.552013 109.186582 
L 87.073207 113.686709 
L 87.080065 113.685275 
L 87.148643 113.536115 
L 87.292657 112.486133 
L 87.56697 108.42907 
L 88.012728 98.129356 
L 88.554496 79.846822 
L 89.816335 36.193767 
L 90.022069 35.256623 
L 92.78577 32.038418 
L 93.889879 31.329879 
L 94.849974 31.12731 
L 95.61805 31.236512 
L 96.207822 31.547467 
L 96.90732 32.114923 
L 97.66168 32.573706 
L 97.826267 33.027798 
L 98.443471 35.394741 
L 98.457187 35.390936 
L 98.57377 35.230595 
L 98.786362 34.435708 
L 99.163542 33.007193 
L 99.184116 33.019285 
L 99.273267 33.298687 
L 99.444713 34.877263 
L 99.794461 37.525406 
L 99.869897 37.587718 
L 99.917902 37.530121 
L 100.061916 37.002357 
L 100.30194 36.087592 
L 100.343087 36.157125 
L 100.445954 36.891241 
L 100.912286 40.414682 
L 100.987722 40.435551 
L 101.022011 40.393641 
L 101.186599 39.896652 
L 101.358044 39.487039 
L 101.392333 39.52961 
L 101.481485 40.008399 
L 102.057542 44.840415 
L 102.119262 44.764438 
L 102.276992 44.114407 
L 102.496442 43.252874 
L 102.530731 43.30146 
L 102.619883 43.90173 
L 103.161651 48.882399 
L 103.333096 48.971673 
L 103.456537 49.047416 
L 103.566262 49.550156 
L 104.423489 55.487671 
L 104.615508 57.030329 
L 105.232712 62.546528 
L 105.582461 65.249283 
L 106.858015 81.884419 
L 107.482077 94.134761 
L 108.339304 109.566483 
L 108.826209 113.686589 
L 108.839925 113.680154 
L 108.915361 113.470127 
L 109.073091 112.16848 
L 109.367977 107.486356 
L 109.827451 96.312153 
L 110.403508 76.116672 
L 111.514474 36.774047 
L 111.733925 35.353726 
L 112.323697 34.525247 
L 112.59801 34.365194 
L 115.032536 31.656747 
L 115.725175 31.297097 
L 116.438389 31.130625 
L 117.384768 31.23887 
L 117.864815 31.479179 
L 118.701469 32.091237 
L 119.318673 32.489513 
L 119.48326 32.887743 
L 120.141611 35.43953 
L 120.182758 35.41147 
L 120.326772 35.093777 
L 120.607943 33.742981 
L 120.889113 32.73786 
L 120.902829 32.744855 
L 120.978265 32.935504 
L 121.122279 34.123944 
L 121.52689 37.359424 
L 121.602326 37.407683 
L 121.643473 37.356848 
L 121.794345 36.820501 
L 122.006938 36.079406 
L 122.048085 36.138715 
L 122.144094 36.759706 
L 122.624142 40.072664 
L 122.720151 40.087573 
L 122.747582 40.055335 
L 123.042468 39.534497 
L 123.111047 39.699942 
L 123.248203 40.8234 
L 123.687103 44.446395 
L 123.769397 44.509688 
L 123.810544 44.464867 
L 123.954558 43.999719 
L 124.187724 43.222815 
L 124.228871 43.280731 
L 124.324881 43.907675 
L 124.873506 48.709779 
L 125.044952 48.792798 
L 125.17525 48.879956 
L 125.284975 49.396398 
L 126.107914 55.10565 
L 126.293075 56.302011 
L 127.09544 63.149541 
L 127.342321 65.362641 
L 128.789321 85.226312 
L 130.318615 112.116523 
L 130.572354 113.686731 
L 130.579212 113.68589 
L 130.579212 113.68589 
" clip-path="url(#pc835597080)" style="fill: none; stroke: #000000; stroke-width: 0.8; stroke-linecap: square"/>
   </g>
   <g id="line2d_12">
    <defs>
     <path id="m51e432d2bc" d="M -3 3 
L 3 -3 
M -3 -3 
L 3 3 
" style="stroke: #ff0000"/>
    </defs>
    <g clip-path="url(#pc835597080)">
     <use xlink:href="#m51e432d2bc" x="51.30968" y="31.124174" style="fill: #ff0000; stroke: #ff0000"/>
     <use xlink:href="#m51e432d2bc" x="73.062682" y="31.125971" style="fill: #ff0000; stroke: #ff0000"/>
     <use xlink:href="#m51e432d2bc" x="94.788253" y="31.125995" style="fill: #ff0000; stroke: #ff0000"/>
     <use xlink:href="#m51e432d2bc" x="116.561829" y="31.127769" style="fill: #ff0000; stroke: #ff0000"/>
    </g>
   </g>
   <g id="LineCollection_1">
    <path d="M 51.30968 113.686858 
L 51.30968 31.124174 
" clip-path="url(#pc835597080)" style="fill: none; stroke-dasharray: 5.55,2.4; stroke-dashoffset: 0; stroke: #808080; stroke-width: 1.5"/>
   </g>
   <g id="LineCollection_2">
    <path d="M 73.062682 113.686731 
L 73.062682 31.125971 
" clip-path="url(#pc835597080)" style="fill: none; stroke-dasharray: 5.55,2.4; stroke-dashoffset: 0; stroke: #808080; stroke-width: 1.5"/>
   </g>
   <g id="LineCollection_3">
    <path d="M 94.788253 113.686709 
L 94.788253 31.125995 
" clip-path="url(#pc835597080)" style="fill: none; stroke-dasharray: 5.55,2.4; stroke-dashoffset: 0; stroke: #808080; stroke-width: 1.5"/>
   </g>
   <g id="LineCollection_4">
    <path d="M 116.561829 113.686589 
L 116.561829 31.127769 
" clip-path="url(#pc835597080)" style="fill: none; stroke-dasharray: 5.55,2.4; stroke-dashoffset: 0; stroke: #808080; stroke-width: 1.5"/>
   </g>
   <g id="patch_3">
    <path d="M 29.776471 117.815211 
L 29.776471 26.996029 
" style="fill: none; stroke: #000000; stroke-width: 0.8; stroke-linejoin: miter; stroke-linecap: square"/>
   </g>
   <g id="patch_4">
    <path d="M 135.379342 117.815211 
L 135.379342 26.996029 
" style="fill: none; stroke: #000000; stroke-width: 0.8; stroke-linejoin: miter; stroke-linecap: square"/>
   </g>
   <g id="patch_5">
    <path d="M 29.776471 117.815211 
L 135.379342 117.815211 
" style="fill: none; stroke: #000000; stroke-width: 0.8; stroke-linejoin: miter; stroke-linecap: square"/>
   </g>
   <g id="patch_6">
    <path d="M 29.776471 26.996029 
L 135.379342 26.996029 
" style="fill: none; stroke: #000000; stroke-width: 0.8; stroke-linejoin: miter; stroke-linecap: square"/>
   </g>
   <g id="text_13">
    <!-- 10.12 -->
    <g style="fill: #808080" transform="translate(40.049836 124.257023) scale(0.09 -0.09)">
     <defs>
      <path id="ArialMT-2e" d="M 581 0 
L 581 641 
L 1222 641 
L 1222 0 
L 581 0 
z
" transform="scale(0.015625)"/>
     </defs>
     <use xlink:href="#ArialMT-31"/>
     <use xlink:href="#ArialMT-30" transform="translate(55.615234 0)"/>
     <use xlink:href="#ArialMT-2e" transform="translate(111.230469 0)"/>
     <use xlink:href="#ArialMT-31" transform="translate(139.013672 0)"/>
     <use xlink:href="#ArialMT-32" transform="translate(194.628906 0)"/>
    </g>
   </g>
   <g id="text_14">
    <!-- 10.12 -->
    <g style="fill: #808080" transform="translate(61.802839 124.2568) scale(0.09 -0.09)">
     <use xlink:href="#ArialMT-31"/>
     <use xlink:href="#ArialMT-30" transform="translate(55.615234 0)"/>
     <use xlink:href="#ArialMT-2e" transform="translate(111.230469 0)"/>
     <use xlink:href="#ArialMT-31" transform="translate(139.013672 0)"/>
     <use xlink:href="#ArialMT-32" transform="translate(194.628906 0)"/>
    </g>
   </g>
   <g id="text_15">
    <!-- 10.12 -->
    <g style="fill: #808080" transform="translate(83.52841 124.256776) scale(0.09 -0.09)">
     <use xlink:href="#ArialMT-31"/>
     <use xlink:href="#ArialMT-30" transform="translate(55.615234 0)"/>
     <use xlink:href="#ArialMT-2e" transform="translate(111.230469 0)"/>
     <use xlink:href="#ArialMT-31" transform="translate(139.013672 0)"/>
     <use xlink:href="#ArialMT-32" transform="translate(194.628906 0)"/>
    </g>
   </g>
   <g id="text_16">
    <!-- 10.12 -->
    <g style="fill: #808080" transform="translate(105.301986 124.256561) scale(0.09 -0.09)">
     <use xlink:href="#ArialMT-31"/>
     <use xlink:href="#ArialMT-30" transform="translate(55.615234 0)"/>
     <use xlink:href="#ArialMT-2e" transform="translate(111.230469 0)"/>
     <use xlink:href="#ArialMT-31" transform="translate(139.013672 0)"/>
     <use xlink:href="#ArialMT-32" transform="translate(194.628906 0)"/>
    </g>
   </g>
   <g id="text_17">
    <!-- Detected Q-minima with prominences -->
    <g transform="translate(-17.453344 20.996029) scale(0.12 -0.12)">
     <defs>
      <path id="ArialMT-44" d="M 494 0 
L 494 4581 
L 2072 4581 
Q 2606 4581 2888 4516 
Q 3281 4425 3559 4188 
Q 3922 3881 4101 3404 
Q 4281 2928 4281 2316 
Q 4281 1794 4159 1391 
Q 4038 988 3847 723 
Q 3656 459 3429 307 
Q 3203 156 2883 78 
Q 2563 0 2147 0 
L 494 0 
z
M 1100 541 
L 2078 541 
Q 2531 541 2789 625 
Q 3047 709 3200 863 
Q 3416 1078 3536 1442 
Q 3656 1806 3656 2325 
Q 3656 3044 3420 3430 
Q 3184 3816 2847 3947 
Q 2603 4041 2063 4041 
L 1100 4041 
L 1100 541 
z
" transform="scale(0.015625)"/>
      <path id="ArialMT-65" d="M 2694 1069 
L 3275 997 
Q 3138 488 2766 206 
Q 2394 -75 1816 -75 
Q 1088 -75 661 373 
Q 234 822 234 1631 
Q 234 2469 665 2931 
Q 1097 3394 1784 3394 
Q 2450 3394 2872 2941 
Q 3294 2488 3294 1666 
Q 3294 1616 3291 1516 
L 816 1516 
Q 847 969 1125 678 
Q 1403 388 1819 388 
Q 2128 388 2347 550 
Q 2566 713 2694 1069 
z
M 847 1978 
L 2700 1978 
Q 2663 2397 2488 2606 
Q 2219 2931 1791 2931 
Q 1403 2931 1139 2672 
Q 875 2413 847 1978 
z
" transform="scale(0.015625)"/>
      <path id="ArialMT-63" d="M 2588 1216 
L 3141 1144 
Q 3050 572 2676 248 
Q 2303 -75 1759 -75 
Q 1078 -75 664 370 
Q 250 816 250 1647 
Q 250 2184 428 2587 
Q 606 2991 970 3192 
Q 1334 3394 1763 3394 
Q 2303 3394 2647 3120 
Q 2991 2847 3088 2344 
L 2541 2259 
Q 2463 2594 2264 2762 
Q 2066 2931 1784 2931 
Q 1359 2931 1093 2626 
Q 828 2322 828 1663 
Q 828 994 1084 691 
Q 1341 388 1753 388 
Q 2084 388 2306 591 
Q 2528 794 2588 1216 
z
" transform="scale(0.015625)"/>
      <path id="ArialMT-64" d="M 2575 0 
L 2575 419 
Q 2259 -75 1647 -75 
Q 1250 -75 917 144 
Q 584 363 401 755 
Q 219 1147 219 1656 
Q 219 2153 384 2558 
Q 550 2963 881 3178 
Q 1213 3394 1622 3394 
Q 1922 3394 2156 3267 
Q 2391 3141 2538 2938 
L 2538 4581 
L 3097 4581 
L 3097 0 
L 2575 0 
z
M 797 1656 
Q 797 1019 1065 703 
Q 1334 388 1700 388 
Q 2069 388 2326 689 
Q 2584 991 2584 1609 
Q 2584 2291 2321 2609 
Q 2059 2928 1675 2928 
Q 1300 2928 1048 2622 
Q 797 2316 797 1656 
z
" transform="scale(0.015625)"/>
      <path id="ArialMT-20" transform="scale(0.015625)"/>
      <path id="ArialMT-2d" d="M 203 1375 
L 203 1941 
L 1931 1941 
L 1931 1375 
L 203 1375 
z
" transform="scale(0.015625)"/>
      <path id="ArialMT-6d" d="M 422 0 
L 422 3319 
L 925 3319 
L 925 2853 
Q 1081 3097 1340 3245 
Q 1600 3394 1931 3394 
Q 2300 3394 2536 3241 
Q 2772 3088 2869 2813 
Q 3263 3394 3894 3394 
Q 4388 3394 4653 3120 
Q 4919 2847 4919 2278 
L 4919 0 
L 4359 0 
L 4359 2091 
Q 4359 2428 4304 2576 
Q 4250 2725 4106 2815 
Q 3963 2906 3769 2906 
Q 3419 2906 3187 2673 
Q 2956 2441 2956 1928 
L 2956 0 
L 2394 0 
L 2394 2156 
Q 2394 2531 2256 2718 
Q 2119 2906 1806 2906 
Q 1569 2906 1367 2781 
Q 1166 2656 1075 2415 
Q 984 2175 984 1722 
L 984 0 
L 422 0 
z
" transform="scale(0.015625)"/>
      <path id="ArialMT-69" d="M 425 3934 
L 425 4581 
L 988 4581 
L 988 3934 
L 425 3934 
z
M 425 0 
L 425 3319 
L 988 3319 
L 988 0 
L 425 0 
z
" transform="scale(0.015625)"/>
      <path id="ArialMT-6e" d="M 422 0 
L 422 3319 
L 928 3319 
L 928 2847 
Q 1294 3394 1984 3394 
Q 2284 3394 2536 3286 
Q 2788 3178 2913 3003 
Q 3038 2828 3088 2588 
Q 3119 2431 3119 2041 
L 3119 0 
L 2556 0 
L 2556 2019 
Q 2556 2363 2490 2533 
Q 2425 2703 2258 2804 
Q 2091 2906 1866 2906 
Q 1506 2906 1245 2678 
Q 984 2450 984 1813 
L 984 0 
L 422 0 
z
" transform="scale(0.015625)"/>
      <path id="ArialMT-61" d="M 2588 409 
Q 2275 144 1986 34 
Q 1697 -75 1366 -75 
Q 819 -75 525 192 
Q 231 459 231 875 
Q 231 1119 342 1320 
Q 453 1522 633 1644 
Q 813 1766 1038 1828 
Q 1203 1872 1538 1913 
Q 2219 1994 2541 2106 
Q 2544 2222 2544 2253 
Q 2544 2597 2384 2738 
Q 2169 2928 1744 2928 
Q 1347 2928 1158 2789 
Q 969 2650 878 2297 
L 328 2372 
Q 403 2725 575 2942 
Q 747 3159 1072 3276 
Q 1397 3394 1825 3394 
Q 2250 3394 2515 3294 
Q 2781 3194 2906 3042 
Q 3031 2891 3081 2659 
Q 3109 2516 3109 2141 
L 3109 1391 
Q 3109 606 3145 398 
Q 3181 191 3288 0 
L 2700 0 
Q 2613 175 2588 409 
z
M 2541 1666 
Q 2234 1541 1622 1453 
Q 1275 1403 1131 1340 
Q 988 1278 909 1158 
Q 831 1038 831 891 
Q 831 666 1001 516 
Q 1172 366 1500 366 
Q 1825 366 2078 508 
Q 2331 650 2450 897 
Q 2541 1088 2541 1459 
L 2541 1666 
z
" transform="scale(0.015625)"/>
      <path id="ArialMT-77" d="M 1034 0 
L 19 3319 
L 600 3319 
L 1128 1403 
L 1325 691 
Q 1338 744 1497 1375 
L 2025 3319 
L 2603 3319 
L 3100 1394 
L 3266 759 
L 3456 1400 
L 4025 3319 
L 4572 3319 
L 3534 0 
L 2950 0 
L 2422 1988 
L 2294 2553 
L 1622 0 
L 1034 0 
z
" transform="scale(0.015625)"/>
      <path id="ArialMT-68" d="M 422 0 
L 422 4581 
L 984 4581 
L 984 2938 
Q 1378 3394 1978 3394 
Q 2347 3394 2619 3248 
Q 2891 3103 3008 2847 
Q 3125 2591 3125 2103 
L 3125 0 
L 2563 0 
L 2563 2103 
Q 2563 2525 2380 2717 
Q 2197 2909 1863 2909 
Q 1613 2909 1392 2779 
Q 1172 2650 1078 2428 
Q 984 2206 984 1816 
L 984 0 
L 422 0 
z
" transform="scale(0.015625)"/>
      <path id="ArialMT-72" d="M 416 0 
L 416 3319 
L 922 3319 
L 922 2816 
Q 1116 3169 1280 3281 
Q 1444 3394 1641 3394 
Q 1925 3394 2219 3213 
L 2025 2691 
Q 1819 2813 1613 2813 
Q 1428 2813 1281 2702 
Q 1134 2591 1072 2394 
Q 978 2094 978 1738 
L 978 0 
L 416 0 
z
" transform="scale(0.015625)"/>
      <path id="ArialMT-6f" d="M 213 1659 
Q 213 2581 725 3025 
Q 1153 3394 1769 3394 
Q 2453 3394 2887 2945 
Q 3322 2497 3322 1706 
Q 3322 1066 3130 698 
Q 2938 331 2570 128 
Q 2203 -75 1769 -75 
Q 1072 -75 642 372 
Q 213 819 213 1659 
z
M 791 1659 
Q 791 1022 1069 705 
Q 1347 388 1769 388 
Q 2188 388 2466 706 
Q 2744 1025 2744 1678 
Q 2744 2294 2464 2611 
Q 2184 2928 1769 2928 
Q 1347 2928 1069 2612 
Q 791 2297 791 1659 
z
" transform="scale(0.015625)"/>
      <path id="ArialMT-73" d="M 197 991 
L 753 1078 
Q 800 744 1014 566 
Q 1228 388 1613 388 
Q 2000 388 2187 545 
Q 2375 703 2375 916 
Q 2375 1106 2209 1216 
Q 2094 1291 1634 1406 
Q 1016 1563 777 1677 
Q 538 1791 414 1992 
Q 291 2194 291 2438 
Q 291 2659 392 2848 
Q 494 3038 669 3163 
Q 800 3259 1026 3326 
Q 1253 3394 1513 3394 
Q 1903 3394 2198 3281 
Q 2494 3169 2634 2976 
Q 2775 2784 2828 2463 
L 2278 2388 
Q 2241 2644 2061 2787 
Q 1881 2931 1553 2931 
Q 1166 2931 1000 2803 
Q 834 2675 834 2503 
Q 834 2394 903 2306 
Q 972 2216 1119 2156 
Q 1203 2125 1616 2013 
Q 2213 1853 2448 1751 
Q 2684 1650 2818 1456 
Q 2953 1263 2953 975 
Q 2953 694 2789 445 
Q 2625 197 2315 61 
Q 2006 -75 1616 -75 
Q 969 -75 630 194 
Q 291 463 197 991 
z
" transform="scale(0.015625)"/>
     </defs>
     <use xlink:href="#ArialMT-44"/>
     <use xlink:href="#ArialMT-65" transform="translate(72.216797 0)"/>
     <use xlink:href="#ArialMT-74" transform="translate(127.832031 0)"/>
     <use xlink:href="#ArialMT-65" transform="translate(155.615234 0)"/>
     <use xlink:href="#ArialMT-63" transform="translate(211.230469 0)"/>
     <use xlink:href="#ArialMT-74" transform="translate(261.230469 0)"/>
     <use xlink:href="#ArialMT-65" transform="translate(289.013672 0)"/>
     <use xlink:href="#ArialMT-64" transform="translate(344.628906 0)"/>
     <use xlink:href="#ArialMT-20" transform="translate(400.244141 0)"/>
     <use xlink:href="#ArialMT-51" transform="translate(428.027344 0)"/>
     <use xlink:href="#ArialMT-2d" transform="translate(505.810547 0)"/>
     <use xlink:href="#ArialMT-6d" transform="translate(539.111328 0)"/>
     <use xlink:href="#ArialMT-69" transform="translate(622.412109 0)"/>
     <use xlink:href="#ArialMT-6e" transform="translate(644.628906 0)"/>
     <use xlink:href="#ArialMT-69" transform="translate(700.244141 0)"/>
     <use xlink:href="#ArialMT-6d" transform="translate(722.460938 0)"/>
     <use xlink:href="#ArialMT-61" transform="translate(805.761719 0)"/>
     <use xlink:href="#ArialMT-20" transform="translate(861.376953 0)"/>
     <use xlink:href="#ArialMT-77" transform="translate(889.160156 0)"/>
     <use xlink:href="#ArialMT-69" transform="translate(961.376953 0)"/>
     <use xlink:href="#ArialMT-74" transform="translate(983.59375 0)"/>
     <use xlink:href="#ArialMT-68" transform="translate(1011.376953 0)"/>
     <use xlink:href="#ArialMT-20" transform="translate(1066.992188 0)"/>
     <use xlink:href="#ArialMT-70" transform="translate(1094.775391 0)"/>
     <use xlink:href="#ArialMT-72" transform="translate(1150.390625 0)"/>
     <use xlink:href="#ArialMT-6f" transform="translate(1183.691406 0)"/>
     <use xlink:href="#ArialMT-6d" transform="translate(1239.306641 0)"/>
     <use xlink:href="#ArialMT-69" transform="translate(1322.607422 0)"/>
     <use xlink:href="#ArialMT-6e" transform="translate(1344.824219 0)"/>
     <use xlink:href="#ArialMT-65" transform="translate(1400.439453 0)"/>
     <use xlink:href="#ArialMT-6e" transform="translate(1456.054688 0)"/>
     <use xlink:href="#ArialMT-63" transform="translate(1511.669922 0)"/>
     <use xlink:href="#ArialMT-65" transform="translate(1561.669922 0)"/>
     <use xlink:href="#ArialMT-73" transform="translate(1617.285156 0)"/>
    </g>
   </g>
   <g id="legend_1">
    <g id="patch_7">
     <path d="M 48.678141 113.315211 
L 116.477672 113.315211 
Q 118.277672 113.315211 118.277672 111.515211 
L 118.277672 86.732867 
Q 118.277672 84.932867 116.477672 84.932867 
L 48.678141 84.932867 
Q 46.878141 84.932867 46.878141 86.732867 
L 46.878141 111.515211 
Q 46.878141 113.315211 48.678141 113.315211 
z
" style="fill: #ffffff; opacity: 0.8; stroke: #cccccc; stroke-linejoin: miter"/>
    </g>
    <g id="line2d_13">
     <path d="M 50.478141 91.940211 
L 59.478141 91.940211 
L 68.478141 91.940211 
" style="fill: none; stroke: #000000; stroke-width: 0.8; stroke-linecap: square"/>
    </g>
    <g id="text_18">
     <!-- pQ(t) -->
     <g transform="translate(75.678141 95.090211) scale(0.09 -0.09)">
      <use xlink:href="#ArialMT-70"/>
      <use xlink:href="#ArialMT-51" transform="translate(55.615234 0)"/>
      <use xlink:href="#ArialMT-28" transform="translate(133.398438 0)"/>
      <use xlink:href="#ArialMT-74" transform="translate(166.699219 0)"/>
      <use xlink:href="#ArialMT-29" transform="translate(194.482422 0)"/>
     </g>
    </g>
    <g id="line2d_14">
     <g>
      <use xlink:href="#m51e432d2bc" x="59.478141" y="104.776461" style="fill: #ff0000; stroke: #ff0000"/>
     </g>
    </g>
    <g id="text_19">
     <!-- Q-minima -->
     <g transform="translate(75.678141 107.926461) scale(0.09 -0.09)">
      <use xlink:href="#ArialMT-51"/>
      <use xlink:href="#ArialMT-2d" transform="translate(77.783203 0)"/>
      <use xlink:href="#ArialMT-6d" transform="translate(111.083984 0)"/>
      <use xlink:href="#ArialMT-69" transform="translate(194.384766 0)"/>
      <use xlink:href="#ArialMT-6e" transform="translate(216.601562 0)"/>
      <use xlink:href="#ArialMT-69" transform="translate(272.216797 0)"/>
      <use xlink:href="#ArialMT-6d" transform="translate(294.433594 0)"/>
      <use xlink:href="#ArialMT-61" transform="translate(377.734375 0)"/>
     </g>
    </g>
   </g>
  </g>
 </g>
 <defs>
  <clipPath id="pc835597080">
   <rect x="29.776471" y="26.996029" width="105.602872" height="90.819181"/>
  </clipPath>
 </defs>
</svg>
