<?xml version="1.0" encoding="utf-8" standalone="no"?>
<!DOCTYPE svg PUBLIC "-//W3C//DTD SVG 1.1//EN"
  "http://www.w3.org/Graphics/SVG/1.1/DTD/svg11.dtd">
<svg xmlns:xlink="http://www.w3.org/1999/xlink" width="141.732283pt" height="170.07874pt" viewBox="0 0 141.732283 170.07874" xmlns="http://www.w3.org/2000/svg" version="1.1">
 <metadata>
  <rdf:RDF xmlns:dc="http://purl.org/dc/elements/1.1/" xmlns:cc="http://creativecommons.org/ns#" xmlns:rdf="http://www.w3.org/1999/02/22-rdf-syntax-ns#">
   <cc:Work>
    <dc:type rdf:resource="http://purl.org/dc/dcmitype/StillImage"/>
    <dc:date>2026-01-01T15:16:52.720598</dc:date>
    <dc:format>image/svg+xml</dc:format>
    <dc:creator>
     <cc:Agent>
      <dc:title>Matplotlib v3.10.7, https://matplotlib.org/</dc:title>
     </cc:Agent>
    </dc:creator>
   </cc:Work>
  </rdf:RDF>
 </metadata>
 <defs>
  <style type="text/css">*{stroke-linejoin: round; stroke-linecap: butt}</style>
 </defs>
 <g id="figure_1">
  <g id="patch_1">
   <path d="M 0 170.07874 
L 141.732283 170.07874 
L 141.732283 0 
L 0 0 
z
" style="fill: #ffffff"/>
  </g>
  <g id="axes_1">
   <g id="patch_2">
    <path d="M 29.829412 117.815211 
L 135.379342 117.815211 
L 135.379342 26.996029 
L 29.829412 26.996029 
z
" style="fill: #ffffff"/>
   </g>
   <g id="matplotlib.axis_1">
    <g id="xtick_1">
     <g id="line2d_1">
      <defs>
       <path id="md08bc98e05" d="M 0 0 
L 0 3.5 
" style="stroke: #000000; stroke-width: 0.8"/>
      </defs>
      <g>
       <use xlink:href="#md08bc98e05" x="34.627136" y="117.815211" style="stroke: #000000; stroke-width: 0.8"/>
      </g>
     </g>
     <g id="text_1">
      <!-- 0 -->
      <g transform="translate(32.680808 129.825679) scale(0.07 -0.07)">
       <defs>
        <path id="ArialMT-30" d="M 266 2259 
Q 266 3072 433 3567 
Q 600 4063 929 4331 
Q 1259 4600 1759 4600 
Q 2128 4600 2406 4451 
Q 2684 4303 2865 4023 
Q 3047 3744 3150 3342 
Q 3253 2941 3253 2259 
Q 3253 1453 3087 958 
Q 2922 463 2592 192 
Q 2263 -78 1759 -78 
Q 1097 -78 719 397 
Q 266 969 266 2259 
z
M 844 2259 
Q 844 1131 1108 757 
Q 1372 384 1759 384 
Q 2147 384 2411 759 
Q 2675 1134 2675 2259 
Q 2675 3391 2411 3762 
Q 2147 4134 1753 4134 
Q 1366 4134 1134 3806 
Q 844 3388 844 2259 
z
" transform="scale(0.015625)"/>
       </defs>
       <use xlink:href="#ArialMT-30"/>
      </g>
     </g>
    </g>
    <g id="xtick_2">
     <g id="line2d_2">
      <g>
       <use xlink:href="#md08bc98e05" x="58.630759" y="117.815211" style="stroke: #000000; stroke-width: 0.8"/>
      </g>
     </g>
     <g id="text_2">
      <!-- 20 -->
      <g transform="translate(54.738102 129.825679) scale(0.07 -0.07)">
       <defs>
        <path id="ArialMT-32" d="M 3222 541 
L 3222 0 
L 194 0 
Q 188 203 259 391 
Q 375 700 629 1000 
Q 884 1300 1366 1694 
Q 2113 2306 2375 2664 
Q 2638 3022 2638 3341 
Q 2638 3675 2398 3904 
Q 2159 4134 1775 4134 
Q 1369 4134 1125 3890 
Q 881 3647 878 3216 
L 300 3275 
Q 359 3922 746 4261 
Q 1134 4600 1788 4600 
Q 2447 4600 2831 4234 
Q 3216 3869 3216 3328 
Q 3216 3053 3103 2787 
Q 2991 2522 2730 2228 
Q 2469 1934 1863 1422 
Q 1356 997 1212 845 
Q 1069 694 975 541 
L 3222 541 
z
" transform="scale(0.015625)"/>
       </defs>
       <use xlink:href="#ArialMT-32"/>
       <use xlink:href="#ArialMT-30" transform="translate(55.615234 0)"/>
      </g>
     </g>
    </g>
    <g id="xtick_3">
     <g id="line2d_3">
      <g>
       <use xlink:href="#md08bc98e05" x="82.634382" y="117.815211" style="stroke: #000000; stroke-width: 0.8"/>
      </g>
     </g>
     <g id="text_3">
      <!-- 40 -->
      <g transform="translate(78.741725 129.825679) scale(0.07 -0.07)">
       <defs>
        <path id="ArialMT-34" d="M 2069 0 
L 2069 1097 
L 81 1097 
L 81 1613 
L 2172 4581 
L 2631 4581 
L 2631 1613 
L 3250 1613 
L 3250 1097 
L 2631 1097 
L 2631 0 
L 2069 0 
z
M 2069 1613 
L 2069 3678 
L 634 1613 
L 2069 1613 
z
" transform="scale(0.015625)"/>
       </defs>
       <use xlink:href="#ArialMT-34"/>
       <use xlink:href="#ArialMT-30" transform="translate(55.615234 0)"/>
      </g>
     </g>
    </g>
    <g id="xtick_4">
     <g id="line2d_4">
      <g>
       <use xlink:href="#md08bc98e05" x="106.638004" y="117.815211" style="stroke: #000000; stroke-width: 0.8"/>
      </g>
     </g>
     <g id="text_4">
      <!-- 60 -->
      <g transform="translate(102.745348 129.825679) scale(0.07 -0.07)">
       <defs>
        <path id="ArialMT-36" d="M 3184 3459 
L 2625 3416 
Q 2550 3747 2413 3897 
Q 2184 4138 1850 4138 
Q 1581 4138 1378 3988 
Q 1113 3794 959 3422 
Q 806 3050 800 2363 
Q 1003 2672 1297 2822 
Q 1591 2972 1913 2972 
Q 2475 2972 2870 2558 
Q 3266 2144 3266 1488 
Q 3266 1056 3080 686 
Q 2894 316 2569 119 
Q 2244 -78 1831 -78 
Q 1128 -78 684 439 
Q 241 956 241 2144 
Q 241 3472 731 4075 
Q 1159 4600 1884 4600 
Q 2425 4600 2770 4297 
Q 3116 3994 3184 3459 
z
M 888 1484 
Q 888 1194 1011 928 
Q 1134 663 1356 523 
Q 1578 384 1822 384 
Q 2178 384 2434 671 
Q 2691 959 2691 1453 
Q 2691 1928 2437 2201 
Q 2184 2475 1800 2475 
Q 1419 2475 1153 2201 
Q 888 1928 888 1484 
z
" transform="scale(0.015625)"/>
       </defs>
       <use xlink:href="#ArialMT-36"/>
       <use xlink:href="#ArialMT-30" transform="translate(55.615234 0)"/>
      </g>
     </g>
    </g>
    <g id="xtick_5">
     <g id="line2d_5">
      <g>
       <use xlink:href="#md08bc98e05" x="130.641627" y="117.815211" style="stroke: #000000; stroke-width: 0.8"/>
      </g>
     </g>
     <g id="text_5">
      <!-- 80 -->
      <g transform="translate(126.748971 129.825679) scale(0.07 -0.07)">
       <defs>
        <path id="ArialMT-38" d="M 1131 2484 
Q 781 2613 612 2850 
Q 444 3088 444 3419 
Q 444 3919 803 4259 
Q 1163 4600 1759 4600 
Q 2359 4600 2725 4251 
Q 3091 3903 3091 3403 
Q 3091 3084 2923 2848 
Q 2756 2613 2416 2484 
Q 2838 2347 3058 2040 
Q 3278 1734 3278 1309 
Q 3278 722 2862 322 
Q 2447 -78 1769 -78 
Q 1091 -78 675 323 
Q 259 725 259 1325 
Q 259 1772 486 2073 
Q 713 2375 1131 2484 
z
M 1019 3438 
Q 1019 3113 1228 2906 
Q 1438 2700 1772 2700 
Q 2097 2700 2305 2904 
Q 2513 3109 2513 3406 
Q 2513 3716 2298 3927 
Q 2084 4138 1766 4138 
Q 1444 4138 1231 3931 
Q 1019 3725 1019 3438 
z
M 838 1322 
Q 838 1081 952 856 
Q 1066 631 1291 507 
Q 1516 384 1775 384 
Q 2178 384 2440 643 
Q 2703 903 2703 1303 
Q 2703 1709 2433 1975 
Q 2163 2241 1756 2241 
Q 1359 2241 1098 1978 
Q 838 1716 838 1322 
z
" transform="scale(0.015625)"/>
       </defs>
       <use xlink:href="#ArialMT-38"/>
       <use xlink:href="#ArialMT-30" transform="translate(55.615234 0)"/>
      </g>
     </g>
    </g>
    <g id="text_6">
     <!-- t -->
     <g transform="translate(81.215315 153.374742) scale(0.1 -0.1)">
      <defs>
       <path id="ArialMT-74" d="M 1650 503 
L 1731 6 
Q 1494 -44 1306 -44 
Q 1000 -44 831 53 
Q 663 150 594 308 
Q 525 466 525 972 
L 525 2881 
L 113 2881 
L 113 3319 
L 525 3319 
L 525 4141 
L 1084 4478 
L 1084 3319 
L 1650 3319 
L 1650 2881 
L 1084 2881 
L 1084 941 
Q 1084 700 1114 631 
Q 1144 563 1211 522 
Q 1278 481 1403 481 
Q 1497 481 1650 503 
z
" transform="scale(0.015625)"/>
      </defs>
      <use xlink:href="#ArialMT-74"/>
     </g>
    </g>
   </g>
   <g id="matplotlib.axis_2">
    <g id="ytick_1">
     <g id="line2d_6">
      <defs>
       <path id="m093d96b181" d="M 0 0 
L -3.5 0 
" style="stroke: #000000; stroke-width: 0.8"/>
      </defs>
      <g>
       <use xlink:href="#m093d96b181" x="29.829412" y="97.536446" style="stroke: #000000; stroke-width: 0.8"/>
      </g>
     </g>
     <g id="text_7">
      <!-- 10 -->
      <g transform="translate(15.044099 100.04168) scale(0.07 -0.07)">
       <defs>
        <path id="ArialMT-31" d="M 2384 0 
L 1822 0 
L 1822 3584 
Q 1619 3391 1289 3197 
Q 959 3003 697 2906 
L 697 3450 
Q 1169 3672 1522 3987 
Q 1875 4303 2022 4600 
L 2384 4600 
L 2384 0 
z
" transform="scale(0.015625)"/>
       </defs>
       <use xlink:href="#ArialMT-31"/>
       <use xlink:href="#ArialMT-30" transform="translate(55.615234 0)"/>
      </g>
     </g>
    </g>
    <g id="ytick_2">
     <g id="line2d_7">
      <g>
       <use xlink:href="#m093d96b181" x="29.829412" y="71.618686" style="stroke: #000000; stroke-width: 0.8"/>
      </g>
     </g>
     <g id="text_8">
      <!-- 20 -->
      <g transform="translate(15.044099 74.123921) scale(0.07 -0.07)">
       <use xlink:href="#ArialMT-32"/>
       <use xlink:href="#ArialMT-30" transform="translate(55.615234 0)"/>
      </g>
     </g>
    </g>
    <g id="ytick_3">
     <g id="line2d_8">
      <g>
       <use xlink:href="#m093d96b181" x="29.829412" y="45.700927" style="stroke: #000000; stroke-width: 0.8"/>
      </g>
     </g>
     <g id="text_9">
      <!-- 30 -->
      <g transform="translate(15.044099 48.206161) scale(0.07 -0.07)">
       <defs>
        <path id="ArialMT-33" d="M 269 1209 
L 831 1284 
Q 928 806 1161 595 
Q 1394 384 1728 384 
Q 2125 384 2398 659 
Q 2672 934 2672 1341 
Q 2672 1728 2419 1979 
Q 2166 2231 1775 2231 
Q 1616 2231 1378 2169 
L 1441 2663 
Q 1497 2656 1531 2656 
Q 1891 2656 2178 2843 
Q 2466 3031 2466 3422 
Q 2466 3731 2256 3934 
Q 2047 4138 1716 4138 
Q 1388 4138 1169 3931 
Q 950 3725 888 3313 
L 325 3413 
Q 428 3978 793 4289 
Q 1159 4600 1703 4600 
Q 2078 4600 2393 4439 
Q 2709 4278 2876 4000 
Q 3044 3722 3044 3409 
Q 3044 3113 2884 2869 
Q 2725 2625 2413 2481 
Q 2819 2388 3044 2092 
Q 3269 1797 3269 1353 
Q 3269 753 2831 336 
Q 2394 -81 1725 -81 
Q 1122 -81 723 278 
Q 325 638 269 1209 
z
" transform="scale(0.015625)"/>
       </defs>
       <use xlink:href="#ArialMT-33"/>
       <use xlink:href="#ArialMT-30" transform="translate(55.615234 0)"/>
      </g>
     </g>
    </g>
    <g id="text_10">
     <!-- pQ(t) -->
     <g transform="translate(-2.060588 83.793901) rotate(-90) scale(0.1 -0.1)">
      <defs>
       <path id="ArialMT-70" d="M 422 -1272 
L 422 3319 
L 934 3319 
L 934 2888 
Q 1116 3141 1344 3267 
Q 1572 3394 1897 3394 
Q 2322 3394 2647 3175 
Q 2972 2956 3137 2557 
Q 3303 2159 3303 1684 
Q 3303 1175 3120 767 
Q 2938 359 2589 142 
Q 2241 -75 1856 -75 
Q 1575 -75 1351 44 
Q 1128 163 984 344 
L 984 -1272 
L 422 -1272 
z
M 931 1641 
Q 931 1000 1190 694 
Q 1450 388 1819 388 
Q 2194 388 2461 705 
Q 2728 1022 2728 1688 
Q 2728 2322 2467 2637 
Q 2206 2953 1844 2953 
Q 1484 2953 1207 2617 
Q 931 2281 931 1641 
z
" transform="scale(0.015625)"/>
       <path id="ArialMT-51" d="M 3966 491 
Q 4388 200 4744 66 
L 4566 -356 
Q 4072 -178 3581 206 
Q 3072 -78 2456 -78 
Q 1834 -78 1328 222 
Q 822 522 548 1065 
Q 275 1609 275 2291 
Q 275 2969 550 3525 
Q 825 4081 1333 4372 
Q 1841 4663 2469 4663 
Q 3103 4663 3612 4361 
Q 4122 4059 4389 3517 
Q 4656 2975 4656 2294 
Q 4656 1728 4484 1276 
Q 4313 825 3966 491 
z
M 2631 1266 
Q 3156 1119 3497 828 
Q 4031 1316 4031 2294 
Q 4031 2850 3842 3265 
Q 3653 3681 3289 3911 
Q 2925 4141 2472 4141 
Q 1794 4141 1347 3677 
Q 900 3213 900 2291 
Q 900 1397 1342 919 
Q 1784 441 2472 441 
Q 2797 441 3084 563 
Q 2800 747 2484 825 
L 2631 1266 
z
" transform="scale(0.015625)"/>
       <path id="ArialMT-28" d="M 1497 -1347 
Q 1031 -759 709 28 
Q 388 816 388 1659 
Q 388 2403 628 3084 
Q 909 3875 1497 4659 
L 1900 4659 
Q 1522 4009 1400 3731 
Q 1209 3300 1100 2831 
Q 966 2247 966 1656 
Q 966 153 1900 -1347 
L 1497 -1347 
z
" transform="scale(0.015625)"/>
       <path id="ArialMT-29" d="M 791 -1347 
L 388 -1347 
Q 1322 153 1322 1656 
Q 1322 2244 1188 2822 
Q 1081 3291 891 3722 
Q 769 4003 388 4659 
L 791 4659 
Q 1378 3875 1659 3084 
Q 1900 2403 1900 1659 
Q 1900 816 1576 28 
Q 1253 -759 791 -1347 
z
" transform="scale(0.015625)"/>
      </defs>
      <use xlink:href="#ArialMT-70"/>
      <use xlink:href="#ArialMT-51" transform="translate(55.615234 0)"/>
      <use xlink:href="#ArialMT-28" transform="translate(133.398438 0)"/>
      <use xlink:href="#ArialMT-74" transform="translate(166.699219 0)"/>
      <use xlink:href="#ArialMT-29" transform="translate(194.482422 0)"/>
     </g>
    </g>
   </g>
   <g id="line2d_9">
    <path d="M 34.627136 113.687066 
L 35.527272 110.753495 
L 36.667444 107.818695 
L 38.047652 104.909742 
L 39.547879 102.247644 
L 40.988096 100.127621 
L 41.948241 99.069784 
L 42.728359 98.514714 
L 43.448467 98.275344 
L 44.168576 98.280322 
L 45.068712 98.530832 
L 46.928993 99.360783 
L 48.789273 100.077211 
L 50.2895 100.411282 
L 51.789726 100.519553 
L 53.46998 100.415271 
L 55.810333 100.02616 
L 61.031121 99.100344 
L 64.27161 98.823888 
L 68.952317 99.092066 
L 73.152951 99.916559 
L 74.653177 100.477455 
L 76.39344 101.067445 
L 77.713639 101.631392 
L 81.254173 103.575851 
L 84.794708 106.226197 
L 86.955034 107.919049 
L 87.915179 108.409929 
L 88.635287 108.546187 
L 89.11536 108.398269 
L 89.595432 107.977508 
L 90.075505 107.248171 
L 90.615586 105.926754 
L 91.215677 103.84665 
L 91.995794 100.282761 
L 93.255985 93.284311 
L 97.456619 68.013371 
L 98.296745 62.65364 
L 98.536782 62.503138 
L 98.716809 61.797504 
L 98.896836 60.076546 
L 99.376908 54.356549 
L 99.436918 54.150038 
L 99.796972 56.282995 
L 99.856981 56.09163 
L 99.976999 55.00565 
L 100.217035 49.300557 
L 100.277044 50.61919 
L 100.457072 53.308539 
L 100.57709 50.564249 
L 100.637099 47.400222 
L 100.697108 47.804584 
L 100.937144 55.396304 
L 101.057162 56.013109 
L 101.17718 55.307718 
L 101.297198 52.410992 
L 101.417216 42.074883 
L 101.597244 55.202408 
L 101.777271 56.955063 
L 101.897289 54.869162 
L 101.957298 51.579939 
L 102.017307 38.991983 
L 102.197334 57.361353 
L 102.377361 59.544501 
L 102.43737 59.575797 
L 102.557389 58.636908 
L 102.677407 55.580555 
L 102.797425 45.012288 
L 102.977452 59.03916 
L 103.157479 61.122579 
L 103.217488 60.912187 
L 103.397515 57.158653 
L 103.517533 50.610573 
L 103.577542 32.138692 
L 103.75757 52.563467 
L 103.817579 52.300941 
L 103.877588 50.672544 
L 103.997606 45.014701 
L 104.177633 56.402631 
L 104.297651 57.908817 
L 104.35766 57.704911 
L 104.537687 53.70031 
L 104.657706 46.793314 
L 104.717715 38.309139 
L 104.897742 49.461723 
L 104.957751 49.160767 
L 105.01776 47.415063 
L 105.077769 41.199577 
L 105.137778 43.880581 
L 105.317805 53.537617 
L 105.437823 54.773551 
L 105.497832 54.554454 
L 105.61785 51.473902 
L 105.677859 48.225927 
L 105.737869 31.131698 
L 105.917896 52.618962 
L 106.037914 53.894517 
L 106.097923 53.877023 
L 106.217941 52.465641 
L 106.337959 46.22445 
L 106.397968 42.311886 
L 106.577995 54.467583 
L 106.758023 56.07379 
L 106.818032 55.544181 
L 106.93805 50.770231 
L 106.998059 38.396291 
L 107.178086 56.742273 
L 107.358113 58.929767 
L 107.418122 58.971786 
L 107.53814 58.202728 
L 107.658158 55.374686 
L 107.718167 51.863207 
L 107.778176 35.503758 
L 107.958204 58.171396 
L 108.138231 60.559103 
L 108.19824 60.502303 
L 108.318258 58.6892 
L 108.498285 51.061433 
L 108.558294 35.949654 
L 108.738321 53.055649 
L 108.79833 53.105364 
L 108.85834 52.255304 
L 108.918349 49.661175 
L 108.978358 40.491422 
L 109.158385 55.465343 
L 109.338412 57.84692 
L 109.45843 56.281739 
L 109.638457 48.997832 
L 109.698466 38.675239 
L 109.758475 45.562096 
L 109.938503 50.521928 
L 110.058521 47.642188 
L 110.11853 41.020808 
L 110.178539 44.792944 
L 110.358566 54.050813 
L 110.478584 55.168199 
L 110.598602 53.6339 
L 110.71862 48.041814 
L 110.778629 38.547718 
L 110.958657 53.209305 
L 111.078675 54.395657 
L 111.138684 54.338001 
L 111.258702 52.66974 
L 111.37872 46.223189 
L 111.438729 43.160107 
L 111.618756 54.957017 
L 111.798783 56.572981 
L 111.918801 54.439243 
L 111.97881 51.087703 
L 112.03882 31.124174 
L 112.218847 56.640963 
L 112.398874 58.811945 
L 112.458883 58.823943 
L 112.578901 57.946461 
L 112.698919 54.76584 
L 112.818937 46.41529 
L 112.998964 58.590564 
L 113.178992 60.54714 
L 113.29901 59.435899 
L 113.479037 53.539253 
L 113.599055 44.944781 
L 113.779082 53.313814 
L 113.839091 53.11406 
L 113.959109 48.370379 
L 114.019118 37.902315 
L 114.199146 55.995244 
L 114.379173 57.852259 
L 114.5592 54.213487 
L 114.679218 47.201007 
L 114.739227 38.608473 
L 114.919254 50.722967 
L 114.979263 50.67989 
L 115.099281 47.273102 
L 115.159291 33.239899 
L 115.339318 53.059668 
L 115.519345 55.414268 
L 115.639363 53.491233 
L 115.759381 46.719859 
L 115.81939 42.016936 
L 115.999417 53.411985 
L 116.119435 54.427107 
L 116.179444 54.317536 
L 116.299463 52.41551 
L 116.419481 43.288211 
L 116.47949 46.431119 
L 116.659517 55.378339 
L 116.779535 56.638897 
L 116.839544 56.542465 
L 116.959562 53.668717 
L 117.07958 44.787951 
L 117.259607 56.900394 
L 117.439635 58.717462 
L 117.559653 58.225428 
L 117.679671 55.883082 
L 117.73968 53.289116 
L 117.799689 45.814882 
L 117.859698 50.437633 
L 118.039725 58.931002 
L 118.219752 60.360931 
L 118.339771 58.7818 
L 118.459789 55.026511 
L 118.519798 51.255067 
L 118.579807 37.936168 
L 118.639816 49.217587 
L 118.819843 53.621818 
L 118.879852 53.007361 
L 118.99987 46.021834 
L 119.059879 46.148074 
L 119.239906 56.576639 
L 119.359924 57.908762 
L 119.419934 57.672561 
L 119.599961 53.478059 
L 119.719979 43.803968 
L 119.779988 44.909267 
L 119.960015 51.365706 
L 120.080033 49.491586 
L 120.200051 36.335419 
L 120.380078 53.654316 
L 120.560106 55.520888 
L 120.680124 53.349307 
L 120.800142 44.471206 
L 120.860151 45.209887 
L 121.040178 53.830544 
L 121.160196 54.505193 
L 121.220205 54.316764 
L 121.340223 51.936478 
L 121.400232 49.23212 
L 121.460241 39.375306 
L 121.640269 54.483738 
L 121.820296 56.745452 
L 121.880305 56.433043 
L 122.000323 53.057754 
L 122.060332 47.459464 
L 122.120341 47.600955 
L 122.300368 57.133278 
L 122.480395 58.566885 
L 122.600414 57.809494 
L 122.720432 54.984522 
L 122.780441 51.517479 
L 122.84045 39.352458 
L 123.020477 58.097873 
L 123.200504 60.268722 
L 123.260513 60.072117 
L 123.380531 58.054643 
L 123.500549 53.447093 
L 123.620568 45.456351 
L 123.800595 53.765094 
L 123.860604 53.661613 
L 123.980622 49.890431 
L 124.040631 40.59336 
L 124.220658 55.598524 
L 124.400685 57.940267 
L 124.520703 56.355792 
L 124.640722 52.633569 
L 124.700731 48.600322 
L 124.76074 31.474218 
L 124.940767 51.422273 
L 125.000776 51.552834 
L 125.120794 49.239318 
L 125.240812 43.223477 
L 125.420839 54.228623 
L 125.540857 55.674035 
L 125.600866 55.545674 
L 125.720885 52.885882 
L 125.840903 41.820124 
L 125.900912 47.47599 
L 126.080939 54.185685 
L 126.200957 54.553282 
L 126.260966 54.252055 
L 126.380984 51.532289 
L 126.501002 39.30509 
L 126.681029 55.038173 
L 126.861057 56.889839 
L 126.981075 54.977818 
L 127.041084 52.14421 
L 127.101093 43.816495 
L 127.161102 49.665985 
L 127.341129 57.290766 
L 127.521156 58.442182 
L 127.641174 57.414336 
L 127.761192 53.822645 
L 127.821202 48.16274 
L 127.881211 48.627842 
L 128.061238 58.587138 
L 128.241265 60.18281 
L 128.361283 58.654023 
L 128.481301 54.97633 
L 128.54131 51.208633 
L 128.601319 36.329348 
L 128.781346 53.694823 
L 128.841356 53.888827 
L 128.961374 51.855317 
L 129.081392 42.360593 
L 129.261419 56.27728 
L 129.381437 57.916514 
L 129.441446 57.884658 
L 129.621473 54.469126 
L 129.741491 48.912499 
L 129.8015 42.482706 
L 129.861509 42.581885 
L 129.981528 47.937449 
L 130.041537 47.683075 
L 130.101546 45.622628 
L 130.161555 39.425432 
L 130.221564 44.313462 
L 130.401591 53.2726 
L 130.521609 54.457622 
L 130.581618 54.051367 
L 130.581618 54.051367 
" clip-path="url(#pf8441cbebb)" style="fill: none; stroke: #000000; stroke-width: 0.8; stroke-linecap: square"/>
   </g>
   <g id="line2d_10">
    <defs>
     <path id="m00677f2e81" d="M -3 3 
L 3 -3 
M -3 -3 
L 3 3 
" style="stroke: #ff0000"/>
    </defs>
    <g clip-path="url(#pf8441cbebb)">
     <use xlink:href="#m00677f2e81" x="43.808522" y="98.250548" style="fill: #ff0000; stroke: #ff0000"/>
     <use xlink:href="#m00677f2e81" x="63.971565" y="98.818895" style="fill: #ff0000; stroke: #ff0000"/>
    </g>
   </g>
   <g id="LineCollection_1">
    <path d="M 43.808522 108.547695 
L 43.808522 98.250548 
" clip-path="url(#pf8441cbebb)" style="fill: none; stroke-dasharray: 5.55,2.4; stroke-dashoffset: 0; stroke: #808080; stroke-width: 1.5"/>
   </g>
   <g id="LineCollection_2">
    <path d="M 63.971565 100.519558 
L 63.971565 98.818895 
" clip-path="url(#pf8441cbebb)" style="fill: none; stroke-dasharray: 5.55,2.4; stroke-dashoffset: 0; stroke: #808080; stroke-width: 1.5"/>
   </g>
   <g id="patch_3">
    <path d="M 29.829412 117.815211 
L 29.829412 26.996029 
" style="fill: none; stroke: #000000; stroke-width: 0.8; stroke-linejoin: miter; stroke-linecap: square"/>
   </g>
   <g id="patch_4">
    <path d="M 135.379342 117.815211 
L 135.379342 26.996029 
" style="fill: none; stroke: #000000; stroke-width: 0.8; stroke-linejoin: miter; stroke-linecap: square"/>
   </g>
   <g id="patch_5">
    <path d="M 29.829412 117.815211 
L 135.379342 117.815211 
" style="fill: none; stroke: #000000; stroke-width: 0.8; stroke-linejoin: miter; stroke-linecap: square"/>
   </g>
   <g id="patch_6">
    <path d="M 29.829412 26.996029 
L 135.379342 26.996029 
" style="fill: none; stroke: #000000; stroke-width: 0.8; stroke-linejoin: miter; stroke-linecap: square"/>
   </g>
   <g id="text_11">
    <!-- 3.97 -->
    <g style="fill: #808080" transform="translate(36.51067 114.430912) scale(0.075 -0.075)">
     <defs>
      <path id="ArialMT-2e" d="M 581 0 
L 581 641 
L 1222 641 
L 1222 0 
L 581 0 
z
" transform="scale(0.015625)"/>
      <path id="ArialMT-39" d="M 350 1059 
L 891 1109 
Q 959 728 1153 556 
Q 1347 384 1650 384 
Q 1909 384 2104 503 
Q 2300 622 2425 820 
Q 2550 1019 2634 1356 
Q 2719 1694 2719 2044 
Q 2719 2081 2716 2156 
Q 2547 1888 2255 1720 
Q 1963 1553 1622 1553 
Q 1053 1553 659 1965 
Q 266 2378 266 3053 
Q 266 3750 677 4175 
Q 1088 4600 1706 4600 
Q 2153 4600 2523 4359 
Q 2894 4119 3086 3673 
Q 3278 3228 3278 2384 
Q 3278 1506 3087 986 
Q 2897 466 2520 194 
Q 2144 -78 1638 -78 
Q 1100 -78 759 220 
Q 419 519 350 1059 
z
M 2653 3081 
Q 2653 3566 2395 3850 
Q 2138 4134 1775 4134 
Q 1400 4134 1122 3828 
Q 844 3522 844 3034 
Q 844 2597 1108 2323 
Q 1372 2050 1759 2050 
Q 2150 2050 2401 2323 
Q 2653 2597 2653 3081 
z
" transform="scale(0.015625)"/>
      <path id="ArialMT-37" d="M 303 3981 
L 303 4522 
L 3269 4522 
L 3269 4084 
Q 2831 3619 2401 2847 
Q 1972 2075 1738 1259 
Q 1569 684 1522 0 
L 944 0 
Q 953 541 1156 1306 
Q 1359 2072 1739 2783 
Q 2119 3494 2547 3981 
L 303 3981 
z
" transform="scale(0.015625)"/>
     </defs>
     <use xlink:href="#ArialMT-33"/>
     <use xlink:href="#ArialMT-2e" transform="translate(55.615234 0)"/>
     <use xlink:href="#ArialMT-39" transform="translate(83.398438 0)"/>
     <use xlink:href="#ArialMT-37" transform="translate(139.013672 0)"/>
    </g>
   </g>
   <g id="text_12">
    <!-- 0.66 -->
    <g style="fill: #808080" transform="translate(56.673713 105.97295) scale(0.075 -0.075)">
     <use xlink:href="#ArialMT-30"/>
     <use xlink:href="#ArialMT-2e" transform="translate(55.615234 0)"/>
     <use xlink:href="#ArialMT-36" transform="translate(83.398438 0)"/>
     <use xlink:href="#ArialMT-36" transform="translate(139.013672 0)"/>
    </g>
   </g>
   <g id="text_13">
    <!-- Detected Q-minima with prominences -->
    <g transform="translate(-17.426873 20.996029) scale(0.12 -0.12)">
     <defs>
      <path id="ArialMT-44" d="M 494 0 
L 494 4581 
L 2072 4581 
Q 2606 4581 2888 4516 
Q 3281 4425 3559 4188 
Q 3922 3881 4101 3404 
Q 4281 2928 4281 2316 
Q 4281 1794 4159 1391 
Q 4038 988 3847 723 
Q 3656 459 3429 307 
Q 3203 156 2883 78 
Q 2563 0 2147 0 
L 494 0 
z
M 1100 541 
L 2078 541 
Q 2531 541 2789 625 
Q 3047 709 3200 863 
Q 3416 1078 3536 1442 
Q 3656 1806 3656 2325 
Q 3656 3044 3420 3430 
Q 3184 3816 2847 3947 
Q 2603 4041 2063 4041 
L 1100 4041 
L 1100 541 
z
" transform="scale(0.015625)"/>
      <path id="ArialMT-65" d="M 2694 1069 
L 3275 997 
Q 3138 488 2766 206 
Q 2394 -75 1816 -75 
Q 1088 -75 661 373 
Q 234 822 234 1631 
Q 234 2469 665 2931 
Q 1097 3394 1784 3394 
Q 2450 3394 2872 2941 
Q 3294 2488 3294 1666 
Q 3294 1616 3291 1516 
L 816 1516 
Q 847 969 1125 678 
Q 1403 388 1819 388 
Q 2128 388 2347 550 
Q 2566 713 2694 1069 
z
M 847 1978 
L 2700 1978 
Q 2663 2397 2488 2606 
Q 2219 2931 1791 2931 
Q 1403 2931 1139 2672 
Q 875 2413 847 1978 
z
" transform="scale(0.015625)"/>
      <path id="ArialMT-63" d="M 2588 1216 
L 3141 1144 
Q 3050 572 2676 248 
Q 2303 -75 1759 -75 
Q 1078 -75 664 370 
Q 250 816 250 1647 
Q 250 2184 428 2587 
Q 606 2991 970 3192 
Q 1334 3394 1763 3394 
Q 2303 3394 2647 3120 
Q 2991 2847 3088 2344 
L 2541 2259 
Q 2463 2594 2264 2762 
Q 2066 2931 1784 2931 
Q 1359 2931 1093 2626 
Q 828 2322 828 1663 
Q 828 994 1084 691 
Q 1341 388 1753 388 
Q 2084 388 2306 591 
Q 2528 794 2588 1216 
z
" transform="scale(0.015625)"/>
      <path id="ArialMT-64" d="M 2575 0 
L 2575 419 
Q 2259 -75 1647 -75 
Q 1250 -75 917 144 
Q 584 363 401 755 
Q 219 1147 219 1656 
Q 219 2153 384 2558 
Q 550 2963 881 3178 
Q 1213 3394 1622 3394 
Q 1922 3394 2156 3267 
Q 2391 3141 2538 2938 
L 2538 4581 
L 3097 4581 
L 3097 0 
L 2575 0 
z
M 797 1656 
Q 797 1019 1065 703 
Q 1334 388 1700 388 
Q 2069 388 2326 689 
Q 2584 991 2584 1609 
Q 2584 2291 2321 2609 
Q 2059 2928 1675 2928 
Q 1300 2928 1048 2622 
Q 797 2316 797 1656 
z
" transform="scale(0.015625)"/>
      <path id="ArialMT-20" transform="scale(0.015625)"/>
      <path id="ArialMT-2d" d="M 203 1375 
L 203 1941 
L 1931 1941 
L 1931 1375 
L 203 1375 
z
" transform="scale(0.015625)"/>
      <path id="ArialMT-6d" d="M 422 0 
L 422 3319 
L 925 3319 
L 925 2853 
Q 1081 3097 1340 3245 
Q 1600 3394 1931 3394 
Q 2300 3394 2536 3241 
Q 2772 3088 2869 2813 
Q 3263 3394 3894 3394 
Q 4388 3394 4653 3120 
Q 4919 2847 4919 2278 
L 4919 0 
L 4359 0 
L 4359 2091 
Q 4359 2428 4304 2576 
Q 4250 2725 4106 2815 
Q 3963 2906 3769 2906 
Q 3419 2906 3187 2673 
Q 2956 2441 2956 1928 
L 2956 0 
L 2394 0 
L 2394 2156 
Q 2394 2531 2256 2718 
Q 2119 2906 1806 2906 
Q 1569 2906 1367 2781 
Q 1166 2656 1075 2415 
Q 984 2175 984 1722 
L 984 0 
L 422 0 
z
" transform="scale(0.015625)"/>
      <path id="ArialMT-69" d="M 425 3934 
L 425 4581 
L 988 4581 
L 988 3934 
L 425 3934 
z
M 425 0 
L 425 3319 
L 988 3319 
L 988 0 
L 425 0 
z
" transform="scale(0.015625)"/>
      <path id="ArialMT-6e" d="M 422 0 
L 422 3319 
L 928 3319 
L 928 2847 
Q 1294 3394 1984 3394 
Q 2284 3394 2536 3286 
Q 2788 3178 2913 3003 
Q 3038 2828 3088 2588 
Q 3119 2431 3119 2041 
L 3119 0 
L 2556 0 
L 2556 2019 
Q 2556 2363 2490 2533 
Q 2425 2703 2258 2804 
Q 2091 2906 1866 2906 
Q 1506 2906 1245 2678 
Q 984 2450 984 1813 
L 984 0 
L 422 0 
z
" transform="scale(0.015625)"/>
      <path id="ArialMT-61" d="M 2588 409 
Q 2275 144 1986 34 
Q 1697 -75 1366 -75 
Q 819 -75 525 192 
Q 231 459 231 875 
Q 231 1119 342 1320 
Q 453 1522 633 1644 
Q 813 1766 1038 1828 
Q 1203 1872 1538 1913 
Q 2219 1994 2541 2106 
Q 2544 2222 2544 2253 
Q 2544 2597 2384 2738 
Q 2169 2928 1744 2928 
Q 1347 2928 1158 2789 
Q 969 2650 878 2297 
L 328 2372 
Q 403 2725 575 2942 
Q 747 3159 1072 3276 
Q 1397 3394 1825 3394 
Q 2250 3394 2515 3294 
Q 2781 3194 2906 3042 
Q 3031 2891 3081 2659 
Q 3109 2516 3109 2141 
L 3109 1391 
Q 3109 606 3145 398 
Q 3181 191 3288 0 
L 2700 0 
Q 2613 175 2588 409 
z
M 2541 1666 
Q 2234 1541 1622 1453 
Q 1275 1403 1131 1340 
Q 988 1278 909 1158 
Q 831 1038 831 891 
Q 831 666 1001 516 
Q 1172 366 1500 366 
Q 1825 366 2078 508 
Q 2331 650 2450 897 
Q 2541 1088 2541 1459 
L 2541 1666 
z
" transform="scale(0.015625)"/>
      <path id="ArialMT-77" d="M 1034 0 
L 19 3319 
L 600 3319 
L 1128 1403 
L 1325 691 
Q 1338 744 1497 1375 
L 2025 3319 
L 2603 3319 
L 3100 1394 
L 3266 759 
L 3456 1400 
L 4025 3319 
L 4572 3319 
L 3534 0 
L 2950 0 
L 2422 1988 
L 2294 2553 
L 1622 0 
L 1034 0 
z
" transform="scale(0.015625)"/>
      <path id="ArialMT-68" d="M 422 0 
L 422 4581 
L 984 4581 
L 984 2938 
Q 1378 3394 1978 3394 
Q 2347 3394 2619 3248 
Q 2891 3103 3008 2847 
Q 3125 2591 3125 2103 
L 3125 0 
L 2563 0 
L 2563 2103 
Q 2563 2525 2380 2717 
Q 2197 2909 1863 2909 
Q 1613 2909 1392 2779 
Q 1172 2650 1078 2428 
Q 984 2206 984 1816 
L 984 0 
L 422 0 
z
" transform="scale(0.015625)"/>
      <path id="ArialMT-72" d="M 416 0 
L 416 3319 
L 922 3319 
L 922 2816 
Q 1116 3169 1280 3281 
Q 1444 3394 1641 3394 
Q 1925 3394 2219 3213 
L 2025 2691 
Q 1819 2813 1613 2813 
Q 1428 2813 1281 2702 
Q 1134 2591 1072 2394 
Q 978 2094 978 1738 
L 978 0 
L 416 0 
z
" transform="scale(0.015625)"/>
      <path id="ArialMT-6f" d="M 213 1659 
Q 213 2581 725 3025 
Q 1153 3394 1769 3394 
Q 2453 3394 2887 2945 
Q 3322 2497 3322 1706 
Q 3322 1066 3130 698 
Q 2938 331 2570 128 
Q 2203 -75 1769 -75 
Q 1072 -75 642 372 
Q 213 819 213 1659 
z
M 791 1659 
Q 791 1022 1069 705 
Q 1347 388 1769 388 
Q 2188 388 2466 706 
Q 2744 1025 2744 1678 
Q 2744 2294 2464 2611 
Q 2184 2928 1769 2928 
Q 1347 2928 1069 2612 
Q 791 2297 791 1659 
z
" transform="scale(0.015625)"/>
      <path id="ArialMT-73" d="M 197 991 
L 753 1078 
Q 800 744 1014 566 
Q 1228 388 1613 388 
Q 2000 388 2187 545 
Q 2375 703 2375 916 
Q 2375 1106 2209 1216 
Q 2094 1291 1634 1406 
Q 1016 1563 777 1677 
Q 538 1791 414 1992 
Q 291 2194 291 2438 
Q 291 2659 392 2848 
Q 494 3038 669 3163 
Q 800 3259 1026 3326 
Q 1253 3394 1513 3394 
Q 1903 3394 2198 3281 
Q 2494 3169 2634 2976 
Q 2775 2784 2828 2463 
L 2278 2388 
Q 2241 2644 2061 2787 
Q 1881 2931 1553 2931 
Q 1166 2931 1000 2803 
Q 834 2675 834 2503 
Q 834 2394 903 2306 
Q 972 2216 1119 2156 
Q 1203 2125 1616 2013 
Q 2213 1853 2448 1751 
Q 2684 1650 2818 1456 
Q 2953 1263 2953 975 
Q 2953 694 2789 445 
Q 2625 197 2315 61 
Q 2006 -75 1616 -75 
Q 969 -75 630 194 
Q 291 463 197 991 
z
" transform="scale(0.015625)"/>
     </defs>
     <use xlink:href="#ArialMT-44"/>
     <use xlink:href="#ArialMT-65" transform="translate(72.216797 0)"/>
     <use xlink:href="#ArialMT-74" transform="translate(127.832031 0)"/>
     <use xlink:href="#ArialMT-65" transform="translate(155.615234 0)"/>
     <use xlink:href="#ArialMT-63" transform="translate(211.230469 0)"/>
     <use xlink:href="#ArialMT-74" transform="translate(261.230469 0)"/>
     <use xlink:href="#ArialMT-65" transform="translate(289.013672 0)"/>
     <use xlink:href="#ArialMT-64" transform="translate(344.628906 0)"/>
     <use xlink:href="#ArialMT-20" transform="translate(400.244141 0)"/>
     <use xlink:href="#ArialMT-51" transform="translate(428.027344 0)"/>
     <use xlink:href="#ArialMT-2d" transform="translate(505.810547 0)"/>
     <use xlink:href="#ArialMT-6d" transform="translate(539.111328 0)"/>
     <use xlink:href="#ArialMT-69" transform="translate(622.412109 0)"/>
     <use xlink:href="#ArialMT-6e" transform="translate(644.628906 0)"/>
     <use xlink:href="#ArialMT-69" transform="translate(700.244141 0)"/>
     <use xlink:href="#ArialMT-6d" transform="translate(722.460938 0)"/>
     <use xlink:href="#ArialMT-61" transform="translate(805.761719 0)"/>
     <use xlink:href="#ArialMT-20" transform="translate(861.376953 0)"/>
     <use xlink:href="#ArialMT-77" transform="translate(889.160156 0)"/>
     <use xlink:href="#ArialMT-69" transform="translate(961.376953 0)"/>
     <use xlink:href="#ArialMT-74" transform="translate(983.59375 0)"/>
     <use xlink:href="#ArialMT-68" transform="translate(1011.376953 0)"/>
     <use xlink:href="#ArialMT-20" transform="translate(1066.992188 0)"/>
     <use xlink:href="#ArialMT-70" transform="translate(1094.775391 0)"/>
     <use xlink:href="#ArialMT-72" transform="translate(1150.390625 0)"/>
     <use xlink:href="#ArialMT-6f" transform="translate(1183.691406 0)"/>
     <use xlink:href="#ArialMT-6d" transform="translate(1239.306641 0)"/>
     <use xlink:href="#ArialMT-69" transform="translate(1322.607422 0)"/>
     <use xlink:href="#ArialMT-6e" transform="translate(1344.824219 0)"/>
     <use xlink:href="#ArialMT-65" transform="translate(1400.439453 0)"/>
     <use xlink:href="#ArialMT-6e" transform="translate(1456.054688 0)"/>
     <use xlink:href="#ArialMT-63" transform="translate(1511.669922 0)"/>
     <use xlink:href="#ArialMT-65" transform="translate(1561.669922 0)"/>
     <use xlink:href="#ArialMT-73" transform="translate(1617.285156 0)"/>
    </g>
   </g>
   <g id="legend_1">
    <g id="patch_7">
     <path d="M 36.129412 86.596792 
L 103.928943 86.596792 
Q 105.728943 86.596792 105.728943 84.796792 
L 105.728943 60.014448 
Q 105.728943 58.214448 103.928943 58.214448 
L 36.129412 58.214448 
Q 34.329412 58.214448 34.329412 60.014448 
L 34.329412 84.796792 
Q 34.329412 86.596792 36.129412 86.596792 
z
" style="fill: #ffffff; opacity: 0.8; stroke: #cccccc; stroke-linejoin: miter"/>
    </g>
    <g id="line2d_11">
     <path d="M 37.929412 65.221792 
L 46.929412 65.221792 
L 55.929412 65.221792 
" style="fill: none; stroke: #000000; stroke-width: 0.8; stroke-linecap: square"/>
    </g>
    <g id="text_14">
     <!-- pQ(t) -->
     <g transform="translate(63.129412 68.371792) scale(0.09 -0.09)">
      <use xlink:href="#ArialMT-70"/>
      <use xlink:href="#ArialMT-51" transform="translate(55.615234 0)"/>
      <use xlink:href="#ArialMT-28" transform="translate(133.398438 0)"/>
      <use xlink:href="#ArialMT-74" transform="translate(166.699219 0)"/>
      <use xlink:href="#ArialMT-29" transform="translate(194.482422 0)"/>
     </g>
    </g>
    <g id="line2d_12">
     <g>
      <use xlink:href="#m00677f2e81" x="46.929412" y="78.058042" style="fill: #ff0000; stroke: #ff0000"/>
     </g>
    </g>
    <g id="text_15">
     <!-- Q-minima -->
     <g transform="translate(63.129412 81.208042) scale(0.09 -0.09)">
      <use xlink:href="#ArialMT-51"/>
      <use xlink:href="#ArialMT-2d" transform="translate(77.783203 0)"/>
      <use xlink:href="#ArialMT-6d" transform="translate(111.083984 0)"/>
      <use xlink:href="#ArialMT-69" transform="translate(194.384766 0)"/>
      <use xlink:href="#ArialMT-6e" transform="translate(216.601562 0)"/>
      <use xlink:href="#ArialMT-69" transform="translate(272.216797 0)"/>
      <use xlink:href="#ArialMT-6d" transform="translate(294.433594 0)"/>
      <use xlink:href="#ArialMT-61" transform="translate(377.734375 0)"/>
     </g>
    </g>
   </g>
  </g>
 </g>
 <defs>
  <clipPath id="pf8441cbebb">
   <rect x="29.829412" y="26.996029" width="105.549931" height="90.819181"/>
  </clipPath>
 </defs>
</svg>
