<?xml version="1.0" encoding="utf-8" standalone="no"?>
<!DOCTYPE svg PUBLIC "-//W3C//DTD SVG 1.1//EN"
  "http://www.w3.org/Graphics/SVG/1.1/DTD/svg11.dtd">
<svg xmlns:xlink="http://www.w3.org/1999/xlink" width="141.732283pt" height="70.866142pt" viewBox="0 0 141.732283 70.866142" xmlns="http://www.w3.org/2000/svg" version="1.1">
 <metadata>
  <rdf:RDF xmlns:dc="http://purl.org/dc/elements/1.1/" xmlns:cc="http://creativecommons.org/ns#" xmlns:rdf="http://www.w3.org/1999/02/22-rdf-syntax-ns#">
   <cc:Work>
    <dc:type rdf:resource="http://purl.org/dc/dcmitype/StillImage"/>
    <dc:date>2025-12-28T00:15:32.165424</dc:date>
    <dc:format>image/svg+xml</dc:format>
    <dc:creator>
     <cc:Agent>
      <dc:title>Matplotlib v3.10.7, https://matplotlib.org/</dc:title>
     </cc:Agent>
    </dc:creator>
   </cc:Work>
  </rdf:RDF>
 </metadata>
 <defs>
  <style type="text/css">*{stroke-linejoin: round; stroke-linecap: butt}</style>
 </defs>
 <g id="figure_1">
  <g id="patch_1">
   <path d="M 0 70.866142 
L 141.732283 70.866142 
L 141.732283 0 
L 0 0 
z
" style="fill: #ffffff"/>
  </g>
  <g id="axes_1">
   <g id="patch_2">
    <path d="M 38.035294 32.147961 
L 131.565094 32.147961 
L 131.565094 12.153309 
L 38.035294 12.153309 
z
" style="fill: #ffffff"/>
   </g>
   <g id="matplotlib.axis_1">
    <g id="xtick_1">
     <g id="line2d_1">
      <defs>
       <path id="m13596720cc" d="M 0 0 
L 0 3.5 
" style="stroke: #000000; stroke-width: 0.8"/>
      </defs>
      <g>
       <use xlink:href="#m13596720cc" x="38.035294" y="32.147961" style="stroke: #000000; stroke-width: 0.8"/>
      </g>
     </g>
    </g>
    <g id="xtick_2">
     <g id="line2d_2">
      <g>
       <use xlink:href="#m13596720cc" x="65.544059" y="32.147961" style="stroke: #000000; stroke-width: 0.8"/>
      </g>
     </g>
    </g>
    <g id="xtick_3">
     <g id="line2d_3">
      <g>
       <use xlink:href="#m13596720cc" x="93.052823" y="32.147961" style="stroke: #000000; stroke-width: 0.8"/>
      </g>
     </g>
    </g>
    <g id="xtick_4">
     <g id="line2d_4">
      <g>
       <use xlink:href="#m13596720cc" x="120.561588" y="32.147961" style="stroke: #000000; stroke-width: 0.8"/>
      </g>
     </g>
    </g>
   </g>
   <g id="matplotlib.axis_2">
    <g id="ytick_1">
     <g id="line2d_5">
      <defs>
       <path id="m2f046b2fa7" d="M 0 0 
L -3.5 0 
" style="stroke: #000000; stroke-width: 0.8"/>
      </defs>
      <g>
       <use xlink:href="#m2f046b2fa7" x="38.035294" y="27.690506" style="stroke: #000000; stroke-width: 0.8"/>
      </g>
     </g>
     <g id="text_1">
      <!-- 0.6 -->
      <g transform="translate(21.305294 30.19574) scale(0.07 -0.07)">
       <defs>
        <path id="ArialMT-30" d="M 266 2259 
Q 266 3072 433 3567 
Q 600 4063 929 4331 
Q 1259 4600 1759 4600 
Q 2128 4600 2406 4451 
Q 2684 4303 2865 4023 
Q 3047 3744 3150 3342 
Q 3253 2941 3253 2259 
Q 3253 1453 3087 958 
Q 2922 463 2592 192 
Q 2263 -78 1759 -78 
Q 1097 -78 719 397 
Q 266 969 266 2259 
z
M 844 2259 
Q 844 1131 1108 757 
Q 1372 384 1759 384 
Q 2147 384 2411 759 
Q 2675 1134 2675 2259 
Q 2675 3391 2411 3762 
Q 2147 4134 1753 4134 
Q 1366 4134 1134 3806 
Q 844 3388 844 2259 
z
" transform="scale(0.015625)"/>
        <path id="ArialMT-2e" d="M 581 0 
L 581 641 
L 1222 641 
L 1222 0 
L 581 0 
z
" transform="scale(0.015625)"/>
        <path id="ArialMT-36" d="M 3184 3459 
L 2625 3416 
Q 2550 3747 2413 3897 
Q 2184 4138 1850 4138 
Q 1581 4138 1378 3988 
Q 1113 3794 959 3422 
Q 806 3050 800 2363 
Q 1003 2672 1297 2822 
Q 1591 2972 1913 2972 
Q 2475 2972 2870 2558 
Q 3266 2144 3266 1488 
Q 3266 1056 3080 686 
Q 2894 316 2569 119 
Q 2244 -78 1831 -78 
Q 1128 -78 684 439 
Q 241 956 241 2144 
Q 241 3472 731 4075 
Q 1159 4600 1884 4600 
Q 2425 4600 2770 4297 
Q 3116 3994 3184 3459 
z
M 888 1484 
Q 888 1194 1011 928 
Q 1134 663 1356 523 
Q 1578 384 1822 384 
Q 2178 384 2434 671 
Q 2691 959 2691 1453 
Q 2691 1928 2437 2201 
Q 2184 2475 1800 2475 
Q 1419 2475 1153 2201 
Q 888 1928 888 1484 
z
" transform="scale(0.015625)"/>
       </defs>
       <use xlink:href="#ArialMT-30"/>
       <use xlink:href="#ArialMT-2e" transform="translate(55.615234 0)"/>
       <use xlink:href="#ArialMT-36" transform="translate(83.398438 0)"/>
      </g>
     </g>
    </g>
    <g id="ytick_2">
     <g id="line2d_6">
      <g>
       <use xlink:href="#m2f046b2fa7" x="38.035294" y="12.921099" style="stroke: #000000; stroke-width: 0.8"/>
      </g>
     </g>
     <g id="text_2">
      <!-- 0.8 -->
      <g transform="translate(21.305294 15.426333) scale(0.07 -0.07)">
       <defs>
        <path id="ArialMT-38" d="M 1131 2484 
Q 781 2613 612 2850 
Q 444 3088 444 3419 
Q 444 3919 803 4259 
Q 1163 4600 1759 4600 
Q 2359 4600 2725 4251 
Q 3091 3903 3091 3403 
Q 3091 3084 2923 2848 
Q 2756 2613 2416 2484 
Q 2838 2347 3058 2040 
Q 3278 1734 3278 1309 
Q 3278 722 2862 322 
Q 2447 -78 1769 -78 
Q 1091 -78 675 323 
Q 259 725 259 1325 
Q 259 1772 486 2073 
Q 713 2375 1131 2484 
z
M 1019 3438 
Q 1019 3113 1228 2906 
Q 1438 2700 1772 2700 
Q 2097 2700 2305 2904 
Q 2513 3109 2513 3406 
Q 2513 3716 2298 3927 
Q 2084 4138 1766 4138 
Q 1444 4138 1231 3931 
Q 1019 3725 1019 3438 
z
M 838 1322 
Q 838 1081 952 856 
Q 1066 631 1291 507 
Q 1516 384 1775 384 
Q 2178 384 2440 643 
Q 2703 903 2703 1303 
Q 2703 1709 2433 1975 
Q 2163 2241 1756 2241 
Q 1359 2241 1098 1978 
Q 838 1716 838 1322 
z
" transform="scale(0.015625)"/>
       </defs>
       <use xlink:href="#ArialMT-30"/>
       <use xlink:href="#ArialMT-2e" transform="translate(55.615234 0)"/>
       <use xlink:href="#ArialMT-38" transform="translate(83.398438 0)"/>
      </g>
     </g>
    </g>
    <g id="text_3">
     <!-- $\lambda_1$ -->
     <g transform="translate(4.317794 27.500635) rotate(-90) scale(0.1 -0.1)">
      <defs>
       <path id="DejaVuSans-Oblique-3bb" d="M 2350 4316 
L 3125 0 
L 2516 0 
L 2038 2588 
L 328 0 
L -281 0 
L 1903 3356 
L 1794 3975 
Q 1725 4369 1391 4369 
L 1091 4369 
L 1184 4863 
L 1550 4856 
Q 2253 4847 2350 4316 
z
" transform="scale(0.015625)"/>
       <path id="DejaVuSans-31" d="M 794 531 
L 1825 531 
L 1825 4091 
L 703 3866 
L 703 4441 
L 1819 4666 
L 2450 4666 
L 2450 531 
L 3481 531 
L 3481 0 
L 794 0 
L 794 531 
z
" transform="scale(0.015625)"/>
      </defs>
      <use xlink:href="#DejaVuSans-Oblique-3bb" transform="translate(0 0.015625)"/>
      <use xlink:href="#DejaVuSans-31" transform="translate(59.179688 -16.390625) scale(0.7)"/>
     </g>
    </g>
   </g>
   <g id="line2d_7">
    <path d="M 38.035294 31.239113 
L 40.235995 28.532249 
L 42.436696 26.232135 
L 44.637398 24.27206 
L 46.838099 22.59343 
L 49.0388 21.15978 
L 51.789676 19.664341 
L 54.540553 18.444571 
L 57.291429 17.447532 
L 60.592481 16.481292 
L 64.443708 15.610289 
L 68.84511 14.875798 
L 73.796688 14.285386 
L 79.848616 13.799948 
L 87.55107 13.424899 
L 97.454226 13.172858 
L 110.658433 13.062157 
L 120.561588 13.164759 
L 126.613516 13.426026 
L 129.914568 13.709323 
L 129.914568 13.709323 
" clip-path="url(#p41aae5fd96)" style="fill: none; stroke: #000000; stroke-width: 0.75; stroke-linecap: square"/>
    <defs>
     <path id="m9cef51197d" d="M 0 0.75 
C 0.198902 0.75 0.389685 0.670975 0.53033 0.53033 
C 0.670975 0.389685 0.75 0.198902 0.75 0 
C 0.75 -0.198902 0.670975 -0.389685 0.53033 -0.53033 
C 0.389685 -0.670975 0.198902 -0.75 0 -0.75 
C -0.198902 -0.75 -0.389685 -0.670975 -0.53033 -0.53033 
C -0.670975 -0.389685 -0.75 -0.198902 -0.75 0 
C -0.75 0.198902 -0.670975 0.389685 -0.53033 0.53033 
C -0.389685 0.670975 -0.198902 0.75 0 0.75 
z
" style="stroke: #000000"/>
    </defs>
    <g clip-path="url(#p41aae5fd96)">
     <use xlink:href="#m9cef51197d" x="38.035294" y="31.239113" style="stroke: #000000"/>
     <use xlink:href="#m9cef51197d" x="38.585469" y="30.520415" style="stroke: #000000"/>
     <use xlink:href="#m9cef51197d" x="39.135645" y="29.830469" style="stroke: #000000"/>
     <use xlink:href="#m9cef51197d" x="39.68582" y="29.168112" style="stroke: #000000"/>
     <use xlink:href="#m9cef51197d" x="40.235995" y="28.532249" style="stroke: #000000"/>
     <use xlink:href="#m9cef51197d" x="40.786171" y="27.921783" style="stroke: #000000"/>
     <use xlink:href="#m9cef51197d" x="41.336346" y="27.335645" style="stroke: #000000"/>
     <use xlink:href="#m9cef51197d" x="41.886521" y="26.772765" style="stroke: #000000"/>
     <use xlink:href="#m9cef51197d" x="42.436696" y="26.232135" style="stroke: #000000"/>
     <use xlink:href="#m9cef51197d" x="42.986872" y="25.71273" style="stroke: #000000"/>
     <use xlink:href="#m9cef51197d" x="43.537047" y="25.213559" style="stroke: #000000"/>
     <use xlink:href="#m9cef51197d" x="44.087222" y="24.733645" style="stroke: #000000"/>
     <use xlink:href="#m9cef51197d" x="44.637398" y="24.27206" style="stroke: #000000"/>
     <use xlink:href="#m9cef51197d" x="45.187573" y="23.827861" style="stroke: #000000"/>
     <use xlink:href="#m9cef51197d" x="45.737748" y="23.400221" style="stroke: #000000"/>
     <use xlink:href="#m9cef51197d" x="46.287923" y="22.988898" style="stroke: #000000"/>
     <use xlink:href="#m9cef51197d" x="46.838099" y="22.59343" style="stroke: #000000"/>
     <use xlink:href="#m9cef51197d" x="47.388274" y="22.213301" style="stroke: #000000"/>
     <use xlink:href="#m9cef51197d" x="47.938449" y="21.84797" style="stroke: #000000"/>
     <use xlink:href="#m9cef51197d" x="48.488625" y="21.496967" style="stroke: #000000"/>
     <use xlink:href="#m9cef51197d" x="49.0388" y="21.15978" style="stroke: #000000"/>
     <use xlink:href="#m9cef51197d" x="49.588975" y="20.835922" style="stroke: #000000"/>
     <use xlink:href="#m9cef51197d" x="50.139151" y="20.52492" style="stroke: #000000"/>
     <use xlink:href="#m9cef51197d" x="50.689326" y="20.226288" style="stroke: #000000"/>
     <use xlink:href="#m9cef51197d" x="51.239501" y="19.939575" style="stroke: #000000"/>
     <use xlink:href="#m9cef51197d" x="51.789676" y="19.664341" style="stroke: #000000"/>
     <use xlink:href="#m9cef51197d" x="52.339852" y="19.400094" style="stroke: #000000"/>
     <use xlink:href="#m9cef51197d" x="52.890027" y="19.146428" style="stroke: #000000"/>
     <use xlink:href="#m9cef51197d" x="53.440202" y="18.90289" style="stroke: #000000"/>
     <use xlink:href="#m9cef51197d" x="53.990378" y="18.669089" style="stroke: #000000"/>
     <use xlink:href="#m9cef51197d" x="54.540553" y="18.444571" style="stroke: #000000"/>
     <use xlink:href="#m9cef51197d" x="55.090728" y="18.228944" style="stroke: #000000"/>
     <use xlink:href="#m9cef51197d" x="55.640903" y="18.02183" style="stroke: #000000"/>
     <use xlink:href="#m9cef51197d" x="56.191079" y="17.82281" style="stroke: #000000"/>
     <use xlink:href="#m9cef51197d" x="56.741254" y="17.631485" style="stroke: #000000"/>
     <use xlink:href="#m9cef51197d" x="57.291429" y="17.447532" style="stroke: #000000"/>
     <use xlink:href="#m9cef51197d" x="57.841605" y="17.270543" style="stroke: #000000"/>
     <use xlink:href="#m9cef51197d" x="58.39178" y="17.100165" style="stroke: #000000"/>
     <use xlink:href="#m9cef51197d" x="58.941955" y="16.936204" style="stroke: #000000"/>
     <use xlink:href="#m9cef51197d" x="59.49213" y="16.778538" style="stroke: #000000"/>
     <use xlink:href="#m9cef51197d" x="60.042306" y="16.626972" style="stroke: #000000"/>
     <use xlink:href="#m9cef51197d" x="60.592481" y="16.481292" style="stroke: #000000"/>
     <use xlink:href="#m9cef51197d" x="61.142656" y="16.341315" style="stroke: #000000"/>
     <use xlink:href="#m9cef51197d" x="61.692832" y="16.206833" style="stroke: #000000"/>
     <use xlink:href="#m9cef51197d" x="62.243007" y="16.077658" style="stroke: #000000"/>
     <use xlink:href="#m9cef51197d" x="62.793182" y="15.953598" style="stroke: #000000"/>
     <use xlink:href="#m9cef51197d" x="63.343358" y="15.834468" style="stroke: #000000"/>
     <use xlink:href="#m9cef51197d" x="63.893533" y="15.720105" style="stroke: #000000"/>
     <use xlink:href="#m9cef51197d" x="64.443708" y="15.610289" style="stroke: #000000"/>
     <use xlink:href="#m9cef51197d" x="64.993883" y="15.504874" style="stroke: #000000"/>
     <use xlink:href="#m9cef51197d" x="65.544059" y="15.403681" style="stroke: #000000"/>
     <use xlink:href="#m9cef51197d" x="66.094234" y="15.306541" style="stroke: #000000"/>
     <use xlink:href="#m9cef51197d" x="66.644409" y="15.213267" style="stroke: #000000"/>
     <use xlink:href="#m9cef51197d" x="67.194585" y="15.12372" style="stroke: #000000"/>
     <use xlink:href="#m9cef51197d" x="67.74476" y="15.037734" style="stroke: #000000"/>
     <use xlink:href="#m9cef51197d" x="68.294935" y="14.955146" style="stroke: #000000"/>
     <use xlink:href="#m9cef51197d" x="68.84511" y="14.875798" style="stroke: #000000"/>
     <use xlink:href="#m9cef51197d" x="69.395286" y="14.79954" style="stroke: #000000"/>
     <use xlink:href="#m9cef51197d" x="69.945461" y="14.726218" style="stroke: #000000"/>
     <use xlink:href="#m9cef51197d" x="70.495636" y="14.655704" style="stroke: #000000"/>
     <use xlink:href="#m9cef51197d" x="71.045812" y="14.58784" style="stroke: #000000"/>
     <use xlink:href="#m9cef51197d" x="71.595987" y="14.522511" style="stroke: #000000"/>
     <use xlink:href="#m9cef51197d" x="72.146162" y="14.459677" style="stroke: #000000"/>
     <use xlink:href="#m9cef51197d" x="72.696337" y="14.399252" style="stroke: #000000"/>
     <use xlink:href="#m9cef51197d" x="73.246513" y="14.34119" style="stroke: #000000"/>
     <use xlink:href="#m9cef51197d" x="73.796688" y="14.285386" style="stroke: #000000"/>
     <use xlink:href="#m9cef51197d" x="74.346863" y="14.231766" style="stroke: #000000"/>
     <use xlink:href="#m9cef51197d" x="74.897039" y="14.180258" style="stroke: #000000"/>
     <use xlink:href="#m9cef51197d" x="75.447214" y="14.130792" style="stroke: #000000"/>
     <use xlink:href="#m9cef51197d" x="75.997389" y="14.08329" style="stroke: #000000"/>
     <use xlink:href="#m9cef51197d" x="76.547565" y="14.03768" style="stroke: #000000"/>
     <use xlink:href="#m9cef51197d" x="77.09774" y="13.993893" style="stroke: #000000"/>
     <use xlink:href="#m9cef51197d" x="77.647915" y="13.951871" style="stroke: #000000"/>
     <use xlink:href="#m9cef51197d" x="78.19809" y="13.911521" style="stroke: #000000"/>
     <use xlink:href="#m9cef51197d" x="78.748266" y="13.872804" style="stroke: #000000"/>
     <use xlink:href="#m9cef51197d" x="79.298441" y="13.835624" style="stroke: #000000"/>
     <use xlink:href="#m9cef51197d" x="79.848616" y="13.799948" style="stroke: #000000"/>
     <use xlink:href="#m9cef51197d" x="80.398792" y="13.765699" style="stroke: #000000"/>
     <use xlink:href="#m9cef51197d" x="80.948967" y="13.732806" style="stroke: #000000"/>
     <use xlink:href="#m9cef51197d" x="81.499142" y="13.701211" style="stroke: #000000"/>
     <use xlink:href="#m9cef51197d" x="82.049317" y="13.670858" style="stroke: #000000"/>
     <use xlink:href="#m9cef51197d" x="82.599493" y="13.641706" style="stroke: #000000"/>
     <use xlink:href="#m9cef51197d" x="83.149668" y="13.613672" style="stroke: #000000"/>
     <use xlink:href="#m9cef51197d" x="83.699843" y="13.586712" style="stroke: #000000"/>
     <use xlink:href="#m9cef51197d" x="84.250019" y="13.560773" style="stroke: #000000"/>
     <use xlink:href="#m9cef51197d" x="84.800194" y="13.535798" style="stroke: #000000"/>
     <use xlink:href="#m9cef51197d" x="85.350369" y="13.511818" style="stroke: #000000"/>
     <use xlink:href="#m9cef51197d" x="85.900544" y="13.48874" style="stroke: #000000"/>
     <use xlink:href="#m9cef51197d" x="86.45072" y="13.466604" style="stroke: #000000"/>
     <use xlink:href="#m9cef51197d" x="87.000895" y="13.445318" style="stroke: #000000"/>
     <use xlink:href="#m9cef51197d" x="87.55107" y="13.424899" style="stroke: #000000"/>
     <use xlink:href="#m9cef51197d" x="88.101246" y="13.40529" style="stroke: #000000"/>
     <use xlink:href="#m9cef51197d" x="88.651421" y="13.38649" style="stroke: #000000"/>
     <use xlink:href="#m9cef51197d" x="89.201596" y="13.368431" style="stroke: #000000"/>
     <use xlink:href="#m9cef51197d" x="89.751772" y="13.351132" style="stroke: #000000"/>
     <use xlink:href="#m9cef51197d" x="90.301947" y="13.334542" style="stroke: #000000"/>
     <use xlink:href="#m9cef51197d" x="90.852122" y="13.318622" style="stroke: #000000"/>
     <use xlink:href="#m9cef51197d" x="91.402297" y="13.303379" style="stroke: #000000"/>
     <use xlink:href="#m9cef51197d" x="91.952473" y="13.288774" style="stroke: #000000"/>
     <use xlink:href="#m9cef51197d" x="92.502648" y="13.27479" style="stroke: #000000"/>
     <use xlink:href="#m9cef51197d" x="93.052823" y="13.261383" style="stroke: #000000"/>
     <use xlink:href="#m9cef51197d" x="93.602999" y="13.248548" style="stroke: #000000"/>
     <use xlink:href="#m9cef51197d" x="94.153174" y="13.236263" style="stroke: #000000"/>
     <use xlink:href="#m9cef51197d" x="94.703349" y="13.224502" style="stroke: #000000"/>
     <use xlink:href="#m9cef51197d" x="95.253524" y="13.213256" style="stroke: #000000"/>
     <use xlink:href="#m9cef51197d" x="95.8037" y="13.202463" style="stroke: #000000"/>
     <use xlink:href="#m9cef51197d" x="96.353875" y="13.192167" style="stroke: #000000"/>
     <use xlink:href="#m9cef51197d" x="96.90405" y="13.182295" style="stroke: #000000"/>
     <use xlink:href="#m9cef51197d" x="97.454226" y="13.172858" style="stroke: #000000"/>
     <use xlink:href="#m9cef51197d" x="98.004401" y="13.163834" style="stroke: #000000"/>
     <use xlink:href="#m9cef51197d" x="98.554576" y="13.155251" style="stroke: #000000"/>
     <use xlink:href="#m9cef51197d" x="99.104751" y="13.147055" style="stroke: #000000"/>
     <use xlink:href="#m9cef51197d" x="99.654927" y="13.139264" style="stroke: #000000"/>
     <use xlink:href="#m9cef51197d" x="100.205102" y="13.131865" style="stroke: #000000"/>
     <use xlink:href="#m9cef51197d" x="100.755277" y="13.124845" style="stroke: #000000"/>
     <use xlink:href="#m9cef51197d" x="101.305453" y="13.11822" style="stroke: #000000"/>
     <use xlink:href="#m9cef51197d" x="101.855628" y="13.111957" style="stroke: #000000"/>
     <use xlink:href="#m9cef51197d" x="102.405803" y="13.106067" style="stroke: #000000"/>
     <use xlink:href="#m9cef51197d" x="102.955979" y="13.100548" style="stroke: #000000"/>
     <use xlink:href="#m9cef51197d" x="103.506154" y="13.095389" style="stroke: #000000"/>
     <use xlink:href="#m9cef51197d" x="104.056329" y="13.0906" style="stroke: #000000"/>
     <use xlink:href="#m9cef51197d" x="104.606504" y="13.086163" style="stroke: #000000"/>
     <use xlink:href="#m9cef51197d" x="105.15668" y="13.082092" style="stroke: #000000"/>
     <use xlink:href="#m9cef51197d" x="105.706855" y="13.078399" style="stroke: #000000"/>
     <use xlink:href="#m9cef51197d" x="106.25703" y="13.075071" style="stroke: #000000"/>
     <use xlink:href="#m9cef51197d" x="106.807206" y="13.072087" style="stroke: #000000"/>
     <use xlink:href="#m9cef51197d" x="107.357381" y="13.069503" style="stroke: #000000"/>
     <use xlink:href="#m9cef51197d" x="107.907556" y="13.06728" style="stroke: #000000"/>
     <use xlink:href="#m9cef51197d" x="108.457731" y="13.065458" style="stroke: #000000"/>
     <use xlink:href="#m9cef51197d" x="109.007907" y="13.064032" style="stroke: #000000"/>
     <use xlink:href="#m9cef51197d" x="109.558082" y="13.062984" style="stroke: #000000"/>
     <use xlink:href="#m9cef51197d" x="110.108257" y="13.062364" style="stroke: #000000"/>
     <use xlink:href="#m9cef51197d" x="110.658433" y="13.062157" style="stroke: #000000"/>
     <use xlink:href="#m9cef51197d" x="111.208608" y="13.062412" style="stroke: #000000"/>
     <use xlink:href="#m9cef51197d" x="111.758783" y="13.063116" style="stroke: #000000"/>
     <use xlink:href="#m9cef51197d" x="112.308958" y="13.064322" style="stroke: #000000"/>
     <use xlink:href="#m9cef51197d" x="112.859134" y="13.06603" style="stroke: #000000"/>
     <use xlink:href="#m9cef51197d" x="113.409309" y="13.068275" style="stroke: #000000"/>
     <use xlink:href="#m9cef51197d" x="113.959484" y="13.07107" style="stroke: #000000"/>
     <use xlink:href="#m9cef51197d" x="114.50966" y="13.074464" style="stroke: #000000"/>
     <use xlink:href="#m9cef51197d" x="115.059835" y="13.078482" style="stroke: #000000"/>
     <use xlink:href="#m9cef51197d" x="115.61001" y="13.083179" style="stroke: #000000"/>
     <use xlink:href="#m9cef51197d" x="116.160186" y="13.088584" style="stroke: #000000"/>
     <use xlink:href="#m9cef51197d" x="116.710361" y="13.094759" style="stroke: #000000"/>
     <use xlink:href="#m9cef51197d" x="117.260536" y="13.101754" style="stroke: #000000"/>
     <use xlink:href="#m9cef51197d" x="117.810711" y="13.10965" style="stroke: #000000"/>
     <use xlink:href="#m9cef51197d" x="118.360887" y="13.118471" style="stroke: #000000"/>
     <use xlink:href="#m9cef51197d" x="118.911062" y="13.128339" style="stroke: #000000"/>
     <use xlink:href="#m9cef51197d" x="119.461237" y="13.139295" style="stroke: #000000"/>
     <use xlink:href="#m9cef51197d" x="120.011413" y="13.151395" style="stroke: #000000"/>
     <use xlink:href="#m9cef51197d" x="120.561588" y="13.164759" style="stroke: #000000"/>
     <use xlink:href="#m9cef51197d" x="121.111763" y="13.179464" style="stroke: #000000"/>
     <use xlink:href="#m9cef51197d" x="121.661938" y="13.195592" style="stroke: #000000"/>
     <use xlink:href="#m9cef51197d" x="122.212114" y="13.213256" style="stroke: #000000"/>
     <use xlink:href="#m9cef51197d" x="122.762289" y="13.232552" style="stroke: #000000"/>
     <use xlink:href="#m9cef51197d" x="123.312464" y="13.253645" style="stroke: #000000"/>
     <use xlink:href="#m9cef51197d" x="123.86264" y="13.276692" style="stroke: #000000"/>
     <use xlink:href="#m9cef51197d" x="124.412815" y="13.301772" style="stroke: #000000"/>
     <use xlink:href="#m9cef51197d" x="124.96299" y="13.329084" style="stroke: #000000"/>
     <use xlink:href="#m9cef51197d" x="125.513165" y="13.358756" style="stroke: #000000"/>
     <use xlink:href="#m9cef51197d" x="126.063341" y="13.390998" style="stroke: #000000"/>
     <use xlink:href="#m9cef51197d" x="126.613516" y="13.426026" style="stroke: #000000"/>
     <use xlink:href="#m9cef51197d" x="127.163691" y="13.46406" style="stroke: #000000"/>
     <use xlink:href="#m9cef51197d" x="127.713867" y="13.505361" style="stroke: #000000"/>
     <use xlink:href="#m9cef51197d" x="128.264042" y="13.55024" style="stroke: #000000"/>
     <use xlink:href="#m9cef51197d" x="128.814217" y="13.598961" style="stroke: #000000"/>
     <use xlink:href="#m9cef51197d" x="129.364393" y="13.651873" style="stroke: #000000"/>
     <use xlink:href="#m9cef51197d" x="129.914568" y="13.709323" style="stroke: #000000"/>
    </g>
   </g>
   <g id="patch_3">
    <path d="M 38.035294 32.147961 
L 38.035294 12.153309 
" style="fill: none; stroke: #000000; stroke-width: 0.8; stroke-linejoin: miter; stroke-linecap: square"/>
   </g>
   <g id="patch_4">
    <path d="M 131.565094 32.147961 
L 131.565094 12.153309 
" style="fill: none; stroke: #000000; stroke-width: 0.8; stroke-linejoin: miter; stroke-linecap: square"/>
   </g>
   <g id="patch_5">
    <path d="M 38.035294 32.147961 
L 131.565094 32.147961 
" style="fill: none; stroke: #000000; stroke-width: 0.8; stroke-linejoin: miter; stroke-linecap: square"/>
   </g>
   <g id="patch_6">
    <path d="M 38.035294 12.153309 
L 131.565094 12.153309 
" style="fill: none; stroke: #000000; stroke-width: 0.8; stroke-linejoin: miter; stroke-linecap: square"/>
   </g>
  </g>
  <g id="axes_2">
   <g id="patch_7">
    <path d="M 38.035294 56.348495 
L 131.565094 56.348495 
L 131.565094 36.353843 
L 38.035294 36.353843 
z
" style="fill: #ffffff"/>
   </g>
   <g id="matplotlib.axis_3">
    <g id="xtick_5">
     <g id="line2d_8">
      <g>
       <use xlink:href="#m13596720cc" x="38.035294" y="56.348495" style="stroke: #000000; stroke-width: 0.8"/>
      </g>
     </g>
     <g id="text_4">
      <!-- 0 -->
      <g transform="translate(36.088966 68.358963) scale(0.07 -0.07)">
       <use xlink:href="#ArialMT-30"/>
      </g>
     </g>
    </g>
    <g id="xtick_6">
     <g id="line2d_9">
      <g>
       <use xlink:href="#m13596720cc" x="65.544059" y="56.348495" style="stroke: #000000; stroke-width: 0.8"/>
      </g>
     </g>
     <g id="text_5">
      <!-- 5 -->
      <g transform="translate(63.597731 68.358963) scale(0.07 -0.07)">
       <defs>
        <path id="ArialMT-35" d="M 266 1200 
L 856 1250 
Q 922 819 1161 601 
Q 1400 384 1738 384 
Q 2144 384 2425 690 
Q 2706 997 2706 1503 
Q 2706 1984 2436 2262 
Q 2166 2541 1728 2541 
Q 1456 2541 1237 2417 
Q 1019 2294 894 2097 
L 366 2166 
L 809 4519 
L 3088 4519 
L 3088 3981 
L 1259 3981 
L 1013 2750 
Q 1425 3038 1878 3038 
Q 2478 3038 2890 2622 
Q 3303 2206 3303 1553 
Q 3303 931 2941 478 
Q 2500 -78 1738 -78 
Q 1113 -78 717 272 
Q 322 622 266 1200 
z
" transform="scale(0.015625)"/>
       </defs>
       <use xlink:href="#ArialMT-35"/>
      </g>
     </g>
    </g>
    <g id="xtick_7">
     <g id="line2d_10">
      <g>
       <use xlink:href="#m13596720cc" x="93.052823" y="56.348495" style="stroke: #000000; stroke-width: 0.8"/>
      </g>
     </g>
     <g id="text_6">
      <!-- 10 -->
      <g transform="translate(89.160167 68.358963) scale(0.07 -0.07)">
       <defs>
        <path id="ArialMT-31" d="M 2384 0 
L 1822 0 
L 1822 3584 
Q 1619 3391 1289 3197 
Q 959 3003 697 2906 
L 697 3450 
Q 1169 3672 1522 3987 
Q 1875 4303 2022 4600 
L 2384 4600 
L 2384 0 
z
" transform="scale(0.015625)"/>
       </defs>
       <use xlink:href="#ArialMT-31"/>
       <use xlink:href="#ArialMT-30" transform="translate(55.615234 0)"/>
      </g>
     </g>
    </g>
    <g id="xtick_8">
     <g id="line2d_11">
      <g>
       <use xlink:href="#m13596720cc" x="120.561588" y="56.348495" style="stroke: #000000; stroke-width: 0.8"/>
      </g>
     </g>
     <g id="text_7">
      <!-- 15 -->
      <g transform="translate(116.668932 68.358963) scale(0.07 -0.07)">
       <use xlink:href="#ArialMT-31"/>
       <use xlink:href="#ArialMT-35" transform="translate(55.615234 0)"/>
      </g>
     </g>
    </g>
    <g id="text_8">
     <!-- t (along trajectory segment) -->
     <g transform="translate(23.945506 92.029901) scale(0.1 -0.1)">
      <defs>
       <path id="ArialMT-74" d="M 1650 503 
L 1731 6 
Q 1494 -44 1306 -44 
Q 1000 -44 831 53 
Q 663 150 594 308 
Q 525 466 525 972 
L 525 2881 
L 113 2881 
L 113 3319 
L 525 3319 
L 525 4141 
L 1084 4478 
L 1084 3319 
L 1650 3319 
L 1650 2881 
L 1084 2881 
L 1084 941 
Q 1084 700 1114 631 
Q 1144 563 1211 522 
Q 1278 481 1403 481 
Q 1497 481 1650 503 
z
" transform="scale(0.015625)"/>
       <path id="ArialMT-20" transform="scale(0.015625)"/>
       <path id="ArialMT-28" d="M 1497 -1347 
Q 1031 -759 709 28 
Q 388 816 388 1659 
Q 388 2403 628 3084 
Q 909 3875 1497 4659 
L 1900 4659 
Q 1522 4009 1400 3731 
Q 1209 3300 1100 2831 
Q 966 2247 966 1656 
Q 966 153 1900 -1347 
L 1497 -1347 
z
" transform="scale(0.015625)"/>
       <path id="ArialMT-61" d="M 2588 409 
Q 2275 144 1986 34 
Q 1697 -75 1366 -75 
Q 819 -75 525 192 
Q 231 459 231 875 
Q 231 1119 342 1320 
Q 453 1522 633 1644 
Q 813 1766 1038 1828 
Q 1203 1872 1538 1913 
Q 2219 1994 2541 2106 
Q 2544 2222 2544 2253 
Q 2544 2597 2384 2738 
Q 2169 2928 1744 2928 
Q 1347 2928 1158 2789 
Q 969 2650 878 2297 
L 328 2372 
Q 403 2725 575 2942 
Q 747 3159 1072 3276 
Q 1397 3394 1825 3394 
Q 2250 3394 2515 3294 
Q 2781 3194 2906 3042 
Q 3031 2891 3081 2659 
Q 3109 2516 3109 2141 
L 3109 1391 
Q 3109 606 3145 398 
Q 3181 191 3288 0 
L 2700 0 
Q 2613 175 2588 409 
z
M 2541 1666 
Q 2234 1541 1622 1453 
Q 1275 1403 1131 1340 
Q 988 1278 909 1158 
Q 831 1038 831 891 
Q 831 666 1001 516 
Q 1172 366 1500 366 
Q 1825 366 2078 508 
Q 2331 650 2450 897 
Q 2541 1088 2541 1459 
L 2541 1666 
z
" transform="scale(0.015625)"/>
       <path id="ArialMT-6c" d="M 409 0 
L 409 4581 
L 972 4581 
L 972 0 
L 409 0 
z
" transform="scale(0.015625)"/>
       <path id="ArialMT-6f" d="M 213 1659 
Q 213 2581 725 3025 
Q 1153 3394 1769 3394 
Q 2453 3394 2887 2945 
Q 3322 2497 3322 1706 
Q 3322 1066 3130 698 
Q 2938 331 2570 128 
Q 2203 -75 1769 -75 
Q 1072 -75 642 372 
Q 213 819 213 1659 
z
M 791 1659 
Q 791 1022 1069 705 
Q 1347 388 1769 388 
Q 2188 388 2466 706 
Q 2744 1025 2744 1678 
Q 2744 2294 2464 2611 
Q 2184 2928 1769 2928 
Q 1347 2928 1069 2612 
Q 791 2297 791 1659 
z
" transform="scale(0.015625)"/>
       <path id="ArialMT-6e" d="M 422 0 
L 422 3319 
L 928 3319 
L 928 2847 
Q 1294 3394 1984 3394 
Q 2284 3394 2536 3286 
Q 2788 3178 2913 3003 
Q 3038 2828 3088 2588 
Q 3119 2431 3119 2041 
L 3119 0 
L 2556 0 
L 2556 2019 
Q 2556 2363 2490 2533 
Q 2425 2703 2258 2804 
Q 2091 2906 1866 2906 
Q 1506 2906 1245 2678 
Q 984 2450 984 1813 
L 984 0 
L 422 0 
z
" transform="scale(0.015625)"/>
       <path id="ArialMT-67" d="M 319 -275 
L 866 -356 
Q 900 -609 1056 -725 
Q 1266 -881 1628 -881 
Q 2019 -881 2231 -725 
Q 2444 -569 2519 -288 
Q 2563 -116 2559 434 
Q 2191 0 1641 0 
Q 956 0 581 494 
Q 206 988 206 1678 
Q 206 2153 378 2554 
Q 550 2956 876 3175 
Q 1203 3394 1644 3394 
Q 2231 3394 2613 2919 
L 2613 3319 
L 3131 3319 
L 3131 450 
Q 3131 -325 2973 -648 
Q 2816 -972 2473 -1159 
Q 2131 -1347 1631 -1347 
Q 1038 -1347 672 -1080 
Q 306 -813 319 -275 
z
M 784 1719 
Q 784 1066 1043 766 
Q 1303 466 1694 466 
Q 2081 466 2343 764 
Q 2606 1063 2606 1700 
Q 2606 2309 2336 2618 
Q 2066 2928 1684 2928 
Q 1309 2928 1046 2623 
Q 784 2319 784 1719 
z
" transform="scale(0.015625)"/>
       <path id="ArialMT-72" d="M 416 0 
L 416 3319 
L 922 3319 
L 922 2816 
Q 1116 3169 1280 3281 
Q 1444 3394 1641 3394 
Q 1925 3394 2219 3213 
L 2025 2691 
Q 1819 2813 1613 2813 
Q 1428 2813 1281 2702 
Q 1134 2591 1072 2394 
Q 978 2094 978 1738 
L 978 0 
L 416 0 
z
" transform="scale(0.015625)"/>
       <path id="ArialMT-6a" d="M 419 3928 
L 419 4581 
L 981 4581 
L 981 3928 
L 419 3928 
z
M -294 -1288 
L -188 -809 
Q -19 -853 78 -853 
Q 250 -853 334 -739 
Q 419 -625 419 -169 
L 419 3319 
L 981 3319 
L 981 -181 
Q 981 -794 822 -1034 
Q 619 -1347 147 -1347 
Q -81 -1347 -294 -1288 
z
" transform="scale(0.015625)"/>
       <path id="ArialMT-65" d="M 2694 1069 
L 3275 997 
Q 3138 488 2766 206 
Q 2394 -75 1816 -75 
Q 1088 -75 661 373 
Q 234 822 234 1631 
Q 234 2469 665 2931 
Q 1097 3394 1784 3394 
Q 2450 3394 2872 2941 
Q 3294 2488 3294 1666 
Q 3294 1616 3291 1516 
L 816 1516 
Q 847 969 1125 678 
Q 1403 388 1819 388 
Q 2128 388 2347 550 
Q 2566 713 2694 1069 
z
M 847 1978 
L 2700 1978 
Q 2663 2397 2488 2606 
Q 2219 2931 1791 2931 
Q 1403 2931 1139 2672 
Q 875 2413 847 1978 
z
" transform="scale(0.015625)"/>
       <path id="ArialMT-63" d="M 2588 1216 
L 3141 1144 
Q 3050 572 2676 248 
Q 2303 -75 1759 -75 
Q 1078 -75 664 370 
Q 250 816 250 1647 
Q 250 2184 428 2587 
Q 606 2991 970 3192 
Q 1334 3394 1763 3394 
Q 2303 3394 2647 3120 
Q 2991 2847 3088 2344 
L 2541 2259 
Q 2463 2594 2264 2762 
Q 2066 2931 1784 2931 
Q 1359 2931 1093 2626 
Q 828 2322 828 1663 
Q 828 994 1084 691 
Q 1341 388 1753 388 
Q 2084 388 2306 591 
Q 2528 794 2588 1216 
z
" transform="scale(0.015625)"/>
       <path id="ArialMT-79" d="M 397 -1278 
L 334 -750 
Q 519 -800 656 -800 
Q 844 -800 956 -737 
Q 1069 -675 1141 -563 
Q 1194 -478 1313 -144 
Q 1328 -97 1363 -6 
L 103 3319 
L 709 3319 
L 1400 1397 
Q 1534 1031 1641 628 
Q 1738 1016 1872 1384 
L 2581 3319 
L 3144 3319 
L 1881 -56 
Q 1678 -603 1566 -809 
Q 1416 -1088 1222 -1217 
Q 1028 -1347 759 -1347 
Q 597 -1347 397 -1278 
z
" transform="scale(0.015625)"/>
       <path id="ArialMT-73" d="M 197 991 
L 753 1078 
Q 800 744 1014 566 
Q 1228 388 1613 388 
Q 2000 388 2187 545 
Q 2375 703 2375 916 
Q 2375 1106 2209 1216 
Q 2094 1291 1634 1406 
Q 1016 1563 777 1677 
Q 538 1791 414 1992 
Q 291 2194 291 2438 
Q 291 2659 392 2848 
Q 494 3038 669 3163 
Q 800 3259 1026 3326 
Q 1253 3394 1513 3394 
Q 1903 3394 2198 3281 
Q 2494 3169 2634 2976 
Q 2775 2784 2828 2463 
L 2278 2388 
Q 2241 2644 2061 2787 
Q 1881 2931 1553 2931 
Q 1166 2931 1000 2803 
Q 834 2675 834 2503 
Q 834 2394 903 2306 
Q 972 2216 1119 2156 
Q 1203 2125 1616 2013 
Q 2213 1853 2448 1751 
Q 2684 1650 2818 1456 
Q 2953 1263 2953 975 
Q 2953 694 2789 445 
Q 2625 197 2315 61 
Q 2006 -75 1616 -75 
Q 969 -75 630 194 
Q 291 463 197 991 
z
" transform="scale(0.015625)"/>
       <path id="ArialMT-6d" d="M 422 0 
L 422 3319 
L 925 3319 
L 925 2853 
Q 1081 3097 1340 3245 
Q 1600 3394 1931 3394 
Q 2300 3394 2536 3241 
Q 2772 3088 2869 2813 
Q 3263 3394 3894 3394 
Q 4388 3394 4653 3120 
Q 4919 2847 4919 2278 
L 4919 0 
L 4359 0 
L 4359 2091 
Q 4359 2428 4304 2576 
Q 4250 2725 4106 2815 
Q 3963 2906 3769 2906 
Q 3419 2906 3187 2673 
Q 2956 2441 2956 1928 
L 2956 0 
L 2394 0 
L 2394 2156 
Q 2394 2531 2256 2718 
Q 2119 2906 1806 2906 
Q 1569 2906 1367 2781 
Q 1166 2656 1075 2415 
Q 984 2175 984 1722 
L 984 0 
L 422 0 
z
" transform="scale(0.015625)"/>
       <path id="ArialMT-29" d="M 791 -1347 
L 388 -1347 
Q 1322 153 1322 1656 
Q 1322 2244 1188 2822 
Q 1081 3291 891 3722 
Q 769 4003 388 4659 
L 791 4659 
Q 1378 3875 1659 3084 
Q 1900 2403 1900 1659 
Q 1900 816 1576 28 
Q 1253 -759 791 -1347 
z
" transform="scale(0.015625)"/>
      </defs>
      <use xlink:href="#ArialMT-74"/>
      <use xlink:href="#ArialMT-20" transform="translate(27.783203 0)"/>
      <use xlink:href="#ArialMT-28" transform="translate(55.566406 0)"/>
      <use xlink:href="#ArialMT-61" transform="translate(88.867188 0)"/>
      <use xlink:href="#ArialMT-6c" transform="translate(144.482422 0)"/>
      <use xlink:href="#ArialMT-6f" transform="translate(166.699219 0)"/>
      <use xlink:href="#ArialMT-6e" transform="translate(222.314453 0)"/>
      <use xlink:href="#ArialMT-67" transform="translate(277.929688 0)"/>
      <use xlink:href="#ArialMT-20" transform="translate(333.544922 0)"/>
      <use xlink:href="#ArialMT-74" transform="translate(361.328125 0)"/>
      <use xlink:href="#ArialMT-72" transform="translate(389.111328 0)"/>
      <use xlink:href="#ArialMT-61" transform="translate(422.412109 0)"/>
      <use xlink:href="#ArialMT-6a" transform="translate(478.027344 0)"/>
      <use xlink:href="#ArialMT-65" transform="translate(500.244141 0)"/>
      <use xlink:href="#ArialMT-63" transform="translate(555.859375 0)"/>
      <use xlink:href="#ArialMT-74" transform="translate(605.859375 0)"/>
      <use xlink:href="#ArialMT-6f" transform="translate(633.642578 0)"/>
      <use xlink:href="#ArialMT-72" transform="translate(689.257812 0)"/>
      <use xlink:href="#ArialMT-79" transform="translate(722.558594 0)"/>
      <use xlink:href="#ArialMT-20" transform="translate(772.558594 0)"/>
      <use xlink:href="#ArialMT-73" transform="translate(800.341797 0)"/>
      <use xlink:href="#ArialMT-65" transform="translate(850.341797 0)"/>
      <use xlink:href="#ArialMT-67" transform="translate(905.957031 0)"/>
      <use xlink:href="#ArialMT-6d" transform="translate(961.572266 0)"/>
      <use xlink:href="#ArialMT-65" transform="translate(1044.873047 0)"/>
      <use xlink:href="#ArialMT-6e" transform="translate(1100.488281 0)"/>
      <use xlink:href="#ArialMT-74" transform="translate(1156.103516 0)"/>
      <use xlink:href="#ArialMT-29" transform="translate(1183.886719 0)"/>
     </g>
    </g>
   </g>
   <g id="matplotlib.axis_4">
    <g id="ytick_3">
     <g id="line2d_12">
      <g>
       <use xlink:href="#m2f046b2fa7" x="38.035294" y="55.439719" style="stroke: #000000; stroke-width: 0.8"/>
      </g>
     </g>
     <g id="text_9">
      <!-- −0.4 -->
      <g transform="translate(17.216857 57.944954) scale(0.07 -0.07)">
       <defs>
        <path id="ArialMT-2212" d="M 3381 1997 
L 356 1997 
L 356 2522 
L 3381 2522 
L 3381 1997 
z
" transform="scale(0.015625)"/>
        <path id="ArialMT-34" d="M 2069 0 
L 2069 1097 
L 81 1097 
L 81 1613 
L 2172 4581 
L 2631 4581 
L 2631 1613 
L 3250 1613 
L 3250 1097 
L 2631 1097 
L 2631 0 
L 2069 0 
z
M 2069 1613 
L 2069 3678 
L 634 1613 
L 2069 1613 
z
" transform="scale(0.015625)"/>
       </defs>
       <use xlink:href="#ArialMT-2212"/>
       <use xlink:href="#ArialMT-30" transform="translate(58.398438 0)"/>
       <use xlink:href="#ArialMT-2e" transform="translate(114.013672 0)"/>
       <use xlink:href="#ArialMT-34" transform="translate(141.796875 0)"/>
      </g>
     </g>
    </g>
    <g id="ytick_4">
     <g id="line2d_13">
      <g>
       <use xlink:href="#m2f046b2fa7" x="38.035294" y="38.991996" style="stroke: #000000; stroke-width: 0.8"/>
      </g>
     </g>
     <g id="text_10">
      <!-- −0.3 -->
      <g transform="translate(17.216857 41.49723) scale(0.07 -0.07)">
       <defs>
        <path id="ArialMT-33" d="M 269 1209 
L 831 1284 
Q 928 806 1161 595 
Q 1394 384 1728 384 
Q 2125 384 2398 659 
Q 2672 934 2672 1341 
Q 2672 1728 2419 1979 
Q 2166 2231 1775 2231 
Q 1616 2231 1378 2169 
L 1441 2663 
Q 1497 2656 1531 2656 
Q 1891 2656 2178 2843 
Q 2466 3031 2466 3422 
Q 2466 3731 2256 3934 
Q 2047 4138 1716 4138 
Q 1388 4138 1169 3931 
Q 950 3725 888 3313 
L 325 3413 
Q 428 3978 793 4289 
Q 1159 4600 1703 4600 
Q 2078 4600 2393 4439 
Q 2709 4278 2876 4000 
Q 3044 3722 3044 3409 
Q 3044 3113 2884 2869 
Q 2725 2625 2413 2481 
Q 2819 2388 3044 2092 
Q 3269 1797 3269 1353 
Q 3269 753 2831 336 
Q 2394 -81 1725 -81 
Q 1122 -81 723 278 
Q 325 638 269 1209 
z
" transform="scale(0.015625)"/>
       </defs>
       <use xlink:href="#ArialMT-2212"/>
       <use xlink:href="#ArialMT-30" transform="translate(58.398438 0)"/>
       <use xlink:href="#ArialMT-2e" transform="translate(114.013672 0)"/>
       <use xlink:href="#ArialMT-33" transform="translate(141.796875 0)"/>
      </g>
     </g>
    </g>
    <g id="text_11">
     <!-- $\lambda_2$ -->
     <g transform="translate(0.229357 51.701169) rotate(-90) scale(0.1 -0.1)">
      <defs>
       <path id="DejaVuSans-32" d="M 1228 531 
L 3431 531 
L 3431 0 
L 469 0 
L 469 531 
Q 828 903 1448 1529 
Q 2069 2156 2228 2338 
Q 2531 2678 2651 2914 
Q 2772 3150 2772 3378 
Q 2772 3750 2511 3984 
Q 2250 4219 1831 4219 
Q 1534 4219 1204 4116 
Q 875 4013 500 3803 
L 500 4441 
Q 881 4594 1212 4672 
Q 1544 4750 1819 4750 
Q 2544 4750 2975 4387 
Q 3406 4025 3406 3419 
Q 3406 3131 3298 2873 
Q 3191 2616 2906 2266 
Q 2828 2175 2409 1742 
Q 1991 1309 1228 531 
z
" transform="scale(0.015625)"/>
      </defs>
      <use xlink:href="#DejaVuSans-Oblique-3bb" transform="translate(0 0.015625)"/>
      <use xlink:href="#DejaVuSans-32" transform="translate(59.179688 -16.390625) scale(0.7)"/>
     </g>
    </g>
   </g>
   <g id="line2d_14">
    <path d="M 38.035294 55.439647 
L 93.602999 55.336033 
L 101.855628 55.09757 
L 106.807206 54.741606 
L 110.108257 54.313124 
L 112.859134 53.764245 
L 115.059835 53.144456 
L 117.260536 52.298875 
L 118.911062 51.46547 
L 120.561588 50.412666 
L 122.212114 49.090743 
L 123.86264 47.439281 
L 125.513165 45.386391 
L 127.163691 42.850982 
L 128.814217 39.728401 
L 129.914568 37.262691 
L 129.914568 37.262691 
" clip-path="url(#p04349c4463)" style="fill: none; stroke: #000000; stroke-width: 0.75; stroke-linecap: square"/>
    <g clip-path="url(#p04349c4463)">
     <use xlink:href="#m9cef51197d" x="38.035294" y="55.439647" style="stroke: #000000"/>
     <use xlink:href="#m9cef51197d" x="38.585469" y="55.439642" style="stroke: #000000"/>
     <use xlink:href="#m9cef51197d" x="39.135645" y="55.439637" style="stroke: #000000"/>
     <use xlink:href="#m9cef51197d" x="39.68582" y="55.439637" style="stroke: #000000"/>
     <use xlink:href="#m9cef51197d" x="40.235995" y="55.439632" style="stroke: #000000"/>
     <use xlink:href="#m9cef51197d" x="40.786171" y="55.439627" style="stroke: #000000"/>
     <use xlink:href="#m9cef51197d" x="41.336346" y="55.439622" style="stroke: #000000"/>
     <use xlink:href="#m9cef51197d" x="41.886521" y="55.439617" style="stroke: #000000"/>
     <use xlink:href="#m9cef51197d" x="42.436696" y="55.439613" style="stroke: #000000"/>
     <use xlink:href="#m9cef51197d" x="42.986872" y="55.439603" style="stroke: #000000"/>
     <use xlink:href="#m9cef51197d" x="43.537047" y="55.439593" style="stroke: #000000"/>
     <use xlink:href="#m9cef51197d" x="44.087222" y="55.439588" style="stroke: #000000"/>
     <use xlink:href="#m9cef51197d" x="44.637398" y="55.439578" style="stroke: #000000"/>
     <use xlink:href="#m9cef51197d" x="45.187573" y="55.439568" style="stroke: #000000"/>
     <use xlink:href="#m9cef51197d" x="45.737748" y="55.439564" style="stroke: #000000"/>
     <use xlink:href="#m9cef51197d" x="46.287923" y="55.439554" style="stroke: #000000"/>
     <use xlink:href="#m9cef51197d" x="46.838099" y="55.439544" style="stroke: #000000"/>
     <use xlink:href="#m9cef51197d" x="47.388274" y="55.439529" style="stroke: #000000"/>
     <use xlink:href="#m9cef51197d" x="47.938449" y="55.439519" style="stroke: #000000"/>
     <use xlink:href="#m9cef51197d" x="48.488625" y="55.439505" style="stroke: #000000"/>
     <use xlink:href="#m9cef51197d" x="49.0388" y="55.43949" style="stroke: #000000"/>
     <use xlink:href="#m9cef51197d" x="49.588975" y="55.439475" style="stroke: #000000"/>
     <use xlink:href="#m9cef51197d" x="50.139151" y="55.439456" style="stroke: #000000"/>
     <use xlink:href="#m9cef51197d" x="50.689326" y="55.439441" style="stroke: #000000"/>
     <use xlink:href="#m9cef51197d" x="51.239501" y="55.439421" style="stroke: #000000"/>
     <use xlink:href="#m9cef51197d" x="51.789676" y="55.439402" style="stroke: #000000"/>
     <use xlink:href="#m9cef51197d" x="52.339852" y="55.439377" style="stroke: #000000"/>
     <use xlink:href="#m9cef51197d" x="52.890027" y="55.439358" style="stroke: #000000"/>
     <use xlink:href="#m9cef51197d" x="53.440202" y="55.439328" style="stroke: #000000"/>
     <use xlink:href="#m9cef51197d" x="53.990378" y="55.439299" style="stroke: #000000"/>
     <use xlink:href="#m9cef51197d" x="54.540553" y="55.439269" style="stroke: #000000"/>
     <use xlink:href="#m9cef51197d" x="55.090728" y="55.439235" style="stroke: #000000"/>
     <use xlink:href="#m9cef51197d" x="55.640903" y="55.439201" style="stroke: #000000"/>
     <use xlink:href="#m9cef51197d" x="56.191079" y="55.439166" style="stroke: #000000"/>
     <use xlink:href="#m9cef51197d" x="56.741254" y="55.439122" style="stroke: #000000"/>
     <use xlink:href="#m9cef51197d" x="57.291429" y="55.439078" style="stroke: #000000"/>
     <use xlink:href="#m9cef51197d" x="57.841605" y="55.439029" style="stroke: #000000"/>
     <use xlink:href="#m9cef51197d" x="58.39178" y="55.43898" style="stroke: #000000"/>
     <use xlink:href="#m9cef51197d" x="58.941955" y="55.438921" style="stroke: #000000"/>
     <use xlink:href="#m9cef51197d" x="59.49213" y="55.438858" style="stroke: #000000"/>
     <use xlink:href="#m9cef51197d" x="60.042306" y="55.438794" style="stroke: #000000"/>
     <use xlink:href="#m9cef51197d" x="60.592481" y="55.438725" style="stroke: #000000"/>
     <use xlink:href="#m9cef51197d" x="61.142656" y="55.438652" style="stroke: #000000"/>
     <use xlink:href="#m9cef51197d" x="61.692832" y="55.438564" style="stroke: #000000"/>
     <use xlink:href="#m9cef51197d" x="62.243007" y="55.43848" style="stroke: #000000"/>
     <use xlink:href="#m9cef51197d" x="62.793182" y="55.438387" style="stroke: #000000"/>
     <use xlink:href="#m9cef51197d" x="63.343358" y="55.438279" style="stroke: #000000"/>
     <use xlink:href="#m9cef51197d" x="63.893533" y="55.438171" style="stroke: #000000"/>
     <use xlink:href="#m9cef51197d" x="64.443708" y="55.438049" style="stroke: #000000"/>
     <use xlink:href="#m9cef51197d" x="64.993883" y="55.437917" style="stroke: #000000"/>
     <use xlink:href="#m9cef51197d" x="65.544059" y="55.437779" style="stroke: #000000"/>
     <use xlink:href="#m9cef51197d" x="66.094234" y="55.437632" style="stroke: #000000"/>
     <use xlink:href="#m9cef51197d" x="66.644409" y="55.437461" style="stroke: #000000"/>
     <use xlink:href="#m9cef51197d" x="67.194585" y="55.437289" style="stroke: #000000"/>
     <use xlink:href="#m9cef51197d" x="67.74476" y="55.437093" style="stroke: #000000"/>
     <use xlink:href="#m9cef51197d" x="68.294935" y="55.436887" style="stroke: #000000"/>
     <use xlink:href="#m9cef51197d" x="68.84511" y="55.436657" style="stroke: #000000"/>
     <use xlink:href="#m9cef51197d" x="69.395286" y="55.436412" style="stroke: #000000"/>
     <use xlink:href="#m9cef51197d" x="69.945461" y="55.436147" style="stroke: #000000"/>
     <use xlink:href="#m9cef51197d" x="70.495636" y="55.435863" style="stroke: #000000"/>
     <use xlink:href="#m9cef51197d" x="71.045812" y="55.435554" style="stroke: #000000"/>
     <use xlink:href="#m9cef51197d" x="71.595987" y="55.435216" style="stroke: #000000"/>
     <use xlink:href="#m9cef51197d" x="72.146162" y="55.434858" style="stroke: #000000"/>
     <use xlink:href="#m9cef51197d" x="72.696337" y="55.434461" style="stroke: #000000"/>
     <use xlink:href="#m9cef51197d" x="73.246513" y="55.434034" style="stroke: #000000"/>
     <use xlink:href="#m9cef51197d" x="73.796688" y="55.433583" style="stroke: #000000"/>
     <use xlink:href="#m9cef51197d" x="74.346863" y="55.433088" style="stroke: #000000"/>
     <use xlink:href="#m9cef51197d" x="74.897039" y="55.432554" style="stroke: #000000"/>
     <use xlink:href="#m9cef51197d" x="75.447214" y="55.431976" style="stroke: #000000"/>
     <use xlink:href="#m9cef51197d" x="75.997389" y="55.431358" style="stroke: #000000"/>
     <use xlink:href="#m9cef51197d" x="76.547565" y="55.430686" style="stroke: #000000"/>
     <use xlink:href="#m9cef51197d" x="77.09774" y="55.429956" style="stroke: #000000"/>
     <use xlink:href="#m9cef51197d" x="77.647915" y="55.429172" style="stroke: #000000"/>
     <use xlink:href="#m9cef51197d" x="78.19809" y="55.428319" style="stroke: #000000"/>
     <use xlink:href="#m9cef51197d" x="78.748266" y="55.427392" style="stroke: #000000"/>
     <use xlink:href="#m9cef51197d" x="79.298441" y="55.426392" style="stroke: #000000"/>
     <use xlink:href="#m9cef51197d" x="79.848616" y="55.425304" style="stroke: #000000"/>
     <use xlink:href="#m9cef51197d" x="80.398792" y="55.424128" style="stroke: #000000"/>
     <use xlink:href="#m9cef51197d" x="80.948967" y="55.422848" style="stroke: #000000"/>
     <use xlink:href="#m9cef51197d" x="81.499142" y="55.421461" style="stroke: #000000"/>
     <use xlink:href="#m9cef51197d" x="82.049317" y="55.419961" style="stroke: #000000"/>
     <use xlink:href="#m9cef51197d" x="82.599493" y="55.418339" style="stroke: #000000"/>
     <use xlink:href="#m9cef51197d" x="83.149668" y="55.416579" style="stroke: #000000"/>
     <use xlink:href="#m9cef51197d" x="83.699843" y="55.414677" style="stroke: #000000"/>
     <use xlink:href="#m9cef51197d" x="84.250019" y="55.412618" style="stroke: #000000"/>
     <use xlink:href="#m9cef51197d" x="84.800194" y="55.410393" style="stroke: #000000"/>
     <use xlink:href="#m9cef51197d" x="85.350369" y="55.407971" style="stroke: #000000"/>
     <use xlink:href="#m9cef51197d" x="85.900544" y="55.405349" style="stroke: #000000"/>
     <use xlink:href="#m9cef51197d" x="86.45072" y="55.402521" style="stroke: #000000"/>
     <use xlink:href="#m9cef51197d" x="87.000895" y="55.399467" style="stroke: #000000"/>
     <use xlink:href="#m9cef51197d" x="87.55107" y="55.396168" style="stroke: #000000"/>
     <use xlink:href="#m9cef51197d" x="88.101246" y="55.392604" style="stroke: #000000"/>
     <use xlink:href="#m9cef51197d" x="88.651421" y="55.388756" style="stroke: #000000"/>
     <use xlink:href="#m9cef51197d" x="89.201596" y="55.38459" style="stroke: #000000"/>
     <use xlink:href="#m9cef51197d" x="89.751772" y="55.38009" style="stroke: #000000"/>
     <use xlink:href="#m9cef51197d" x="90.301947" y="55.375213" style="stroke: #000000"/>
     <use xlink:href="#m9cef51197d" x="90.852122" y="55.369938" style="stroke: #000000"/>
     <use xlink:href="#m9cef51197d" x="91.402297" y="55.364208" style="stroke: #000000"/>
     <use xlink:href="#m9cef51197d" x="91.952473" y="55.357998" style="stroke: #000000"/>
     <use xlink:href="#m9cef51197d" x="92.502648" y="55.351267" style="stroke: #000000"/>
     <use xlink:href="#m9cef51197d" x="93.052823" y="55.343959" style="stroke: #000000"/>
     <use xlink:href="#m9cef51197d" x="93.602999" y="55.336033" style="stroke: #000000"/>
     <use xlink:href="#m9cef51197d" x="94.153174" y="55.327435" style="stroke: #000000"/>
     <use xlink:href="#m9cef51197d" x="94.703349" y="55.318102" style="stroke: #000000"/>
     <use xlink:href="#m9cef51197d" x="95.253524" y="55.307999" style="stroke: #000000"/>
     <use xlink:href="#m9cef51197d" x="95.8037" y="55.297044" style="stroke: #000000"/>
     <use xlink:href="#m9cef51197d" x="96.353875" y="55.285191" style="stroke: #000000"/>
     <use xlink:href="#m9cef51197d" x="96.90405" y="55.272363" style="stroke: #000000"/>
     <use xlink:href="#m9cef51197d" x="97.454226" y="55.258501" style="stroke: #000000"/>
     <use xlink:href="#m9cef51197d" x="98.004401" y="55.243477" style="stroke: #000000"/>
     <use xlink:href="#m9cef51197d" x="98.554576" y="55.227163" style="stroke: #000000"/>
     <use xlink:href="#m9cef51197d" x="99.104751" y="55.209517" style="stroke: #000000"/>
     <use xlink:href="#m9cef51197d" x="99.654927" y="55.190434" style="stroke: #000000"/>
     <use xlink:href="#m9cef51197d" x="100.205102" y="55.169827" style="stroke: #000000"/>
     <use xlink:href="#m9cef51197d" x="100.755277" y="55.147578" style="stroke: #000000"/>
     <use xlink:href="#m9cef51197d" x="101.305453" y="55.123544" style="stroke: #000000"/>
     <use xlink:href="#m9cef51197d" x="101.855628" y="55.09757" style="stroke: #000000"/>
     <use xlink:href="#m9cef51197d" x="102.405803" y="55.069477" style="stroke: #000000"/>
     <use xlink:href="#m9cef51197d" x="102.955979" y="55.039081" style="stroke: #000000"/>
     <use xlink:href="#m9cef51197d" x="103.506154" y="55.006161" style="stroke: #000000"/>
     <use xlink:href="#m9cef51197d" x="104.056329" y="54.97049" style="stroke: #000000"/>
     <use xlink:href="#m9cef51197d" x="104.606504" y="54.931825" style="stroke: #000000"/>
     <use xlink:href="#m9cef51197d" x="105.15668" y="54.889895" style="stroke: #000000"/>
     <use xlink:href="#m9cef51197d" x="105.706855" y="54.844421" style="stroke: #000000"/>
     <use xlink:href="#m9cef51197d" x="106.25703" y="54.795094" style="stroke: #000000"/>
     <use xlink:href="#m9cef51197d" x="106.807206" y="54.741606" style="stroke: #000000"/>
     <use xlink:href="#m9cef51197d" x="107.357381" y="54.683612" style="stroke: #000000"/>
     <use xlink:href="#m9cef51197d" x="107.907556" y="54.620766" style="stroke: #000000"/>
     <use xlink:href="#m9cef51197d" x="108.457731" y="54.552685" style="stroke: #000000"/>
     <use xlink:href="#m9cef51197d" x="109.007907" y="54.478987" style="stroke: #000000"/>
     <use xlink:href="#m9cef51197d" x="109.558082" y="54.399278" style="stroke: #000000"/>
     <use xlink:href="#m9cef51197d" x="110.108257" y="54.313124" style="stroke: #000000"/>
     <use xlink:href="#m9cef51197d" x="110.658433" y="54.22001" style="stroke: #000000"/>
     <use xlink:href="#m9cef51197d" x="111.208608" y="54.119052" style="stroke: #000000"/>
     <use xlink:href="#m9cef51197d" x="111.758783" y="54.009791" style="stroke: #000000"/>
     <use xlink:href="#m9cef51197d" x="112.308958" y="53.891721" style="stroke: #000000"/>
     <use xlink:href="#m9cef51197d" x="112.859134" y="53.764245" style="stroke: #000000"/>
     <use xlink:href="#m9cef51197d" x="113.409309" y="53.626646" style="stroke: #000000"/>
     <use xlink:href="#m9cef51197d" x="113.959484" y="53.478107" style="stroke: #000000"/>
     <use xlink:href="#m9cef51197d" x="114.50966" y="53.317715" style="stroke: #000000"/>
     <use xlink:href="#m9cef51197d" x="115.059835" y="53.144456" style="stroke: #000000"/>
     <use xlink:href="#m9cef51197d" x="115.61001" y="52.957197" style="stroke: #000000"/>
     <use xlink:href="#m9cef51197d" x="116.160186" y="52.754738" style="stroke: #000000"/>
     <use xlink:href="#m9cef51197d" x="116.710361" y="52.53576" style="stroke: #000000"/>
     <use xlink:href="#m9cef51197d" x="117.260536" y="52.298875" style="stroke: #000000"/>
     <use xlink:href="#m9cef51197d" x="117.810711" y="52.042589" style="stroke: #000000"/>
     <use xlink:href="#m9cef51197d" x="118.360887" y="51.765333" style="stroke: #000000"/>
     <use xlink:href="#m9cef51197d" x="118.911062" y="51.46547" style="stroke: #000000"/>
     <use xlink:href="#m9cef51197d" x="119.461237" y="51.14127" style="stroke: #000000"/>
     <use xlink:href="#m9cef51197d" x="120.011413" y="50.790953" style="stroke: #000000"/>
     <use xlink:href="#m9cef51197d" x="120.561588" y="50.412666" style="stroke: #000000"/>
     <use xlink:href="#m9cef51197d" x="121.111763" y="50.004512" style="stroke: #000000"/>
     <use xlink:href="#m9cef51197d" x="121.661938" y="49.564531" style="stroke: #000000"/>
     <use xlink:href="#m9cef51197d" x="122.212114" y="49.090743" style="stroke: #000000"/>
     <use xlink:href="#m9cef51197d" x="122.762289" y="48.580886" style="stroke: #000000"/>
     <use xlink:href="#m9cef51197d" x="123.312464" y="48.031154" style="stroke: #000000"/>
     <use xlink:href="#m9cef51197d" x="123.86264" y="47.439281" style="stroke: #000000"/>
     <use xlink:href="#m9cef51197d" x="124.412815" y="46.803022" style="stroke: #000000"/>
     <use xlink:href="#m9cef51197d" x="124.96299" y="46.119735" style="stroke: #000000"/>
     <use xlink:href="#m9cef51197d" x="125.513165" y="45.386391" style="stroke: #000000"/>
     <use xlink:href="#m9cef51197d" x="126.063341" y="44.599637" style="stroke: #000000"/>
     <use xlink:href="#m9cef51197d" x="126.613516" y="43.755806" style="stroke: #000000"/>
     <use xlink:href="#m9cef51197d" x="127.163691" y="42.850982" style="stroke: #000000"/>
     <use xlink:href="#m9cef51197d" x="127.713867" y="41.881018" style="stroke: #000000"/>
     <use xlink:href="#m9cef51197d" x="128.264042" y="40.84163" style="stroke: #000000"/>
     <use xlink:href="#m9cef51197d" x="128.814217" y="39.728401" style="stroke: #000000"/>
     <use xlink:href="#m9cef51197d" x="129.364393" y="38.536895" style="stroke: #000000"/>
     <use xlink:href="#m9cef51197d" x="129.914568" y="37.262691" style="stroke: #000000"/>
    </g>
   </g>
   <g id="patch_8">
    <path d="M 38.035294 56.348495 
L 38.035294 36.353843 
" style="fill: none; stroke: #000000; stroke-width: 0.8; stroke-linejoin: miter; stroke-linecap: square"/>
   </g>
   <g id="patch_9">
    <path d="M 131.565094 56.348495 
L 131.565094 36.353843 
" style="fill: none; stroke: #000000; stroke-width: 0.8; stroke-linejoin: miter; stroke-linecap: square"/>
   </g>
   <g id="patch_10">
    <path d="M 38.035294 56.348495 
L 131.565094 56.348495 
" style="fill: none; stroke: #000000; stroke-width: 0.8; stroke-linejoin: miter; stroke-linecap: square"/>
   </g>
   <g id="patch_11">
    <path d="M 38.035294 36.353843 
L 131.565094 36.353843 
" style="fill: none; stroke: #000000; stroke-width: 0.8; stroke-linejoin: miter; stroke-linecap: square"/>
   </g>
  </g>
  <g id="text_12">
   <!-- Eigenvalues near Q-min at t=21.800, ghost: False, leaves Uɛ: True -->
   <g transform="translate(-10.259288 5.424588) scale(0.055 -0.055)">
    <defs>
     <path id="ArialMT-45" d="M 506 0 
L 506 4581 
L 3819 4581 
L 3819 4041 
L 1113 4041 
L 1113 2638 
L 3647 2638 
L 3647 2100 
L 1113 2100 
L 1113 541 
L 3925 541 
L 3925 0 
L 506 0 
z
" transform="scale(0.015625)"/>
     <path id="ArialMT-69" d="M 425 3934 
L 425 4581 
L 988 4581 
L 988 3934 
L 425 3934 
z
M 425 0 
L 425 3319 
L 988 3319 
L 988 0 
L 425 0 
z
" transform="scale(0.015625)"/>
     <path id="ArialMT-76" d="M 1344 0 
L 81 3319 
L 675 3319 
L 1388 1331 
Q 1503 1009 1600 663 
Q 1675 925 1809 1294 
L 2547 3319 
L 3125 3319 
L 1869 0 
L 1344 0 
z
" transform="scale(0.015625)"/>
     <path id="ArialMT-75" d="M 2597 0 
L 2597 488 
Q 2209 -75 1544 -75 
Q 1250 -75 995 37 
Q 741 150 617 320 
Q 494 491 444 738 
Q 409 903 409 1263 
L 409 3319 
L 972 3319 
L 972 1478 
Q 972 1038 1006 884 
Q 1059 663 1231 536 
Q 1403 409 1656 409 
Q 1909 409 2131 539 
Q 2353 669 2445 892 
Q 2538 1116 2538 1541 
L 2538 3319 
L 3100 3319 
L 3100 0 
L 2597 0 
z
" transform="scale(0.015625)"/>
     <path id="ArialMT-51" d="M 3966 491 
Q 4388 200 4744 66 
L 4566 -356 
Q 4072 -178 3581 206 
Q 3072 -78 2456 -78 
Q 1834 -78 1328 222 
Q 822 522 548 1065 
Q 275 1609 275 2291 
Q 275 2969 550 3525 
Q 825 4081 1333 4372 
Q 1841 4663 2469 4663 
Q 3103 4663 3612 4361 
Q 4122 4059 4389 3517 
Q 4656 2975 4656 2294 
Q 4656 1728 4484 1276 
Q 4313 825 3966 491 
z
M 2631 1266 
Q 3156 1119 3497 828 
Q 4031 1316 4031 2294 
Q 4031 2850 3842 3265 
Q 3653 3681 3289 3911 
Q 2925 4141 2472 4141 
Q 1794 4141 1347 3677 
Q 900 3213 900 2291 
Q 900 1397 1342 919 
Q 1784 441 2472 441 
Q 2797 441 3084 563 
Q 2800 747 2484 825 
L 2631 1266 
z
" transform="scale(0.015625)"/>
     <path id="ArialMT-2d" d="M 203 1375 
L 203 1941 
L 1931 1941 
L 1931 1375 
L 203 1375 
z
" transform="scale(0.015625)"/>
     <path id="ArialMT-3d" d="M 3381 2694 
L 356 2694 
L 356 3219 
L 3381 3219 
L 3381 2694 
z
M 3381 1303 
L 356 1303 
L 356 1828 
L 3381 1828 
L 3381 1303 
z
" transform="scale(0.015625)"/>
     <path id="ArialMT-32" d="M 3222 541 
L 3222 0 
L 194 0 
Q 188 203 259 391 
Q 375 700 629 1000 
Q 884 1300 1366 1694 
Q 2113 2306 2375 2664 
Q 2638 3022 2638 3341 
Q 2638 3675 2398 3904 
Q 2159 4134 1775 4134 
Q 1369 4134 1125 3890 
Q 881 3647 878 3216 
L 300 3275 
Q 359 3922 746 4261 
Q 1134 4600 1788 4600 
Q 2447 4600 2831 4234 
Q 3216 3869 3216 3328 
Q 3216 3053 3103 2787 
Q 2991 2522 2730 2228 
Q 2469 1934 1863 1422 
Q 1356 997 1212 845 
Q 1069 694 975 541 
L 3222 541 
z
" transform="scale(0.015625)"/>
     <path id="ArialMT-2c" d="M 569 0 
L 569 641 
L 1209 641 
L 1209 0 
Q 1209 -353 1084 -570 
Q 959 -788 688 -906 
L 531 -666 
Q 709 -588 793 -436 
Q 878 -284 888 0 
L 569 0 
z
" transform="scale(0.015625)"/>
     <path id="ArialMT-68" d="M 422 0 
L 422 4581 
L 984 4581 
L 984 2938 
Q 1378 3394 1978 3394 
Q 2347 3394 2619 3248 
Q 2891 3103 3008 2847 
Q 3125 2591 3125 2103 
L 3125 0 
L 2563 0 
L 2563 2103 
Q 2563 2525 2380 2717 
Q 2197 2909 1863 2909 
Q 1613 2909 1392 2779 
Q 1172 2650 1078 2428 
Q 984 2206 984 1816 
L 984 0 
L 422 0 
z
" transform="scale(0.015625)"/>
     <path id="ArialMT-3a" d="M 578 2678 
L 578 3319 
L 1219 3319 
L 1219 2678 
L 578 2678 
z
M 578 0 
L 578 641 
L 1219 641 
L 1219 0 
L 578 0 
z
" transform="scale(0.015625)"/>
     <path id="ArialMT-46" d="M 525 0 
L 525 4581 
L 3616 4581 
L 3616 4041 
L 1131 4041 
L 1131 2622 
L 3281 2622 
L 3281 2081 
L 1131 2081 
L 1131 0 
L 525 0 
z
" transform="scale(0.015625)"/>
     <path id="ArialMT-55" d="M 3500 4581 
L 4106 4581 
L 4106 1934 
Q 4106 1244 3950 837 
Q 3794 431 3386 176 
Q 2978 -78 2316 -78 
Q 1672 -78 1262 144 
Q 853 366 678 786 
Q 503 1206 503 1934 
L 503 4581 
L 1109 4581 
L 1109 1938 
Q 1109 1341 1220 1058 
Q 1331 775 1601 622 
Q 1872 469 2263 469 
Q 2931 469 3215 772 
Q 3500 1075 3500 1938 
L 3500 4581 
z
" transform="scale(0.015625)"/>
     <path id="ArialMT-25b" d="M 2778 934 
Q 2597 -75 1463 -75 
Q 941 -75 609 159 
Q 228 428 228 928 
Q 228 1494 728 1763 
Q 334 2003 334 2409 
Q 334 2869 681 3141 
Q 1000 3394 1469 3394 
Q 2425 3394 2675 2459 
L 2141 2372 
Q 1950 2931 1475 2931 
Q 1238 2931 1084 2798 
Q 931 2666 931 2431 
Q 931 2269 1034 2134 
Q 1138 2000 1294 1969 
Q 1425 1944 1778 1941 
L 1778 1500 
Q 1678 1503 1650 1503 
Q 1331 1503 1244 1488 
Q 1041 1447 909 1288 
Q 791 1144 791 950 
Q 791 691 997 528 
Q 1184 378 1453 378 
Q 1759 378 1975 566 
Q 2181 744 2250 1047 
L 2778 934 
z
" transform="scale(0.015625)"/>
     <path id="ArialMT-54" d="M 1659 0 
L 1659 4041 
L 150 4041 
L 150 4581 
L 3781 4581 
L 3781 4041 
L 2266 4041 
L 2266 0 
L 1659 0 
z
" transform="scale(0.015625)"/>
    </defs>
    <use xlink:href="#ArialMT-45"/>
    <use xlink:href="#ArialMT-69" transform="translate(66.699219 0)"/>
    <use xlink:href="#ArialMT-67" transform="translate(88.916016 0)"/>
    <use xlink:href="#ArialMT-65" transform="translate(144.53125 0)"/>
    <use xlink:href="#ArialMT-6e" transform="translate(200.146484 0)"/>
    <use xlink:href="#ArialMT-76" transform="translate(255.761719 0)"/>
    <use xlink:href="#ArialMT-61" transform="translate(305.761719 0)"/>
    <use xlink:href="#ArialMT-6c" transform="translate(361.376953 0)"/>
    <use xlink:href="#ArialMT-75" transform="translate(383.59375 0)"/>
    <use xlink:href="#ArialMT-65" transform="translate(439.208984 0)"/>
    <use xlink:href="#ArialMT-73" transform="translate(494.824219 0)"/>
    <use xlink:href="#ArialMT-20" transform="translate(544.824219 0)"/>
    <use xlink:href="#ArialMT-6e" transform="translate(572.607422 0)"/>
    <use xlink:href="#ArialMT-65" transform="translate(628.222656 0)"/>
    <use xlink:href="#ArialMT-61" transform="translate(683.837891 0)"/>
    <use xlink:href="#ArialMT-72" transform="translate(739.453125 0)"/>
    <use xlink:href="#ArialMT-20" transform="translate(772.753906 0)"/>
    <use xlink:href="#ArialMT-51" transform="translate(800.537109 0)"/>
    <use xlink:href="#ArialMT-2d" transform="translate(878.320312 0)"/>
    <use xlink:href="#ArialMT-6d" transform="translate(911.621094 0)"/>
    <use xlink:href="#ArialMT-69" transform="translate(994.921875 0)"/>
    <use xlink:href="#ArialMT-6e" transform="translate(1017.138672 0)"/>
    <use xlink:href="#ArialMT-20" transform="translate(1072.753906 0)"/>
    <use xlink:href="#ArialMT-61" transform="translate(1100.537109 0)"/>
    <use xlink:href="#ArialMT-74" transform="translate(1156.152344 0)"/>
    <use xlink:href="#ArialMT-20" transform="translate(1183.935547 0)"/>
    <use xlink:href="#ArialMT-74" transform="translate(1211.71875 0)"/>
    <use xlink:href="#ArialMT-3d" transform="translate(1239.501953 0)"/>
    <use xlink:href="#ArialMT-32" transform="translate(1297.900391 0)"/>
    <use xlink:href="#ArialMT-31" transform="translate(1353.515625 0)"/>
    <use xlink:href="#ArialMT-2e" transform="translate(1409.130859 0)"/>
    <use xlink:href="#ArialMT-38" transform="translate(1436.914062 0)"/>
    <use xlink:href="#ArialMT-30" transform="translate(1492.529297 0)"/>
    <use xlink:href="#ArialMT-30" transform="translate(1548.144531 0)"/>
    <use xlink:href="#ArialMT-2c" transform="translate(1603.759766 0)"/>
    <use xlink:href="#ArialMT-20" transform="translate(1631.542969 0)"/>
    <use xlink:href="#ArialMT-67" transform="translate(1659.326172 0)"/>
    <use xlink:href="#ArialMT-68" transform="translate(1714.941406 0)"/>
    <use xlink:href="#ArialMT-6f" transform="translate(1770.556641 0)"/>
    <use xlink:href="#ArialMT-73" transform="translate(1826.171875 0)"/>
    <use xlink:href="#ArialMT-74" transform="translate(1876.171875 0)"/>
    <use xlink:href="#ArialMT-3a" transform="translate(1903.955078 0)"/>
    <use xlink:href="#ArialMT-20" transform="translate(1931.738281 0)"/>
    <use xlink:href="#ArialMT-46" transform="translate(1959.521484 0)"/>
    <use xlink:href="#ArialMT-61" transform="translate(2020.605469 0)"/>
    <use xlink:href="#ArialMT-6c" transform="translate(2076.220703 0)"/>
    <use xlink:href="#ArialMT-73" transform="translate(2098.4375 0)"/>
    <use xlink:href="#ArialMT-65" transform="translate(2148.4375 0)"/>
    <use xlink:href="#ArialMT-2c" transform="translate(2204.052734 0)"/>
    <use xlink:href="#ArialMT-20" transform="translate(2231.835938 0)"/>
    <use xlink:href="#ArialMT-6c" transform="translate(2259.619141 0)"/>
    <use xlink:href="#ArialMT-65" transform="translate(2281.835938 0)"/>
    <use xlink:href="#ArialMT-61" transform="translate(2337.451172 0)"/>
    <use xlink:href="#ArialMT-76" transform="translate(2393.066406 0)"/>
    <use xlink:href="#ArialMT-65" transform="translate(2443.066406 0)"/>
    <use xlink:href="#ArialMT-73" transform="translate(2498.681641 0)"/>
    <use xlink:href="#ArialMT-20" transform="translate(2548.681641 0)"/>
    <use xlink:href="#ArialMT-55" transform="translate(2576.464844 0)"/>
    <use xlink:href="#ArialMT-25b" transform="translate(2648.681641 0)"/>
    <use xlink:href="#ArialMT-3a" transform="translate(2694.53125 0)"/>
    <use xlink:href="#ArialMT-20" transform="translate(2722.314453 0)"/>
    <use xlink:href="#ArialMT-54" transform="translate(2748.347656 0)"/>
    <use xlink:href="#ArialMT-72" transform="translate(2805.681641 0)"/>
    <use xlink:href="#ArialMT-75" transform="translate(2838.982422 0)"/>
    <use xlink:href="#ArialMT-65" transform="translate(2894.597656 0)"/>
   </g>
   <!-- sign changes λi: [False, False], qualifying slopes: 0, R²: [] -->
   <g transform="translate(1.477196 11.38676) scale(0.055 -0.055)">
    <defs>
     <path id="ArialMT-3bb" d="M 1597 2481 
L 669 0 
L 75 0 
L 1306 3256 
L 813 4581 
L 1406 4581 
L 3119 0 
L 2525 0 
L 1597 2481 
z
" transform="scale(0.015625)"/>
     <path id="ArialMT-5b" d="M 434 -1272 
L 434 4581 
L 1675 4581 
L 1675 4116 
L 997 4116 
L 997 -806 
L 1675 -806 
L 1675 -1272 
L 434 -1272 
z
" transform="scale(0.015625)"/>
     <path id="ArialMT-5d" d="M 1363 -1272 
L 122 -1272 
L 122 -806 
L 800 -806 
L 800 4116 
L 122 4116 
L 122 4581 
L 1363 4581 
L 1363 -1272 
z
" transform="scale(0.015625)"/>
     <path id="ArialMT-71" d="M 2538 -1272 
L 2538 353 
Q 2406 169 2170 47 
Q 1934 -75 1669 -75 
Q 1078 -75 651 397 
Q 225 869 225 1691 
Q 225 2191 398 2587 
Q 572 2984 901 3189 
Q 1231 3394 1625 3394 
Q 2241 3394 2594 2875 
L 2594 3319 
L 3100 3319 
L 3100 -1272 
L 2538 -1272 
z
M 803 1669 
Q 803 1028 1072 708 
Q 1341 388 1716 388 
Q 2075 388 2334 692 
Q 2594 997 2594 1619 
Q 2594 2281 2320 2615 
Q 2047 2950 1678 2950 
Q 1313 2950 1058 2639 
Q 803 2328 803 1669 
z
" transform="scale(0.015625)"/>
     <path id="ArialMT-66" d="M 556 0 
L 556 2881 
L 59 2881 
L 59 3319 
L 556 3319 
L 556 3672 
Q 556 4006 616 4169 
Q 697 4388 901 4523 
Q 1106 4659 1475 4659 
Q 1713 4659 2000 4603 
L 1916 4113 
Q 1741 4144 1584 4144 
Q 1328 4144 1222 4034 
Q 1116 3925 1116 3625 
L 1116 3319 
L 1763 3319 
L 1763 2881 
L 1116 2881 
L 1116 0 
L 556 0 
z
" transform="scale(0.015625)"/>
     <path id="ArialMT-70" d="M 422 -1272 
L 422 3319 
L 934 3319 
L 934 2888 
Q 1116 3141 1344 3267 
Q 1572 3394 1897 3394 
Q 2322 3394 2647 3175 
Q 2972 2956 3137 2557 
Q 3303 2159 3303 1684 
Q 3303 1175 3120 767 
Q 2938 359 2589 142 
Q 2241 -75 1856 -75 
Q 1575 -75 1351 44 
Q 1128 163 984 344 
L 984 -1272 
L 422 -1272 
z
M 931 1641 
Q 931 1000 1190 694 
Q 1450 388 1819 388 
Q 2194 388 2461 705 
Q 2728 1022 2728 1688 
Q 2728 2322 2467 2637 
Q 2206 2953 1844 2953 
Q 1484 2953 1207 2617 
Q 931 2281 931 1641 
z
" transform="scale(0.015625)"/>
     <path id="ArialMT-52" d="M 503 0 
L 503 4581 
L 2534 4581 
Q 3147 4581 3465 4457 
Q 3784 4334 3975 4021 
Q 4166 3709 4166 3331 
Q 4166 2844 3850 2509 
Q 3534 2175 2875 2084 
Q 3116 1969 3241 1856 
Q 3506 1613 3744 1247 
L 4541 0 
L 3778 0 
L 3172 953 
Q 2906 1366 2734 1584 
Q 2563 1803 2427 1890 
Q 2291 1978 2150 2013 
Q 2047 2034 1813 2034 
L 1109 2034 
L 1109 0 
L 503 0 
z
M 1109 2559 
L 2413 2559 
Q 2828 2559 3062 2645 
Q 3297 2731 3419 2920 
Q 3541 3109 3541 3331 
Q 3541 3656 3305 3865 
Q 3069 4075 2559 4075 
L 1109 4075 
L 1109 2559 
z
" transform="scale(0.015625)"/>
     <path id="ArialMT-b2" d="M 78 2291 
Q 97 2469 225 2647 
Q 422 2916 872 3242 
Q 1322 3569 1406 3663 
Q 1522 3791 1522 3925 
Q 1522 4075 1412 4172 
Q 1303 4269 1091 4269 
Q 884 4269 782 4195 
Q 681 4122 616 3913 
L 144 3963 
Q 234 4309 457 4473 
Q 681 4638 1100 4638 
Q 1572 4638 1792 4453 
Q 2013 4269 2013 4003 
Q 2013 3741 1828 3506 
Q 1688 3331 1188 2972 
Q 928 2781 819 2669 
L 2025 2669 
L 2025 2291 
L 78 2291 
z
" transform="scale(0.015625)"/>
    </defs>
    <use xlink:href="#ArialMT-73"/>
    <use xlink:href="#ArialMT-69" transform="translate(50 0)"/>
    <use xlink:href="#ArialMT-67" transform="translate(72.216797 0)"/>
    <use xlink:href="#ArialMT-6e" transform="translate(127.832031 0)"/>
    <use xlink:href="#ArialMT-20" transform="translate(183.447266 0)"/>
    <use xlink:href="#ArialMT-63" transform="translate(211.230469 0)"/>
    <use xlink:href="#ArialMT-68" transform="translate(261.230469 0)"/>
    <use xlink:href="#ArialMT-61" transform="translate(316.845703 0)"/>
    <use xlink:href="#ArialMT-6e" transform="translate(372.460938 0)"/>
    <use xlink:href="#ArialMT-67" transform="translate(428.076172 0)"/>
    <use xlink:href="#ArialMT-65" transform="translate(483.691406 0)"/>
    <use xlink:href="#ArialMT-73" transform="translate(539.306641 0)"/>
    <use xlink:href="#ArialMT-20" transform="translate(589.306641 0)"/>
    <use xlink:href="#ArialMT-3bb" transform="translate(617.089844 0)"/>
    <use xlink:href="#ArialMT-69" transform="translate(667.089844 0)"/>
    <use xlink:href="#ArialMT-3a" transform="translate(689.306641 0)"/>
    <use xlink:href="#ArialMT-20" transform="translate(717.089844 0)"/>
    <use xlink:href="#ArialMT-5b" transform="translate(744.873047 0)"/>
    <use xlink:href="#ArialMT-46" transform="translate(772.65625 0)"/>
    <use xlink:href="#ArialMT-61" transform="translate(833.740234 0)"/>
    <use xlink:href="#ArialMT-6c" transform="translate(889.355469 0)"/>
    <use xlink:href="#ArialMT-73" transform="translate(911.572266 0)"/>
    <use xlink:href="#ArialMT-65" transform="translate(961.572266 0)"/>
    <use xlink:href="#ArialMT-2c" transform="translate(1017.1875 0)"/>
    <use xlink:href="#ArialMT-20" transform="translate(1044.970703 0)"/>
    <use xlink:href="#ArialMT-46" transform="translate(1072.753906 0)"/>
    <use xlink:href="#ArialMT-61" transform="translate(1133.837891 0)"/>
    <use xlink:href="#ArialMT-6c" transform="translate(1189.453125 0)"/>
    <use xlink:href="#ArialMT-73" transform="translate(1211.669922 0)"/>
    <use xlink:href="#ArialMT-65" transform="translate(1261.669922 0)"/>
    <use xlink:href="#ArialMT-5d" transform="translate(1317.285156 0)"/>
    <use xlink:href="#ArialMT-2c" transform="translate(1345.068359 0)"/>
    <use xlink:href="#ArialMT-20" transform="translate(1372.851562 0)"/>
    <use xlink:href="#ArialMT-71" transform="translate(1400.634766 0)"/>
    <use xlink:href="#ArialMT-75" transform="translate(1456.25 0)"/>
    <use xlink:href="#ArialMT-61" transform="translate(1511.865234 0)"/>
    <use xlink:href="#ArialMT-6c" transform="translate(1567.480469 0)"/>
    <use xlink:href="#ArialMT-69" transform="translate(1589.697266 0)"/>
    <use xlink:href="#ArialMT-66" transform="translate(1611.914062 0)"/>
    <use xlink:href="#ArialMT-79" transform="translate(1639.697266 0)"/>
    <use xlink:href="#ArialMT-69" transform="translate(1689.697266 0)"/>
    <use xlink:href="#ArialMT-6e" transform="translate(1711.914062 0)"/>
    <use xlink:href="#ArialMT-67" transform="translate(1767.529297 0)"/>
    <use xlink:href="#ArialMT-20" transform="translate(1823.144531 0)"/>
    <use xlink:href="#ArialMT-73" transform="translate(1850.927734 0)"/>
    <use xlink:href="#ArialMT-6c" transform="translate(1900.927734 0)"/>
    <use xlink:href="#ArialMT-6f" transform="translate(1923.144531 0)"/>
    <use xlink:href="#ArialMT-70" transform="translate(1978.759766 0)"/>
    <use xlink:href="#ArialMT-65" transform="translate(2034.375 0)"/>
    <use xlink:href="#ArialMT-73" transform="translate(2089.990234 0)"/>
    <use xlink:href="#ArialMT-3a" transform="translate(2139.990234 0)"/>
    <use xlink:href="#ArialMT-20" transform="translate(2167.773438 0)"/>
    <use xlink:href="#ArialMT-30" transform="translate(2195.556641 0)"/>
    <use xlink:href="#ArialMT-2c" transform="translate(2251.171875 0)"/>
    <use xlink:href="#ArialMT-20" transform="translate(2278.955078 0)"/>
    <use xlink:href="#ArialMT-52" transform="translate(2306.738281 0)"/>
    <use xlink:href="#ArialMT-b2" transform="translate(2378.955078 0)"/>
    <use xlink:href="#ArialMT-3a" transform="translate(2412.255859 0)"/>
    <use xlink:href="#ArialMT-20" transform="translate(2440.039062 0)"/>
    <use xlink:href="#ArialMT-5b" transform="translate(2467.822266 0)"/>
    <use xlink:href="#ArialMT-5d" transform="translate(2495.605469 0)"/>
   </g>
  </g>
 </g>
 <defs>
  <clipPath id="p41aae5fd96">
   <rect x="38.035294" y="12.153309" width="93.5298" height="19.994652"/>
  </clipPath>
  <clipPath id="p04349c4463">
   <rect x="38.035294" y="36.353843" width="93.5298" height="19.994652"/>
  </clipPath>
 </defs>
</svg>
