<?xml version="1.0" encoding="utf-8" standalone="no"?>
<!DOCTYPE svg PUBLIC "-//W3C//DTD SVG 1.1//EN"
  "http://www.w3.org/Graphics/SVG/1.1/DTD/svg11.dtd">
<svg xmlns:xlink="http://www.w3.org/1999/xlink" width="141.732283pt" height="127.559055pt" viewBox="0 0 141.732283 127.559055" xmlns="http://www.w3.org/2000/svg" version="1.1">
 <metadata>
  <rdf:RDF xmlns:dc="http://purl.org/dc/elements/1.1/" xmlns:cc="http://creativecommons.org/ns#" xmlns:rdf="http://www.w3.org/1999/02/22-rdf-syntax-ns#">
   <cc:Work>
    <dc:type rdf:resource="http://purl.org/dc/dcmitype/StillImage"/>
    <dc:date>2026-01-15T14:21:36.844389</dc:date>
    <dc:format>image/svg+xml</dc:format>
    <dc:creator>
     <cc:Agent>
      <dc:title>Matplotlib v3.10.7, https://matplotlib.org/</dc:title>
     </cc:Agent>
    </dc:creator>
   </cc:Work>
  </rdf:RDF>
 </metadata>
 <defs>
  <style type="text/css">*{stroke-linejoin: round; stroke-linecap: butt}</style>
 </defs>
 <g id="figure_1">
  <g id="patch_1">
   <path d="M 0 127.559055 
L 141.732283 127.559055 
L 141.732283 0 
L 0 0 
z
" style="fill: #ffffff"/>
  </g>
  <g id="patch_2">
   <path d="M 23.527559 113.527559 
L 121.748031 113.527559 
L 121.748031 15.307087 
L 23.527559 15.307087 
z
" style="fill: #ffffff"/>
  </g>
  <g id="pane3d_1">
   <g id="patch_3">
    <path d="M 30.494267 89.388443 
L 63.36385 71.523142 
L 63.088827 29.351627 
L 29.251994 43.444627 
" style="fill: none; opacity: 0.5; stroke: #ffffff; stroke-linejoin: miter"/>
   </g>
  </g>
  <g id="pane3d_2">
   <g id="patch_4">
    <path d="M 63.36385 71.523142 
L 115.694529 81.424487 
L 116.837959 37.153349 
L 63.088827 29.351627 
" style="fill: none; opacity: 0.5; stroke: #ffffff; stroke-linejoin: miter"/>
   </g>
  </g>
  <g id="pane3d_3">
   <g id="patch_5">
    <path d="M 30.494267 89.388443 
L 86.317209 101.406488 
L 115.694529 81.424487 
L 63.36385 71.523142 
" style="fill: none; opacity: 0.5; stroke: #ffffff; stroke-linejoin: miter"/>
   </g>
  </g>
  <g id="axis3d_1">
   <g id="line2d_1">
    <path d="M 30.494267 89.388443 
L 86.317209 101.406488 
" style="fill: none; stroke: #000000; stroke-width: 0.8; stroke-linecap: square"/>
   </g>
   <g id="xtick_1">
    <g id="line2d_2">
     <path d="M 34.799898 90.095382 
L 33.938246 90.570971 
" style="fill: none; stroke: #000000; stroke-width: 0.8; stroke-linecap: square"/>
    </g>
    <g id="text_1">
     <!-- 0 -->
     <g transform="translate(24.622615 110.03136) scale(0.07 -0.07)">
      <defs>
       <path id="ArialMT-30" d="M 266 2259 
Q 266 3072 433 3567 
Q 600 4063 929 4331 
Q 1259 4600 1759 4600 
Q 2128 4600 2406 4451 
Q 2684 4303 2865 4023 
Q 3047 3744 3150 3342 
Q 3253 2941 3253 2259 
Q 3253 1453 3087 958 
Q 2922 463 2592 192 
Q 2263 -78 1759 -78 
Q 1097 -78 719 397 
Q 266 969 266 2259 
z
M 844 2259 
Q 844 1131 1108 757 
Q 1372 384 1759 384 
Q 2147 384 2411 759 
Q 2675 1134 2675 2259 
Q 2675 3391 2411 3762 
Q 2147 4134 1753 4134 
Q 1366 4134 1134 3806 
Q 844 3388 844 2259 
z
" transform="scale(0.015625)"/>
      </defs>
      <use xlink:href="#ArialMT-30"/>
     </g>
    </g>
   </g>
   <g id="xtick_2">
    <g id="line2d_3">
     <path d="M 50.06016 93.377124 
L 49.221277 93.868507 
" style="fill: none; stroke: #000000; stroke-width: 0.8; stroke-linecap: square"/>
    </g>
    <g id="text_2">
     <!-- 1 -->
     <g transform="translate(40.010246 113.619887) scale(0.07 -0.07)">
      <defs>
       <path id="ArialMT-31" d="M 2384 0 
L 1822 0 
L 1822 3584 
Q 1619 3391 1289 3197 
Q 959 3003 697 2906 
L 697 3450 
Q 1169 3672 1522 3987 
Q 1875 4303 2022 4600 
L 2384 4600 
L 2384 0 
z
" transform="scale(0.015625)"/>
      </defs>
      <use xlink:href="#ArialMT-31"/>
     </g>
    </g>
   </g>
   <g id="xtick_3">
    <g id="line2d_4">
     <path d="M 65.830844 96.768633 
L 65.016752 97.27661 
" style="fill: none; stroke: #000000; stroke-width: 0.8; stroke-linecap: square"/>
    </g>
    <g id="text_3">
     <!-- 2 -->
     <g transform="translate(55.921653 117.330563) scale(0.07 -0.07)">
      <defs>
       <path id="ArialMT-32" d="M 3222 541 
L 3222 0 
L 194 0 
Q 188 203 259 391 
Q 375 700 629 1000 
Q 884 1300 1366 1694 
Q 2113 2306 2375 2664 
Q 2638 3022 2638 3341 
Q 2638 3675 2398 3904 
Q 2159 4134 1775 4134 
Q 1369 4134 1125 3890 
Q 881 3647 878 3216 
L 300 3275 
Q 359 3922 746 4261 
Q 1134 4600 1788 4600 
Q 2447 4600 2831 4234 
Q 3216 3869 3216 3328 
Q 3216 3053 3103 2787 
Q 2991 2522 2730 2228 
Q 2469 1934 1863 1422 
Q 1356 997 1212 845 
Q 1069 694 975 541 
L 3222 541 
z
" transform="scale(0.015625)"/>
      </defs>
      <use xlink:href="#ArialMT-32"/>
     </g>
    </g>
   </g>
   <g id="xtick_4">
    <g id="line2d_5">
     <path d="M 82.137996 100.27551 
L 81.350883 100.800936 
" style="fill: none; stroke: #000000; stroke-width: 0.8; stroke-linecap: square"/>
    </g>
    <g id="text_4">
     <!-- 3 -->
     <g transform="translate(72.384043 121.169732) scale(0.07 -0.07)">
      <defs>
       <path id="ArialMT-33" d="M 269 1209 
L 831 1284 
Q 928 806 1161 595 
Q 1394 384 1728 384 
Q 2125 384 2398 659 
Q 2672 934 2672 1341 
Q 2672 1728 2419 1979 
Q 2166 2231 1775 2231 
Q 1616 2231 1378 2169 
L 1441 2663 
Q 1497 2656 1531 2656 
Q 1891 2656 2178 2843 
Q 2466 3031 2466 3422 
Q 2466 3731 2256 3934 
Q 2047 4138 1716 4138 
Q 1388 4138 1169 3931 
Q 950 3725 888 3313 
L 325 3413 
Q 428 3978 793 4289 
Q 1159 4600 1703 4600 
Q 2078 4600 2393 4439 
Q 2709 4278 2876 4000 
Q 3044 3722 3044 3409 
Q 3044 3113 2884 2869 
Q 2725 2625 2413 2481 
Q 2819 2388 3044 2092 
Q 3269 1797 3269 1353 
Q 3269 753 2831 336 
Q 2394 -81 1725 -81 
Q 1122 -81 723 278 
Q 325 638 269 1209 
z
" transform="scale(0.015625)"/>
      </defs>
      <use xlink:href="#ArialMT-33"/>
     </g>
    </g>
   </g>
   <g id="text_5">
    <!-- GMT -->
    <g transform="translate(21.291197 147.220275) scale(0.1 -0.1)">
     <defs>
      <path id="ArialMT-47" d="M 2638 1797 
L 2638 2334 
L 4578 2338 
L 4578 638 
Q 4131 281 3656 101 
Q 3181 -78 2681 -78 
Q 2006 -78 1454 211 
Q 903 500 622 1047 
Q 341 1594 341 2269 
Q 341 2938 620 3517 
Q 900 4097 1425 4378 
Q 1950 4659 2634 4659 
Q 3131 4659 3532 4498 
Q 3934 4338 4162 4050 
Q 4391 3763 4509 3300 
L 3963 3150 
Q 3859 3500 3706 3700 
Q 3553 3900 3268 4020 
Q 2984 4141 2638 4141 
Q 2222 4141 1919 4014 
Q 1616 3888 1430 3681 
Q 1244 3475 1141 3228 
Q 966 2803 966 2306 
Q 966 1694 1177 1281 
Q 1388 869 1791 669 
Q 2194 469 2647 469 
Q 3041 469 3416 620 
Q 3791 772 3984 944 
L 3984 1797 
L 2638 1797 
z
" transform="scale(0.015625)"/>
      <path id="ArialMT-4d" d="M 475 0 
L 475 4581 
L 1388 4581 
L 2472 1338 
Q 2622 884 2691 659 
Q 2769 909 2934 1394 
L 4031 4581 
L 4847 4581 
L 4847 0 
L 4263 0 
L 4263 3834 
L 2931 0 
L 2384 0 
L 1059 3900 
L 1059 0 
L 475 0 
z
" transform="scale(0.015625)"/>
      <path id="ArialMT-54" d="M 1659 0 
L 1659 4041 
L 150 4041 
L 150 4581 
L 3781 4581 
L 3781 4041 
L 2266 4041 
L 2266 0 
L 1659 0 
z
" transform="scale(0.015625)"/>
     </defs>
     <use xlink:href="#ArialMT-47"/>
     <use xlink:href="#ArialMT-4d" transform="translate(77.783203 0)"/>
     <use xlink:href="#ArialMT-54" transform="translate(161.083984 0)"/>
    </g>
   </g>
  </g>
  <g id="axis3d_2">
   <g id="line2d_6">
    <path d="M 115.694529 81.424487 
L 86.317209 101.406488 
" style="fill: none; stroke: #000000; stroke-width: 0.8; stroke-linecap: square"/>
   </g>
   <g id="xtick_5">
    <g id="line2d_7">
     <path d="M 87.897543 99.910501 
L 89.312516 100.212479 
" style="fill: none; stroke: #000000; stroke-width: 0.8; stroke-linecap: square"/>
    </g>
    <g id="text_6">
     <!-- −1 -->
     <g transform="translate(97.622321 118.449508) scale(0.07 -0.07)">
      <defs>
       <path id="ArialMT-2212" d="M 3381 1997 
L 356 1997 
L 356 2522 
L 3381 2522 
L 3381 1997 
z
" transform="scale(0.015625)"/>
      </defs>
      <use xlink:href="#ArialMT-2212"/>
      <use xlink:href="#ArialMT-31" transform="translate(58.398438 0)"/>
     </g>
    </g>
   </g>
   <g id="xtick_6">
    <g id="line2d_8">
     <path d="M 99.702612 91.896994 
L 101.079719 92.176279 
" style="fill: none; stroke: #000000; stroke-width: 0.8; stroke-linecap: square"/>
    </g>
    <g id="text_7">
     <!-- 0 -->
     <g transform="translate(111.027375 109.856974) scale(0.07 -0.07)">
      <use xlink:href="#ArialMT-30"/>
     </g>
    </g>
   </g>
   <g id="xtick_7">
    <g id="line2d_9">
     <path d="M 110.637159 84.474414 
L 111.978033 84.733471 
" style="fill: none; stroke: #000000; stroke-width: 0.8; stroke-linecap: square"/>
    </g>
    <g id="text_8">
     <!-- 1 -->
     <g transform="translate(121.544667 101.902436) scale(0.07 -0.07)">
      <use xlink:href="#ArialMT-31"/>
     </g>
    </g>
   </g>
   <g id="text_9">
    <!-- x$_1$ -->
    <g transform="translate(139.599271 136.424669) rotate(-34.222934) scale(0.1 -0.1)">
     <defs>
      <path id="ArialMT-78" d="M 47 0 
L 1259 1725 
L 138 3319 
L 841 3319 
L 1350 2541 
Q 1494 2319 1581 2169 
Q 1719 2375 1834 2534 
L 2394 3319 
L 3066 3319 
L 1919 1756 
L 3153 0 
L 2463 0 
L 1781 1031 
L 1600 1309 
L 728 0 
L 47 0 
z
" transform="scale(0.015625)"/>
      <path id="DejaVuSans-31" d="M 794 531 
L 1825 531 
L 1825 4091 
L 703 3866 
L 703 4441 
L 1819 4666 
L 2450 4666 
L 2450 531 
L 3481 531 
L 3481 0 
L 794 0 
L 794 531 
z
" transform="scale(0.015625)"/>
     </defs>
     <use xlink:href="#ArialMT-78" transform="translate(0 0.140625)"/>
     <use xlink:href="#DejaVuSans-31" transform="translate(50.957031 -16.265625) scale(0.7)"/>
    </g>
   </g>
  </g>
  <g id="axis3d_3">
   <g id="line2d_10">
    <path d="M 115.694529 81.424487 
L 116.837959 37.153349 
" style="fill: none; stroke: #000000; stroke-width: 0.8; stroke-linecap: square"/>
   </g>
   <g id="xtick_8">
    <g id="line2d_11">
     <path d="M 115.275193 80.479043 
L 116.601174 80.72879 
" style="fill: none; stroke: #000000; stroke-width: 0.8; stroke-linecap: square"/>
    </g>
    <g id="text_10">
     <!-- −1 -->
     <g transform="translate(129.957398 83.876243) scale(0.07 -0.07)">
      <use xlink:href="#ArialMT-2212"/>
      <use xlink:href="#ArialMT-31" transform="translate(58.398438 0)"/>
     </g>
    </g>
   </g>
   <g id="xtick_9">
    <g id="line2d_12">
     <path d="M 115.747182 62.008335 
L 117.088961 62.236368 
" style="fill: none; stroke: #000000; stroke-width: 0.8; stroke-linecap: square"/>
    </g>
    <g id="text_11">
     <!-- 0 -->
     <g transform="translate(132.681063 65.545956) scale(0.07 -0.07)">
      <use xlink:href="#ArialMT-30"/>
     </g>
    </g>
   </g>
   <g id="xtick_10">
    <g id="line2d_13">
     <path d="M 116.230082 43.110674 
L 117.588039 43.315917 
" style="fill: none; stroke: #000000; stroke-width: 0.8; stroke-linecap: square"/>
    </g>
    <g id="text_12">
     <!-- 1 -->
     <g transform="translate(133.376079 46.795645) scale(0.07 -0.07)">
      <use xlink:href="#ArialMT-31"/>
     </g>
    </g>
   </g>
   <g id="text_13">
    <!-- x$_2$ -->
    <g transform="translate(175.412388 59.908593) rotate(-88.5205) scale(0.1 -0.1)">
     <defs>
      <path id="DejaVuSans-32" d="M 1228 531 
L 3431 531 
L 3431 0 
L 469 0 
L 469 531 
Q 828 903 1448 1529 
Q 2069 2156 2228 2338 
Q 2531 2678 2651 2914 
Q 2772 3150 2772 3378 
Q 2772 3750 2511 3984 
Q 2250 4219 1831 4219 
Q 1534 4219 1204 4116 
Q 875 4013 500 3803 
L 500 4441 
Q 881 4594 1212 4672 
Q 1544 4750 1819 4750 
Q 2544 4750 2975 4387 
Q 3406 4025 3406 3419 
Q 3406 3131 3298 2873 
Q 3191 2616 2906 2266 
Q 2828 2175 2409 1742 
Q 1991 1309 1228 531 
z
" transform="scale(0.015625)"/>
     </defs>
     <use xlink:href="#ArialMT-78" transform="translate(0 0.140625)"/>
     <use xlink:href="#DejaVuSans-32" transform="translate(50.957031 -16.265625) scale(0.7)"/>
    </g>
   </g>
  </g>
  <g id="axes_1">
   <g id="line2d_14">
    <path d="M 36.761056 88.109213 
L 36.793895 88.109057 
L 36.826722 88.108908 
L 36.892406 88.108595 
L 37.023823 88.107868 
L 37.286811 88.106234 
L 37.813463 88.102009 
L 38.638182 88.0928 
L 39.465196 88.080279 
L 40.29452 88.064268 
L 41.12625 88.044558 
L 41.960423 88.020919 
L 42.797116 87.993153 
L 43.636391 87.960968 
L 44.47832 87.924117 
L 45.323012 87.882236 
L 46.170548 87.835013 
L 47.021017 87.782032 
L 47.874572 87.722875 
L 48.731302 87.657027 
L 49.591364 87.583964 
L 50.454901 87.503025 
L 51.322101 87.413476 
L 52.193141 87.314486 
L 53.068277 87.20505 
L 53.947737 87.084022 
L 54.831828 86.950047 
L 55.720848 86.801434 
L 56.615119 86.636162 
L 57.515315 86.451794 
L 58.421749 86.245129 
L 59.335013 86.012183 
L 60.255892 85.747776 
L 61.184917 85.444974 
L 62.122493 85.094624 
L 63.066827 84.685396 
L 64.004883 84.209757 
L 64.837915 83.719957 
L 64.866323 83.701884 
" clip-path="url(#p655d0149a5)" style="fill: none; stroke: #ff0000; stroke-width: 1.5; stroke-linecap: square"/>
   </g>
   <g id="line2d_15">
    <path d="M 65.243575 83.429444 
L 65.24225 83.334517 
L 65.060059 83.294331 
L 64.778719 83.267311 
L 64.434507 83.240129 
L 64.046576 83.208285 
L 63.62678 83.170359 
L 63.182536 83.126102 
L 62.719301 83.075724 
L 62.240824 83.019629 
L 61.749955 82.958224 
L 61.248824 82.891911 
L 60.73905 82.821062 
L 60.222207 82.746051 
L 59.69935 82.667198 
L 59.171415 82.584783 
L 58.639201 82.499059 
L 58.103362 82.410211 
L 57.564508 82.318495 
L 57.023104 82.224042 
L 56.479631 82.127043 
L 55.934444 82.027609 
L 55.387927 81.925865 
L 54.840372 81.821957 
L 54.292081 81.715948 
L 53.743316 81.607935 
L 53.194322 81.498005 
L 52.645329 81.386215 
L 52.096543 81.272612 
L 51.548184 81.15728 
L 51.000444 81.040253 
L 50.453495 80.921576 
L 49.907538 80.80125 
L 49.362753 80.679326 
" clip-path="url(#p655d0149a5)" style="fill: none; stroke-dasharray: 5.55,2.4; stroke-dashoffset: 0; stroke: #000000; stroke-width: 1.5"/>
   </g>
   <g id="line2d_16">
    <path d="M 61.999327 73.969013 
L 62.030371 73.968373 
L 62.061416 73.967734 
L 62.123628 73.966373 
L 62.247951 73.963662 
L 62.496667 73.958078 
L 62.993897 73.946487 
L 63.77036 73.927111 
L 64.546372 73.90599 
L 65.322049 73.882947 
L 66.097356 73.857811 
L 66.872378 73.830325 
L 67.647095 73.80032 
L 68.421343 73.767612 
L 69.195465 73.731802 
L 69.969154 73.69273 
L 70.742504 73.65005 
L 71.515554 73.603334 
L 72.288141 73.552251 
L 73.060288 73.496315 
L 73.831919 73.434996 
L 74.60304 73.367623 
L 75.373245 73.29363 
L 76.142742 73.211972 
L 76.910967 73.121813 
L 77.677951 73.021746 
L 78.442929 72.910385 
L 79.205918 72.785625 
L 79.965856 72.645009 
L 80.721619 72.485214 
L 81.47187 72.301484 
L 82.214015 72.087066 
L 82.943352 71.831741 
L 83.651708 71.518365 
L 84.319775 71.115846 
L 84.893775 70.561549 
L 85.194998 69.757275 
" clip-path="url(#p655d0149a5)" style="fill: none; stroke: #ff0000; stroke-width: 1.5; stroke-linecap: square"/>
   </g>
   <g id="line2d_17">
    <path d="M 85.197293 69.690078 
L 84.955733 68.791875 
L 84.433159 68.040824 
L 83.807591 67.402621 
L 83.135144 66.836205 
L 82.43685 66.3184 
L 81.722294 65.835898 
L 80.996964 65.380263 
L 80.263735 64.945914 
L 79.524563 64.52887 
L 78.780943 64.12623 
L 78.033684 63.735903 
L 77.283483 63.356039 
L 76.53084 62.985363 
L 75.776253 62.622693 
L 75.020032 62.267132 
L 74.262276 61.917955 
L 73.503229 61.574526 
L 72.74313 61.236218 
L 71.982158 60.902551 
L 71.220174 60.573183 
L 70.457512 60.247627 
L 69.694059 59.925691 
L 68.929987 59.606959 
L 68.165252 59.291244 
L 67.400026 58.978221 
L 66.634278 58.667707 
L 65.867899 58.359549 
L 65.101076 58.053468 
L 64.333625 57.749398 
L 63.565805 57.44703 
L 62.79742 57.146306 
L 62.028515 56.847057 
L 61.25912 56.549114 
" clip-path="url(#p655d0149a5)" style="fill: none; stroke-dasharray: 5.55,2.4; stroke-dashoffset: 0; stroke: #000000; stroke-width: 1.5"/>
   </g>
   <g id="line2d_18">
    <path d="M 36.079433 49.290264 
L 36.113159 49.289222 
L 36.146896 49.287976 
L 36.214375 49.285482 
L 36.349396 49.280675 
L 36.619671 49.271186 
L 37.161106 49.252528 
L 38.009562 49.22396 
L 38.861066 49.196368 
L 39.715713 49.169697 
L 40.573568 49.143465 
L 41.434712 49.117811 
L 42.299302 49.09244 
L 43.167423 49.067459 
L 44.039187 49.042161 
L 44.914795 49.016829 
L 45.794402 48.991314 
L 46.678225 48.965059 
L 47.56648 48.938074 
L 48.459416 48.910145 
L 49.357353 48.880811 
L 50.260628 48.849773 
L 51.169664 48.816868 
L 52.084948 48.781432 
L 53.007071 48.742908 
L 53.936741 48.7008 
L 54.874771 48.653976 
L 55.822329 48.601413 
L 56.780701 48.541436 
L 57.75158 48.471989 
L 58.736943 48.38955 
L 59.739002 48.288642 
L 60.75817 48.159936 
L 61.783755 47.985102 
L 62.730947 47.731816 
L 62.966959 47.633671 
" clip-path="url(#p655d0149a5)" style="fill: none; stroke: #ff0000; stroke-width: 1.5; stroke-linecap: square"/>
   </g>
   <g id="line2d_19">
    <path d="M 63.350343 47.323207 
L 63.334075 47.057294 
L 63.123632 46.829013 
L 62.809908 46.625828 
L 62.433148 46.440346 
L 62.014141 46.267783 
L 61.564907 46.105266 
L 61.093201 45.951224 
L 60.603981 45.803909 
L 60.101123 45.662692 
L 59.587183 45.526489 
L 59.064224 45.394989 
L 58.533867 45.267762 
L 57.99737 45.144079 
L 57.455813 45.024031 
L 56.910027 44.907188 
L 56.360743 44.793529 
L 55.808571 44.682681 
L 55.254075 44.574475 
L 54.697656 44.468776 
L 54.139763 44.365655 
L 53.58077 44.265183 
L 53.020977 44.166868 
L 52.460698 44.07082 
L 51.900201 43.976942 
L 51.339731 43.885541 
L 50.779514 43.796152 
L 50.219791 43.708898 
L 49.660751 43.623708 
L 49.102609 43.540709 
L 48.545559 43.460028 
" clip-path="url(#p655d0149a5)" style="fill: none; stroke-dasharray: 5.55,2.4; stroke-dashoffset: 0; stroke: #000000; stroke-width: 1.5"/>
   </g>
   <g id="line2d_20">
    <path d="M 61.90799 37.637154 
L 61.939769 37.63601 
L 61.971429 37.63492 
L 62.034876 37.632686 
L 62.161677 37.628456 
L 62.415257 37.620236 
L 62.922578 37.604095 
L 63.715246 37.580859 
L 64.508127 37.559791 
L 65.301203 37.540518 
L 66.094454 37.523411 
L 66.887884 37.508101 
L 67.681589 37.494536 
L 68.475694 37.48285 
L 69.269967 37.472781 
L 70.06474 37.464355 
L 70.859781 37.457494 
L 71.655301 37.45209 
L 72.451205 37.448202 
L 73.247598 37.445776 
L 74.044486 37.444629 
L 74.841845 37.444946 
L 75.639694 37.446545 
L 76.438024 37.449425 
L 77.23694 37.453534 
L 78.036387 37.458864 
L 78.836536 37.465257 
L 79.637184 37.47294 
L 80.438417 37.481788 
L 81.24039 37.491637 
L 82.042877 37.502596 
L 82.846114 37.514561 
L 83.650104 37.527533 
L 84.454699 37.541492 
L 85.259792 37.556304 
L 86.065915 37.572287 
L 86.872657 37.589074 
L 87.679908 37.60672 
L 88.488205 37.625355 
L 89.297092 37.644722 
L 90.10692 37.665135 
L 90.917387 37.68636 
L 91.728609 37.708346 
L 92.540744 37.731116 
L 93.35353 37.754705 
L 94.167238 37.779082 
L 94.981716 37.804225 
L 95.797123 37.83016 
L 96.613421 37.856621 
L 97.430386 37.884098 
L 98.248296 37.912181 
L 99.066997 37.940848 
L 99.886756 37.97026 
L 100.707312 38.00045 
L 101.528827 38.031252 
L 102.351098 38.062756 
L 103.174494 38.094899 
L 103.998655 38.127556 
L 104.823788 38.161022 
L 105.649854 38.194836 
L 106.47685 38.229384 
L 107.304829 38.264746 
L 108.133753 38.300459 
L 108.963509 38.336966 
L 109.794376 38.37385 
L 110.626297 38.41142 
L 111.459065 38.449594 
" clip-path="url(#p655d0149a5)" style="fill: none; stroke: #ff0000; stroke-width: 1.5; stroke-linecap: square"/>
   </g>
   <g id="line2d_21">
    <path d="M 49.378767 62.784383 
L 49.400741 62.800908 
L 49.422717 62.817435 
L 49.466672 62.850495 
L 49.554602 62.916634 
L 49.730527 63.049007 
L 50.082628 63.314135 
L 50.633365 63.729529 
L 51.184622 64.146466 
L 51.73625 64.565155 
L 52.288055 64.985802 
L 52.839815 65.40862 
L 53.39133 65.833841 
L 53.942379 66.261701 
L 54.492734 66.692433 
L 55.042099 67.126337 
L 55.590225 67.563674 
L 56.136788 68.004778 
L 56.681438 68.44996 
L 57.223788 68.899593 
L 57.763433 69.354105 
L 58.299842 69.81392 
L 58.832491 70.279533 
L 59.360723 70.751472 
L 59.883764 71.230408 
L 60.400736 71.717004 
L 60.910545 72.212077 
L 61.41184 72.716551 
L 61.903151 73.231503 
L 62.382373 73.758183 
L 62.846776 74.298033 
L 63.292885 74.852802 
L 63.716039 75.424503 
L 64.109248 76.015473 
L 64.461897 76.628171 
L 64.75639 77.264486 
L 64.959285 77.9229 
L 64.993241 78.583756 
L 64.6481 79.119346 
" clip-path="url(#p655d0149a5)" style="fill: none; stroke-dasharray: 1.5,2.475; stroke-dashoffset: 0; stroke: #000000; stroke-width: 1.5"/>
   </g>
   <g id="line2d_22">
    <path d="M 64.629766 79.1291 
L 63.798411 79.205793 
L 62.865505 78.998079 
L 61.931806 78.701851 
L 61.00652 78.374406 
L 60.08959 78.034874 
L 59.180338 77.691001 
L 58.277723 77.346183 
L 57.381031 77.00206 
L 56.489975 76.659439 
L 55.603768 76.318614 
L 54.722102 75.979705 
L 53.844581 75.642702 
L 52.97107 75.307546 
L 52.101265 74.974152 
L 51.234951 74.642374 
L 50.371945 74.312097 
L 49.512099 73.983155 
L 48.655246 73.655426 
L 47.801299 73.328793 
L 46.950149 73.003113 
L 46.101666 72.67827 
L 45.255784 72.354149 
L 44.412416 72.030611 
L 43.571512 71.707553 
L 42.732978 71.384857 
L 41.896772 71.062421 
L 41.062846 70.740121 
L 40.23117 70.417856 
L 39.401647 70.09552 
L 38.57431 69.77299 
L 37.749084 69.450161 
L 36.925946 69.126917 
L 36.104883 68.803135 
" clip-path="url(#p655d0149a5)" style="fill: none; stroke-dasharray: 5.55,2.4; stroke-dashoffset: 0; stroke: #000000; stroke-width: 1.5"/>
   </g>
   <g id="line2d_23">
    <path d="M 87.49616 70.019833 
L 87.018003 69.958645 
L 86.538998 69.966523 
L 86.062665 69.757633 
" clip-path="url(#p655d0149a5)" style="fill: none; stroke: #ffffff; stroke-opacity: 0.4; stroke-width: 1.5; stroke-linecap: square"/>
    <defs>
     <path id="m44f5b28946" d="M 0 1 
C 0.265203 1 0.51958 0.894634 0.707107 0.707107 
C 0.894634 0.51958 1 0.265203 1 0 
C 1 -0.265203 0.894634 -0.51958 0.707107 -0.707107 
C 0.51958 -0.894634 0.265203 -1 0 -1 
C -0.265203 -1 -0.51958 -0.894634 -0.707107 -0.707107 
C -0.894634 -0.51958 -1 -0.265203 -1 0 
C -1 0.265203 -0.894634 0.51958 -0.707107 0.707107 
C -0.51958 0.894634 -0.265203 1 0 1 
z
" style="stroke: #bf00bf; stroke-opacity: 0.4"/>
    </defs>
    <g clip-path="url(#p655d0149a5)">
     <use xlink:href="#m44f5b28946" x="87.49616" y="70.019833" style="fill: #ffffff; fill-opacity: 0.4; stroke: #bf00bf; stroke-opacity: 0.4"/>
     <use xlink:href="#m44f5b28946" x="87.018003" y="69.958645" style="fill: #ffffff; fill-opacity: 0.4; stroke: #bf00bf; stroke-opacity: 0.4"/>
     <use xlink:href="#m44f5b28946" x="86.538998" y="69.966523" style="fill: #ffffff; fill-opacity: 0.4; stroke: #bf00bf; stroke-opacity: 0.4"/>
     <use xlink:href="#m44f5b28946" x="86.062665" y="69.757633" style="fill: #ffffff; fill-opacity: 0.4; stroke: #bf00bf; stroke-opacity: 0.4"/>
    </g>
   </g>
   <g id="line2d_24">
    <path d="M 66.717339 47.999518 
L 66.238169 47.941091 
L 65.752817 47.888312 
L 65.277957 47.832896 
L 64.795578 47.784721 
L 64.317528 47.738412 
" clip-path="url(#p655d0149a5)" style="fill: none; stroke: #ffffff; stroke-opacity: 0.4; stroke-width: 1.5; stroke-linecap: square"/>
    <g clip-path="url(#p655d0149a5)">
     <use xlink:href="#m44f5b28946" x="66.717339" y="47.999518" style="fill: #ffffff; fill-opacity: 0.4; stroke: #bf00bf; stroke-opacity: 0.4"/>
     <use xlink:href="#m44f5b28946" x="66.238169" y="47.941091" style="fill: #ffffff; fill-opacity: 0.4; stroke: #bf00bf; stroke-opacity: 0.4"/>
     <use xlink:href="#m44f5b28946" x="65.752817" y="47.888312" style="fill: #ffffff; fill-opacity: 0.4; stroke: #bf00bf; stroke-opacity: 0.4"/>
     <use xlink:href="#m44f5b28946" x="65.277957" y="47.832896" style="fill: #ffffff; fill-opacity: 0.4; stroke: #bf00bf; stroke-opacity: 0.4"/>
     <use xlink:href="#m44f5b28946" x="64.795578" y="47.784721" style="fill: #ffffff; fill-opacity: 0.4; stroke: #bf00bf; stroke-opacity: 0.4"/>
     <use xlink:href="#m44f5b28946" x="64.317528" y="47.738412" style="fill: #ffffff; fill-opacity: 0.4; stroke: #bf00bf; stroke-opacity: 0.4"/>
    </g>
   </g>
   <g id="line2d_25">
    <path d="M 66.877873 85.260568 
L 66.407863 85.123994 
L 65.930862 84.196225 
L 65.461452 84.094772 
L 64.991374 83.790775 
" clip-path="url(#p655d0149a5)" style="fill: none; stroke: #ffffff; stroke-opacity: 0.4; stroke-width: 1.5; stroke-linecap: square"/>
    <g clip-path="url(#p655d0149a5)">
     <use xlink:href="#m44f5b28946" x="66.877873" y="85.260568" style="fill: #ffffff; fill-opacity: 0.4; stroke: #bf00bf; stroke-opacity: 0.4"/>
     <use xlink:href="#m44f5b28946" x="66.407863" y="85.123994" style="fill: #ffffff; fill-opacity: 0.4; stroke: #bf00bf; stroke-opacity: 0.4"/>
     <use xlink:href="#m44f5b28946" x="65.930862" y="84.196225" style="fill: #ffffff; fill-opacity: 0.4; stroke: #bf00bf; stroke-opacity: 0.4"/>
     <use xlink:href="#m44f5b28946" x="65.461452" y="84.094772" style="fill: #ffffff; fill-opacity: 0.4; stroke: #bf00bf; stroke-opacity: 0.4"/>
     <use xlink:href="#m44f5b28946" x="64.991374" y="83.790775" style="fill: #ffffff; fill-opacity: 0.4; stroke: #bf00bf; stroke-opacity: 0.4"/>
    </g>
   </g>
   <g id="line2d_26">
    <path d="M 87.49616 70.019833 
L 88.612568 70.193514 
L 89.731554 70.272309 
L 90.852305 70.308365 
L 91.974127 70.364106 
L 93.088375 71.036073 
L 94.211637 71.151905 
L 95.329989 71.669969 
L 96.466721 71.113489 
L 97.598568 70.986563 
L 98.705988 72.332053 
L 99.840005 72.227036 
L 100.96816 72.520658 
L 102.095436 72.925999 
L 103.234909 72.789148 
L 104.397558 71.650772 
L 105.521612 72.433164 
L 106.663068 72.476088 
L 107.770875 74.052593 
L 108.933186 73.321507 
L 110.063632 74.015972 
" clip-path="url(#p655d0149a5)" style="fill: none; stroke: #ffffff; stroke-opacity: 0.4; stroke-width: 1.5; stroke-linecap: square"/>
    <g clip-path="url(#p655d0149a5)">
     <use xlink:href="#m44f5b28946" x="87.49616" y="70.019833" style="fill: #ffffff; fill-opacity: 0.4; stroke: #bf00bf; stroke-opacity: 0.4"/>
     <use xlink:href="#m44f5b28946" x="88.612568" y="70.193514" style="fill: #ffffff; fill-opacity: 0.4; stroke: #bf00bf; stroke-opacity: 0.4"/>
     <use xlink:href="#m44f5b28946" x="89.731554" y="70.272309" style="fill: #ffffff; fill-opacity: 0.4; stroke: #bf00bf; stroke-opacity: 0.4"/>
     <use xlink:href="#m44f5b28946" x="90.852305" y="70.308365" style="fill: #ffffff; fill-opacity: 0.4; stroke: #bf00bf; stroke-opacity: 0.4"/>
     <use xlink:href="#m44f5b28946" x="91.974127" y="70.364106" style="fill: #ffffff; fill-opacity: 0.4; stroke: #bf00bf; stroke-opacity: 0.4"/>
     <use xlink:href="#m44f5b28946" x="93.088375" y="71.036073" style="fill: #ffffff; fill-opacity: 0.4; stroke: #bf00bf; stroke-opacity: 0.4"/>
     <use xlink:href="#m44f5b28946" x="94.211637" y="71.151905" style="fill: #ffffff; fill-opacity: 0.4; stroke: #bf00bf; stroke-opacity: 0.4"/>
     <use xlink:href="#m44f5b28946" x="95.329989" y="71.669969" style="fill: #ffffff; fill-opacity: 0.4; stroke: #bf00bf; stroke-opacity: 0.4"/>
     <use xlink:href="#m44f5b28946" x="96.466721" y="71.113489" style="fill: #ffffff; fill-opacity: 0.4; stroke: #bf00bf; stroke-opacity: 0.4"/>
     <use xlink:href="#m44f5b28946" x="97.598568" y="70.986563" style="fill: #ffffff; fill-opacity: 0.4; stroke: #bf00bf; stroke-opacity: 0.4"/>
     <use xlink:href="#m44f5b28946" x="98.705988" y="72.332053" style="fill: #ffffff; fill-opacity: 0.4; stroke: #bf00bf; stroke-opacity: 0.4"/>
     <use xlink:href="#m44f5b28946" x="99.840005" y="72.227036" style="fill: #ffffff; fill-opacity: 0.4; stroke: #bf00bf; stroke-opacity: 0.4"/>
     <use xlink:href="#m44f5b28946" x="100.96816" y="72.520658" style="fill: #ffffff; fill-opacity: 0.4; stroke: #bf00bf; stroke-opacity: 0.4"/>
     <use xlink:href="#m44f5b28946" x="102.095436" y="72.925999" style="fill: #ffffff; fill-opacity: 0.4; stroke: #bf00bf; stroke-opacity: 0.4"/>
     <use xlink:href="#m44f5b28946" x="103.234909" y="72.789148" style="fill: #ffffff; fill-opacity: 0.4; stroke: #bf00bf; stroke-opacity: 0.4"/>
     <use xlink:href="#m44f5b28946" x="104.397558" y="71.650772" style="fill: #ffffff; fill-opacity: 0.4; stroke: #bf00bf; stroke-opacity: 0.4"/>
     <use xlink:href="#m44f5b28946" x="105.521612" y="72.433164" style="fill: #ffffff; fill-opacity: 0.4; stroke: #bf00bf; stroke-opacity: 0.4"/>
     <use xlink:href="#m44f5b28946" x="106.663068" y="72.476088" style="fill: #ffffff; fill-opacity: 0.4; stroke: #bf00bf; stroke-opacity: 0.4"/>
     <use xlink:href="#m44f5b28946" x="107.770875" y="74.052593" style="fill: #ffffff; fill-opacity: 0.4; stroke: #bf00bf; stroke-opacity: 0.4"/>
     <use xlink:href="#m44f5b28946" x="108.933186" y="73.321507" style="fill: #ffffff; fill-opacity: 0.4; stroke: #bf00bf; stroke-opacity: 0.4"/>
     <use xlink:href="#m44f5b28946" x="110.063632" y="74.015972" style="fill: #ffffff; fill-opacity: 0.4; stroke: #bf00bf; stroke-opacity: 0.4"/>
    </g>
   </g>
   <g id="line2d_27">
    <path d="M 66.717339 47.999518 
L 67.834938 48.143954 
L 68.956593 48.295046 
L 70.084385 48.44987 
L 71.211154 48.611226 
L 72.351891 48.325606 
L 73.495543 48.46754 
L 74.636492 48.617098 
L 75.761103 48.780908 
L 76.902428 48.941047 
L 78.042551 49.106476 
L 79.219755 49.255714 
L 80.342574 49.438985 
L 81.51468 49.598434 
L 82.670669 49.770441 
L 83.810316 49.955327 
L 84.976505 50.128178 
L 86.140972 49.897323 
L 87.329918 50.058623 
L 88.510287 50.227789 
L 89.68198 50.404992 
" clip-path="url(#p655d0149a5)" style="fill: none; stroke: #ffffff; stroke-opacity: 0.4; stroke-width: 1.5; stroke-linecap: square"/>
    <g clip-path="url(#p655d0149a5)">
     <use xlink:href="#m44f5b28946" x="66.717339" y="47.999518" style="fill: #ffffff; fill-opacity: 0.4; stroke: #bf00bf; stroke-opacity: 0.4"/>
     <use xlink:href="#m44f5b28946" x="67.834938" y="48.143954" style="fill: #ffffff; fill-opacity: 0.4; stroke: #bf00bf; stroke-opacity: 0.4"/>
     <use xlink:href="#m44f5b28946" x="68.956593" y="48.295046" style="fill: #ffffff; fill-opacity: 0.4; stroke: #bf00bf; stroke-opacity: 0.4"/>
     <use xlink:href="#m44f5b28946" x="70.084385" y="48.44987" style="fill: #ffffff; fill-opacity: 0.4; stroke: #bf00bf; stroke-opacity: 0.4"/>
     <use xlink:href="#m44f5b28946" x="71.211154" y="48.611226" style="fill: #ffffff; fill-opacity: 0.4; stroke: #bf00bf; stroke-opacity: 0.4"/>
     <use xlink:href="#m44f5b28946" x="72.351891" y="48.325606" style="fill: #ffffff; fill-opacity: 0.4; stroke: #bf00bf; stroke-opacity: 0.4"/>
     <use xlink:href="#m44f5b28946" x="73.495543" y="48.46754" style="fill: #ffffff; fill-opacity: 0.4; stroke: #bf00bf; stroke-opacity: 0.4"/>
     <use xlink:href="#m44f5b28946" x="74.636492" y="48.617098" style="fill: #ffffff; fill-opacity: 0.4; stroke: #bf00bf; stroke-opacity: 0.4"/>
     <use xlink:href="#m44f5b28946" x="75.761103" y="48.780908" style="fill: #ffffff; fill-opacity: 0.4; stroke: #bf00bf; stroke-opacity: 0.4"/>
     <use xlink:href="#m44f5b28946" x="76.902428" y="48.941047" style="fill: #ffffff; fill-opacity: 0.4; stroke: #bf00bf; stroke-opacity: 0.4"/>
     <use xlink:href="#m44f5b28946" x="78.042551" y="49.106476" style="fill: #ffffff; fill-opacity: 0.4; stroke: #bf00bf; stroke-opacity: 0.4"/>
     <use xlink:href="#m44f5b28946" x="79.219755" y="49.255714" style="fill: #ffffff; fill-opacity: 0.4; stroke: #bf00bf; stroke-opacity: 0.4"/>
     <use xlink:href="#m44f5b28946" x="80.342574" y="49.438985" style="fill: #ffffff; fill-opacity: 0.4; stroke: #bf00bf; stroke-opacity: 0.4"/>
     <use xlink:href="#m44f5b28946" x="81.51468" y="49.598434" style="fill: #ffffff; fill-opacity: 0.4; stroke: #bf00bf; stroke-opacity: 0.4"/>
     <use xlink:href="#m44f5b28946" x="82.670669" y="49.770441" style="fill: #ffffff; fill-opacity: 0.4; stroke: #bf00bf; stroke-opacity: 0.4"/>
     <use xlink:href="#m44f5b28946" x="83.810316" y="49.955327" style="fill: #ffffff; fill-opacity: 0.4; stroke: #bf00bf; stroke-opacity: 0.4"/>
     <use xlink:href="#m44f5b28946" x="84.976505" y="50.128178" style="fill: #ffffff; fill-opacity: 0.4; stroke: #bf00bf; stroke-opacity: 0.4"/>
     <use xlink:href="#m44f5b28946" x="86.140972" y="49.897323" style="fill: #ffffff; fill-opacity: 0.4; stroke: #bf00bf; stroke-opacity: 0.4"/>
     <use xlink:href="#m44f5b28946" x="87.329918" y="50.058623" style="fill: #ffffff; fill-opacity: 0.4; stroke: #bf00bf; stroke-opacity: 0.4"/>
     <use xlink:href="#m44f5b28946" x="88.510287" y="50.227789" style="fill: #ffffff; fill-opacity: 0.4; stroke: #bf00bf; stroke-opacity: 0.4"/>
     <use xlink:href="#m44f5b28946" x="89.68198" y="50.404992" style="fill: #ffffff; fill-opacity: 0.4; stroke: #bf00bf; stroke-opacity: 0.4"/>
    </g>
   </g>
   <g id="line2d_28">
    <path d="M 66.877873 85.260568 
L 67.976414 85.53254 
L 69.074026 85.78004 
L 70.174389 86.138279 
L 71.281548 86.369508 
L 72.398605 87.0086 
L 73.508859 87.244088 
L 74.625966 87.473872 
L 75.729825 87.715135 
L 76.856599 87.939164 
L 77.971671 88.174376 
L 79.080081 88.416846 
L 80.224752 89.265325 
L 81.340879 89.510544 
L 82.467886 89.748633 
L 83.611725 89.974759 
L 84.739859 90.216239 
L 85.892378 90.439565 
L 87.03297 90.675283 
L 88.161261 90.923799 
L 89.323802 91.145967 
" clip-path="url(#p655d0149a5)" style="fill: none; stroke: #ffffff; stroke-opacity: 0.4; stroke-width: 1.5; stroke-linecap: square"/>
    <g clip-path="url(#p655d0149a5)">
     <use xlink:href="#m44f5b28946" x="66.877873" y="85.260568" style="fill: #ffffff; fill-opacity: 0.4; stroke: #bf00bf; stroke-opacity: 0.4"/>
     <use xlink:href="#m44f5b28946" x="67.976414" y="85.53254" style="fill: #ffffff; fill-opacity: 0.4; stroke: #bf00bf; stroke-opacity: 0.4"/>
     <use xlink:href="#m44f5b28946" x="69.074026" y="85.78004" style="fill: #ffffff; fill-opacity: 0.4; stroke: #bf00bf; stroke-opacity: 0.4"/>
     <use xlink:href="#m44f5b28946" x="70.174389" y="86.138279" style="fill: #ffffff; fill-opacity: 0.4; stroke: #bf00bf; stroke-opacity: 0.4"/>
     <use xlink:href="#m44f5b28946" x="71.281548" y="86.369508" style="fill: #ffffff; fill-opacity: 0.4; stroke: #bf00bf; stroke-opacity: 0.4"/>
     <use xlink:href="#m44f5b28946" x="72.398605" y="87.0086" style="fill: #ffffff; fill-opacity: 0.4; stroke: #bf00bf; stroke-opacity: 0.4"/>
     <use xlink:href="#m44f5b28946" x="73.508859" y="87.244088" style="fill: #ffffff; fill-opacity: 0.4; stroke: #bf00bf; stroke-opacity: 0.4"/>
     <use xlink:href="#m44f5b28946" x="74.625966" y="87.473872" style="fill: #ffffff; fill-opacity: 0.4; stroke: #bf00bf; stroke-opacity: 0.4"/>
     <use xlink:href="#m44f5b28946" x="75.729825" y="87.715135" style="fill: #ffffff; fill-opacity: 0.4; stroke: #bf00bf; stroke-opacity: 0.4"/>
     <use xlink:href="#m44f5b28946" x="76.856599" y="87.939164" style="fill: #ffffff; fill-opacity: 0.4; stroke: #bf00bf; stroke-opacity: 0.4"/>
     <use xlink:href="#m44f5b28946" x="77.971671" y="88.174376" style="fill: #ffffff; fill-opacity: 0.4; stroke: #bf00bf; stroke-opacity: 0.4"/>
     <use xlink:href="#m44f5b28946" x="79.080081" y="88.416846" style="fill: #ffffff; fill-opacity: 0.4; stroke: #bf00bf; stroke-opacity: 0.4"/>
     <use xlink:href="#m44f5b28946" x="80.224752" y="89.265325" style="fill: #ffffff; fill-opacity: 0.4; stroke: #bf00bf; stroke-opacity: 0.4"/>
     <use xlink:href="#m44f5b28946" x="81.340879" y="89.510544" style="fill: #ffffff; fill-opacity: 0.4; stroke: #bf00bf; stroke-opacity: 0.4"/>
     <use xlink:href="#m44f5b28946" x="82.467886" y="89.748633" style="fill: #ffffff; fill-opacity: 0.4; stroke: #bf00bf; stroke-opacity: 0.4"/>
     <use xlink:href="#m44f5b28946" x="83.611725" y="89.974759" style="fill: #ffffff; fill-opacity: 0.4; stroke: #bf00bf; stroke-opacity: 0.4"/>
     <use xlink:href="#m44f5b28946" x="84.739859" y="90.216239" style="fill: #ffffff; fill-opacity: 0.4; stroke: #bf00bf; stroke-opacity: 0.4"/>
     <use xlink:href="#m44f5b28946" x="85.892378" y="90.439565" style="fill: #ffffff; fill-opacity: 0.4; stroke: #bf00bf; stroke-opacity: 0.4"/>
     <use xlink:href="#m44f5b28946" x="87.03297" y="90.675283" style="fill: #ffffff; fill-opacity: 0.4; stroke: #bf00bf; stroke-opacity: 0.4"/>
     <use xlink:href="#m44f5b28946" x="88.161261" y="90.923799" style="fill: #ffffff; fill-opacity: 0.4; stroke: #bf00bf; stroke-opacity: 0.4"/>
     <use xlink:href="#m44f5b28946" x="89.323802" y="91.145967" style="fill: #ffffff; fill-opacity: 0.4; stroke: #bf00bf; stroke-opacity: 0.4"/>
    </g>
   </g>
   <g id="legend_1">
    <g id="patch_6">
     <path d="M 41.917406 60.681305 
L 116.848031 60.681305 
Q 118.248031 60.681305 118.248031 59.281305 
L 118.248031 20.207087 
Q 118.248031 18.807087 116.848031 18.807087 
L 41.917406 18.807087 
Q 40.517406 18.807087 40.517406 20.207087 
L 40.517406 59.281305 
Q 40.517406 60.681305 41.917406 60.681305 
z
" style="fill: #ffffff; opacity: 0.8; stroke: #cccccc; stroke-linejoin: miter"/>
    </g>
    <g id="line2d_29">
     <path d="M 43.317406 24.252868 
L 50.317406 24.252868 
L 57.317406 24.252868 
" style="fill: none; stroke: #ff0000; stroke-width: 1.5; stroke-linecap: square"/>
    </g>
    <g id="text_14">
     <!-- stable fixed point -->
     <g transform="translate(62.917406 26.702868) scale(0.07 -0.07)">
      <defs>
       <path id="ArialMT-73" d="M 197 991 
L 753 1078 
Q 800 744 1014 566 
Q 1228 388 1613 388 
Q 2000 388 2187 545 
Q 2375 703 2375 916 
Q 2375 1106 2209 1216 
Q 2094 1291 1634 1406 
Q 1016 1563 777 1677 
Q 538 1791 414 1992 
Q 291 2194 291 2438 
Q 291 2659 392 2848 
Q 494 3038 669 3163 
Q 800 3259 1026 3326 
Q 1253 3394 1513 3394 
Q 1903 3394 2198 3281 
Q 2494 3169 2634 2976 
Q 2775 2784 2828 2463 
L 2278 2388 
Q 2241 2644 2061 2787 
Q 1881 2931 1553 2931 
Q 1166 2931 1000 2803 
Q 834 2675 834 2503 
Q 834 2394 903 2306 
Q 972 2216 1119 2156 
Q 1203 2125 1616 2013 
Q 2213 1853 2448 1751 
Q 2684 1650 2818 1456 
Q 2953 1263 2953 975 
Q 2953 694 2789 445 
Q 2625 197 2315 61 
Q 2006 -75 1616 -75 
Q 969 -75 630 194 
Q 291 463 197 991 
z
" transform="scale(0.015625)"/>
       <path id="ArialMT-74" d="M 1650 503 
L 1731 6 
Q 1494 -44 1306 -44 
Q 1000 -44 831 53 
Q 663 150 594 308 
Q 525 466 525 972 
L 525 2881 
L 113 2881 
L 113 3319 
L 525 3319 
L 525 4141 
L 1084 4478 
L 1084 3319 
L 1650 3319 
L 1650 2881 
L 1084 2881 
L 1084 941 
Q 1084 700 1114 631 
Q 1144 563 1211 522 
Q 1278 481 1403 481 
Q 1497 481 1650 503 
z
" transform="scale(0.015625)"/>
       <path id="ArialMT-61" d="M 2588 409 
Q 2275 144 1986 34 
Q 1697 -75 1366 -75 
Q 819 -75 525 192 
Q 231 459 231 875 
Q 231 1119 342 1320 
Q 453 1522 633 1644 
Q 813 1766 1038 1828 
Q 1203 1872 1538 1913 
Q 2219 1994 2541 2106 
Q 2544 2222 2544 2253 
Q 2544 2597 2384 2738 
Q 2169 2928 1744 2928 
Q 1347 2928 1158 2789 
Q 969 2650 878 2297 
L 328 2372 
Q 403 2725 575 2942 
Q 747 3159 1072 3276 
Q 1397 3394 1825 3394 
Q 2250 3394 2515 3294 
Q 2781 3194 2906 3042 
Q 3031 2891 3081 2659 
Q 3109 2516 3109 2141 
L 3109 1391 
Q 3109 606 3145 398 
Q 3181 191 3288 0 
L 2700 0 
Q 2613 175 2588 409 
z
M 2541 1666 
Q 2234 1541 1622 1453 
Q 1275 1403 1131 1340 
Q 988 1278 909 1158 
Q 831 1038 831 891 
Q 831 666 1001 516 
Q 1172 366 1500 366 
Q 1825 366 2078 508 
Q 2331 650 2450 897 
Q 2541 1088 2541 1459 
L 2541 1666 
z
" transform="scale(0.015625)"/>
       <path id="ArialMT-62" d="M 941 0 
L 419 0 
L 419 4581 
L 981 4581 
L 981 2947 
Q 1338 3394 1891 3394 
Q 2197 3394 2470 3270 
Q 2744 3147 2920 2923 
Q 3097 2700 3197 2384 
Q 3297 2069 3297 1709 
Q 3297 856 2875 390 
Q 2453 -75 1863 -75 
Q 1275 -75 941 416 
L 941 0 
z
M 934 1684 
Q 934 1088 1097 822 
Q 1363 388 1816 388 
Q 2184 388 2453 708 
Q 2722 1028 2722 1663 
Q 2722 2313 2464 2622 
Q 2206 2931 1841 2931 
Q 1472 2931 1203 2611 
Q 934 2291 934 1684 
z
" transform="scale(0.015625)"/>
       <path id="ArialMT-6c" d="M 409 0 
L 409 4581 
L 972 4581 
L 972 0 
L 409 0 
z
" transform="scale(0.015625)"/>
       <path id="ArialMT-65" d="M 2694 1069 
L 3275 997 
Q 3138 488 2766 206 
Q 2394 -75 1816 -75 
Q 1088 -75 661 373 
Q 234 822 234 1631 
Q 234 2469 665 2931 
Q 1097 3394 1784 3394 
Q 2450 3394 2872 2941 
Q 3294 2488 3294 1666 
Q 3294 1616 3291 1516 
L 816 1516 
Q 847 969 1125 678 
Q 1403 388 1819 388 
Q 2128 388 2347 550 
Q 2566 713 2694 1069 
z
M 847 1978 
L 2700 1978 
Q 2663 2397 2488 2606 
Q 2219 2931 1791 2931 
Q 1403 2931 1139 2672 
Q 875 2413 847 1978 
z
" transform="scale(0.015625)"/>
       <path id="ArialMT-20" transform="scale(0.015625)"/>
       <path id="ArialMT-66" d="M 556 0 
L 556 2881 
L 59 2881 
L 59 3319 
L 556 3319 
L 556 3672 
Q 556 4006 616 4169 
Q 697 4388 901 4523 
Q 1106 4659 1475 4659 
Q 1713 4659 2000 4603 
L 1916 4113 
Q 1741 4144 1584 4144 
Q 1328 4144 1222 4034 
Q 1116 3925 1116 3625 
L 1116 3319 
L 1763 3319 
L 1763 2881 
L 1116 2881 
L 1116 0 
L 556 0 
z
" transform="scale(0.015625)"/>
       <path id="ArialMT-69" d="M 425 3934 
L 425 4581 
L 988 4581 
L 988 3934 
L 425 3934 
z
M 425 0 
L 425 3319 
L 988 3319 
L 988 0 
L 425 0 
z
" transform="scale(0.015625)"/>
       <path id="ArialMT-64" d="M 2575 0 
L 2575 419 
Q 2259 -75 1647 -75 
Q 1250 -75 917 144 
Q 584 363 401 755 
Q 219 1147 219 1656 
Q 219 2153 384 2558 
Q 550 2963 881 3178 
Q 1213 3394 1622 3394 
Q 1922 3394 2156 3267 
Q 2391 3141 2538 2938 
L 2538 4581 
L 3097 4581 
L 3097 0 
L 2575 0 
z
M 797 1656 
Q 797 1019 1065 703 
Q 1334 388 1700 388 
Q 2069 388 2326 689 
Q 2584 991 2584 1609 
Q 2584 2291 2321 2609 
Q 2059 2928 1675 2928 
Q 1300 2928 1048 2622 
Q 797 2316 797 1656 
z
" transform="scale(0.015625)"/>
       <path id="ArialMT-70" d="M 422 -1272 
L 422 3319 
L 934 3319 
L 934 2888 
Q 1116 3141 1344 3267 
Q 1572 3394 1897 3394 
Q 2322 3394 2647 3175 
Q 2972 2956 3137 2557 
Q 3303 2159 3303 1684 
Q 3303 1175 3120 767 
Q 2938 359 2589 142 
Q 2241 -75 1856 -75 
Q 1575 -75 1351 44 
Q 1128 163 984 344 
L 984 -1272 
L 422 -1272 
z
M 931 1641 
Q 931 1000 1190 694 
Q 1450 388 1819 388 
Q 2194 388 2461 705 
Q 2728 1022 2728 1688 
Q 2728 2322 2467 2637 
Q 2206 2953 1844 2953 
Q 1484 2953 1207 2617 
Q 931 2281 931 1641 
z
" transform="scale(0.015625)"/>
       <path id="ArialMT-6f" d="M 213 1659 
Q 213 2581 725 3025 
Q 1153 3394 1769 3394 
Q 2453 3394 2887 2945 
Q 3322 2497 3322 1706 
Q 3322 1066 3130 698 
Q 2938 331 2570 128 
Q 2203 -75 1769 -75 
Q 1072 -75 642 372 
Q 213 819 213 1659 
z
M 791 1659 
Q 791 1022 1069 705 
Q 1347 388 1769 388 
Q 2188 388 2466 706 
Q 2744 1025 2744 1678 
Q 2744 2294 2464 2611 
Q 2184 2928 1769 2928 
Q 1347 2928 1069 2612 
Q 791 2297 791 1659 
z
" transform="scale(0.015625)"/>
       <path id="ArialMT-6e" d="M 422 0 
L 422 3319 
L 928 3319 
L 928 2847 
Q 1294 3394 1984 3394 
Q 2284 3394 2536 3286 
Q 2788 3178 2913 3003 
Q 3038 2828 3088 2588 
Q 3119 2431 3119 2041 
L 3119 0 
L 2556 0 
L 2556 2019 
Q 2556 2363 2490 2533 
Q 2425 2703 2258 2804 
Q 2091 2906 1866 2906 
Q 1506 2906 1245 2678 
Q 984 2450 984 1813 
L 984 0 
L 422 0 
z
" transform="scale(0.015625)"/>
      </defs>
      <use xlink:href="#ArialMT-73"/>
      <use xlink:href="#ArialMT-74" transform="translate(50 0)"/>
      <use xlink:href="#ArialMT-61" transform="translate(77.783203 0)"/>
      <use xlink:href="#ArialMT-62" transform="translate(133.398438 0)"/>
      <use xlink:href="#ArialMT-6c" transform="translate(189.013672 0)"/>
      <use xlink:href="#ArialMT-65" transform="translate(211.230469 0)"/>
      <use xlink:href="#ArialMT-20" transform="translate(266.845703 0)"/>
      <use xlink:href="#ArialMT-66" transform="translate(294.628906 0)"/>
      <use xlink:href="#ArialMT-69" transform="translate(322.412109 0)"/>
      <use xlink:href="#ArialMT-78" transform="translate(344.628906 0)"/>
      <use xlink:href="#ArialMT-65" transform="translate(394.628906 0)"/>
      <use xlink:href="#ArialMT-64" transform="translate(450.244141 0)"/>
      <use xlink:href="#ArialMT-20" transform="translate(505.859375 0)"/>
      <use xlink:href="#ArialMT-70" transform="translate(533.642578 0)"/>
      <use xlink:href="#ArialMT-6f" transform="translate(589.257812 0)"/>
      <use xlink:href="#ArialMT-69" transform="translate(644.873047 0)"/>
      <use xlink:href="#ArialMT-6e" transform="translate(667.089844 0)"/>
      <use xlink:href="#ArialMT-74" transform="translate(722.705078 0)"/>
     </g>
    </g>
    <g id="line2d_30">
     <path d="M 43.317406 34.154587 
L 50.317406 34.154587 
L 57.317406 34.154587 
" style="fill: none; stroke-dasharray: 5.55,2.4; stroke-dashoffset: 0; stroke: #000000; stroke-width: 1.5"/>
    </g>
    <g id="text_15">
     <!-- saddle -->
     <g transform="translate(62.917406 36.604587) scale(0.07 -0.07)">
      <use xlink:href="#ArialMT-73"/>
      <use xlink:href="#ArialMT-61" transform="translate(50 0)"/>
      <use xlink:href="#ArialMT-64" transform="translate(105.615234 0)"/>
      <use xlink:href="#ArialMT-64" transform="translate(161.230469 0)"/>
      <use xlink:href="#ArialMT-6c" transform="translate(216.845703 0)"/>
      <use xlink:href="#ArialMT-65" transform="translate(239.0625 0)"/>
     </g>
    </g>
    <g id="line2d_31">
     <path d="M 43.317406 44.056305 
L 50.317406 44.056305 
L 57.317406 44.056305 
" style="fill: none; stroke-dasharray: 1.5,2.475; stroke-dashoffset: 0; stroke: #000000; stroke-width: 1.5"/>
    </g>
    <g id="text_16">
     <!-- repeller -->
     <g transform="translate(62.917406 46.506305) scale(0.07 -0.07)">
      <defs>
       <path id="ArialMT-72" d="M 416 0 
L 416 3319 
L 922 3319 
L 922 2816 
Q 1116 3169 1280 3281 
Q 1444 3394 1641 3394 
Q 1925 3394 2219 3213 
L 2025 2691 
Q 1819 2813 1613 2813 
Q 1428 2813 1281 2702 
Q 1134 2591 1072 2394 
Q 978 2094 978 1738 
L 978 0 
L 416 0 
z
" transform="scale(0.015625)"/>
      </defs>
      <use xlink:href="#ArialMT-72"/>
      <use xlink:href="#ArialMT-65" transform="translate(33.300781 0)"/>
      <use xlink:href="#ArialMT-70" transform="translate(88.916016 0)"/>
      <use xlink:href="#ArialMT-65" transform="translate(144.53125 0)"/>
      <use xlink:href="#ArialMT-6c" transform="translate(200.146484 0)"/>
      <use xlink:href="#ArialMT-6c" transform="translate(222.363281 0)"/>
      <use xlink:href="#ArialMT-65" transform="translate(244.580078 0)"/>
      <use xlink:href="#ArialMT-72" transform="translate(300.195312 0)"/>
     </g>
    </g>
    <g id="line2d_32">
     <path d="M 43.317406 53.958024 
L 50.317406 53.958024 
L 57.317406 53.958024 
" style="fill: none; stroke: #ffffff; stroke-opacity: 0.4; stroke-width: 1.5; stroke-linecap: square"/>
     <g>
      <use xlink:href="#m44f5b28946" x="50.317406" y="53.958024" style="fill: #ffffff; fill-opacity: 0.4; stroke: #bf00bf; stroke-opacity: 0.4"/>
     </g>
    </g>
    <g id="text_17">
     <!-- ghost -->
     <g transform="translate(62.917406 56.408024) scale(0.07 -0.07)">
      <defs>
       <path id="ArialMT-67" d="M 319 -275 
L 866 -356 
Q 900 -609 1056 -725 
Q 1266 -881 1628 -881 
Q 2019 -881 2231 -725 
Q 2444 -569 2519 -288 
Q 2563 -116 2559 434 
Q 2191 0 1641 0 
Q 956 0 581 494 
Q 206 988 206 1678 
Q 206 2153 378 2554 
Q 550 2956 876 3175 
Q 1203 3394 1644 3394 
Q 2231 3394 2613 2919 
L 2613 3319 
L 3131 3319 
L 3131 450 
Q 3131 -325 2973 -648 
Q 2816 -972 2473 -1159 
Q 2131 -1347 1631 -1347 
Q 1038 -1347 672 -1080 
Q 306 -813 319 -275 
z
M 784 1719 
Q 784 1066 1043 766 
Q 1303 466 1694 466 
Q 2081 466 2343 764 
Q 2606 1063 2606 1700 
Q 2606 2309 2336 2618 
Q 2066 2928 1684 2928 
Q 1309 2928 1046 2623 
Q 784 2319 784 1719 
z
" transform="scale(0.015625)"/>
       <path id="ArialMT-68" d="M 422 0 
L 422 4581 
L 984 4581 
L 984 2938 
Q 1378 3394 1978 3394 
Q 2347 3394 2619 3248 
Q 2891 3103 3008 2847 
Q 3125 2591 3125 2103 
L 3125 0 
L 2563 0 
L 2563 2103 
Q 2563 2525 2380 2717 
Q 2197 2909 1863 2909 
Q 1613 2909 1392 2779 
Q 1172 2650 1078 2428 
Q 984 2206 984 1816 
L 984 0 
L 422 0 
z
" transform="scale(0.015625)"/>
      </defs>
      <use xlink:href="#ArialMT-67"/>
      <use xlink:href="#ArialMT-68" transform="translate(55.615234 0)"/>
      <use xlink:href="#ArialMT-6f" transform="translate(111.230469 0)"/>
      <use xlink:href="#ArialMT-73" transform="translate(166.845703 0)"/>
      <use xlink:href="#ArialMT-74" transform="translate(216.845703 0)"/>
     </g>
    </g>
   </g>
  </g>
 </g>
 <defs>
  <clipPath id="p655d0149a5">
   <rect x="23.527559" y="15.307087" width="98.220472" height="98.220472"/>
  </clipPath>
 </defs>
</svg>
