<?xml version="1.0" encoding="utf-8" standalone="no"?>
<!DOCTYPE svg PUBLIC "-//W3C//DTD SVG 1.1//EN"
  "http://www.w3.org/Graphics/SVG/1.1/DTD/svg11.dtd">
<svg xmlns:xlink="http://www.w3.org/1999/xlink" width="127.559055pt" height="155.905512pt" viewBox="0 0 127.559055 155.905512" xmlns="http://www.w3.org/2000/svg" version="1.1">
 <metadata>
  <rdf:RDF xmlns:dc="http://purl.org/dc/elements/1.1/" xmlns:cc="http://creativecommons.org/ns#" xmlns:rdf="http://www.w3.org/1999/02/22-rdf-syntax-ns#">
   <cc:Work>
    <dc:type rdf:resource="http://purl.org/dc/dcmitype/StillImage"/>
    <dc:date>2026-01-01T15:14:57.564700</dc:date>
    <dc:format>image/svg+xml</dc:format>
    <dc:creator>
     <cc:Agent>
      <dc:title>Matplotlib v3.10.7, https://matplotlib.org/</dc:title>
     </cc:Agent>
    </dc:creator>
   </cc:Work>
  </rdf:RDF>
 </metadata>
 <defs>
  <style type="text/css">*{stroke-linejoin: round; stroke-linecap: butt}</style>
 </defs>
 <g id="figure_1">
  <g id="patch_1">
   <path d="M 0 155.905512 
L 127.559055 155.905512 
L 127.559055 0 
L 0 0 
z
" style="fill: #ffffff"/>
  </g>
  <g id="axes_1">
   <g id="patch_2">
    <path d="M 26.846471 107.997277 
L 121.841408 107.997277 
L 121.841408 24.74636 
L 26.846471 24.74636 
z
" style="fill: #ffffff"/>
   </g>
   <g id="matplotlib.axis_1">
    <g id="xtick_1">
     <g id="line2d_1">
      <defs>
       <path id="m1cec4e3331" d="M 0 0 
L 0 3.5 
" style="stroke: #000000; stroke-width: 0.8"/>
      </defs>
      <g>
       <use xlink:href="#m1cec4e3331" x="31.164422" y="107.997277" style="stroke: #000000; stroke-width: 0.8"/>
      </g>
     </g>
     <g id="text_1">
      <!-- 0 -->
      <g transform="translate(29.218094 120.007745) scale(0.07 -0.07)">
       <defs>
        <path id="ArialMT-30" d="M 266 2259 
Q 266 3072 433 3567 
Q 600 4063 929 4331 
Q 1259 4600 1759 4600 
Q 2128 4600 2406 4451 
Q 2684 4303 2865 4023 
Q 3047 3744 3150 3342 
Q 3253 2941 3253 2259 
Q 3253 1453 3087 958 
Q 2922 463 2592 192 
Q 2263 -78 1759 -78 
Q 1097 -78 719 397 
Q 266 969 266 2259 
z
M 844 2259 
Q 844 1131 1108 757 
Q 1372 384 1759 384 
Q 2147 384 2411 759 
Q 2675 1134 2675 2259 
Q 2675 3391 2411 3762 
Q 2147 4134 1753 4134 
Q 1366 4134 1134 3806 
Q 844 3388 844 2259 
z
" transform="scale(0.015625)"/>
       </defs>
       <use xlink:href="#ArialMT-30"/>
      </g>
     </g>
    </g>
    <g id="xtick_2">
     <g id="line2d_2">
      <g>
       <use xlink:href="#m1cec4e3331" x="67.150352" y="107.997277" style="stroke: #000000; stroke-width: 0.8"/>
      </g>
     </g>
     <g id="text_2">
      <!-- 500 -->
      <g transform="translate(61.311368 120.007745) scale(0.07 -0.07)">
       <defs>
        <path id="ArialMT-35" d="M 266 1200 
L 856 1250 
Q 922 819 1161 601 
Q 1400 384 1738 384 
Q 2144 384 2425 690 
Q 2706 997 2706 1503 
Q 2706 1984 2436 2262 
Q 2166 2541 1728 2541 
Q 1456 2541 1237 2417 
Q 1019 2294 894 2097 
L 366 2166 
L 809 4519 
L 3088 4519 
L 3088 3981 
L 1259 3981 
L 1013 2750 
Q 1425 3038 1878 3038 
Q 2478 3038 2890 2622 
Q 3303 2206 3303 1553 
Q 3303 931 2941 478 
Q 2500 -78 1738 -78 
Q 1113 -78 717 272 
Q 322 622 266 1200 
z
" transform="scale(0.015625)"/>
       </defs>
       <use xlink:href="#ArialMT-35"/>
       <use xlink:href="#ArialMT-30" transform="translate(55.615234 0)"/>
       <use xlink:href="#ArialMT-30" transform="translate(111.230469 0)"/>
      </g>
     </g>
    </g>
    <g id="xtick_3">
     <g id="line2d_3">
      <g>
       <use xlink:href="#m1cec4e3331" x="103.136282" y="107.997277" style="stroke: #000000; stroke-width: 0.8"/>
      </g>
     </g>
     <g id="text_3">
      <!-- 1000 -->
      <g transform="translate(95.350969 120.007745) scale(0.07 -0.07)">
       <defs>
        <path id="ArialMT-31" d="M 2384 0 
L 1822 0 
L 1822 3584 
Q 1619 3391 1289 3197 
Q 959 3003 697 2906 
L 697 3450 
Q 1169 3672 1522 3987 
Q 1875 4303 2022 4600 
L 2384 4600 
L 2384 0 
z
" transform="scale(0.015625)"/>
       </defs>
       <use xlink:href="#ArialMT-31"/>
       <use xlink:href="#ArialMT-30" transform="translate(55.615234 0)"/>
       <use xlink:href="#ArialMT-30" transform="translate(111.230469 0)"/>
       <use xlink:href="#ArialMT-30" transform="translate(166.845703 0)"/>
      </g>
     </g>
    </g>
    <g id="text_4">
     <!-- t -->
     <g transform="translate(72.954877 143.556808) scale(0.1 -0.1)">
      <defs>
       <path id="ArialMT-74" d="M 1650 503 
L 1731 6 
Q 1494 -44 1306 -44 
Q 1000 -44 831 53 
Q 663 150 594 308 
Q 525 466 525 972 
L 525 2881 
L 113 2881 
L 113 3319 
L 525 3319 
L 525 4141 
L 1084 4478 
L 1084 3319 
L 1650 3319 
L 1650 2881 
L 1084 2881 
L 1084 941 
Q 1084 700 1114 631 
Q 1144 563 1211 522 
Q 1278 481 1403 481 
Q 1497 481 1650 503 
z
" transform="scale(0.015625)"/>
      </defs>
      <use xlink:href="#ArialMT-74"/>
     </g>
    </g>
   </g>
   <g id="matplotlib.axis_2">
    <g id="ytick_1">
     <g id="line2d_4">
      <defs>
       <path id="m0efecdd736" d="M 0 0 
L -3.5 0 
" style="stroke: #000000; stroke-width: 0.8"/>
      </defs>
      <g>
       <use xlink:href="#m0efecdd736" x="26.846471" y="107.415917" style="stroke: #000000; stroke-width: 0.8"/>
      </g>
     </g>
     <g id="text_5">
      <!-- 0 -->
      <g transform="translate(15.953814 109.921152) scale(0.07 -0.07)">
       <use xlink:href="#ArialMT-30"/>
      </g>
     </g>
    </g>
    <g id="ytick_2">
     <g id="line2d_5">
      <g>
       <use xlink:href="#m0efecdd736" x="26.846471" y="86.673008" style="stroke: #000000; stroke-width: 0.8"/>
      </g>
     </g>
     <g id="text_6">
      <!-- 20 -->
      <g transform="translate(12.061158 89.178242) scale(0.07 -0.07)">
       <defs>
        <path id="ArialMT-32" d="M 3222 541 
L 3222 0 
L 194 0 
Q 188 203 259 391 
Q 375 700 629 1000 
Q 884 1300 1366 1694 
Q 2113 2306 2375 2664 
Q 2638 3022 2638 3341 
Q 2638 3675 2398 3904 
Q 2159 4134 1775 4134 
Q 1369 4134 1125 3890 
Q 881 3647 878 3216 
L 300 3275 
Q 359 3922 746 4261 
Q 1134 4600 1788 4600 
Q 2447 4600 2831 4234 
Q 3216 3869 3216 3328 
Q 3216 3053 3103 2787 
Q 2991 2522 2730 2228 
Q 2469 1934 1863 1422 
Q 1356 997 1212 845 
Q 1069 694 975 541 
L 3222 541 
z
" transform="scale(0.015625)"/>
       </defs>
       <use xlink:href="#ArialMT-32"/>
       <use xlink:href="#ArialMT-30" transform="translate(55.615234 0)"/>
      </g>
     </g>
    </g>
    <g id="ytick_3">
     <g id="line2d_6">
      <g>
       <use xlink:href="#m0efecdd736" x="26.846471" y="65.930099" style="stroke: #000000; stroke-width: 0.8"/>
      </g>
     </g>
     <g id="text_7">
      <!-- 40 -->
      <g transform="translate(12.061158 68.435333) scale(0.07 -0.07)">
       <defs>
        <path id="ArialMT-34" d="M 2069 0 
L 2069 1097 
L 81 1097 
L 81 1613 
L 2172 4581 
L 2631 4581 
L 2631 1613 
L 3250 1613 
L 3250 1097 
L 2631 1097 
L 2631 0 
L 2069 0 
z
M 2069 1613 
L 2069 3678 
L 634 1613 
L 2069 1613 
z
" transform="scale(0.015625)"/>
       </defs>
       <use xlink:href="#ArialMT-34"/>
       <use xlink:href="#ArialMT-30" transform="translate(55.615234 0)"/>
      </g>
     </g>
    </g>
    <g id="ytick_4">
     <g id="line2d_7">
      <g>
       <use xlink:href="#m0efecdd736" x="26.846471" y="45.187189" style="stroke: #000000; stroke-width: 0.8"/>
      </g>
     </g>
     <g id="text_8">
      <!-- 60 -->
      <g transform="translate(12.061158 47.692423) scale(0.07 -0.07)">
       <defs>
        <path id="ArialMT-36" d="M 3184 3459 
L 2625 3416 
Q 2550 3747 2413 3897 
Q 2184 4138 1850 4138 
Q 1581 4138 1378 3988 
Q 1113 3794 959 3422 
Q 806 3050 800 2363 
Q 1003 2672 1297 2822 
Q 1591 2972 1913 2972 
Q 2475 2972 2870 2558 
Q 3266 2144 3266 1488 
Q 3266 1056 3080 686 
Q 2894 316 2569 119 
Q 2244 -78 1831 -78 
Q 1128 -78 684 439 
Q 241 956 241 2144 
Q 241 3472 731 4075 
Q 1159 4600 1884 4600 
Q 2425 4600 2770 4297 
Q 3116 3994 3184 3459 
z
M 888 1484 
Q 888 1194 1011 928 
Q 1134 663 1356 523 
Q 1578 384 1822 384 
Q 2178 384 2434 671 
Q 2691 959 2691 1453 
Q 2691 1928 2437 2201 
Q 2184 2475 1800 2475 
Q 1419 2475 1153 2201 
Q 888 1928 888 1484 
z
" transform="scale(0.015625)"/>
       </defs>
       <use xlink:href="#ArialMT-36"/>
       <use xlink:href="#ArialMT-30" transform="translate(55.615234 0)"/>
      </g>
     </g>
    </g>
    <g id="text_9">
     <!-- pQ(t) -->
     <g transform="translate(-5.043529 77.7601) rotate(-90) scale(0.1 -0.1)">
      <defs>
       <path id="ArialMT-70" d="M 422 -1272 
L 422 3319 
L 934 3319 
L 934 2888 
Q 1116 3141 1344 3267 
Q 1572 3394 1897 3394 
Q 2322 3394 2647 3175 
Q 2972 2956 3137 2557 
Q 3303 2159 3303 1684 
Q 3303 1175 3120 767 
Q 2938 359 2589 142 
Q 2241 -75 1856 -75 
Q 1575 -75 1351 44 
Q 1128 163 984 344 
L 984 -1272 
L 422 -1272 
z
M 931 1641 
Q 931 1000 1190 694 
Q 1450 388 1819 388 
Q 2194 388 2461 705 
Q 2728 1022 2728 1688 
Q 2728 2322 2467 2637 
Q 2206 2953 1844 2953 
Q 1484 2953 1207 2617 
Q 931 2281 931 1641 
z
" transform="scale(0.015625)"/>
       <path id="ArialMT-51" d="M 3966 491 
Q 4388 200 4744 66 
L 4566 -356 
Q 4072 -178 3581 206 
Q 3072 -78 2456 -78 
Q 1834 -78 1328 222 
Q 822 522 548 1065 
Q 275 1609 275 2291 
Q 275 2969 550 3525 
Q 825 4081 1333 4372 
Q 1841 4663 2469 4663 
Q 3103 4663 3612 4361 
Q 4122 4059 4389 3517 
Q 4656 2975 4656 2294 
Q 4656 1728 4484 1276 
Q 4313 825 3966 491 
z
M 2631 1266 
Q 3156 1119 3497 828 
Q 4031 1316 4031 2294 
Q 4031 2850 3842 3265 
Q 3653 3681 3289 3911 
Q 2925 4141 2472 4141 
Q 1794 4141 1347 3677 
Q 900 3213 900 2291 
Q 900 1397 1342 919 
Q 1784 441 2472 441 
Q 2797 441 3084 563 
Q 2800 747 2484 825 
L 2631 1266 
z
" transform="scale(0.015625)"/>
       <path id="ArialMT-28" d="M 1497 -1347 
Q 1031 -759 709 28 
Q 388 816 388 1659 
Q 388 2403 628 3084 
Q 909 3875 1497 4659 
L 1900 4659 
Q 1522 4009 1400 3731 
Q 1209 3300 1100 2831 
Q 966 2247 966 1656 
Q 966 153 1900 -1347 
L 1497 -1347 
z
" transform="scale(0.015625)"/>
       <path id="ArialMT-29" d="M 791 -1347 
L 388 -1347 
Q 1322 153 1322 1656 
Q 1322 2244 1188 2822 
Q 1081 3291 891 3722 
Q 769 4003 388 4659 
L 791 4659 
Q 1378 3875 1659 3084 
Q 1900 2403 1900 1659 
Q 1900 816 1576 28 
Q 1253 -759 791 -1347 
z
" transform="scale(0.015625)"/>
      </defs>
      <use xlink:href="#ArialMT-70"/>
      <use xlink:href="#ArialMT-51" transform="translate(55.615234 0)"/>
      <use xlink:href="#ArialMT-28" transform="translate(133.398438 0)"/>
      <use xlink:href="#ArialMT-74" transform="translate(166.699219 0)"/>
      <use xlink:href="#ArialMT-29" transform="translate(194.482422 0)"/>
     </g>
    </g>
   </g>
   <g id="line2d_8">
    <path d="M 31.164422 104.213144 
L 31.351549 100.756418 
L 31.855352 99.176287 
L 31.941718 99.359777 
L 32.546282 101.131637 
L 32.683029 101.046736 
L 32.862958 100.595364 
L 33.266001 98.882465 
L 33.366761 99.16957 
L 33.928142 101.266266 
L 34.108071 101.327447 
L 34.259212 101.089557 
L 34.482325 100.22826 
L 34.842184 98.274699 
L 34.921353 98.47496 
L 35.669861 101.430843 
L 35.835396 101.441135 
L 35.993734 101.151693 
L 36.231241 100.162462 
L 36.691861 97.238417 
L 36.792622 97.600315 
L 37.476354 101.00119 
L 37.764242 101.522471 
L 37.908186 101.46674 
L 38.080918 101.07731 
L 38.347214 99.827998 
L 38.764651 96.648614 
L 38.937383 95.61048 
L 38.980566 95.700012 
L 39.17489 96.920572 
L 39.772257 100.115295 
L 40.189693 101.421119 
L 40.391215 101.533253 
L 40.542356 101.315397 
L 40.765468 100.509578 
L 41.139722 98.169533 
L 41.773074 93.164585 
L 41.873835 93.565741 
L 42.867047 99.330299 
L 43.385244 101.285517 
L 43.622751 101.547824 
L 43.759498 101.421028 
L 43.953822 100.861546 
L 44.270498 99.14064 
L 44.939836 93.957704 
L 45.472428 89.571531 
L 45.537203 89.765062 
L 46.508823 95.68426 
L 47.516429 100.717937 
L 47.854696 101.512839 
L 48.020232 101.507963 
L 48.185767 101.183708 
L 48.444866 100.062294 
L 48.912683 96.823562 
L 50.229768 85.680774 
L 50.424092 84.344145 
L 50.467275 84.441126 
L 50.719176 86.107853 
L 51.597233 91.295436 
L 53.317361 100.506813 
L 53.684417 101.48426 
L 53.864347 101.520228 
L 54.022685 101.242662 
L 54.267389 100.253696 
L 54.69922 97.373645 
L 56.138657 85.531952 
L 57.189447 76.759738 
L 57.261419 76.96347 
L 57.686052 79.791178 
L 57.765222 80.260934 
L 58.549715 84.796505 
L 60.723265 97.21559 
L 61.514955 100.920619 
L 61.824434 101.53498 
L 61.975575 101.489986 
L 62.148308 101.10999 
L 62.421801 99.842908 
L 62.939998 96.124399 
L 65.250295 76.887867 
L 65.473408 74.951629 
L 65.480605 75.006589 
L 65.487802 75.063423 
L 65.494999 74.699011 
L 65.516591 74.865273 
L 65.631746 73.410781 
L 65.64614 73.51045 
L 65.674929 73.737591 
L 65.746901 72.273673 
L 65.790084 72.565655 
L 65.818873 72.79369 
L 65.82607 71.367825 
L 65.92683 71.974364 
L 65.948422 72.130317 
L 66.005999 69.865656 
L 66.063577 70.114921 
L 66.257901 71.179575 
L 66.380253 69.821562 
L 66.517 69.642393 
L 66.545788 69.660956 
L 66.675338 69.953951 
L 66.927239 71.096863 
L 67.056789 69.046935 
L 67.121563 68.27911 
L 67.171944 68.950997 
L 67.337479 71.758167 
L 67.373465 69.733358 
L 67.445437 70.865987 
L 67.531803 70.619033 
L 67.646958 72.781382 
L 67.654155 71.459111 
L 67.740521 73.202971 
L 67.754916 72.326954 
L 67.920451 73.960312 
L 67.927648 73.378778 
L 68.006817 74.401005 
L 68.021211 74.128954 
L 68.17955 75.233904 
L 68.186747 75.026175 
L 68.265916 75.751519 
L 68.273113 75.620042 
L 68.417057 76.607476 
L 68.424254 76.572758 
L 68.431451 76.542798 
L 68.46024 76.806186 
L 68.474634 76.784168 
L 68.625775 77.684029 
L 69.403071 82.197102 
L 71.180776 92.438294 
L 72.692185 100.469144 
L 73.066439 101.48132 
L 73.246368 101.522232 
L 73.404707 101.249394 
L 73.649411 100.266899 
L 74.081242 97.392791 
L 75.506285 85.67434 
L 77.168835 70.927422 
L 77.176032 72.445575 
L 77.269595 70.085177 
L 77.435131 68.702729 
L 77.442328 72.223455 
L 77.543088 67.798234 
L 79.752625 50.219108 
L 79.803005 50.183326 
L 79.853385 50.258256 
L 80.026118 51.006648 
L 81.695865 60.602408 
L 82.78264 66.867365 
L 82.847415 72.19883 
L 82.890598 67.489694 
L 83.178485 69.149287 
L 83.24326 72.266441 
L 83.286443 69.771628 
L 83.358415 70.186512 
L 83.430387 72.393053 
L 83.466372 70.808893 
L 83.480767 70.89187 
L 83.595922 72.639545 
L 83.639105 72.734055 
L 83.646302 71.846113 
L 83.711077 73.865268 
L 83.747063 73.034172 
L 83.75426 73.057479 
L 83.869415 74.128301 
L 83.876612 73.513327 
L 83.970176 74.390286 
L 84.08533 75.496357 
L 84.092528 75.162899 
L 84.186091 75.73205 
L 84.258063 76.172438 
L 84.394809 77.065209 
L 84.416401 76.975304 
L 84.517162 77.636423 
L 84.682697 78.601565 
L 84.77626 79.154069 
L 85.042556 80.688722 
L 86.84905 91.100036 
L 88.597966 100.486453 
L 88.965023 101.47803 
L 89.144952 101.52434 
L 89.296093 101.275319 
L 89.5336 100.355494 
L 89.94384 97.685732 
L 91.203347 87.380236 
L 93.031433 71.39544 
L 93.132193 72.045919 
L 93.153785 72.203633 
L 93.204165 69.958082 
L 93.26894 70.327625 
L 93.427278 71.318647 
L 93.54963 69.155218 
L 95.730377 51.801314 
L 98.630843 28.530493 
L 98.666829 28.562381 
L 98.789181 28.988224 
L 99.429731 32.603421 
L 105.374606 66.873861 
L 105.439381 72.198885 
L 105.482564 67.496167 
L 105.770452 69.155764 
L 105.835226 72.2669 
L 105.87841 69.778133 
L 105.950381 70.193004 
L 106.015156 72.386913 
L 106.058339 70.815369 
L 106.072734 70.898351 
L 106.187889 72.641832 
L 106.231072 72.736706 
L 106.238269 71.852598 
L 106.303043 73.866597 
L 106.339029 73.037796 
L 106.346227 73.061162 
L 106.461382 74.130786 
L 106.468579 73.518003 
L 106.562142 74.393676 
L 106.677297 75.498559 
L 106.684494 75.16606 
L 106.770861 75.715603 
L 106.90041 76.513826 
L 106.986776 76.916306 
L 107.123523 77.784021 
L 107.13072 77.700816 
L 107.303452 78.812654 
L 107.404213 79.354581 
L 107.699298 81.071895 
L 111.441834 101.279422 
L 111.679341 101.548276 
L 111.816088 101.425956 
L 112.010412 100.872755 
L 112.327088 99.159482 
L 113.010821 93.895013 
L 115.537033 72.27101 
L 115.616202 72.839461 
L 115.623399 71.396148 
L 115.72416 72.054117 
L 115.745751 72.210849 
L 115.788935 69.958758 
L 115.860906 70.337805 
L 116.012047 71.292796 
L 116.134399 69.204056 
L 117.523456 57.834489 
L 117.523456 57.834489 
" clip-path="url(#pc047395286)" style="fill: none; stroke: #000000; stroke-width: 0.8; stroke-linecap: square"/>
   </g>
   <g id="line2d_9">
    <defs>
     <path id="md2aecd4c89" d="M -3 3 
L 3 -3 
M -3 -3 
L 3 3 
" style="stroke: #ff0000"/>
    </defs>
    <g clip-path="url(#pc047395286)">
     <use xlink:href="#md2aecd4c89" x="57.189447" y="76.759738" style="fill: #ff0000; stroke: #ff0000"/>
     <use xlink:href="#md2aecd4c89" x="67.121563" y="68.27911" style="fill: #ff0000; stroke: #ff0000"/>
     <use xlink:href="#md2aecd4c89" x="79.795808" y="50.181237" style="fill: #ff0000; stroke: #ff0000"/>
     <use xlink:href="#md2aecd4c89" x="98.630843" y="28.530493" style="fill: #ff0000; stroke: #ff0000"/>
    </g>
   </g>
   <g id="LineCollection_1">
    <path d="M 57.189447 101.54873 
L 57.189447 76.759738 
" clip-path="url(#pc047395286)" style="fill: none; stroke-dasharray: 5.55,2.4; stroke-dashoffset: 0; stroke: #808080; stroke-width: 1.5"/>
   </g>
   <g id="LineCollection_2">
    <path d="M 67.121563 101.548665 
L 67.121563 68.27911 
" clip-path="url(#pc047395286)" style="fill: none; stroke-dasharray: 5.55,2.4; stroke-dashoffset: 0; stroke: #808080; stroke-width: 1.5"/>
   </g>
   <g id="LineCollection_3">
    <path d="M 79.795808 101.548729 
L 79.795808 50.181237 
" clip-path="url(#pc047395286)" style="fill: none; stroke-dasharray: 5.55,2.4; stroke-dashoffset: 0; stroke: #808080; stroke-width: 1.5"/>
   </g>
   <g id="LineCollection_4">
    <path d="M 98.630843 101.548713 
L 98.630843 28.530493 
" clip-path="url(#pc047395286)" style="fill: none; stroke-dasharray: 5.55,2.4; stroke-dashoffset: 0; stroke: #808080; stroke-width: 1.5"/>
   </g>
   <g id="patch_3">
    <path d="M 26.846471 107.997277 
L 26.846471 24.74636 
" style="fill: none; stroke: #000000; stroke-width: 0.8; stroke-linejoin: miter; stroke-linecap: square"/>
   </g>
   <g id="patch_4">
    <path d="M 121.841408 107.997277 
L 121.841408 24.74636 
" style="fill: none; stroke: #000000; stroke-width: 0.8; stroke-linejoin: miter; stroke-linecap: square"/>
   </g>
   <g id="patch_5">
    <path d="M 26.846471 107.997277 
L 121.841408 107.997277 
" style="fill: none; stroke: #000000; stroke-width: 0.8; stroke-linejoin: miter; stroke-linecap: square"/>
   </g>
   <g id="patch_6">
    <path d="M 26.846471 24.74636 
L 121.841408 24.74636 
" style="fill: none; stroke: #000000; stroke-width: 0.8; stroke-linejoin: miter; stroke-linecap: square"/>
   </g>
   <g id="text_10">
    <!-- 23.90 -->
    <g style="fill: #808080" transform="translate(47.806244 108.156539) scale(0.075 -0.075)">
     <defs>
      <path id="ArialMT-33" d="M 269 1209 
L 831 1284 
Q 928 806 1161 595 
Q 1394 384 1728 384 
Q 2125 384 2398 659 
Q 2672 934 2672 1341 
Q 2672 1728 2419 1979 
Q 2166 2231 1775 2231 
Q 1616 2231 1378 2169 
L 1441 2663 
Q 1497 2656 1531 2656 
Q 1891 2656 2178 2843 
Q 2466 3031 2466 3422 
Q 2466 3731 2256 3934 
Q 2047 4138 1716 4138 
Q 1388 4138 1169 3931 
Q 950 3725 888 3313 
L 325 3413 
Q 428 3978 793 4289 
Q 1159 4600 1703 4600 
Q 2078 4600 2393 4439 
Q 2709 4278 2876 4000 
Q 3044 3722 3044 3409 
Q 3044 3113 2884 2869 
Q 2725 2625 2413 2481 
Q 2819 2388 3044 2092 
Q 3269 1797 3269 1353 
Q 3269 753 2831 336 
Q 2394 -81 1725 -81 
Q 1122 -81 723 278 
Q 325 638 269 1209 
z
" transform="scale(0.015625)"/>
      <path id="ArialMT-2e" d="M 581 0 
L 581 641 
L 1222 641 
L 1222 0 
L 581 0 
z
" transform="scale(0.015625)"/>
      <path id="ArialMT-39" d="M 350 1059 
L 891 1109 
Q 959 728 1153 556 
Q 1347 384 1650 384 
Q 1909 384 2104 503 
Q 2300 622 2425 820 
Q 2550 1019 2634 1356 
Q 2719 1694 2719 2044 
Q 2719 2081 2716 2156 
Q 2547 1888 2255 1720 
Q 1963 1553 1622 1553 
Q 1053 1553 659 1965 
Q 266 2378 266 3053 
Q 266 3750 677 4175 
Q 1088 4600 1706 4600 
Q 2153 4600 2523 4359 
Q 2894 4119 3086 3673 
Q 3278 3228 3278 2384 
Q 3278 1506 3087 986 
Q 2897 466 2520 194 
Q 2144 -78 1638 -78 
Q 1100 -78 759 220 
Q 419 519 350 1059 
z
M 2653 3081 
Q 2653 3566 2395 3850 
Q 2138 4134 1775 4134 
Q 1400 4134 1122 3828 
Q 844 3522 844 3034 
Q 844 2597 1108 2323 
Q 1372 2050 1759 2050 
Q 2150 2050 2401 2323 
Q 2653 2597 2653 3081 
z
" transform="scale(0.015625)"/>
     </defs>
     <use xlink:href="#ArialMT-32"/>
     <use xlink:href="#ArialMT-33" transform="translate(55.615234 0)"/>
     <use xlink:href="#ArialMT-2e" transform="translate(111.230469 0)"/>
     <use xlink:href="#ArialMT-39" transform="translate(139.013672 0)"/>
     <use xlink:href="#ArialMT-30" transform="translate(194.628906 0)"/>
    </g>
   </g>
   <g id="text_11">
    <!-- 32.08 -->
    <g style="fill: #808080" transform="translate(57.73836 108.580502) scale(0.075 -0.075)">
     <defs>
      <path id="ArialMT-38" d="M 1131 2484 
Q 781 2613 612 2850 
Q 444 3088 444 3419 
Q 444 3919 803 4259 
Q 1163 4600 1759 4600 
Q 2359 4600 2725 4251 
Q 3091 3903 3091 3403 
Q 3091 3084 2923 2848 
Q 2756 2613 2416 2484 
Q 2838 2347 3058 2040 
Q 3278 1734 3278 1309 
Q 3278 722 2862 322 
Q 2447 -78 1769 -78 
Q 1091 -78 675 323 
Q 259 725 259 1325 
Q 259 1772 486 2073 
Q 713 2375 1131 2484 
z
M 1019 3438 
Q 1019 3113 1228 2906 
Q 1438 2700 1772 2700 
Q 2097 2700 2305 2904 
Q 2513 3109 2513 3406 
Q 2513 3716 2298 3927 
Q 2084 4138 1766 4138 
Q 1444 4138 1231 3931 
Q 1019 3725 1019 3438 
z
M 838 1322 
Q 838 1081 952 856 
Q 1066 631 1291 507 
Q 1516 384 1775 384 
Q 2178 384 2440 643 
Q 2703 903 2703 1303 
Q 2703 1709 2433 1975 
Q 2163 2241 1756 2241 
Q 1359 2241 1098 1978 
Q 838 1716 838 1322 
z
" transform="scale(0.015625)"/>
     </defs>
     <use xlink:href="#ArialMT-33"/>
     <use xlink:href="#ArialMT-32" transform="translate(55.615234 0)"/>
     <use xlink:href="#ArialMT-2e" transform="translate(111.230469 0)"/>
     <use xlink:href="#ArialMT-30" transform="translate(139.013672 0)"/>
     <use xlink:href="#ArialMT-38" transform="translate(194.628906 0)"/>
    </g>
   </g>
   <g id="text_12">
    <!-- 49.53 -->
    <g style="fill: #808080" transform="translate(70.412605 109.485463) scale(0.075 -0.075)">
     <use xlink:href="#ArialMT-34"/>
     <use xlink:href="#ArialMT-39" transform="translate(55.615234 0)"/>
     <use xlink:href="#ArialMT-2e" transform="translate(111.230469 0)"/>
     <use xlink:href="#ArialMT-35" transform="translate(139.013672 0)"/>
     <use xlink:href="#ArialMT-33" transform="translate(194.628906 0)"/>
    </g>
   </g>
   <g id="text_13">
    <!-- 70.40 -->
    <g style="fill: #808080" transform="translate(89.24764 110.567983) scale(0.075 -0.075)">
     <defs>
      <path id="ArialMT-37" d="M 303 3981 
L 303 4522 
L 3269 4522 
L 3269 4084 
Q 2831 3619 2401 2847 
Q 1972 2075 1738 1259 
Q 1569 684 1522 0 
L 944 0 
Q 953 541 1156 1306 
Q 1359 2072 1739 2783 
Q 2119 3494 2547 3981 
L 303 3981 
z
" transform="scale(0.015625)"/>
     </defs>
     <use xlink:href="#ArialMT-37"/>
     <use xlink:href="#ArialMT-30" transform="translate(55.615234 0)"/>
     <use xlink:href="#ArialMT-2e" transform="translate(111.230469 0)"/>
     <use xlink:href="#ArialMT-34" transform="translate(139.013672 0)"/>
     <use xlink:href="#ArialMT-30" transform="translate(194.628906 0)"/>
    </g>
   </g>
   <g id="text_14">
    <!-- Detected Q-minima with prominences -->
    <g transform="translate(-25.687311 18.74636) scale(0.12 -0.12)">
     <defs>
      <path id="ArialMT-44" d="M 494 0 
L 494 4581 
L 2072 4581 
Q 2606 4581 2888 4516 
Q 3281 4425 3559 4188 
Q 3922 3881 4101 3404 
Q 4281 2928 4281 2316 
Q 4281 1794 4159 1391 
Q 4038 988 3847 723 
Q 3656 459 3429 307 
Q 3203 156 2883 78 
Q 2563 0 2147 0 
L 494 0 
z
M 1100 541 
L 2078 541 
Q 2531 541 2789 625 
Q 3047 709 3200 863 
Q 3416 1078 3536 1442 
Q 3656 1806 3656 2325 
Q 3656 3044 3420 3430 
Q 3184 3816 2847 3947 
Q 2603 4041 2063 4041 
L 1100 4041 
L 1100 541 
z
" transform="scale(0.015625)"/>
      <path id="ArialMT-65" d="M 2694 1069 
L 3275 997 
Q 3138 488 2766 206 
Q 2394 -75 1816 -75 
Q 1088 -75 661 373 
Q 234 822 234 1631 
Q 234 2469 665 2931 
Q 1097 3394 1784 3394 
Q 2450 3394 2872 2941 
Q 3294 2488 3294 1666 
Q 3294 1616 3291 1516 
L 816 1516 
Q 847 969 1125 678 
Q 1403 388 1819 388 
Q 2128 388 2347 550 
Q 2566 713 2694 1069 
z
M 847 1978 
L 2700 1978 
Q 2663 2397 2488 2606 
Q 2219 2931 1791 2931 
Q 1403 2931 1139 2672 
Q 875 2413 847 1978 
z
" transform="scale(0.015625)"/>
      <path id="ArialMT-63" d="M 2588 1216 
L 3141 1144 
Q 3050 572 2676 248 
Q 2303 -75 1759 -75 
Q 1078 -75 664 370 
Q 250 816 250 1647 
Q 250 2184 428 2587 
Q 606 2991 970 3192 
Q 1334 3394 1763 3394 
Q 2303 3394 2647 3120 
Q 2991 2847 3088 2344 
L 2541 2259 
Q 2463 2594 2264 2762 
Q 2066 2931 1784 2931 
Q 1359 2931 1093 2626 
Q 828 2322 828 1663 
Q 828 994 1084 691 
Q 1341 388 1753 388 
Q 2084 388 2306 591 
Q 2528 794 2588 1216 
z
" transform="scale(0.015625)"/>
      <path id="ArialMT-64" d="M 2575 0 
L 2575 419 
Q 2259 -75 1647 -75 
Q 1250 -75 917 144 
Q 584 363 401 755 
Q 219 1147 219 1656 
Q 219 2153 384 2558 
Q 550 2963 881 3178 
Q 1213 3394 1622 3394 
Q 1922 3394 2156 3267 
Q 2391 3141 2538 2938 
L 2538 4581 
L 3097 4581 
L 3097 0 
L 2575 0 
z
M 797 1656 
Q 797 1019 1065 703 
Q 1334 388 1700 388 
Q 2069 388 2326 689 
Q 2584 991 2584 1609 
Q 2584 2291 2321 2609 
Q 2059 2928 1675 2928 
Q 1300 2928 1048 2622 
Q 797 2316 797 1656 
z
" transform="scale(0.015625)"/>
      <path id="ArialMT-20" transform="scale(0.015625)"/>
      <path id="ArialMT-2d" d="M 203 1375 
L 203 1941 
L 1931 1941 
L 1931 1375 
L 203 1375 
z
" transform="scale(0.015625)"/>
      <path id="ArialMT-6d" d="M 422 0 
L 422 3319 
L 925 3319 
L 925 2853 
Q 1081 3097 1340 3245 
Q 1600 3394 1931 3394 
Q 2300 3394 2536 3241 
Q 2772 3088 2869 2813 
Q 3263 3394 3894 3394 
Q 4388 3394 4653 3120 
Q 4919 2847 4919 2278 
L 4919 0 
L 4359 0 
L 4359 2091 
Q 4359 2428 4304 2576 
Q 4250 2725 4106 2815 
Q 3963 2906 3769 2906 
Q 3419 2906 3187 2673 
Q 2956 2441 2956 1928 
L 2956 0 
L 2394 0 
L 2394 2156 
Q 2394 2531 2256 2718 
Q 2119 2906 1806 2906 
Q 1569 2906 1367 2781 
Q 1166 2656 1075 2415 
Q 984 2175 984 1722 
L 984 0 
L 422 0 
z
" transform="scale(0.015625)"/>
      <path id="ArialMT-69" d="M 425 3934 
L 425 4581 
L 988 4581 
L 988 3934 
L 425 3934 
z
M 425 0 
L 425 3319 
L 988 3319 
L 988 0 
L 425 0 
z
" transform="scale(0.015625)"/>
      <path id="ArialMT-6e" d="M 422 0 
L 422 3319 
L 928 3319 
L 928 2847 
Q 1294 3394 1984 3394 
Q 2284 3394 2536 3286 
Q 2788 3178 2913 3003 
Q 3038 2828 3088 2588 
Q 3119 2431 3119 2041 
L 3119 0 
L 2556 0 
L 2556 2019 
Q 2556 2363 2490 2533 
Q 2425 2703 2258 2804 
Q 2091 2906 1866 2906 
Q 1506 2906 1245 2678 
Q 984 2450 984 1813 
L 984 0 
L 422 0 
z
" transform="scale(0.015625)"/>
      <path id="ArialMT-61" d="M 2588 409 
Q 2275 144 1986 34 
Q 1697 -75 1366 -75 
Q 819 -75 525 192 
Q 231 459 231 875 
Q 231 1119 342 1320 
Q 453 1522 633 1644 
Q 813 1766 1038 1828 
Q 1203 1872 1538 1913 
Q 2219 1994 2541 2106 
Q 2544 2222 2544 2253 
Q 2544 2597 2384 2738 
Q 2169 2928 1744 2928 
Q 1347 2928 1158 2789 
Q 969 2650 878 2297 
L 328 2372 
Q 403 2725 575 2942 
Q 747 3159 1072 3276 
Q 1397 3394 1825 3394 
Q 2250 3394 2515 3294 
Q 2781 3194 2906 3042 
Q 3031 2891 3081 2659 
Q 3109 2516 3109 2141 
L 3109 1391 
Q 3109 606 3145 398 
Q 3181 191 3288 0 
L 2700 0 
Q 2613 175 2588 409 
z
M 2541 1666 
Q 2234 1541 1622 1453 
Q 1275 1403 1131 1340 
Q 988 1278 909 1158 
Q 831 1038 831 891 
Q 831 666 1001 516 
Q 1172 366 1500 366 
Q 1825 366 2078 508 
Q 2331 650 2450 897 
Q 2541 1088 2541 1459 
L 2541 1666 
z
" transform="scale(0.015625)"/>
      <path id="ArialMT-77" d="M 1034 0 
L 19 3319 
L 600 3319 
L 1128 1403 
L 1325 691 
Q 1338 744 1497 1375 
L 2025 3319 
L 2603 3319 
L 3100 1394 
L 3266 759 
L 3456 1400 
L 4025 3319 
L 4572 3319 
L 3534 0 
L 2950 0 
L 2422 1988 
L 2294 2553 
L 1622 0 
L 1034 0 
z
" transform="scale(0.015625)"/>
      <path id="ArialMT-68" d="M 422 0 
L 422 4581 
L 984 4581 
L 984 2938 
Q 1378 3394 1978 3394 
Q 2347 3394 2619 3248 
Q 2891 3103 3008 2847 
Q 3125 2591 3125 2103 
L 3125 0 
L 2563 0 
L 2563 2103 
Q 2563 2525 2380 2717 
Q 2197 2909 1863 2909 
Q 1613 2909 1392 2779 
Q 1172 2650 1078 2428 
Q 984 2206 984 1816 
L 984 0 
L 422 0 
z
" transform="scale(0.015625)"/>
      <path id="ArialMT-72" d="M 416 0 
L 416 3319 
L 922 3319 
L 922 2816 
Q 1116 3169 1280 3281 
Q 1444 3394 1641 3394 
Q 1925 3394 2219 3213 
L 2025 2691 
Q 1819 2813 1613 2813 
Q 1428 2813 1281 2702 
Q 1134 2591 1072 2394 
Q 978 2094 978 1738 
L 978 0 
L 416 0 
z
" transform="scale(0.015625)"/>
      <path id="ArialMT-6f" d="M 213 1659 
Q 213 2581 725 3025 
Q 1153 3394 1769 3394 
Q 2453 3394 2887 2945 
Q 3322 2497 3322 1706 
Q 3322 1066 3130 698 
Q 2938 331 2570 128 
Q 2203 -75 1769 -75 
Q 1072 -75 642 372 
Q 213 819 213 1659 
z
M 791 1659 
Q 791 1022 1069 705 
Q 1347 388 1769 388 
Q 2188 388 2466 706 
Q 2744 1025 2744 1678 
Q 2744 2294 2464 2611 
Q 2184 2928 1769 2928 
Q 1347 2928 1069 2612 
Q 791 2297 791 1659 
z
" transform="scale(0.015625)"/>
      <path id="ArialMT-73" d="M 197 991 
L 753 1078 
Q 800 744 1014 566 
Q 1228 388 1613 388 
Q 2000 388 2187 545 
Q 2375 703 2375 916 
Q 2375 1106 2209 1216 
Q 2094 1291 1634 1406 
Q 1016 1563 777 1677 
Q 538 1791 414 1992 
Q 291 2194 291 2438 
Q 291 2659 392 2848 
Q 494 3038 669 3163 
Q 800 3259 1026 3326 
Q 1253 3394 1513 3394 
Q 1903 3394 2198 3281 
Q 2494 3169 2634 2976 
Q 2775 2784 2828 2463 
L 2278 2388 
Q 2241 2644 2061 2787 
Q 1881 2931 1553 2931 
Q 1166 2931 1000 2803 
Q 834 2675 834 2503 
Q 834 2394 903 2306 
Q 972 2216 1119 2156 
Q 1203 2125 1616 2013 
Q 2213 1853 2448 1751 
Q 2684 1650 2818 1456 
Q 2953 1263 2953 975 
Q 2953 694 2789 445 
Q 2625 197 2315 61 
Q 2006 -75 1616 -75 
Q 969 -75 630 194 
Q 291 463 197 991 
z
" transform="scale(0.015625)"/>
     </defs>
     <use xlink:href="#ArialMT-44"/>
     <use xlink:href="#ArialMT-65" transform="translate(72.216797 0)"/>
     <use xlink:href="#ArialMT-74" transform="translate(127.832031 0)"/>
     <use xlink:href="#ArialMT-65" transform="translate(155.615234 0)"/>
     <use xlink:href="#ArialMT-63" transform="translate(211.230469 0)"/>
     <use xlink:href="#ArialMT-74" transform="translate(261.230469 0)"/>
     <use xlink:href="#ArialMT-65" transform="translate(289.013672 0)"/>
     <use xlink:href="#ArialMT-64" transform="translate(344.628906 0)"/>
     <use xlink:href="#ArialMT-20" transform="translate(400.244141 0)"/>
     <use xlink:href="#ArialMT-51" transform="translate(428.027344 0)"/>
     <use xlink:href="#ArialMT-2d" transform="translate(505.810547 0)"/>
     <use xlink:href="#ArialMT-6d" transform="translate(539.111328 0)"/>
     <use xlink:href="#ArialMT-69" transform="translate(622.412109 0)"/>
     <use xlink:href="#ArialMT-6e" transform="translate(644.628906 0)"/>
     <use xlink:href="#ArialMT-69" transform="translate(700.244141 0)"/>
     <use xlink:href="#ArialMT-6d" transform="translate(722.460938 0)"/>
     <use xlink:href="#ArialMT-61" transform="translate(805.761719 0)"/>
     <use xlink:href="#ArialMT-20" transform="translate(861.376953 0)"/>
     <use xlink:href="#ArialMT-77" transform="translate(889.160156 0)"/>
     <use xlink:href="#ArialMT-69" transform="translate(961.376953 0)"/>
     <use xlink:href="#ArialMT-74" transform="translate(983.59375 0)"/>
     <use xlink:href="#ArialMT-68" transform="translate(1011.376953 0)"/>
     <use xlink:href="#ArialMT-20" transform="translate(1066.992188 0)"/>
     <use xlink:href="#ArialMT-70" transform="translate(1094.775391 0)"/>
     <use xlink:href="#ArialMT-72" transform="translate(1150.390625 0)"/>
     <use xlink:href="#ArialMT-6f" transform="translate(1183.691406 0)"/>
     <use xlink:href="#ArialMT-6d" transform="translate(1239.306641 0)"/>
     <use xlink:href="#ArialMT-69" transform="translate(1322.607422 0)"/>
     <use xlink:href="#ArialMT-6e" transform="translate(1344.824219 0)"/>
     <use xlink:href="#ArialMT-65" transform="translate(1400.439453 0)"/>
     <use xlink:href="#ArialMT-6e" transform="translate(1456.054688 0)"/>
     <use xlink:href="#ArialMT-63" transform="translate(1511.669922 0)"/>
     <use xlink:href="#ArialMT-65" transform="translate(1561.669922 0)"/>
     <use xlink:href="#ArialMT-73" transform="translate(1617.285156 0)"/>
    </g>
   </g>
   <g id="legend_1">
    <g id="patch_7">
     <path d="M 33.146471 57.628704 
L 100.946002 57.628704 
Q 102.746002 57.628704 102.746002 55.828704 
L 102.746002 31.04636 
Q 102.746002 29.24636 100.946002 29.24636 
L 33.146471 29.24636 
Q 31.346471 29.24636 31.346471 31.04636 
L 31.346471 55.828704 
Q 31.346471 57.628704 33.146471 57.628704 
z
" style="fill: #ffffff; opacity: 0.8; stroke: #cccccc; stroke-linejoin: miter"/>
    </g>
    <g id="line2d_10">
     <path d="M 34.946471 36.253704 
L 43.946471 36.253704 
L 52.946471 36.253704 
" style="fill: none; stroke: #000000; stroke-width: 0.8; stroke-linecap: square"/>
    </g>
    <g id="text_15">
     <!-- pQ(t) -->
     <g transform="translate(60.146471 39.403704) scale(0.09 -0.09)">
      <use xlink:href="#ArialMT-70"/>
      <use xlink:href="#ArialMT-51" transform="translate(55.615234 0)"/>
      <use xlink:href="#ArialMT-28" transform="translate(133.398438 0)"/>
      <use xlink:href="#ArialMT-74" transform="translate(166.699219 0)"/>
      <use xlink:href="#ArialMT-29" transform="translate(194.482422 0)"/>
     </g>
    </g>
    <g id="line2d_11">
     <g>
      <use xlink:href="#md2aecd4c89" x="43.946471" y="49.089954" style="fill: #ff0000; stroke: #ff0000"/>
     </g>
    </g>
    <g id="text_16">
     <!-- Q-minima -->
     <g transform="translate(60.146471 52.239954) scale(0.09 -0.09)">
      <use xlink:href="#ArialMT-51"/>
      <use xlink:href="#ArialMT-2d" transform="translate(77.783203 0)"/>
      <use xlink:href="#ArialMT-6d" transform="translate(111.083984 0)"/>
      <use xlink:href="#ArialMT-69" transform="translate(194.384766 0)"/>
      <use xlink:href="#ArialMT-6e" transform="translate(216.601562 0)"/>
      <use xlink:href="#ArialMT-69" transform="translate(272.216797 0)"/>
      <use xlink:href="#ArialMT-6d" transform="translate(294.433594 0)"/>
      <use xlink:href="#ArialMT-61" transform="translate(377.734375 0)"/>
     </g>
    </g>
   </g>
  </g>
 </g>
 <defs>
  <clipPath id="pc047395286">
   <rect x="26.846471" y="24.74636" width="94.994937" height="83.250916"/>
  </clipPath>
 </defs>
</svg>
